<svg viewBox="0 0 24 24" fill="none" xmlns="http://www.w3.org/2000/svg">
<rect fill="none"/>
<path d="M20 4.93506C20 4.41558 19.5844 4 19.0649 4H4.93506C4.41558 4 4 4.41558 4 4.93506V19.0649C4 19.5844 4.41558 20 4.93506 20H19.0649C19.5844 20 20 19.5844 20 19.0649V4.93506ZM18.1299 18.1299H5.87013V5.87013H18.1299V18.1299Z" fill="currentcolor"/>
<path fill-rule="evenodd" clip-rule="evenodd" d="M12 15C13.6569 15 15 13.6569 15 12C15 10.3431 13.6569 9 12 9C10.3431 9 9 10.3431 9 12C9 13.6569 10.3431 15 12 15ZM12 17C14.7614 17 17 14.7614 17 12C17 9.23858 14.7614 7 12 7C9.23858 7 7 9.23858 7 12C7 14.7614 9.23858 17 12 17Z" fill="currentcolor"/>
<circle cx="12" cy="12" r="1" fill="currentcolor"/>
</svg>
