<svg width="24" height="24" viewBox="0 0 24 24" fill="none" xmlns="http://www.w3.org/2000/svg">
<rect width="24" height="24" fill="none"/>
<path d="M12.0047 7.93999C11.5647 7.93999 11.2047 7.57999 11.2047 7.13999V3.7C11.2047 3.26 11.5647 2.9 12.0047 2.9C12.4447 2.9 12.8047 3.26 12.8047 3.7V7.13999C12.8047 7.57999 12.4447 7.93999 12.0047 7.93999ZM9.62472 8.72C9.98472 8.45999 10.0647 7.96 9.80472 7.6L7.78472 4.81999C7.52472 4.45999 7.02472 4.37999 6.66472 4.63999C6.30472 4.89999 6.22472 5.40001 6.48472 5.76001L8.50472 8.53999C8.66472 8.75999 8.90473 8.86001 9.14473 8.86001C9.30473 8.88001 9.48472 8.81999 9.62472 8.72ZM8.14473 10.74C8.28473 10.32 8.04472 9.85999 7.62472 9.73999L4.34473 8.68C3.92473 8.54 3.46473 8.78 3.34473 9.2C3.20473 9.62 3.44472 10.08 3.86472 10.2L7.14473 11.26C7.22473 11.28 7.30472 11.3 7.38472 11.3C7.72472 11.3 8.02472 11.08 8.14473 10.74ZM4.34473 15.32L7.62472 14.26C8.04472 14.12 8.28473 13.68 8.14473 13.26C8.00472 12.84 7.56472 12.62 7.14473 12.74L3.86472 13.8C3.44472 13.94 3.20473 14.38 3.34473 14.8C3.44473 15.14 3.76472 15.36 4.10472 15.36C4.18472 15.36 4.26473 15.36 4.34473 15.32ZM7.76472 19.18L9.80472 16.4C10.0647 16.04 9.98472 15.54 9.62472 15.28C9.26472 15.02 8.76472 15.1 8.50472 15.46L6.48472 18.24C6.22472 18.6 6.30472 19.1 6.66472 19.36C6.80472 19.46 6.96472 19.52 7.12472 19.52C7.36472 19.52 7.60472 19.4 7.76472 19.18ZM12.8047 20.3V16.86C12.8047 16.42 12.4447 16.06 12.0047 16.06C11.5647 16.06 11.2047 16.42 11.2047 16.86V20.3C11.2047 20.74 11.5647 21.1 12.0047 21.1C12.4447 21.1 12.8047 20.74 12.8047 20.3ZM17.3647 19.36C17.7247 19.1 17.8047 18.6 17.5447 18.24L15.5247 15.46C15.2647 15.1 14.7647 15.02 14.4047 15.28C14.0447 15.54 13.9647 16.04 14.2247 16.4L16.2447 19.18C16.4047 19.4 16.6447 19.5 16.8847 19.5C17.0447 19.52 17.2247 19.46 17.3647 19.36ZM20.6647 14.82C20.8047 14.4 20.5647 13.94 20.1447 13.82L16.8647 12.76C16.4447 12.62 15.9847 12.86 15.8647 13.28C15.7247 13.7 15.9647 14.16 16.3847 14.28L19.6647 15.34C19.7447 15.36 19.8247 15.38 19.9047 15.38C20.2447 15.36 20.5647 15.14 20.6647 14.82ZM16.8647 11.26L20.1447 10.2C20.5647 10.06 20.8047 9.62 20.6647 9.2C20.5247 8.78 20.0847 8.56 19.6647 8.68L16.3847 9.73999C15.9647 9.87999 15.7247 10.32 15.8647 10.74C15.9647 11.08 16.2847 11.3 16.6247 11.3C16.7047 11.3 16.7847 11.28 16.8647 11.26ZM15.5047 8.53999L17.5247 5.76001C17.7847 5.40001 17.7047 4.89999 17.3447 4.63999C16.9847 4.37999 16.4847 4.45999 16.2247 4.81999L14.2047 7.6C13.9447 7.96 14.0247 8.45999 14.3847 8.72C14.5247 8.81999 14.6847 8.88 14.8447 8.88C15.1047 8.88 15.3447 8.75999 15.5047 8.53999Z" fill="#F8FAFC"/>
</svg>
