<svg width="24" height="24" viewBox="0 0 24 24" fill="none" xmlns="http://www.w3.org/2000/svg">
<rect width="24" height="24" fill="none"/>
<path d="M21.1051 9.66001C20.9251 9.06001 20.5651 8.58005 20.0251 8.30005C19.3451 7.94005 18.5451 7.98003 17.9851 8.08003L16.8051 3.96001C16.7251 3.68001 16.5051 3.46005 16.2251 3.40005C15.9451 3.34005 15.6451 3.42008 15.4451 3.64008C12.5851 6.84009 11.4051 7.62005 8.24506 9.00005L5.76506 9.72007C3.58506 10.3601 2.32506 12.6601 2.94506 14.8401C3.24506 15.9001 3.94506 16.8001 4.92506 17.3401C5.54506 17.6801 6.22506 17.86 6.90506 17.86C7.22506 17.86 7.56507 17.8201 7.88507 17.7401L8.14506 18.68C8.28506 19.18 8.56506 19.62 8.92506 19.98L9.34506 20.38C9.50506 20.52 9.70506 20.6 9.90506 20.6C10.1251 20.6 10.3251 20.52 10.4851 20.36C10.7851 20.04 10.7851 19.5401 10.4451 19.2201L10.0251 18.8201C9.86506 18.6601 9.74507 18.4601 9.68507 18.2401L9.42506 17.3L10.5851 16.96C13.9051 16.46 15.4051 16.5 19.4651 17.66C19.5451 17.68 19.6051 17.7 19.6851 17.7C19.8851 17.7 20.1051 17.62 20.2451 17.46C20.4451 17.26 20.5251 16.96 20.4451 16.68L19.2651 12.58C19.7851 12.38 20.4851 12.02 20.8851 11.36C21.2051 10.86 21.2851 10.28 21.1051 9.66001ZM5.72506 15.96C5.12506 15.64 4.70506 15.0801 4.50506 14.4401C4.12506 13.0801 4.90506 11.68 6.22506 11.28L8.02506 10.76L8.84506 13.66L9.40506 15.66L7.60506 16.18C6.98506 16.36 6.30506 16.28 5.72506 15.96ZM13.8651 15.08C12.9651 15.08 12.0651 15.16 11.0051 15.3L9.84506 11.2L9.56506 10.2C12.1251 9.04005 13.4851 8.14003 15.7051 5.78003L18.5451 15.76C16.6251 15.28 15.2651 15.08 13.8651 15.08ZM19.5451 10.5401C19.4251 10.7601 19.1251 10.9201 18.8451 11.0401L18.4451 9.64008C18.7451 9.60008 19.0851 9.60007 19.3051 9.72007C19.4051 9.78007 19.5051 9.86003 19.5851 10.08C19.6451 10.32 19.5851 10.4401 19.5451 10.5401ZM14.4851 9.22007C14.7051 9.54007 14.6451 9.98005 14.3251 10.2C13.5851 10.72 12.7451 11.18 12.7051 11.2C12.6051 11.26 12.4851 11.28 12.3851 11.28C12.1251 11.28 11.8851 11.14 11.7651 10.9C11.5851 10.56 11.7251 10.14 12.0651 9.96001C12.0651 9.96001 12.8651 9.54003 13.5051 9.08003C13.8051 8.82003 14.2451 8.90007 14.4851 9.22007Z" fill="#F8FAFC"/>
</svg>
