<svg width="24" height="24" viewBox="0 0 24 24" fill="none" xmlns="http://www.w3.org/2000/svg">
<rect width="24" height="24" fill="none"/>
<path d="M19.6052 12.56V20.4C19.6052 20.84 19.2452 21.2 18.8052 21.2C18.3652 21.2 18.0052 20.84 18.0052 20.4V12.56C18.0052 12.12 18.3652 11.76 18.8052 11.76C19.2452 11.76 19.6052 12.12 19.6052 12.56ZM18.8052 5.07998C19.2452 5.07998 19.6052 4.71998 19.6052 4.27998V3.6C19.6052 3.16 19.2452 2.8 18.8052 2.8C18.3652 2.8 18.0052 3.16 18.0052 3.6V4.27998C18.0052 4.71998 18.3652 5.07998 18.8052 5.07998ZM7.5852 12C7.5852 13.32 6.5052 14.4 5.2052 14.4C3.9052 14.4 2.82519 13.32 2.82519 12C2.82519 10.68 3.9052 9.6 5.2052 9.6C6.5052 9.6 7.5852 10.68 7.5852 12ZM5.9852 12C5.9852 11.56 5.6252 11.2 5.2052 11.2C4.7852 11.2 4.42519 11.56 4.42519 12C4.42519 12.44 4.7852 12.8 5.2052 12.8C5.6252 12.8 5.9852 12.44 5.9852 12ZM14.3852 15.94C14.3852 17.26 13.3052 18.34 12.0052 18.34C10.7052 18.34 9.62519 17.26 9.62519 15.94C9.62519 14.62 10.7052 13.54 12.0052 13.54C13.3052 13.54 14.3852 14.6 14.3852 15.94ZM12.7852 15.94C12.7852 15.5 12.4252 15.14 12.0052 15.14C11.5852 15.14 11.2252 15.5 11.2252 15.94C11.2252 16.38 11.5852 16.74 12.0052 16.74C12.4252 16.74 12.7852 16.38 12.7852 15.94ZM21.2052 8.52002C21.2052 9.84002 20.1252 10.92 18.8252 10.92C17.5252 10.92 16.4452 9.84002 16.4452 8.52002C16.4452 7.20002 17.5252 6.12002 18.8252 6.12002C20.1252 6.12002 21.2052 7.20002 21.2052 8.52002ZM19.6052 8.52002C19.6052 8.08002 19.2452 7.72002 18.8252 7.72002C18.4052 7.72002 18.0452 8.08002 18.0452 8.52002C18.0452 8.96002 18.4052 9.32002 18.8252 9.32002C19.2452 9.32002 19.6052 8.98002 19.6052 8.52002ZM12.0052 19.14C11.5652 19.14 11.2052 19.5 11.2052 19.94V20.4C11.2052 20.84 11.5652 21.2 12.0052 21.2C12.4452 21.2 12.8052 20.84 12.8052 20.4V19.94C12.8052 19.5 12.4452 19.14 12.0052 19.14ZM12.0052 12.54C12.4452 12.54 12.8052 12.18 12.8052 11.74V3.6C12.8052 3.16 12.4452 2.8 12.0052 2.8C11.5652 2.8 11.2052 3.16 11.2052 3.6V11.74C11.2052 12.18 11.5652 12.54 12.0052 12.54ZM5.2052 15.46C4.7652 15.46 4.4052 15.82 4.4052 16.26V20.4C4.4052 20.84 4.7652 21.2 5.2052 21.2C5.6452 21.2 6.0052 20.84 6.0052 20.4V16.26C6.0052 15.82 5.6452 15.46 5.2052 15.46ZM5.2052 8.57998C5.6452 8.57998 6.0052 8.21998 6.0052 7.77998V3.6C6.0052 3.16 5.6452 2.8 5.2052 2.8C4.7652 2.8 4.4052 3.16 4.4052 3.6V7.77998C4.4052 8.21998 4.7652 8.57998 5.2052 8.57998Z" fill="#F8FAFC"/>
</svg>
