<svg width="24" height="24" viewBox="0 0 24 24" fill="none" xmlns="http://www.w3.org/2000/svg">
<rect width="24" height="24" fill="none"/>
<path d="M9.62791 17.5574L4.64791 12.5574C4.48791 12.3974 4.40791 12.1974 4.40791 11.9974C4.40791 11.7974 4.48791 11.5974 4.64791 11.4374L9.62791 6.43736C9.94791 6.11736 10.4479 6.11736 10.7679 6.43736C11.0879 6.75736 11.0879 7.25738 10.7679 7.57738L7.14791 11.2174L18.8079 11.2174C19.2479 11.2174 19.6079 11.5774 19.6079 12.0174C19.6079 12.4574 19.2479 12.8174 18.8079 12.8174L7.1279 12.8174L10.7479 16.4574C11.0679 16.7774 11.0679 17.2774 10.7479 17.5974C10.4479 17.8774 9.94791 17.8774 9.62791 17.5574Z" fill="#F8FAFC"/>
</svg>
