<svg viewBox="0 0 24 24" fill="none" xmlns="http://www.w3.org/2000/svg">
<rect fill="none"/>
<path d="M18.5934 16.88C19.0734 17.36 19.0734 18.1067 18.5934 18.5867C18.3534 18.8267 18.0601 18.9333 17.7401 18.9333C17.4201 18.9333 17.1267 18.8267 16.8867 18.5867L12.0067 13.7067L7.12671 18.5867C6.88671 18.8267 6.59339 18.9333 6.27339 18.9333C5.95339 18.9333 5.66007 18.8267 5.42007 18.5867C4.94007 18.1067 4.94007 17.36 5.42007 16.88L10.3001 12L5.42007 7.11999C4.94007 6.63999 4.94007 5.89332 5.42007 5.41332C5.90007 4.93332 6.64671 4.93332 7.12671 5.41332L12.0067 10.2933L16.8867 5.41332C17.3667 4.93332 18.1134 4.93332 18.5934 5.41332C19.0734 5.89332 19.0734 6.63999 18.5934 7.11999L13.7134 12L18.5934 16.88Z" fill="currentcolor"/>
</svg>
