<svg width="24" height="24" viewBox="0 0 24 24" fill="none" xmlns="http://www.w3.org/2000/svg">
<rect width="24" height="24" fill="none"/>
<path fill-rule="evenodd" clip-rule="evenodd" d="M12.6089 18.5667C12.6089 18.1525 12.9447 17.8167 13.3589 17.8167H18.9998C19.414 17.8167 19.7498 18.1525 19.7498 18.5667C19.7498 18.9809 19.414 19.3167 18.9998 19.3167H13.3589C12.9447 19.3167 12.6089 18.9809 12.6089 18.5667Z" fill="#F8FAFC"/>
<path fill-rule="evenodd" clip-rule="evenodd" d="M15.5145 4.45105C14.6697 3.75404 13.4247 3.87872 12.7322 4.72904L4.32116 15.5369C4.03887 15.8987 3.93631 16.3688 4.03887 16.8164L4.77101 20L8.02047 19.9581C8.47844 19.953 8.90696 19.7394 9.18926 19.3776C9.18926 19.3776 17.6744 8.47371 17.7049 8.42363C18.2786 7.48848 17.9902 6.26309 17.0621 5.68667C17.0621 5.68667 15.5612 4.48887 15.5145 4.45105ZM16.267 7.44022C16.2941 7.36015 16.2703 7.26206 16.1713 7.20057C16.1139 7.16495 16.0586 7.12592 16.0057 7.08368L15.2493 6.47994C14.8737 6.18011 14.4783 5.8644 14.4488 5.84053L14.4363 5.83043C14.321 5.73527 14.1487 5.75585 14.0593 5.85666L5.74476 16.5405L6.12947 18.2133L7.90854 18.1904L9.17048 16.5686C9.9664 15.5456 11.0279 14.1811 12.0904 12.8151C13.1529 11.449 14.2162 10.0816 15.0157 9.05268C15.4155 8.53814 15.749 8.10864 15.9834 7.80638C16.1007 7.65511 16.1926 7.53646 16.2554 7.45518L16.267 7.44022ZM16.3378 7.3481L16.3345 7.35243C16.3541 7.32559 16.3606 7.31809 16.3378 7.3481Z" fill="#F8FAFC"/>
<path fill-rule="evenodd" clip-rule="evenodd" d="M11.3231 6.99741C11.619 6.61676 12.1675 6.54807 12.5481 6.84399L15.1474 8.86464C15.528 9.16056 15.5967 9.70903 15.3008 10.0897C15.0049 10.4703 14.4564 10.539 14.0757 10.2431L11.4765 8.22244C11.0959 7.92652 11.0272 7.37805 11.3231 6.99741Z" fill="#F8FAFC"/>
</svg>
