<svg width="24" height="24" viewBox="0 0 24 24" fill="none" xmlns="http://www.w3.org/2000/svg">
<rect width="24" height="24" fill="none"/>
<path fill-rule="evenodd" clip-rule="evenodd" d="M12.0368 4.71013C8.01034 4.68986 4.73039 7.93694 4.71012 11.9634C4.68985 15.989 7.93699 19.2698 11.9634 19.2901C15.989 19.3103 19.2698 16.0624 19.2901 12.0368C19.3103 8.0104 16.0624 4.7304 12.0368 4.71013ZM3.21014 11.9558C3.23458 7.10097 7.18947 3.1857 12.0443 3.21015C16.8983 3.23458 20.8145 7.18942 20.79 12.0444C20.7656 16.8984 16.8098 20.8145 11.9558 20.79C7.10091 20.7656 3.1857 16.8098 3.21014 11.9558Z" fill="#F8FAFC"/>
<path fill-rule="evenodd" clip-rule="evenodd" d="M12.0161 7.95074C12.4303 7.95283 12.7644 8.2903 12.7623 8.70451L12.743 12.5454C12.7409 12.9596 12.4034 13.2937 11.9892 13.2917C11.575 13.2896 11.2409 12.9521 11.243 12.5379L11.2623 8.69696C11.2644 8.28275 11.6019 7.94866 12.0161 7.95074Z" fill="#F8FAFC"/>
<path fill-rule="evenodd" clip-rule="evenodd" d="M10.9789 15.2945C10.9816 14.7422 11.4316 14.2967 11.9839 14.2995L11.9926 14.2996C12.5448 14.3023 12.9903 14.7523 12.9875 15.3046C12.9847 15.8569 12.5348 16.3023 11.9825 16.2995L11.9738 16.2995C11.4215 16.2967 10.9761 15.8467 10.9789 15.2945Z" fill="#F8FAFC"/>
</svg>
