<svg width="24" height="24" viewBox="0 0 24 24" fill="none" xmlns="http://www.w3.org/2000/svg">
<rect width="24" height="24" fill="none"/>
<path fill-rule="evenodd" clip-rule="evenodd" d="M4.31325 11.2431C3.40937 8.42111 4.46573 5.19562 7.4284 4.24119C8.98681 3.73829 10.707 4.03481 12.0026 5.00945C13.2282 4.06177 15.0116 3.74166 16.5683 4.24119C19.531 5.19562 20.5941 8.42111 19.691 11.2431C18.2842 15.7162 12.0026 19.1615 12.0026 19.1615C12.0026 19.1615 5.76721 15.7684 4.31325 11.2431ZM15.603 6.40321C15.2088 6.27577 14.786 6.49195 14.6586 6.88607C14.5311 7.28019 14.7473 7.703 15.1415 7.83045C15.7545 8.02868 16.1874 8.57556 16.2395 9.21777C16.273 9.63063 16.6349 9.93814 17.0477 9.90463C17.4606 9.87111 17.7681 9.50926 17.7346 9.0964C17.6334 7.84998 16.7926 6.78791 15.603 6.40321Z" fill="#F8FAFC"/>
</svg>
