<svg width="24" height="24" viewBox="0 0 24 24" fill="none" xmlns="http://www.w3.org/2000/svg">
<rect width="24" height="24" fill="none"/>
<path d="M10.3903 3.06071C10.097 2.93929 9.7842 3 9.54959 3.24286L5.69803 7.25H3.78204C3.35192 7.25 3 7.61429 3 8.05952V14.9405C3 15.3857 3.35192 15.75 3.78204 15.75H5.69803L9.54959 19.7571C9.706 19.919 9.90149 20 10.097 20C10.1948 20 10.273 19.9798 10.3707 19.9393C10.664 19.8179 10.8204 19.5143 10.8204 19.1905V3.80952C10.84 3.48571 10.6835 3.18214 10.3903 3.06071ZM9.27587 17.2274L6.55828 14.3738C6.40187 14.2119 6.24547 14.131 6.03041 14.131H4.58363V8.86905H6.03041C6.24547 8.86905 6.40187 8.78809 6.55828 8.62619L9.27587 5.77262V17.2274ZM13.4207 14.9202C13.2643 15.1024 13.0492 15.1833 12.8341 15.1833C12.6582 15.1833 12.4627 15.1226 12.3063 14.981C11.9935 14.6774 11.9543 14.1714 12.2476 13.8476C14.2027 11.581 12.4431 9.39524 12.2476 9.15238C11.9543 8.80833 11.9935 8.30238 12.3063 8.01905C12.6191 7.71548 13.1274 7.75595 13.4012 8.07976C14.4374 9.25357 15.7668 12.2083 13.4207 14.9202ZM15.7864 17.0857C15.63 17.2679 15.4149 17.3488 15.1998 17.3488C15.0239 17.3488 14.8284 17.2881 14.672 17.1464C14.3591 16.8429 14.32 16.3369 14.6133 16.0131C18.4649 11.5405 14.7697 7.16905 14.6133 6.9869C14.32 6.6631 14.3591 6.1369 14.672 5.85357C14.9848 5.55 15.4931 5.59048 15.7864 5.91429C15.8255 5.95476 20.5568 11.5607 15.7864 17.0857ZM18.2498 18.725C18.0934 18.9071 17.8783 18.9881 17.6632 18.9881C17.4873 18.9881 17.2918 18.9274 17.1354 18.7857C16.8225 18.4821 16.7834 17.9762 17.0767 17.6524C19.2664 15.1024 19.9507 12.269 19.0709 9.25357C18.4062 6.94643 17.0963 5.40833 17.0767 5.3881C16.7834 5.06429 16.8225 4.5381 17.1354 4.25476C17.4482 3.95119 17.9565 3.99167 18.2498 4.31548C18.3084 4.35595 24.4083 11.581 18.2498 18.725Z" fill="#F8FAFC"/>
</svg>
