<svg width="120" height="21" viewBox="0 0 120 21" fill="none" xmlns="http://www.w3.org/2000/svg">
<g clip-path="url(#clip0)">
<rect width="120" height="21" fill="none"/>
<path fill-rule="evenodd" clip-rule="evenodd" d="M120 15.7664H113.759L112.051 13.7696C111.996 13.6931 111.659 13.2877 111.039 12.5533C110.42 11.8112 110.009 11.3063 109.807 11.0385C108.878 12.2778 108.118 13.2571 107.53 13.9762L106.054 15.7664H99.9055L106.739 7.4926L100.219 -0.13855H106.425L107.53 1.1926C108.165 1.96528 108.924 2.92921 109.807 4.0844C110.652 2.86036 111.326 1.9538 111.83 1.36473L113.097 -0.13855H119.186L112.922 7.4926L120 15.7664ZM7.92621 13.7926C7.92621 15.2079 7.80999 16.409 7.57755 17.3959C7.35286 18.3828 6.84149 19.2052 6.04345 19.8631C5.2454 20.5287 4.05608 20.8615 2.47549 20.8615C1.89439 20.8615 0.581101 20.8079 0 20.7008V16.868C0.612093 16.8527 1.11184 16.8183 1.49924 16.7647C1.88664 16.7112 2.20043 16.5888 2.44062 16.3975C2.68081 16.2139 2.85127 15.927 2.95199 15.5369C3.02947 15.2308 3.06821 14.3549 3.06821 12.909V-0.138546L7.92621 -0.138546V13.7926ZM28.7877 8.64014C28.7877 10.0019 28.5282 11.1647 28.0091 12.1287C27.4977 13.0849 26.8159 13.8423 25.9636 14.4008C25.119 14.9593 24.2048 15.3609 23.2208 15.6057C22.2445 15.8505 21.2683 15.9729 20.292 15.9729C18.9284 15.9729 17.5996 15.7434 16.3057 15.2844C15.0195 14.8254 13.9425 14.0451 13.0748 12.9434C12.207 11.8418 11.7731 10.4074 11.7731 8.64014V-0.138546L16.6195 -0.138546V7.4008C16.6195 8.44888 16.7706 9.31719 17.0727 10.0057C17.3827 10.6866 17.8088 11.1877 18.3512 11.509C18.9013 11.8227 19.5482 11.9795 20.292 11.9795C21.0049 11.9795 21.6363 11.8227 22.1864 11.509C22.7365 11.1953 23.1627 10.6981 23.4648 10.0172C23.7748 9.33632 23.9297 8.47184 23.9297 7.42375V-0.138546L28.7877 -0.138546V8.64014ZM43.6174 15.7664H49.5447L42.5714 7.30899L48.5684 -0.138546L43.292 -0.138546L37.4578 6.97621V-0.138546L32.5998 -0.138546V15.7664H37.4578V8.31883L43.6174 15.7664ZM63.8049 15.7664H51.6599V-0.138546L63.6073 -0.138546V3.05162H56.5179V5.96637L63.2819 5.96637V9.16801H56.5179V12.5647H63.8049V15.7664ZM80.3546 14.5385C81.3076 13.7199 81.7841 12.6259 81.7841 11.2565C81.7841 10.2161 81.4936 9.37074 80.9125 8.72047C80.3391 8.06255 79.5023 7.51938 78.4021 7.09096C78.7508 6.96091 79.0956 6.73905 79.4365 6.42539C79.7851 6.10408 80.0757 5.69861 80.3081 5.20899C80.5406 4.71173 80.6568 4.17238 80.6568 3.59096C80.6568 3.05544 80.5444 2.562 80.3197 2.11063C80.0951 1.65927 79.7541 1.2691 79.297 0.940143C78.8399 0.603531 78.2355 0.339596 77.484 0.148339C76.7402 -0.0429175 75.8646 -0.138546 74.8574 -0.138546L67.0707 -0.138546V15.7664H76.3799C78.0844 15.7664 79.4094 15.3571 80.3546 14.5385ZM75.3455 2.91391C75.8569 3.16637 76.1126 3.67511 76.1126 4.44014C76.1126 5.20517 75.8646 5.71391 75.3688 5.96637C74.8806 6.21883 74.0826 6.34506 72.9746 6.34506H71.9287V2.53522H72.9514C74.0361 2.53522 74.8342 2.66145 75.3455 2.91391ZM73.9044 9.01883C75.9034 9.01883 76.9029 9.6997 76.9029 11.0615C76.9029 12.4156 75.9034 13.0926 73.9044 13.0926H71.9287V9.01883H73.9044ZM92.0049 0C87.3602 0 83.5944 3.55852 83.5944 7.94758C83.5944 12.3366 87.3602 15.8952 92.0049 15.8952C96.6495 15.8952 100.415 12.3366 100.415 7.94758C100.415 3.55852 96.6495 0 92.0049 0ZM86.0017 5.7691C85.9304 5.94522 85.7283 6.03994 85.5386 5.9828L85.5361 5.98201C85.334 5.92096 85.2247 5.71196 85.3 5.52487C85.6488 4.65911 86.1914 3.84737 86.9286 3.15069C87.6659 2.45402 88.5249 1.9413 89.4411 1.61175C89.639 1.54051 89.8602 1.64384 89.9248 1.83484L89.9257 1.8364C89.9869 2.01566 89.8859 2.20666 89.6995 2.27398C88.8811 2.56909 88.1148 3.02623 87.4563 3.64854C86.7977 4.27164 86.314 4.99571 86.0017 5.7691ZM86.8425 6.3781C86.6362 6.31548 86.5302 6.10178 86.6097 5.91156C86.8922 5.23916 87.3204 4.60902 87.8953 4.06498C88.4702 3.52173 89.137 3.11704 89.8494 2.85011C90.0507 2.77496 90.2769 2.87516 90.3431 3.07007C90.402 3.24463 90.3108 3.43484 90.1311 3.50295C89.509 3.73622 88.9258 4.08925 88.423 4.56361C87.9202 5.03876 87.5466 5.58984 87.3006 6.17771C87.2293 6.34757 87.0272 6.43368 86.8425 6.3781ZM87.9459 7.94758C87.9459 5.82937 89.7633 4.11195 92.0049 4.11195C94.2464 4.11195 96.0639 5.82937 96.0639 7.94758C96.0639 10.0658 94.2464 11.7832 92.0049 11.7832C89.7633 11.7832 87.9459 10.0658 87.9459 7.94758ZM93.6657 12.8251C93.6069 12.6505 93.698 12.4603 93.8778 12.3922C94.4999 12.1589 95.0831 11.8059 95.5859 11.3315C96.0887 10.8564 96.4623 10.3053 96.7083 9.71745C96.7796 9.5468 96.9817 9.4607 97.1664 9.51706C97.3727 9.57968 97.4787 9.79338 97.3992 9.98359C97.1167 10.656 96.6884 11.2861 96.1136 11.8302C95.5387 12.3734 94.8718 12.7781 94.1594 13.0451C93.9581 13.1202 93.732 13.02 93.6657 12.8251ZM97.0803 12.7437C96.343 13.4404 95.484 13.9531 94.5678 14.2826C94.3698 14.3539 94.1487 14.2505 94.0841 14.0595L94.0832 14.058C94.0219 13.8787 94.123 13.6877 94.3094 13.6204C95.1278 13.3253 95.894 12.8681 96.5526 12.2458C97.2111 11.6235 97.6949 10.8994 98.0072 10.1261C98.0784 9.94993 98.2806 9.85522 98.4703 9.91236L98.4719 9.91314C98.674 9.9742 98.7834 10.1832 98.708 10.3703C98.3601 11.2353 97.8175 12.047 97.0803 12.7437ZM93.0204 7.94798C93.0204 8.63151 92.4518 9.18562 91.7504 9.18562C91.049 9.18562 90.4804 8.63151 90.4804 7.94798C90.4804 7.26445 91.049 6.71034 91.7504 6.71034C92.4518 6.71034 93.0204 7.26445 93.0204 7.94798Z" fill="currentcolor"/>
</g>
<defs>
<clipPath id="clip0">
<rect width="120" height="21" fill="none"/>
</clipPath>
</defs>
</svg>
