<svg width="24" height="24" viewBox="0 0 24 24" fill="none" xmlns="http://www.w3.org/2000/svg">
<rect width="24" height="24" fill="none"/>
<path d="M17.7 11.3686L9.3 4.76859C9.06 4.58859 8.74 4.54859 8.46 4.66859C8.18 4.80859 8 5.08859 8 5.38859V18.5886C8 18.8886 8.18 19.1686 8.46 19.3086C8.58 19.3686 8.7 19.3886 8.8 19.3886C8.98 19.3886 9.16 19.3286 9.3 19.2086L17.7 12.6086C17.9 12.4486 18 12.2286 18 11.9886C18 11.7486 17.88 11.5086 17.7 11.3686ZM9.6 16.9486V7.02859L15.9 11.9886L9.6 16.9486Z" fill="#F8FAFC"/>
</svg>
