<svg width="24" height="24" viewBox="0 0 24 24" fill="none" xmlns="http://www.w3.org/2000/svg">
<rect width="24" height="24" fill="none"/>
<path d="M5.94515 7.2C5.94515 6.76 6.30515 6.4 6.74515 6.4H17.2451C17.6851 6.4 18.0451 6.76 18.0451 7.2C18.0451 7.64 17.6851 8 17.2451 8H6.74515C6.30515 8 5.94515 7.64 5.94515 7.2ZM8.06517 5.2H15.9451C16.3251 5.2 16.6451 4.88 16.6451 4.5C16.6451 4.12 16.3251 3.8 15.9451 3.8H8.06517C7.68517 3.8 7.36517 4.12 7.36517 4.5C7.36517 4.88 7.68517 5.2 8.06517 5.2ZM21.2052 8.12002V10.3C21.2052 10.38 21.1852 10.46 21.1652 10.52L18.6052 19.8C18.5052 20.14 18.1852 20.38 17.8252 20.38H6.10516C5.74516 20.38 5.42515 20.14 5.32515 19.78L2.80516 10.5C2.78516 10.46 2.78516 10.42 2.78516 10.38C2.78516 10.34 2.78516 10.3 2.78516 10.26V8.1C2.78516 7.66 3.14516 7.3 3.58516 7.3C4.02516 7.3 4.38516 7.66 4.38516 8.1V9.57998H19.5852V8.1C19.5852 7.66 19.9452 7.3 20.3852 7.3C20.8252 7.3 21.2052 7.68002 21.2052 8.12002ZM19.3451 11.2H4.64515L6.72515 18.8H11.9852H17.2052L19.3451 11.2ZM9.64515 15.2H14.3652C14.8052 15.2 15.1652 14.84 15.1652 14.4C15.1652 13.96 14.8052 13.6 14.3652 13.6H9.64515C9.20515 13.6 8.84515 13.96 8.84515 14.4C8.84515 14.84 9.20515 15.2 9.64515 15.2Z" fill="#F8FAFC"/>
</svg>
