<svg width="24" height="24" viewBox="0 0 24 24" fill="none" xmlns="http://www.w3.org/2000/svg">
<rect width="24" height="24" fill="none"/>
<path d="M9.3999 5.4V18.6C9.3999 19.16 8.9599 19.6 8.3999 19.6C7.8399 19.6 7.3999 19.16 7.3999 18.6V5.4C7.3999 4.84 7.8399 4.4 8.3999 4.4C8.9599 4.4 9.3999 4.84 9.3999 5.4ZM15.5999 4.4C15.0399 4.4 14.5999 4.84 14.5999 5.4V18.6C14.5999 19.16 15.0399 19.6 15.5999 19.6C16.1599 19.6 16.5999 19.16 16.5999 18.6V5.4C16.5999 4.84 16.1599 4.4 15.5999 4.4Z" fill="#F8FAFC"/>
</svg>
