<svg width="24" height="24" viewBox="0 0 24 24" fill="none" xmlns="http://www.w3.org/2000/svg">
<rect width="24" height="24" fill="none"/>
<path d="M18.4853 8.68L17.8653 20.24C17.8453 20.66 17.4853 21 17.0653 21H6.92527C6.50527 21 6.14527 20.66 6.12527 20.24L5.50527 8.68C5.48527 8.24 5.82528 7.85999 6.26528 7.83999C6.70528 7.81999 7.08527 8.16 7.10527 8.6L7.68528 19.4H16.3053L16.8853 8.6C16.9053 8.16 17.2853 7.81999 17.7253 7.83999C18.1653 7.85999 18.5053 8.24 18.4853 8.68ZM20.6053 6C20.6053 6.44 20.2453 6.8 19.8053 6.8H4.20527C3.76527 6.8 3.40527 6.44 3.40527 6C3.40527 5.56 3.76527 5.2 4.20527 5.2H8.60527V3.4C8.60527 3.02 8.86526 2.8 9.24526 2.8H14.7653C15.1453 2.8 15.4053 3.02 15.4053 3.4V5.2H19.8053C20.2453 5.2 20.6053 5.56 20.6053 6ZM10.0053 5.2H14.0053V4.2H10.0053V5.2ZM10.3453 18.2C10.7453 18.2 11.0453 17.82 11.0453 17.44L10.8453 8.8C10.8453 8.42 10.5253 8.1 10.1253 8.1C9.74527 8.1 9.42526 8.41999 9.44526 8.81999L9.64526 17.48C9.64526 17.86 9.96526 18.2 10.3453 18.2ZM13.6453 18.2C14.0253 18.2 14.3453 17.88 14.3453 17.5L14.5453 8.86001C14.5453 8.48001 14.2453 8.13999 13.8653 8.13999C13.4653 8.13999 13.1653 8.43999 13.1453 8.81999L12.9453 17.46C12.9253 17.86 13.2453 18.2 13.6453 18.2C13.6253 18.2 13.6253 18.2 13.6453 18.2Z" fill="#F8FAFC"/>
</svg>
