<svg width="24" height="24" viewBox="0 0 24 24" fill="none" xmlns="http://www.w3.org/2000/svg">
<rect width="24" height="24" fill="none"/>
<path d="M7.00498 13.4C6.64498 13.4 6.26498 13.24 6.00498 12.98C5.74498 12.72 5.60498 12.36 5.60498 12C5.60498 11.64 5.76498 11.28 6.00498 11C6.26498 10.74 6.62498 10.6 7.00498 10.6C7.36498 10.6 7.72499 10.76 7.98499 11C8.24499 11.26 8.40498 11.62 8.40498 12C8.40498 12.36 8.24499 12.72 7.98499 12.98C7.74499 13.26 7.36498 13.4 7.00498 13.4ZM13.005 12.98C13.265 12.72 13.425 12.36 13.425 12C13.425 11.64 13.265 11.28 13.005 11C12.745 10.74 12.385 10.6 12.025 10.6C11.665 10.6 11.285 10.76 11.025 11C10.765 11.26 10.625 11.62 10.625 12C10.625 12.36 10.785 12.72 11.025 12.98C11.285 13.24 11.645 13.4 12.025 13.4C12.365 13.4 12.745 13.26 13.005 12.98ZM18.005 12.98C18.265 12.72 18.425 12.36 18.425 12C18.425 11.64 18.265 11.28 18.005 11C17.745 10.74 17.385 10.6 17.025 10.6C16.665 10.6 16.285 10.76 16.025 11C15.765 11.26 15.625 11.62 15.625 12C15.625 12.36 15.785 12.72 16.025 12.98C16.285 13.24 16.645 13.4 17.025 13.4C17.365 13.4 17.745 13.26 18.005 12.98Z" fill="#F8FAFC"/>
</svg>
