<svg width="24" height="24" viewBox="0 0 24 24" fill="none" xmlns="http://www.w3.org/2000/svg">
<rect width="24" height="24" fill="none"/>
<path d="M7.72488 5.6C7.72488 5.04 8.16488 4.6 8.72488 4.6H19.8049C20.3649 4.6 20.8049 5.04 20.8049 5.6C20.8049 6.16 20.3649 6.6 19.8049 6.6H8.72488C8.16488 6.6 7.72488 6.16 7.72488 5.6ZM19.8049 11H8.72488C8.16488 11 7.72488 11.44 7.72488 12C7.72488 12.56 8.16488 13 8.72488 13H19.8049C20.3649 13 20.8049 12.56 20.8049 12C20.8049 11.44 20.3649 11 19.8049 11ZM19.8049 17.4H8.72488C8.16488 17.4 7.72488 17.84 7.72488 18.4C7.72488 18.96 8.16488 19.4 8.72488 19.4H19.8049C20.3649 19.4 20.8049 18.96 20.8049 18.4C20.8049 17.84 20.3649 17.4 19.8049 17.4ZM4.40488 10.68C3.62488 10.68 3.00488 11.32 3.00488 12.1C3.00488 12.88 3.62488 13.52 4.40488 13.52C5.18488 13.52 5.80488 12.88 5.80488 12.1C5.80488 11.32 5.16488 10.68 4.40488 10.68ZM4.40488 4.2C3.62488 4.2 3.00488 4.84 3.00488 5.62C3.00488 6.4 3.62488 7.03999 4.40488 7.03999C5.18488 7.03999 5.80488 6.4 5.80488 5.62C5.80488 4.84 5.16488 4.2 4.40488 4.2ZM4.40488 16.96C3.62488 16.96 3.00488 17.6 3.00488 18.38C3.00488 19.16 3.62488 19.8 4.40488 19.8C5.18488 19.8 5.80488 19.16 5.80488 18.38C5.80488 17.6 5.16488 16.96 4.40488 16.96Z" fill="#F8FAFC"/>
</svg>
