<svg width="24" height="24" viewBox="0 0 24 24" fill="none" xmlns="http://www.w3.org/2000/svg">
<rect width="24" height="24" fill="none"/>
<path d="M18.2222 5H5.77778C5.5715 5 5.37367 5.08194 5.22781 5.22781C5.08194 5.37367 5 5.5715 5 5.77778V7.79222C5 8.199 5.16567 8.59878 5.45344 8.88656L9.66667 13.0998V19C9.66682 19.1325 9.70079 19.2628 9.76537 19.3785C9.82994 19.4942 9.92298 19.5915 10.0357 19.6612C10.1484 19.7309 10.277 19.7707 10.4094 19.7768C10.5417 19.7829 10.6735 19.7552 10.7921 19.6961L13.9032 18.1406C14.1669 18.0083 14.3333 17.7392 14.3333 17.4444V13.0998L18.5466 8.88656C18.8343 8.59878 19 8.199 19 7.79222V5.77778C19 5.5715 18.9181 5.37367 18.7722 5.22781C18.6263 5.08194 18.4285 5 18.2222 5ZM13.0057 12.2279C12.9333 12.3 12.8759 12.3857 12.8368 12.4801C12.7977 12.5744 12.7776 12.6756 12.7778 12.7778V16.9638L11.2222 17.7416V12.7778C11.2224 12.6756 11.2023 12.5744 11.1632 12.4801C11.1241 12.3857 11.0667 12.3 10.9943 12.2279L6.55556 7.79222V6.55556H17.4452L17.4468 7.78678L13.0057 12.2279Z" fill="#FDFEFF"/>
</svg>
