<svg width="24" height="24" viewBox="0 0 24 24" fill="none" xmlns="http://www.w3.org/2000/svg">
<rect width="24" height="24" fill="none"/>
<path d="M19.6852 4.2H4.32517C3.48517 4.2 2.80518 4.88002 2.80518 5.72002V14.58C2.80518 15.42 3.48517 16.2 4.32517 16.2H9.40518V17.02L7.88518 18.24C7.62518 18.46 7.50518 18.88 7.60518 19.2C7.72518 19.52 8.02519 19.8 8.36519 19.8H15.5652C15.9052 19.8 16.2252 19.52 16.3452 19.2C16.4652 18.88 16.3652 18.48 16.1052 18.26L14.6052 17.02V16.2H19.6852C20.5252 16.2 21.2052 15.42 21.2052 14.58V5.72002C21.2052 4.88002 20.5252 4.2 19.6852 4.2ZM13.4452 17.96L13.9252 18.4H10.0052L10.5252 17.94C10.6852 17.8 10.8052 17.56 10.8052 17.34V16.18H13.2052V17.34C13.2052 17.56 13.2852 17.82 13.4452 17.96ZM19.6052 14.6H4.40518V5.8H19.6052V14.6Z" fill="#F8FAFC"/>
</svg>
