<svg width="19" height="18" viewBox="0 0 19 18" fill="none" xmlns="http://www.w3.org/2000/svg">
<path d="M9.2 10.8C12.16 10.8 14.58 8.38002 14.58 5.40002C14.58 2.42002 12.16 1.95313e-05 9.2 1.95313e-05C6.24 1.95313e-05 3.82 2.42002 3.82 5.40002C3.82 8.38002 6.24 10.8 9.2 10.8ZM9.2 1.58C11.28 1.58 12.98 3.28 12.98 5.38C12.98 7.48 11.28 9.18 9.2 9.18C7.12 9.18 5.42 7.48 5.42 5.38C5.42 3.28 7.12 1.58 9.2 1.58ZM11.7 11.32C11.44 11.24 11.14 11.3 10.94 11.48L9.2 12.96L7.46 11.48C7.24 11.3 6.96 11.24 6.7 11.32C5.58 11.68 0 13.6 0 16.38C0 16.82 0.36 17.18 0.8 17.18H17.6C18.04 17.18 18.4 16.82 18.4 16.38C18.4 13.6 12.82 11.68 11.7 11.32ZM2.02 15.58C2.9 14.64 5.02 13.6 6.78 13L8.68 14.62C8.98 14.88 9.42 14.88 9.72 14.62L11.62 13C13.38 13.62 15.5 14.66 16.38 15.58H2.02Z" fill="#F8FAFC"/>
</svg>
