<svg width="18" height="18" viewBox="0 0 18 18" fill="none" xmlns="http://www.w3.org/2000/svg">
<path d="M11.3646 0.26001C7.94461 0.26001 5.16461 3.08001 5.16461 6.52001C5.16461 7.98001 5.66461 9.30002 6.48461 10.38L0.604609 16.32C0.264609 16.68 0.264609 17.24 0.604609 17.58C0.784609 17.76 1.00461 17.84 1.22461 17.84C1.46461 17.84 1.68461 17.76 1.86461 17.58L7.74461 11.62C8.76461 12.36 10.0046 12.78 11.3446 12.78C14.7646 12.78 17.5446 9.96001 17.5446 6.52001C17.5646 3.06001 14.7846 0.26001 11.3646 0.26001ZM11.3646 11.2C8.82461 11.2 6.76461 9.10001 6.76461 6.52001C6.76461 3.94001 8.82461 1.84001 11.3646 1.84001C13.9046 1.84001 15.9646 3.94001 15.9646 6.52001C15.9646 9.10001 13.9046 11.2 11.3646 11.2ZM14.4646 6.60001C14.4246 6.94001 14.1246 7.20001 13.7846 7.20001C13.7446 7.20001 13.7246 7.20001 13.6846 7.20001C13.3046 7.14001 13.0446 6.80001 13.0846 6.42001C13.2246 5.38001 12.0646 4.84001 12.0046 4.82001C11.6646 4.66001 11.5046 4.24001 11.6646 3.90001C11.8246 3.56001 12.2246 3.40001 12.5846 3.54001C12.6646 3.56001 14.7446 4.52001 14.4646 6.60001ZM13.0046 8.12001C13.1446 8.26001 13.2446 8.48002 13.2446 8.68002C13.2446 8.90002 13.1646 9.10001 13.0046 9.24002C12.8646 9.38002 12.6446 9.48002 12.4446 9.48002C12.2446 9.48002 12.0246 9.40001 11.8846 9.24002C11.7446 9.10001 11.6446 8.88002 11.6446 8.68002C11.6446 8.48002 11.7246 8.26001 11.8846 8.12001C12.0246 7.98001 12.2446 7.88002 12.4446 7.88002C12.6446 7.88002 12.8446 7.96001 13.0046 8.12001Z" fill="#F8FAFC"/>
</svg>
