<?xml version="1.0" encoding="UTF-8"?>
<svg id="_圖層_1" data-name="圖層 1" xmlns="http://www.w3.org/2000/svg" viewBox="0 0 89.87 82.24">
  <defs>
    <style>
      .cls-1 {
        fill: #ecc839;
        stroke: #ecc839;
        stroke-miterlimit: 10;
        stroke-width: 5px;
      }

      .cls-2 {
        fill: #070002;
        stroke-width: 0px;
      }
    </style>
  </defs>
  <path class="cls-1" d="m86.43,37.69c-1.81-3.98-5.91-6.26-10.08-6.95-5.63-.93-11.42.4-16.76,2.49,4.16-2.95,7.92-6.5,10.38-10.9,2.19-3.91,3.17-8.7,1.21-12.9-1.55-3.33-4.8-5.59-8.44-5.95-4.37-.43-8.4,1.98-11.09,5.26-3.62,4.41-5.36,10.09-6.22,15.75-.48-5.08-1.67-10.12-4.26-14.46-2.29-3.84-5.94-7.07-10.54-7.48-3.66-.33-7.26,1.35-9.39,4.33-2.56,3.57-2.49,8.28-.99,12.26,2.01,5.33,6.06,9.67,10.52,13.24-4.64-2.13-9.59-3.61-14.64-3.54-4.46.06-9.09,1.6-11.75,5.38-2.13,3.02-2.46,6.99-.94,10.34,1.81,3.98,5.91,6.26,10.08,6.95,5.63.93,11.42-.4,16.76-2.49-4.16,2.95-7.92,6.5-10.38,10.9-2.19,3.91-3.17,8.7-1.21,12.9,1.55,3.33,4.8,5.59,8.44,5.95,4.37.43,8.4-1.98,11.09-5.26,3.62-4.41,5.36-10.09,6.22-15.75.48,5.08,1.67,10.12,4.26,14.46,2.29,3.84,5.94,7.07,10.54,7.48,3.66.33,7.26-1.35,9.39-4.33,2.56-3.57,2.49-8.28.99-12.26-2.01-5.33-6.06-9.67-10.52-13.24,4.64,2.13,9.59,3.61,14.64,3.54,4.46-.06,9.09-1.6,11.75-5.38,2.13-3.02,2.46-6.99.94-10.34Z"/>
  <g>
    <path class="cls-2" d="m49.05,8.61h1.99s0,.82,0,.82c.29-.34.58-.58.87-.72.29-.14.65-.21,1.06-.21.45,0,.8.08,1.06.24.26.16.47.39.63.71.34-.36.64-.61.92-.74.28-.13.62-.19,1.02-.19.6,0,1.06.18,1.4.54.33.36.5.91.5,1.67l-.02,3.5h-2.14s.01-3.18.01-3.18c0-.25-.05-.44-.14-.56-.14-.19-.32-.29-.53-.29-.25,0-.45.09-.61.27s-.23.47-.23.88v2.88s-2.15,0-2.15,0v-3.07c.02-.25,0-.41-.03-.5-.04-.14-.12-.25-.24-.34-.11-.09-.24-.13-.39-.13-.25,0-.45.09-.61.27-.16.19-.24.49-.24.91v2.84s-2.15,0-2.15,0l.03-5.57Z"/>
    <path class="cls-2" d="m62.37,6.55v2.12s1.17,0,1.17,0v1.56s-1.18,0-1.18,0v1.97c0,.24.01.39.06.47.07.12.19.18.37.18.16,0,.38-.04.66-.13l.15,1.47c-.53.11-1.02.17-1.48.17-.53,0-.92-.07-1.17-.21-.25-.14-.44-.34-.56-.62-.12-.28-.18-.73-.18-1.35v-1.96s-.78,0-.78,0v-1.56s.79,0,.79,0v-1.02s2.15-1.09,2.15-1.09Z"/>
    <path class="cls-2" d="m66.92,8.69h1.02s0,1.57,0,1.57h-1.02s-.02,4-.02,4h-2.14s.02-4.02.02-4.02h-.8s0-1.57,0-1.57h.8s0-.25,0-.25c0-.23.03-.48.08-.75.05-.27.14-.5.28-.67.14-.17.33-.31.57-.42.24-.1.6-.16,1.07-.16.38,0,.92.05,1.63.14l-.24,1.29c-.26-.04-.46-.07-.62-.07-.19,0-.33.03-.42.09-.08.06-.14.17-.18.31-.02.08-.03.24-.03.49Z"/>
    <path class="cls-2" d="m68.84,6.58h2.18s-.02,3.98-.02,3.98l1.6-1.84h2.63s-2.01,1.95-2.01,1.95l2.1,3.63h-2.41s-1.12-2.25-1.12-2.25l-.81.78v1.45s-2.19,0-2.19,0l.04-7.69Z"/>
  </g>
  <g>
    <path class="cls-2" d="m14.6,72.39h1.99s0,.82,0,.82c.29-.34.58-.58.87-.72.29-.14.65-.21,1.06-.21.45,0,.8.08,1.06.24.26.16.47.39.63.71.34-.36.64-.61.92-.74.28-.13.62-.19,1.02-.19.6,0,1.06.18,1.4.54.33.36.5.91.5,1.67l-.02,3.5h-2.14s.01-3.18.01-3.18c0-.25-.05-.44-.14-.56-.14-.19-.32-.29-.53-.29-.25,0-.45.09-.61.27-.15.18-.23.47-.23.88v2.88s-2.15,0-2.15,0v-3.07c.02-.24,0-.41-.03-.5-.04-.14-.12-.25-.24-.34-.11-.08-.24-.13-.39-.13-.25,0-.45.09-.61.28-.16.18-.24.49-.24.91v2.84s-2.15,0-2.15,0l.03-5.57Z"/>
    <path class="cls-2" d="m27.91,70.33v2.12s1.17,0,1.17,0v1.56s-1.18,0-1.18,0v1.97c-.01.24.01.4.06.47.07.12.19.18.37.18.16,0,.38-.04.66-.13l.15,1.47c-.53.11-1.02.17-1.48.17-.53,0-.92-.07-1.17-.21-.25-.14-.44-.35-.56-.62-.12-.28-.18-.73-.18-1.35v-1.96s-.78,0-.78,0v-1.56s.79,0,.79,0v-1.02s2.15-1.09,2.15-1.09Z"/>
    <path class="cls-2" d="m32.47,72.47h1.02s0,1.57,0,1.57h-1.02s-.02,4-.02,4h-2.14s.02-4.02.02-4.02h-.8s0-1.57,0-1.57h.8s0-.25,0-.25c0-.23.03-.48.08-.75.05-.27.14-.5.28-.67.13-.17.33-.31.57-.42.24-.11.6-.16,1.07-.16.37,0,.92.05,1.63.14l-.24,1.29c-.25-.04-.46-.07-.62-.07-.19,0-.33.03-.42.09-.08.06-.14.17-.18.31-.02.08-.03.24-.03.49Z"/>
    <path class="cls-2" d="m34.39,70.36h2.18s-.02,3.98-.02,3.98l1.6-1.84h2.63s-2.01,1.95-2.01,1.95l2.1,3.63h-2.41s-1.12-2.25-1.12-2.25l-.81.78v1.45s-2.19,0-2.19,0l.04-7.69Z"/>
  </g>
  <g>
    <path class="cls-2" d="m32.73,38.58h1.99s0,.82,0,.82c.29-.34.58-.58.87-.72.29-.14.65-.21,1.06-.21.45,0,.8.08,1.06.24.26.16.47.39.63.71.34-.36.64-.61.92-.74.28-.13.62-.19,1.02-.19.6,0,1.06.18,1.4.54.33.36.5.91.5,1.67l-.02,3.5h-2.14s.01-3.18.01-3.18c0-.25-.05-.44-.14-.56-.14-.19-.32-.29-.53-.29-.25,0-.45.09-.61.27-.15.18-.23.47-.23.88v2.88s-2.15,0-2.15,0v-3.07c.02-.25,0-.41-.03-.5-.04-.14-.12-.25-.24-.34-.11-.09-.24-.13-.39-.13-.25,0-.45.09-.61.28s-.24.49-.24.91v2.84s-2.15,0-2.15,0l.03-5.57Z"/>
    <path class="cls-2" d="m46.04,36.52v2.12s1.17,0,1.17,0v1.56s-1.18,0-1.18,0v1.97c0,.24.01.39.06.47.07.12.19.18.37.18.16,0,.38-.04.66-.13l.15,1.47c-.53.11-1.02.17-1.48.17-.53,0-.92-.07-1.17-.21-.25-.14-.44-.34-.56-.62-.12-.28-.18-.73-.18-1.35v-1.96s-.78,0-.78,0v-1.56s.79,0,.79,0v-1.02s2.15-1.09,2.15-1.09Z"/>
    <path class="cls-2" d="m50.6,38.66h1.02s0,1.57,0,1.57h-1.02s-.02,4-.02,4h-2.14s.02-4.02.02-4.02h-.8s0-1.57,0-1.57h.8s0-.25,0-.25c0-.23.03-.48.08-.75.05-.27.14-.5.28-.67.13-.17.33-.31.57-.42.24-.11.6-.16,1.07-.16.37,0,.92.05,1.63.14l-.24,1.29c-.25-.04-.46-.06-.62-.07-.19,0-.33.03-.41.09-.08.07-.14.17-.18.31-.02.08-.03.24-.03.49Z"/>
    <path class="cls-2" d="m52.52,36.55h2.18s-.02,3.98-.02,3.98l1.6-1.84h2.63s-2.01,1.95-2.01,1.95l2.1,3.63h-2.41s-1.12-2.25-1.12-2.25l-.81.78v1.45s-2.19-.01-2.19-.01l.04-7.69Z"/>
  </g>
</svg>