<?xml version="1.0" encoding="UTF-8"?>
<svg id="_圖層_1" data-name="圖層 1" xmlns="http://www.w3.org/2000/svg" viewBox="0 0 79.87 79.87">
  <defs>
    <style>
      .cls-1 {
        fill: #f4ce31;
        stroke: #f4ce31;
        stroke-miterlimit: 10;
        stroke-width: 9px;
      }

      .cls-2 {
        fill: #040000;
        stroke-width: 0px;
      }
    </style>
  </defs>
  <path class="cls-1" d="m73.16,43.2h-.02s0,.01,0,.01c2.65,1.74,1.84,5.82-1.27,6.41h0s0,0,0,0c2.26,2.22.67,6.07-2.5,6.04h0,0c1.78,2.63-.53,6.09-3.64,5.44h0s0,.01,0,.01c1.24,2.92-1.7,5.86-4.62,4.62h-.01s0,0,0,0c.65,3.1-2.81,5.42-5.43,3.64h0s0,0,0,0c.03,3.17-3.82,4.76-6.04,2.5h0c-.59,3.12-4.68,3.92-6.41,1.27h0s0,.02,0,.02c-1.19,2.94-5.35,2.94-6.53,0v-.02s-.01,0-.01,0c-1.74,2.65-5.82,1.84-6.41-1.27h0s0,0,0,0c-2.22,2.26-6.07.67-6.04-2.5h0s0,0,0,0c-2.62,1.78-6.09-.53-5.44-3.64h0s0,0,0,0c-2.92,1.24-5.86-1.71-4.63-4.63h0s0,0,0,0c-3.11.65-5.42-2.81-3.64-5.44h0c-3.17.03-4.76-3.82-2.5-6.04h0c-3.11-.59-3.92-4.68-1.27-6.41h0s-.02-.01-.02-.01c-2.94-1.19-2.94-5.35,0-6.53h.02s0-.01,0-.01c-2.65-1.74-1.84-5.82,1.27-6.41h0s0,0,0,0c-2.26-2.22-.67-6.07,2.5-6.04h0,0c-1.78-2.63.53-6.09,3.64-5.44h0s0-.01,0-.01c-1.24-2.92,1.7-5.86,4.62-4.62h.01s0,0,0,0c-.65-3.11,2.81-5.42,5.44-3.64h0c-.03-3.17,3.82-4.77,6.04-2.5h0c.59-3.12,4.68-3.92,6.41-1.27h0s0-.02,0-.02c1.19-2.94,5.35-2.94,6.54,0v.02s0,0,0,0c1.74-2.65,5.82-1.85,6.41,1.27h0s0,0,0,0c2.22-2.26,6.07-.67,6.04,2.5h0s0,0,0,0c2.62-1.78,6.08.53,5.43,3.64h0s.01,0,.01,0c2.92-1.24,5.86,1.7,4.62,4.62h0s0,.01,0,.01c3.1-.65,5.42,2.81,3.64,5.43h0s0,0,0,0c3.17-.03,4.76,3.82,2.5,6.04h0c3.11.59,3.92,4.68,1.27,6.41h0s.02.01.02.01c2.94,1.19,2.94,5.35,0,6.53Z"/>
  <g>
    <g>
      <path class="cls-2" d="m23.64,20.49c.36-.15.75-.17,1.16-.06l-.38.69c-.22-.03-.42,0-.6.1-.19.09-.34.25-.45.46-.1.17-.14.35-.13.54,0,.19.07.36.19.53.12.17.29.31.5.43.21.12.42.18.63.2.2.01.39-.03.55-.12.16-.09.29-.22.39-.4.12-.21.17-.42.15-.63-.02-.21-.1-.4-.23-.56l.38-.69c.31.29.5.62.56,1.01.06.39-.02.78-.25,1.19-.17.31-.4.55-.67.71-.27.16-.57.24-.9.23-.33,0-.65-.1-.97-.28-.33-.18-.58-.41-.76-.68-.18-.27-.28-.57-.29-.88,0-.32.07-.63.25-.95.23-.41.52-.69.88-.84Z"/>
      <path class="cls-2" d="m26.97,16.4c.32-.08.64-.08.96.01.32.09.61.27.87.53.26.26.43.56.52.88.09.33.09.65,0,.96-.09.32-.26.6-.51.84-.25.25-.53.41-.85.49-.32.08-.64.08-.96-.02-.32-.09-.61-.27-.87-.54-.26-.26-.43-.56-.52-.88-.09-.32-.09-.64,0-.96.09-.32.26-.6.51-.84.25-.25.53-.41.85-.49Zm-.68,1.5c-.05.19-.04.38.02.58.06.2.18.39.36.56.17.18.36.3.56.37.2.07.39.08.58.03.19-.05.36-.15.52-.3.16-.15.26-.32.31-.51.05-.19.04-.38-.02-.58-.06-.2-.18-.39-.36-.56-.17-.18-.36-.3-.56-.37-.2-.07-.39-.08-.58-.03-.19.05-.36.15-.52.3-.16.15-.26.32-.31.51Z"/>
      <path class="cls-2" d="m31.11,13.37l.3.52-1.37.79.5.87,1.1-.63.29.5-1.1.63.79,1.37-.65.37-1.88-3.25,2.02-1.16Z"/>
      <path class="cls-2" d="m34.94,11.96l.18.57-1.5.48.31.96,1.2-.39.18.55-1.2.39.48,1.5-.71.23-1.15-3.57,2.22-.71Z"/>
      <path class="cls-2" d="m37.47,12.14l.1.97,1.32-.13.06.57-1.32.13.1,1.01,1.48-.15.06.6-2.23.22-.37-3.73,2.23-.22.06.59-1.48.15Z"/>
      <path class="cls-2" d="m41.36,12.09l-.1.97,1.32.14-.06.57-1.32-.14-.11,1,1.48.16-.06.6-2.23-.24.4-3.73,2.23.24-.06.59-1.48-.16Z"/>
      <path class="cls-2" d="m49,13.78l-.25.54-.94-.43-1.32,2.87-.68-.31,1.32-2.87-.94-.43.25-.54,2.56,1.18Z"/>
      <path class="cls-2" d="m50.91,15.05l-2.14,3.09-.62-.43,2.14-3.09.62.43Z"/>
      <path class="cls-2" d="m55.21,19.22l-2.74,2.5-.5-.55,1.91-1.75-2.55,1.04-.44-.48,1.26-2.44-1.9,1.74-.51-.55,2.74-2.5.61.67-1.3,2.71,2.81-1.07.61.67Z"/>
      <path class="cls-2" d="m56.15,21.93l-.87.44.6,1.18-.51.26-.6-1.18-.9.46.68,1.33-.54.27-1.02-1.99,3.34-1.71,1.02,1.99-.53.27-.68-1.33Z"/>
    </g>
    <g>
      <path class="cls-2" d="m56.22,59.38c-.36.15-.75.17-1.16.06l.38-.69c.22.03.42,0,.6-.1.19-.09.34-.25.45-.46.1-.17.14-.35.13-.54,0-.19-.07-.36-.19-.53-.12-.17-.29-.31-.5-.43-.21-.12-.42-.18-.63-.2-.2-.01-.39.03-.55.12-.16.09-.29.22-.39.4-.12.21-.17.42-.15.63.02.21.1.4.23.56l-.38.69c-.31-.29-.5-.62-.56-1.01-.06-.39.02-.78.25-1.19.17-.31.4-.55.67-.71.27-.16.57-.24.9-.23.33,0,.65.1.97.28.33.18.58.41.76.68.18.27.28.57.29.88,0,.32-.07.63-.25.95-.23.41-.52.69-.88.84Z"/>
      <path class="cls-2" d="m52.9,63.46c-.32.08-.64.08-.96-.01-.32-.09-.61-.27-.87-.53-.26-.26-.43-.56-.52-.88-.09-.33-.09-.65,0-.96.09-.32.26-.6.51-.84.25-.25.53-.41.85-.49.32-.08.64-.08.96.02.32.09.61.27.87.54.26.26.43.56.52.88.09.32.09.64,0,.96-.09.32-.26.6-.51.84-.25.25-.53.41-.85.49Zm.68-1.5c.05-.19.04-.38-.02-.58-.06-.2-.18-.39-.36-.56-.17-.18-.36-.3-.56-.37-.2-.07-.39-.08-.58-.03-.19.05-.36.15-.52.3-.16.15-.26.32-.31.51s-.04.38.02.58c.06.2.18.39.36.56.17.18.36.3.56.37.2.07.39.08.58.03.19-.05.36-.15.52-.3.16-.15.26-.32.31-.51Z"/>
      <path class="cls-2" d="m48.75,66.5l-.3-.52,1.37-.79-.5-.87-1.1.63-.29-.5,1.1-.63-.79-1.37.65-.37,1.88,3.25-2.02,1.16Z"/>
      <path class="cls-2" d="m44.93,67.91l-.18-.57,1.5-.48-.31-.96-1.2.39-.18-.55,1.2-.39-.48-1.5.71-.23,1.15,3.57-2.22.71Z"/>
      <path class="cls-2" d="m42.4,67.73l-.1-.97-1.32.13-.06-.57,1.32-.13-.1-1.01-1.48.15-.06-.6,2.23-.22.37,3.73-2.23.22-.06-.59,1.48-.15Z"/>
      <path class="cls-2" d="m38.51,67.78l.1-.97-1.32-.14.06-.57,1.32.14.11-1-1.48-.16.06-.6,2.23.24-.4,3.73-2.23-.24.06-.59,1.48.16Z"/>
      <path class="cls-2" d="m30.87,66.09l.25-.54.94.43,1.32-2.87.68.31-1.32,2.87.94.43-.25.54-2.56-1.18Z"/>
      <path class="cls-2" d="m28.95,64.82l2.14-3.09.62.43-2.14,3.09-.62-.43Z"/>
      <path class="cls-2" d="m24.65,60.64l2.74-2.5.5.55-1.91,1.75,2.55-1.04.44.48-1.26,2.44,1.9-1.74.51.55-2.74,2.5-.61-.67,1.3-2.71-2.81,1.07-.61-.67Z"/>
      <path class="cls-2" d="m23.72,57.93l.87-.44-.6-1.18.51-.26.6,1.18.9-.46-.68-1.33.54-.27,1.02,1.99-3.34,1.71-1.02-1.99.53-.27.68,1.33Z"/>
    </g>
    <g>
      <g>
        <path class="cls-2" d="m37.66,28.78h.25c.1,0,.19-.08.19-.19v-.32c0-.1.08-.19.19-.19h3.25c.1,0,.19.08.19.19v.29c0,.1.08.19.19.19h2.5c.1,0,.19-.08.19-.19v-.29c0-.1.08-.19.19-.19h2.52c.1,0,.19-.08.19-.19v-1.68c0-.1-.08-.19-.19-.19h-2.52c-.1,0-.19-.08-.19-.19v-.41c0-.1-.08-.19-.19-.19h-2.5c-.1,0-.19.08-.19.19v.41c0,.1-.08.19-.19.19h-3.25c-.1,0-.19-.08-.19-.19v-.41c0-.1-.08-.19-.19-.19h-2.5c-.1,0-.19.08-.19.19v.41c0,.1-.08.19-.19.19h-2.47c-.1,0-.19.08-.19.19v1.68c0,.1.08.19.19.19h2.47c.1,0,.19.08.19.19v.32c0,.1.08.19.19.19h2.25Z"/>
        <path class="cls-2" d="m32.38,29.48v1.43c0,.1.08.19.19.19h.79c.1,0,.19.08.19.19v.95c0,.1-.08.19-.19.19h-.79c-.1,0-.19.08-.19.19v1.69c0,.1.08.19.19.19h.48c.15,0,.24.16.16.28-.23.36-.49.72-.78,1.08-.03.03-.04.07-.04.12v2.87c0,.17.22.25.33.12.18-.21.34-.42.5-.65.1-.15.34-.07.34.11v1.09c0,.1.08.19.19.19h2.44c.1,0,.19-.08.19-.19v-1.31c0-.2.26-.26.35-.08.06.11.11.22.15.32.05.11.19.14.28.07l1.25-.97c.07-.06.09-.16.04-.24-.37-.6-.92-1.43-1.64-2.5-.08-.12,0-.29.15-.29h.62c.13,0,.22.14.17.26-.04.08-.08.17-.11.25-.04.1,0,.21.11.25l2,.69c.09.03.19,0,.23-.09.66-1.37,1.15-2.9,1.45-4.58.02-.1-.05-.2-.15-.21l-2.11-.42c-.1-.02-.2.04-.22.14-.16.76-.34,1.5-.56,2.23-.06.2-.36.16-.36-.06v-.34c0-.1-.08-.19-.19-.19h-1.29c-.1,0-.19-.08-.19-.19v-.95c0-.1.08-.19.19-.19h1.48c.13,0,.22-.14.17-.26l-.62-1.43c-.03-.07-.1-.11-.17-.11h-4.84c-.1,0-.19.08-.19.19Z"/>
        <path class="cls-2" d="m40.5,39.66c.99-.7,1.86-1.63,2.61-2.78.08-.12.25-.11.31,0,.66,1.14,1.45,2.06,2.38,2.76.03.02.07.04.11.04h1.39c.1,0,.19-.08.19-.19v-1.63c0-.06-.03-.12-.08-.15-.89-.62-1.52-1.31-1.95-2.16-.08-.15.07-.31.23-.26l1.03.35c.09.03.18,0,.22-.09.19-.36.37-.74.54-1.14,0-.02.02-.05.02-.07v-3.53c0-.09-.06-.17-.15-.18l-1.19-.23c-.1-.02-.19.04-.22.14-.2.91-.46,1.78-.77,2.61-.07.19-.34.15-.36-.04-.04-.38-.06-.81-.06-1.3v-2.33c0-.1-.08-.19-.19-.19h-2.57c-.1,0-.19.08-.19.19v2.33c0,1.71-.36,3.1-1.06,4.15-.67,1-1.71,1.82-3.15,2.48-.11.05-.14.19-.07.28l.68.9s.09.07.15.07h2.04s.08-.01.11-.03Z"/>
      </g>
      <g>
        <path class="cls-2" d="m47.31,41.31h-7.23c-.17,0-.25-.2-.13-.32h0c.12-.12.04-.32-.13-.32h-3.72s-.07.01-.11.03c-1.01.72-2.19,1.37-3.52,1.95-.07.03-.11.1-.11.17v2.21c0,.13.13.22.25.18.55-.2,1.06-.4,1.54-.61.05-.02.11-.02.16,0,.48.26,1.02.52,1.6.78.17.07.14.32-.04.35-.99.17-2.1.34-3.34.5-.09.01-.16.09-.16.18v1.79c0,.11.1.2.21.18,2.91-.39,5.38-.89,7.41-1.48.03,0,.07,0,.1,0,2.07.6,4.49,1.1,7.19,1.49.11.02.21-.07.21-.18v-1.87c0-.09-.07-.17-.16-.18-1.12-.17-2.13-.33-3.01-.49-.18-.03-.21-.27-.05-.35,1.1-.53,2.16-1.16,3.14-1.85.05-.03.08-.09.08-.15v-1.82c0-.1-.08-.19-.19-.19Zm-7.19,3.38c-.99-.31-1.89-.65-2.71-1.03-.18-.08-.12-.35.08-.35h5.08c.19,0,.26.26.09.35-.74.4-1.54.74-2.41,1.04-.04.01-.08.01-.12,0Z"/>
        <path class="cls-2" d="m47.31,48.95h-5.45c-.1,0-.19-.08-.19-.19v-.93c0-.1-.08-.19-.19-.19h-3.31c-.1,0-.19.08-.19.19v.93c0,.1-.08.19-.19.19h-5.25c-.1,0-.19.08-.19.19v1.71c0,.1.08.19.19.19h3.11c.21,0,.26.29.06.36-.95.35-2.03.69-3.23,1.01-.08.02-.14.1-.14.18v1.85c0,.1.08.19.19.19h.6s.04,0,.06,0c1.71-.55,3.21-1.14,4.52-1.79.12-.06.27.03.27.17v1.45c0,.1.08.19.19.19h3.31c.1,0,.19-.08.19-.19v-1.45c0-.14.14-.23.27-.17,1.31.65,2.8,1.24,4.51,1.79.02,0,.04,0,.06,0h.79c.1,0,.19-.08.19-.19v-1.79c0-.08-.06-.16-.14-.18-1.27-.34-2.41-.69-3.42-1.06-.19-.07-.14-.36.07-.36h3.31c.1,0,.19-.08.19-.19v-1.71c0-.1-.08-.19-.19-.19Z"/>
      </g>
    </g>
  </g>
</svg>