<?xml version="1.0" encoding="UTF-8"?>
<svg id="_內容" data-name="內容" xmlns="http://www.w3.org/2000/svg" viewBox="0 0 84.24 113.39">
  <defs>
    <style>
      .cls-1 {
        fill: #f74f06;
      }

      .cls-1, .cls-2 {
        stroke-width: 0px;
      }

      .cls-2 {
        fill: blue;
      }
    </style>
  </defs>
  <path class="cls-2" d="m78.89,70.07c-.5-.72-.98-1.41-1.38-2.03-.08-.13-.17-.26-.25-.39-2.64-4.31-2.27-9.34.99-13.46,2.46-3.11,7.05-8.89,5.76-14.55-.45-1.98-1.81-4.73-5.74-6.64-1.02-.49-2.16-.73-3.48-.73-1.53,0-3.06.32-4.54.62-.47.1-.95.2-1.4.28.4-.55.85-1.12,1.18-1.52.96-1.19,1.94-2.43,2.54-3.77,2.02-4.55,1.54-10.81-3.26-13.99-1.7-1.13-3.83-1.72-6.15-1.72-.79,0-1.58.07-2.38.2-.2-2.28-.77-4.27-1.73-6.04C56.99,2.54,52.76,0,48.54,0c-1.48,0-2.89.31-4.19.92h-.02s-.06.04-.06.04c-2.89,1.4-4.28,3.79-4.97,5.64-.26-.16-.52-.32-.78-.47-.48-.29-.97-.58-1.45-.88-1.92-1.19-4.79-1.87-7.88-1.87-7.25,0-12.21,3.65-12.64,9.31-.23,3.04,1.39,5.38,2.57,7.09.45.65.91,1.32,1.11,1.8.05.13.1.24.13.35-.56,0-1.18-.09-1.66-.15-1.53-.22-3.34-.44-5.23-.44-.85,0-1.68.05-2.46.14-4.72.54-8.52,3-10.16,6.57-1.45,3.17-1.03,6.73,1.2,10,1.36,2,2.91,3.74,4.41,5.42.83.93,1.63,1.82,2.36,2.72-.79.49-1.73,1.01-2.31,1.33-1.44.79-2.58,1.41-3.39,2.21-1.78,1.76-2.68,4.04-2.47,6.26.18,1.9,1.05,4.55,4.17,6.44,1.67,1.01,3.56,1.53,5.08,1.95.39.11.75.21,1.08.31.51.15.77.3.88.38,0,.4-.21,1.59-2.11,4.58l-.3.46c-2.44,3.81-6.12,9.57-4.81,15.12.63,2.66,2.35,4.89,4.96,6.44.65.39,1.39.74,2.18,1.06h-.43c-1.67,0-3.19.92-3.96,2.4l-3.84,7.34c-.81,1.54-1.23,3.28-1.23,5.02v1.28c0,2.47,2.01,4.47,4.47,4.47h3.63c1.25,0,2.38-.52,3.2-1.35.81.83,1.95,1.35,3.2,1.35h3.71c.61,0,1.2-.12,1.73-.35.52.21,1.09.33,1.69.33h3.36c.88,0,1.7-.25,2.39-.69.71.45,1.54.69,2.38.69h4.42c.58,0,1.14-.12,1.66-.33.52.21,1.08.33,1.67.33h3.36c1.19,0,2.27-.47,3.07-1.23,1.79.94,4.06,1.41,6.85,1.41,3.08,0,5.49-.56,7.38-1.7.45-.27.87-.58,1.26-.92,2.01,1.73,4.87,2.61,8.52,2.62h0s0,0,0,0c3.96,0,6.99-1.05,9.02-3.09,1.21-1.22,2.66-3.43,2.65-7.02v-.89c0-4.49-2.19-6.9-4.02-8.14-.79-.53-1.68-.95-2.66-1.26.06-.02.13-.04.19-.07,3.63-1.31,6.16-3.38,7.51-6.15,1.44-2.95,1.44-6.23.03-9.75-1.03-2.57-2.66-4.9-4.09-6.95Z"/>
  <path class="cls-1" d="m73.84,69.74c-3.56-5.8-3-12.67,1.27-18.05,3.45-4.35,8.8-11.5,1.41-15.09-3.25-1.58-10.87,3.26-12.38-1.15-1.04-3.05,3.62-6.66,4.75-9.21,1.28-2.88,1.22-7.02-1.8-9.02-2.16-1.43-5.36-1.29-7.91-.28-1.16.46-2.43-.39-2.36-1.59.14-2.47-.09-4.93-1.29-7.12-1.71-3.14-6.11-5.3-9.5-3.68,0,0,0,0,0,0-2.13,1.02-2.95,2.96-3.43,5.05-.37,1.61-2.34,2.35-3.77,1.41-1.23-.81-2.53-1.55-3.87-2.37-3.39-2.1-13.91-2.18-14.41,4.33-.19,2.56,2.39,4.67,3.38,7.05.45,1.09.75,2.3.48,3.45-.65,2.83-3.9,2.6-6.28,2.26-2.21-.31-4.45-.54-6.66-.29-5.8.67-9.6,5.18-6.1,10.33,2.4,3.54,5.71,6.41,8.14,9.95,1.78,2.6-6.17,5.47-7.57,6.85-.82.81-1.4,1.9-1.29,3.02.35,3.72,4.64,4.36,7.5,5.23,6.31,1.92,3.16,7.55.99,10.96-2.88,4.52-8.24,12.39-1.48,16.41,5.85,3.48,21.84,4,22.81-4.75.54-4.82-6.19-8.91-4.54-13.52,1.97-5.48,11.22-4.83,15.35-2.12,3.65,2.4,2.75,5.62.8,8.83-1.74,2.85-3.89,6.84-1.14,9.79,4.65,4.99,15.87,4.71,22.23,4.1,4.21-.4,10.21-1.45,12.19-5.52,2.49-5.12-2.51-10.6-5.22-14.81-.1-.16-.2-.31-.29-.46Zm-36.1-18.15c-.54,0-.99-.45-.99-.99v-17.64c0-.54.44-.99.99-.99s.99.45.99.99v17.64c0,.54-.44.99-.99.99Z"/>
  <path class="cls-1" d="m15.88,96.73h-4.52c-.17,0-.33.09-.4.24l-3.84,7.34c-.51.98-.78,2.06-.78,3.16v1.28c0,.25.2.46.46.46h3.63c.25,0,.46-.2.46-.46v-1.43c0-.25.2-.46.46-.46h4.57c.25,0,.46.2.46.46v1.43c0,.25.2.46.46.46h3.71c.25,0,.46-.2.46-.46v-1.25c0-1.12-.27-2.22-.8-3.21l-3.9-7.33c-.08-.15-.23-.24-.4-.24Zm-3.77,6.4l1.51-3.23,1.5,3.23h-3.01Z"/>
  <path class="cls-1" d="m32.02,96.71c-.12,0-.23.04-.31.12l-3.88,3.62h-.07v-3.28c0-.25-.2-.46-.46-.46h-3.36c-.25,0-.46.2-.46.46v11.57c0,.25.2.46.46.46h3.36c.25,0,.46-.2.46-.46v-4.82s.07,0,.07,0l3.88,5.09c.09.11.22.18.36.18h4.42c.38,0,.6-.44.35-.74l-4.81-5.94c-.15-.18-.13-.45.04-.62l4.56-4.4c.3-.28.09-.78-.32-.78h-4.29Z"/>
  <rect class="cls-1" x="39.37" y="96.71" width="4.27" height="12.48" rx=".46" ry=".46"/>
  <path class="cls-1" d="m70.26,96.31c-4.23,0-7.69,1.36-7.67,6.08v.91c-.02,4.71,3.44,6.07,7.67,6.08,4.22,0,7.68-1.37,7.66-6.08v-.91c0-4.71-3.43-6.08-7.66-6.08Zm3.4,6.68c.03,2.11-1.55,2.5-3.4,2.53-1.86-.03-3.44-.41-3.41-2.53v-.32c-.03-2.1,1.55-2.49,3.41-2.52,1.85.03,3.43.41,3.4,2.52v.32Z"/>
  <path class="cls-1" d="m52.45,100.99h3.42c.25,0,.46.2.46.46v2.32c.02,1.8-1.46,2.11-3.21,2.13-1.74-.02-3.23-.33-3.2-2.13v-.61c0-.25-.2-.46-.46-.46h-3.36c-.25,0-.46.2-.46.46v.88c-.02,4.14,3.36,5.33,7.47,5.33,4.14,0,7.48-1.21,7.48-5.33v-6.87c0-.25-.2-.46-.46-.46h-7.68c-.25,0-.46.2-.46.46v3.37c0,.25.2.46.46.46Z"/>
</svg>