<?xml version="1.0" encoding="UTF-8"?>
<svg id="_內容" data-name="內容" xmlns="http://www.w3.org/2000/svg" viewBox="0 0 103.13 56.69">
  <defs>
    <style>
      .cls-1, .cls-2 {
        stroke-width: 0px;
      }

      .cls-2 {
        fill: lime;
      }
    </style>
  </defs>
  <path class="cls-2" d="m99.23,29.19c.13-.84.19-1.67.19-2.46,0-1.66-.35-3.1-.99-4.29.96-.54,1.63-1.23,2.05-2.08l.04-.08.41-.75v-.85c0-2.63-2.34-3.79-3.74-4.25l-.09-.03-.09-.02c-1.34-.35-2.89-.53-4.62-.53-1.93,0-3.68.22-5.22.64-.38.1-.82.24-1.26.42-.06-.06-.12-.13-.19-.19l-.13-.12-.14-.1c-1.07-.78-2.37-1.19-3.76-1.19-1.28,0-2.5.35-3.55,1-.96-.63-2.14-1-3.43-1-3.44,0-6.22,2.46-6.32,5.61v.06s0,.06,0,.06c0,.16.01.31.02.46-.9-.44-1.91-.66-2.9-.68.57-1.63.91-3.13.91-4.5,0-3.93-2.62-6.37-6.84-6.37-.74,0-1.44.13-2.08.32-1.38-4.55-5.02-8.28-10.78-8.28-6.43,0-11.79,3.76-16.23,8.65-.43-5.54-6.02-7.86-9.08-7.86-3.23,0-6.43,1.25-8.77,3.44-2.6,2.42-4.03,5.83-4.03,9.59,0,2.88,1.15,5.85,3.24,8.35,1.53,1.84,3.52,3.4,5.92,4.68-2.04,2.56-3.68,3.54-4.59,3.54-.32,0-1.27,0-1.52-1.48l-.24-3.04-3.06.12c-2.45,0-4.76,1.4-6.34,3.84-1.3,2-2.02,4.49-2.02,7.02,0,3.03,1.1,5.81,3.09,7.81,1.59,1.6,4.56,3.51,9.72,3.51,6.5,0,11.25-5.16,15.03-11.73.6,5.58,4.95,9.51,10.79,9.51,3.1,0,5.74-.99,7.72-2.73.89,1.63,2.67,2.87,5.69,2.87,1.85,0,3.34-.75,4.36-1.64.99.85,2.27,1.4,3.76,1.58-.37,1.09-.56,2.22-.56,3.36,0,1.8.51,3.4,1.53,4.75.71.98,2.35,2.55,5.54,2.55,2.09,0,3.97-.77,5.57-2.3l.03-.03.03-.03c1.2-1.2,2.24-2.7,3.09-4.46.57-1.19,1.06-2.24,1.46-3.13.75-.75,1.5-1.6,2.25-2.55,1.47,1.23,3.4,1.91,5.64,1.91,3.29,0,6.45-1.68,9.05-4.76,4.92-.75,6.91-5.86,7.59-7.62l1.76-4.52h-3.9Z"/>
  <g>
    <path class="cls-1" d="m96.96,32.51s-.6,1.57-1.85,1.57l-.14.05s1.9-3.52,1.9-7.4c0-2.64-1.16-4.58-4.39-4.58-.6,0-1.3.23-1.71.46l-.51-.09-.42.05c-4.89,1.38-8.39,6.41-9.46,11.12-1.33,2.53-2.53,3.89-3.66,4.1,1.16-3.65,2.31-6.71,3.42-9.25.97-2.22,1.85-3.75,2.64-4.58,0-1.2-.69-1.8-2.08-1.8-1.48,0-3.05,2.27-4.72,6.8l-1.73,5.3c-.49.65-1.14,1.23-1.87,1.23-.69,0-1.11,0-1.11-1.02,0-2.31,4.44-10.5,4.44-10.5l.05-.23c0-1.06-1.16-1.57-2.36-1.57-1.85,0-1.94.93-2.45,2.64-.81,2.81-3.22,6.44-4.6,9.73-.39.36-.87.63-1.46.63-3.1,0-2.5-2.54-3.84-2.68,3.7,0,7.86-4.95,7.86-8,0-1.3-.79-2.31-2.78-2.31-4.07,0-6.24,3.01-6.24,3.01,2.04-4.35,3.98-8.28,3.98-10.83,0-1.57-.6-3.05-3.52-3.05-1.67,0-3.28,1.34-3.28,1.34.79.93,1.16,2.17,1.16,3.56,0,6.99-8.51,18.78-8.51,24.06,0,1.67.88,2.54,3.1,2.54,1.76,0,2.59-1.3,2.59-1.3l-.14-1.67c0-2.22.65-4.63,1.43-6.99,1.3.56,1.48,1.76,1.48,3.15l-.05,2.73c0,2.17.97,4.07,3.89,4.07,1.26,0,2.5-1.08,3.6-2.53.49,1.47,1.66,2.53,3.61,2.53.64,0,1.26-.2,1.85-.53-.14.2-.27.39-.42.58-.83,1.11-1.67,1.67-2.5,1.67-.51,0-1.02-.09-1.53-.28-.74,0-1.43.55-2.04,1.67-.6,1.11-.93,2.27-.93,3.52,0,1.06.28,1.99.88,2.78.55.79,1.53,1.2,2.87,1.2,1.25,0,2.31-.46,3.28-1.39.93-.93,1.76-2.13,2.45-3.56.69-1.43,1.25-2.64,1.67-3.61,1.71-1.62,3.42-3.84,5.14-6.57.06-.1.11-.19.17-.29.4,2.79,2.09,4.83,5.36,4.83s5.69-2.31,7.36-4.67h.46c2.45,0,4.21-1.67,5.74-5.6h-2.08Zm-39.12-2.73c.74-1.85,3.28-4.63,5.32-4.63.32,0,.51.19.51.42,0,.97-2.68,3.47-5.83,4.21Zm30.56,6.71c-1.9,0-2.64-1.39-2.64-3.19,0-1.67.65-3.79,1.8-5.51-.19.65-.23,1.39-.23,2.08,0,2.31.79,4.76,2.59,6.25,0,0-.56.37-1.53.37Zm3.79-2.96c-1.67-.88-2.45-2.31-2.45-3.89,0-1.85.97-3.56,2.5-3.56.88,0,1.39.88,1.39,2.45,0,1.48-.42,3.19-1.43,5Z"/>
    <path class="cls-1" d="m55.57,12.53c0-4.49-2.54-9.21-8.1-9.21-8.56,0-15.45,8.7-20.63,16.84-2.91-1.3-4.72-3.7-4.72-5.97s1.53-5,4.49-5l1.34.14c0-4.12-4.58-5.23-5.78-5.23-4.72,0-9.48,3.56-9.48,9.71,0,3.89,2.96,8.84,10.87,11.61-.14.09-4.63,8.28-9.62,8.28-4.3,0-4.81-4.39-4.81-4.39-2.78,0-5.04,3.7-5.04,7.54s2.5,8,9.48,8,11.94-8.56,16.14-18.18c1.76.42,2.31.74,3.93,1.2-.65,1.48-1.8,4.72-1.8,7.22,0,4.3,3.01,7.54,7.54,7.54,4.86,0,8.28-3.28,8.28-8.93,0-3.56-3.01-6.62-7.31-8.19.88-5.37,5.51-14.2,8.79-17.86h.05c.19,0,1.2.79,1.2,1.76,0,.65-.6,2.36-1.57,2.36-.56,0-.93-.51-.93-.55-1.48,0-2.87,2.59-2.87,5.04,0,2.22,1.16,4.39,4.39,4.39h.05c3.98,0,6.11-3.98,6.11-8.14Zm-12.49,21.19c0,1.2-.74,1.62-1.39,1.62-1.57,0-2.04-1.71-2.04-3.33,0-.56.05-1.16.14-1.62.28.09,3.28,1.02,3.28,3.33Zm-7.73-10.22c-.6-.23-1.57-.69-3.75-1.34,2.78-6.01,8.65-15.13,13.65-15.13h.69c-1.94,1.76-8.6,12.03-10.59,16.47Z"/>
    <path class="cls-1" d="m74.96,21.08c1.62,0,2.91-1.06,3.01-2.45,0-1.11-1.06-1.99-2.5-1.99-1.67,0-2.96,1.06-3.01,2.41,0,1.16,1.06,2.04,2.5,2.04Z"/>
    <path class="cls-1" d="m80.14,20.48c.46.42,1.06.6,1.76.6.79,0,1.43-.23,2.04-.65.56-.42.88-.97.97-1.57l.05-.23c0-.56-.23-1.02-.69-1.43-.51-.37-1.11-.56-1.8-.56-.79,0-1.48.23-2.08.69-.65.46-.97,1.06-.97,1.76,0,.56.23,1.02.74,1.39Z"/>
    <path class="cls-1" d="m88.31,20.1c.97.32,2.23.46,3.68.46,1.64,0,3-.18,4.26-.49,1.16-.32,1.84-.74,2.03-1.2l.1-.18c0-.42-.48-.77-1.45-1.09-1.07-.28-2.32-.42-3.78-.42-1.64,0-3.1.18-4.36.53-1.36.35-2.03.81-2.03,1.34,0,.42.48.77,1.55,1.06Z"/>
  </g>
</svg>