<?xml version="1.0" encoding="UTF-8"?>
<svg id="_內容" data-name="內容" xmlns="http://www.w3.org/2000/svg" viewBox="0 0 92.37 80.91">
  <defs>
    <style>
      .cls-1 {
        fill: none;
      }

      .cls-1, .cls-2, .cls-3 {
        stroke-width: 0px;
      }

      .cls-2 {
        fill: #f74f06;
      }

      .cls-3 {
        fill: blue;
      }
    </style>
  </defs>
  <path class="cls-3" d="m79.76,39.8c10.89-6.31,12.46-11.91,12.41-14.73-.05-2.66-1.59-4.95-4.22-6.3-3.79-1.93-10.94-2.26-18.86,2.95-.5-9.8-3.91-20.98-12.06-21.48-5.87-.34-10.98,5.5-12.62,14.34-13.29-10.26-21.79-9.93-25.05-6.48-3.36,3.56-1.79,10.36,3.86,17.15-11.36.02-22.64,2.55-23.04,8.3-.29,4.26,5.86,7.86,15.76,9.29C5.87,53.24-.51,67.19,6.5,74.36c4.76,4.87,15.1,4.47,27.67-7.14-.41,7.57,1.08,12.47,4.06,13.2.25.06.51.09.77.09,3.55,0,7.92-5.66,12.4-16.09,6.18,4.58,9.56,6.03,11.59,4.99,2.4-1.23,2.32-5.62,2.2-12.28-.02-1.18-.04-2.44-.05-3.75,14.61,2.06,25.14.62,26.27-3.62.8-3-3.33-6.52-11.65-9.97Z"/>
  <g>
    <path class="cls-2" d="m64.64,52.81c.06,14.68,1.95,22.37-13.44,10.83,0,0,0,0,0,0-10.1,23.84-17.74,18.97-16.44,2.36,0-.01,0-.02-.02,0-25.63,24.56-44.26,2.98-17.74-23.52-23.52-2.98-22.08-17.09,7.32-16.72-14.14-15.98-2.81-28.61,20.45-10.26,3.15-20.12,22.92-21.45,23.87,7.14,18.08-12.62,36.02,2.75,9.99,17.24,22.53,8.96,12.24,16.77-13.98,12.93Z"/>
    <path class="cls-3" d="m39,80.51c-.26,0-.52-.03-.77-.09-2.98-.73-4.47-5.63-4.06-13.2-12.56,11.6-22.91,12-27.67,7.14-7.01-7.17-.63-21.11,9.44-31.51C6.04,41.42-.12,37.81.18,33.56c.4-5.75,11.68-8.28,23.04-8.3-5.66-6.78-7.23-13.59-3.86-17.15,3.27-3.46,11.76-3.78,25.05,6.48C46.04,5.75,51.15-.09,57.02.25c8.16.5,11.57,11.68,12.06,21.48,7.93-5.21,15.07-4.88,18.86-2.95,2.64,1.34,4.18,3.64,4.22,6.3.05,2.82-1.52,8.42-12.41,14.73,8.32,3.44,12.45,6.97,11.65,9.97-1.14,4.24-11.66,5.68-26.27,3.62,0,1.31.03,2.56.05,3.75.12,6.65.19,11.05-2.2,12.28-2.03,1.04-5.41-.41-11.59-4.99-4.48,10.43-8.85,16.09-12.4,16.09Zm-4.36-15.11l.63.29-.02.35c-.59,7.52.67,12.78,3.22,13.4,1.16.28,5.5-.02,12.27-16l.22-.53.5.29c5.95,4.46,9.46,6.13,11.08,5.31,1.84-.94,1.77-5.32,1.66-11.37-.02-1.36-.05-2.81-.06-4.34v-.58s.57.08.57.08c15.78,2.31,24.89.34,25.74-2.81.67-2.48-3.83-5.91-12.01-9.17l-.98-.39.92-.51c8.22-4.57,12.88-9.81,12.8-14.35-.04-2.31-1.35-4.24-3.68-5.43-3.66-1.87-10.73-2.1-18.59,3.39l-.76.53-.03-.92c-.5-15.33-6.33-21.12-11.16-21.41-5.51-.33-10.33,5.55-11.71,14.33l-.13.85-.67-.53c-12.3-9.7-21.1-10.55-24.37-7.09-2.6,2.75-2.18,8.96,4.61,16.63l.75.85h-1.13c-15.54-.21-22.87,3.67-23.13,7.35-.3,4.33,8.02,7.37,15.88,8.36l1.01.13-.72.72c-13.37,13.37-15.22,25.62-10.13,30.82,6.25,6.39,18.47.33,27.17-8.02l.25-.24Z"/>
  </g>
  <g>
    <path class="cls-1" d="m60.81,2.05c-.05-.03-.1-.07-.15-.1v.36c.05-.1.1-.18.15-.26Z"/>
    <path class="cls-1" d="m57.16,2.62c-.11-.11-.26-.17-.45-.17-.22,0-.39.09-.52.26-.08.11-.13.27-.16.48h1.33c-.03-.26-.1-.45-.21-.56Z"/>
    <path class="cls-1" d="m65.48,12.15c-.08.07-.11.16-.11.25,0,.11.04.19.11.26.07.07.18.1.33.1s.29-.04.42-.11.22-.16.28-.27c.05-.11.08-.24.08-.41v-.22c-.19.07-.38.12-.58.18-.27.07-.45.15-.52.22Z"/>
    <path class="cls-1" d="m18.56,10.38c.09-.13.22-.24.4-.34.12-.07.3-.12.51-.16s.45-.06.71-.06c.41,0,.73.02.98.07.25.05.45.14.62.28.12.1.21.24.27.42s.1.36.1.52v1.56c0,.17.01.3.03.39s.07.21.14.36h-1.27c-.05-.09-.08-.16-.1-.21-.02-.05-.03-.12-.05-.22-.18.17-.35.29-.53.37-.24.1-.52.15-.84.15-.42,0-.74-.1-.96-.29-.22-.2-.33-.44-.33-.72,0-.27.08-.49.24-.66.16-.17.45-.3.87-.39.51-.1.84-.17.99-.21s.31-.09.48-.16c0-.17-.03-.28-.1-.35-.07-.07-.19-.1-.36-.1-.22,0-.39.04-.5.11-.09.06-.16.16-.21.31l-1.27-.13c-.53,1.94-.26,4.39.9,7.17h.42v.58c.12-.25.25-.42.38-.52s.29-.14.48-.14.42.06.66.19l-.42.96c-.16-.07-.29-.1-.38-.1-.18,0-.32.07-.41.22-.03.05-.06.11-.09.18,1.02,2,2.46,4.12,4.4,6.31-6.23-.08-11.2.5-14.94,1.48v2.33l1.01-1.17h1.67l-1.27,1.24,1.34,2.3h-1.53l-.72-1.42-.51.5v.92h-1.38v-4.29c-.63.2-1.22.4-1.77.62l1.38,3.67h-1.58l-.24-.81h-1.71l-.24.81h-1.54l.72-1.91c-3.05,2.29-3.07,5.14-.2,7.59l-.53-2.38h1.43l.52,2.73.75-2.73h1.43l.76,2.73.52-2.73h1.42l-1.08,4.88h-.87c2.55,1.03,5.82,1.87,9.84,2.38-1.38,1.37-2.62,2.74-3.76,4.08,0,.05.01.09.01.14v.15h-.26c-.13.15-.26.31-.39.46l.57.05c-.2.35-.45.61-.74.76-.16.09-.38.14-.62.18-1.96,2.51-3.52,4.94-4.71,7.25v.67l1.01-1.17h1.67l-1.27,1.24,1.34,2.3h-1.53l-.72-1.42-.51.5v.92h-1.37c-.6,1.54-1.03,3.02-1.29,4.42l.44,1.6.52-2.73h1.42l-1.08,4.88h-1.48l-.16-.58c-.02,2.01.33,3.79,1.03,5.29l.27-1.4h1.42l-.68,3.1c.37.49.78.93,1.23,1.32-.08-.09-.16-.18-.23-.29-.18-.29-.26-.62-.26-1.01,0-.55.18-1,.53-1.34.35-.34.84-.51,1.47-.51.51,0,.9.08,1.2.23.29.15.52.38.67.67.15.29.23.67.23,1.13v.15h-2.71c.02.22.08.38.18.49.13.15.3.23.51.23.13,0,.26-.03.38-.1.07-.04.15-.12.24-.22l1.33.12c-.2.35-.45.61-.74.76-.29.15-.7.23-1.24.23-.47,0-.84-.07-1.1-.2-.06-.03-.1-.07-.16-.11,3.2,2.54,8.37,2.89,14.63.09-.26-.13-.47-.33-.64-.61-.18-.29-.26-.62-.26-1.01,0-.55.18-1,.53-1.34.35-.34.84-.51,1.47-.51.51,0,.9.08,1.2.23.29.15.52.38.67.67.13.25.19.57.21.94,1.38-.81,2.8-1.76,4.25-2.86l.09-.24h.23c1.53-1.18,3.11-2.54,4.7-4.07,0,0,.02,0,.02,0-.11,1.45-.15,2.8-.14,4.06h.43v2.52l1.01-1.17h1.67l-1.27,1.24,1.34,2.3h-1.53l-.72-1.42-.51.5v.67c1.25,6.41,5.08,7.61,10.21.25-.2.05-.42.08-.66.08-.57,0-1.03-.14-1.38-.43-.43-.36-.65-.83-.65-1.4,0-.54.18-.98.55-1.33.36-.35.85-.52,1.47-.52.71,0,1.24.21,1.6.62.23.26.34.58.39.94,1.16-1.93,2.38-4.27,3.65-7.07v-1.6h-.51v-.99h.51v-.16c0-.14.02-.3.05-.48s.09-.31.17-.42.21-.2.36-.27c.15-.07.38-.1.68-.1.24,0,.58.03,1.04.08l-.15.82c-.16-.03-.29-.04-.39-.04-.12,0-.21.02-.26.06s-.09.11-.11.19c-.01.05-.02.15-.02.31h.65v.99h-.25c.28.2.55.41.82.6v-2.93h1.38v2.52l1.01-1.17h1.67l-1.27,1.24,1.34,2.3h-1.26c5.64,3.56,7.83,3.03,8.62-.25-.2-.19-.3-.42-.3-.69s.08-.49.24-.66c.08-.09.19-.16.33-.22.02-.21.04-.43.06-.65l-.52-.06c.05-.23.12-.4.21-.53.09-.12.21-.23.37-.32.07-1.39.06-3.01.03-4.8h0v-.13c-.03-1.73-.07-3.62-.08-5.65,25.99,3.8,36.32-3.84,14.52-12.71h-1c-.05-.09-.08-.16-.1-.21-.02-.05-.03-.12-.05-.22-.18.17-.35.29-.53.37-.24.1-.52.15-.84.15-.42,0-.74-.1-.96-.29-.22-.2-.33-.44-.33-.72,0-.27.08-.49.24-.66.16-.17.45-.3.87-.39.51-.1.84-.17.99-.21s.31-.09.48-.16c0-.17-.03-.28-.1-.35-.07-.07-.19-.1-.36-.1-.22,0-.39.04-.5.11-.09.06-.16.16-.21.31l-1.29-.14c.05-.23.12-.4.21-.53.09-.13.22-.24.4-.34.12-.07.3-.12.51-.16s.45-.06.71-.06c.41,0,.73.02.98.07.25.05.45.14.62.28.12.1.21.24.27.42s.1.36.1.52v1.56c0,.06,0,.1.01.15.19-.11.39-.22.58-.33,0-.02-.02-.03-.02-.05h.11c.3-.19.6-.37.89-.55-.07-.02-.15-.04-.2-.06-.18-.07-.34-.19-.46-.35s-.19-.36-.19-.57c0-.23.07-.43.2-.6s.32-.29.56-.38c.24-.08.56-.12.95-.12.42,0,.73.03.93.1.2.06.37.16.5.3.03.03.05.07.08.11,2.85-2.02,4.9-4.02,6.26-5.93v-1.09c0-.16,0-.26-.03-.32-.03-.09-.08-.16-.15-.21-.07-.05-.15-.08-.25-.08-.16,0-.28.06-.38.18s-.15.31-.15.58v1.8h-1.36v-3.53h1.26v.52c.18-.22.37-.37.55-.46.19-.09.41-.14.67-.14.28,0,.51.05.67.15.16.1.3.25.4.45.03-.03.05-.05.08-.07,4.44-9.58-8.83-15.51-22.18-6.2-.12-3.51-.52-6.57-1.14-9.2h-.68c-.05-.09-.08-.16-.1-.21-.02-.05-.03-.12-.05-.22-.18.17-.35.29-.53.37-.24.1-.52.15-.84.15-.42,0-.74-.1-.96-.29-.22-.2-.33-.44-.33-.72,0-.27.08-.49.24-.66.16-.17.45-.3.87-.39.51-.1.84-.17.99-.21s.31-.09.48-.16c0-.17-.03-.28-.1-.35-.07-.07-.19-.1-.36-.1-.22,0-.39.04-.5.11-.09.06-.16.16-.21.31l-1.29-.14c.05-.23.12-.4.21-.53.09-.13.22-.24.4-.34.12-.07.3-.12.51-.16s.45-.06.71-.06c.18,0,.33,0,.47.01-1.21-3.26-2.83-5.6-4.64-7.09l-.02.05c-.16-.07-.29-.1-.38-.1-.18,0-.32.07-.41.22-.14.21-.21.59-.21,1.16v1.18h-1.36V1.73h.89c-2.03-1.11-4.22-1.26-6.31-.53v.11h-.32c-.31.12-.61.26-.92.42h1.24v3.53h-1.35V1.79c-.12.06-.23.13-.34.2l-.35.81c-.16-.07-.29-.1-.38-.1-.18,0-.32.07-.41.22-.14.21-.21.59-.21,1.16v1.18h-1.36v-1c-1.39,1.55-2.6,3.59-3.5,6.1.13.22.21.49.21.86v2.22h-1.1c-.15.66-.29,1.35-.4,2.06-1.08-.85-2.12-1.61-3.14-2.33v.27h-1.36v-1.2c-.94-.62-1.85-1.18-2.74-1.7l-.19.44c-.16-.07-.29-.1-.38-.1-.18,0-.32.07-.41.22-.14.21-.21.59-.21,1.16v1.18h-1.36v-3.53h1.27v.58c.11-.23.23-.39.35-.49-9.91-5.44-16.48-4.15-18.09.52.02-.05.05-.1.07-.14Zm66.35,18.84c-.07-.07-.19-.1-.36-.1-.22,0-.39.04-.5.11-.09.06-.16.16-.21.31l-1.29-.14c.05-.23.12-.4.21-.53.09-.13.22-.24.4-.34.12-.07.3-.12.51-.16s.45-.06.71-.06c.41,0,.73.02.98.07.25.05.45.14.62.28.12.1.21.24.27.42s.1.36.1.52v1.56c0,.17.01.3.03.39s.07.21.14.36h-1.27c-.05-.09-.08-.16-.1-.21-.02-.05-.03-.12-.05-.22-.18.17-.35.29-.53.37-.24.1-.52.15-.84.15-.42,0-.74-.1-.96-.29-.22-.2-.33-.44-.33-.72,0-.27.08-.49.24-.66.16-.17.45-.3.87-.39.51-.1.84-.17.99-.21s.31-.09.48-.16c0-.17-.03-.28-.1-.35Zm-8.76-.39c.35-.34.84-.51,1.47-.51.51,0,.9.08,1.2.23.29.15.52.38.67.67.15.29.23.67.23,1.13v.15h-2.71c.02.22.08.38.18.49.13.15.3.23.51.23.13,0,.26-.03.38-.1.07-.04.15-.12.24-.22l1.33.12c-.2.35-.45.61-.74.76-.29.15-.7.23-1.24.23-.47,0-.84-.07-1.1-.2-.27-.13-.49-.34-.67-.63-.18-.29-.26-.62-.26-1.01,0-.55.18-1,.53-1.34Zm-4.67-1.78h1.38v2.52l1.01-1.17h1.67l-1.27,1.24,1.34,2.3h-1.53l-.72-1.42-.51.5v.92h-1.38v-4.88Zm-.24,9.91c.28-.31.64-.47,1.07-.47.21,0,.4.04.57.11s.32.18.46.32v-1.69h1.37v4.88h-1.27v-.52c-.18.22-.34.37-.49.45-.2.1-.41.15-.65.15-.48,0-.85-.18-1.1-.55-.25-.37-.38-.81-.38-1.33,0-.59.14-1.03.42-1.34Zm-1.98-9.91h1.35v.92h-1.35v-.92Zm0,1.34h1.35v3.53h-1.35v-3.53Zm-2.27-1.34h1.36v4.88h-1.36v-4.88Zm1.76,10.35c-.07-.07-.19-.1-.36-.1-.22,0-.39.04-.5.11-.09.06-.16.16-.21.31l-1.29-.14c.05-.23.12-.4.21-.53.09-.13.22-.24.4-.34.12-.07.3-.12.51-.16s.45-.06.71-.06c.41,0,.73.02.98.07.25.05.45.14.62.28.12.1.21.24.27.42s.1.36.1.52v1.56c0,.17.01.3.03.39s.07.21.14.36h-1.27c-.05-.09-.08-.16-.1-.21-.02-.05-.03-.12-.05-.22-.18.17-.35.29-.53.37-.24.1-.52.15-.84.15-.42,0-.74-.1-.96-.29-.22-.2-.33-.44-.33-.72,0-.27.08-.49.24-.66.16-.17.45-.3.87-.39.51-.1.84-.17.99-.21s.31-.09.48-.16c0-.17-.03-.28-.1-.35Zm-44.81-10.35h1.35v.92h-1.35v-.92Zm0,1.34h1.35v3.53h-1.35v-3.53Zm-2.7,8.31c.12-.07.3-.12.51-.16s.45-.06.71-.06c.41,0,.73.02.98.07.25.05.45.14.62.28.12.1.21.24.27.42s.1.36.1.52v1.56c0,.17.01.3.03.39s.07.21.14.36h-1.27c-.05-.09-.08-.16-.1-.21-.02-.05-.03-.12-.05-.22-.18.17-.35.29-.53.37-.24.1-.52.15-.84.15-.42,0-.74-.1-.96-.29-.22-.2-.33-.44-.33-.72,0-.27.08-.49.24-.66.16-.17.45-.3.87-.39.51-.1.84-.17.99-.21s.31-.09.48-.16c0-.17-.03-.28-.1-.35-.07-.07-.19-.1-.36-.1-.22,0-.39.04-.5.11-.09.06-.16.16-.21.31l-1.29-.14c.05-.23.12-.4.21-.53.09-.13.22-.24.4-.34Zm7.04-6c-.07-.04-.27-.08-.58-.14-.47-.08-.8-.16-.98-.23-.18-.07-.34-.19-.46-.35s-.19-.36-.19-.57c0-.23.07-.43.2-.6s.32-.29.56-.38c.24-.08.56-.12.95-.12.42,0,.73.03.93.1.2.06.37.16.5.3.13.14.25.32.33.55l-1.28.13c-.03-.11-.09-.2-.17-.25-.11-.07-.23-.11-.39-.11s-.26.03-.33.08-.1.12-.1.2c0,.09.04.15.13.2s.28.08.58.12c.45.05.79.12,1,.21.22.09.39.22.5.39.12.17.17.35.17.56s-.06.4-.19.59-.32.35-.58.46-.63.17-1.08.17c-.65,0-1.1-.09-1.38-.28-.27-.18-.45-.45-.53-.79l1.34-.13c.06.16.13.27.23.34.1.07.23.1.4.1.18,0,.32-.04.42-.12.08-.06.12-.13.12-.22,0-.1-.05-.17-.15-.23Zm-3.07,16.63c.13.15.3.23.51.23.13,0,.26-.03.38-.1.07-.04.15-.12.24-.22l1.33.12c-.2.35-.45.61-.74.76-.29.15-.7.23-1.24.23-.47,0-.84-.07-1.1-.2-.27-.13-.49-.34-.67-.63-.18-.29-.26-.62-.26-1.01,0-.55.18-1,.53-1.34.35-.34.84-.51,1.47-.51.51,0,.9.08,1.2.23.29.15.52.38.67.67.15.29.23.67.23,1.13v.15h-2.71c.02.22.08.38.18.49Zm-3.54,7.3v-.92h1.35v.92h-1.35Zm1.35.42v3.53h-1.35v-3.53h1.35Zm-.34-9.34c-.18,0-.32.07-.41.22-.14.21-.21.59-.21,1.16v1.18h-1.36v-3.53h1.27v.58c.12-.25.25-.42.38-.52s.29-.14.48-.14.42.06.66.19l-.42.96c-.16-.07-.29-.1-.38-.1Zm-4.83-18.6h2.15v.72h-2.15v-.72Zm-.41,1.72c.36-.35.85-.52,1.47-.52.71,0,1.24.21,1.6.62.29.33.44.74.44,1.22,0,.54-.18.99-.54,1.34s-.86.52-1.5.52c-.57,0-1.03-.14-1.38-.43-.43-.36-.65-.83-.65-1.4,0-.54.18-.98.55-1.33Zm-2.6-1.79h1.36v.93h-1.36v-.93Zm-1.61,11.62h-2.71c.02.22.08.38.18.49.13.15.3.23.51.23.13,0,.26-.03.38-.1.07-.04.15-.12.24-.22l1.33.12c-.2.35-.45.61-.74.76-.29.15-.7.23-1.24.23-.47,0-.84-.07-1.1-.2-.27-.13-.49-.34-.67-.63-.18-.29-.26-.62-.26-1.01,0-.55.18-1,.53-1.34.35-.34.84-.51,1.47-.51.51,0,.9.08,1.2.23.29.15.52.38.67.67.15.29.23.67.23,1.13v.15Zm.69-6.75h-1.35v-3.53h1.35v3.53Zm0-3.96h-1.35v-.92h1.35v.92Zm1.1,5.39c-.26,0-.59-.04-.97-.12l.2-.98c.11.02.19.03.24.03.12,0,.2-.04.26-.12.06-.08.09-.24.09-.47v-3.31h1.36v3.43c0,.44-.03.75-.09.93-.06.18-.18.33-.35.44-.17.11-.41.17-.73.17Zm1.44,7.86c-.27-.21-.4-.5-.4-.86,0-.04,0-.1,0-.18l1.31.15c.03.12.08.21.15.25.1.07.23.1.38.1.19,0,.34-.05.44-.16.1-.1.14-.29.14-.55v-.54c-.13.16-.27.27-.4.34-.21.11-.43.17-.68.17-.47,0-.85-.21-1.14-.62-.21-.29-.31-.68-.31-1.16,0-.55.13-.97.4-1.26.27-.29.61-.43,1.04-.43.27,0,.5.05.68.14s.35.25.5.46v-.52h1.27v3.49c0,.22-.04.43-.14.63s-.22.36-.38.49c-.16.12-.35.21-.6.27-.24.06-.52.08-.83.08-.71,0-1.2-.11-1.46-.32Zm1.98,4.35c-.07-.07-.19-.1-.36-.1-.22,0-.39.04-.5.11-.09.06-.16.16-.21.31l-1.29-.14c.05-.23.12-.4.21-.53.09-.13.22-.24.4-.34.12-.07.3-.12.51-.16s.45-.06.71-.06c.41,0,.73.02.98.07.25.05.45.14.62.28.12.1.21.24.27.42s.1.36.1.52v1.56c0,.17.01.3.03.39s.07.21.14.36h-1.27c-.05-.09-.08-.16-.1-.21-.02-.05-.03-.12-.05-.22-.18.17-.35.29-.53.37-.24.1-.52.15-.84.15-.42,0-.74-.1-.96-.29-.22-.2-.33-.44-.33-.72,0-.27.08-.49.24-.66.16-.17.45-.3.87-.39.51-.1.84-.17.99-.21s.31-.09.48-.16c0-.17-.03-.28-.1-.35Zm-2.86,8.21h2.15v.72h-2.15v-.72Zm2.02,12.95c0,.22-.05.43-.14.63s-.22.36-.38.49c-.16.12-.35.21-.6.27-.24.06-.52.08-.83.08-.71,0-1.2-.11-1.46-.32s-.4-.5-.4-.86c0-.04,0-.1,0-.18l1.31.15c.03.12.08.21.15.25.1.07.23.1.38.1.19,0,.34-.05.44-.16.1-.1.14-.29.14-.55v-.54c-.13.16-.27.27-.4.34-.21.11-.43.17-.68.17-.47,0-.85-.21-1.14-.62-.21-.29-.31-.68-.31-1.16,0-.55.13-.97.4-1.26.27-.29.61-.43,1.04-.43.27,0,.5.05.68.14s.35.25.5.46v-.52h1.27v3.49Zm-5.02-13.01h1.36v.93h-1.36v-.93Zm-1.61,11.62h-2.71c.02.22.08.38.18.49.13.15.3.23.51.23.13,0,.26-.03.38-.1.07-.04.15-.12.24-.22l1.33.12c-.2.35-.45.61-.74.76-.29.15-.7.23-1.24.23-.47,0-.84-.07-1.1-.2-.27-.13-.49-.34-.67-.63-.18-.29-.26-.62-.26-1.01,0-.55.18-1,.53-1.34.35-.34.84-.51,1.47-.51.51,0,.9.08,1.2.23.29.15.52.38.67.67.15.29.23.67.23,1.13v.15Zm.69-6.75h-1.35v-3.53h1.35v3.53Zm0-3.96h-1.35v-.92h1.35v.92Zm1.1,5.39c-.26,0-.59-.04-.97-.12l.2-.98c.11.02.19.03.24.03.12,0,.2-.04.26-.12.06-.08.09-.24.09-.47v-3.31h1.36v3.43c0,.44-.03.75-.09.93-.06.18-.18.33-.35.44-.17.11-.41.17-.73.17Zm3.74,14.92c-.05-.09-.08-.16-.1-.21-.02-.05-.03-.12-.05-.22-.18.17-.35.29-.53.37-.24.1-.52.15-.84.15-.42,0-.74-.1-.96-.29-.22-.2-.33-.44-.33-.72,0-.27.08-.49.24-.66.16-.17.45-.3.87-.39.51-.1.84-.17.99-.21s.31-.09.48-.16c0-.17-.03-.28-.1-.35-.07-.07-.19-.1-.36-.1-.22,0-.39.04-.5.11-.09.06-.16.16-.21.31l-1.29-.14c.05-.23.12-.4.21-.53.09-.13.22-.24.4-.34.12-.07.3-.12.51-.16s.45-.06.71-.06c.41,0,.73.02.98.07.25.05.45.14.62.28.12.1.21.24.27.42s.1.36.1.52v1.56c0,.17.01.3.03.39s.07.21.14.36h-1.27Zm.15-16.27c-.57,0-1.03-.14-1.38-.43-.43-.36-.65-.83-.65-1.4,0-.54.18-.98.55-1.33.36-.35.85-.52,1.47-.52.71,0,1.24.21,1.6.62.29.33.44.74.44,1.22,0,.54-.18.99-.54,1.34s-.86.52-1.5.52Zm4.14,13.81c-.16-.07-.29-.1-.38-.1-.18,0-.32.07-.41.22-.14.21-.21.59-.21,1.16v1.18h-1.36v-3.53h1.27v.58c.12-.25.25-.42.38-.52s.29-.14.48-.14.42.06.66.19l-.42.96Zm.26-5.71c-.05-.09-.08-.16-.1-.21-.02-.05-.03-.12-.05-.22-.18.17-.35.29-.53.37-.24.1-.52.15-.84.15-.42,0-.74-.1-.96-.29-.22-.2-.33-.44-.33-.72,0-.27.08-.49.24-.66.16-.17.45-.3.87-.39.51-.1.84-.17.99-.21s.31-.09.48-.16c0-.17-.03-.28-.1-.35-.07-.07-.19-.1-.36-.1-.22,0-.39.04-.5.11-.09.06-.16.16-.21.31l-1.29-.14c.05-.23.12-.4.21-.53.09-.13.22-.24.4-.34.12-.07.3-.12.51-.16s.45-.06.71-.06c.41,0,.73.02.98.07.25.05.45.14.62.28.12.1.21.24.27.42s.1.36.1.52v1.56c0,.17.01.3.03.39s.07.21.14.36h-1.27Zm3.29.08c-.34,0-.59-.04-.75-.13-.16-.09-.28-.22-.35-.39-.08-.18-.11-.46-.11-.86v-1.24h-.5v-.99h.5v-.65l1.36-.7v1.34h.75v.99h-.75v1.25c0,.15.01.25.04.3.04.08.12.11.23.11.1,0,.24-.03.42-.09l.1.94c-.33.07-.65.11-.94.11Zm-.16-8.45c-.27-.18-.45-.45-.53-.79l1.34-.13c.06.16.13.27.23.34.1.07.23.1.4.1.18,0,.32-.04.42-.12.08-.06.12-.13.12-.22,0-.1-.05-.17-.15-.23-.07-.04-.27-.08-.58-.14-.47-.08-.8-.16-.98-.23-.18-.07-.34-.19-.46-.35s-.19-.36-.19-.57c0-.23.07-.43.2-.6s.32-.29.56-.38c.24-.08.56-.12.95-.12.42,0,.73.03.93.1.2.06.37.16.5.3.13.14.25.32.33.55l-1.28.13c-.03-.11-.09-.2-.17-.25-.11-.07-.23-.11-.39-.11s-.26.03-.33.08-.1.12-.1.2c0,.09.04.15.13.2s.28.08.58.12c.45.05.79.12,1,.21.22.09.39.22.5.39.12.17.17.35.17.56s-.06.4-.19.59-.32.35-.58.46-.63.17-1.08.17c-.65,0-1.1-.09-1.38-.28Zm5.43,8.37h-1.36v-1.94c0-.22-.04-.38-.12-.47-.08-.09-.2-.14-.35-.14-.16,0-.3.06-.4.19-.1.12-.15.35-.15.67v1.7h-1.35v-4.88h1.35v1.8c.18-.19.37-.33.55-.41.18-.08.4-.12.65-.12.37,0,.66.11.87.34.21.22.32.57.32,1.03v2.25Zm.04-29.03c-.1.12-.15.35-.15.67v1.7h-1.35v-4.88h1.35v1.8c.18-.19.37-.33.55-.41.18-.08.4-.12.65-.12.37,0,.66.11.87.34.21.22.32.57.32,1.03v2.25h-1.36v-1.94c0-.22-.04-.38-.12-.47-.08-.09-.2-.14-.35-.14-.16,0-.3.06-.4.19Zm2.98,18.15c-.07-.07-.19-.1-.36-.1-.22,0-.39.04-.5.11-.09.06-.16.16-.21.31l-1.29-.14c.05-.23.12-.4.21-.53.09-.13.22-.24.4-.34.12-.07.3-.12.51-.16s.45-.06.71-.06c.41,0,.73.02.98.07.25.05.45.14.62.28.12.1.21.24.27.42s.1.36.1.52v1.56c0,.17.01.3.03.39s.07.21.14.36h-1.27c-.05-.09-.08-.16-.1-.21-.02-.05-.03-.12-.05-.22-.18.17-.35.29-.53.37-.24.1-.52.15-.84.15-.42,0-.74-.1-.96-.29-.22-.2-.33-.44-.33-.72,0-.27.08-.49.24-.66.16-.17.45-.3.87-.39.51-.1.84-.17.99-.21s.31-.09.48-.16c0-.17-.03-.28-.1-.35Zm1.71,9.45h-2.71c.02.22.08.38.18.49.13.15.3.23.51.23.13,0,.26-.03.38-.1.07-.04.15-.12.24-.22l1.33.12c-.2.35-.45.61-.74.76-.29.15-.7.23-1.24.23-.47,0-.84-.07-1.1-.2-.27-.13-.49-.34-.67-.63-.18-.29-.26-.62-.26-1.01,0-.55.18-1,.53-1.34.35-.34.84-.51,1.47-.51.51,0,.9.08,1.2.23.29.15.52.38.67.67.15.29.23.67.23,1.13v.15Zm-.37-17.06l-.24-.81h-1.71l-.24.81h-1.54l1.83-4.88h1.64l1.83,4.88h-1.58Zm.93-19.06c-.07-.07-.19-.1-.36-.1-.22,0-.39.04-.5.11-.09.06-.16.16-.21.31l-1.29-.14c.05-.23.12-.4.21-.53.09-.13.22-.24.4-.34.12-.07.3-.12.51-.16s.45-.06.71-.06c.41,0,.73.02.98.07.25.05.45.14.62.28.12.1.21.24.27.42s.1.36.1.52v1.56c0,.17.01.3.03.39s.07.21.14.36h-1.27c-.05-.09-.08-.16-.1-.21-.02-.05-.03-.12-.05-.22-.18.17-.35.29-.53.37-.24.1-.52.15-.84.15-.42,0-.74-.1-.96-.29-.22-.2-.33-.44-.33-.72,0-.27.08-.49.24-.66.16-.17.45-.3.87-.39.51-.1.84-.17.99-.21s.31-.09.48-.16c0-.17-.03-.28-.1-.35Zm3.99,7.41c.13-.09.29-.14.48-.14s.42.06.66.19l-.42.96c-.16-.07-.29-.1-.38-.1-.18,0-.32.07-.41.22-.14.21-.21.59-.21,1.16v1.18h-1.36v-3.53h1.27v.58c.12-.25.25-.42.38-.52Zm1.91-5.76c.14.15.31.23.53.23.18,0,.33-.05.45-.14.12-.09.21-.23.27-.42l1.29.15c-.07.27-.19.5-.35.7-.16.2-.37.35-.62.46-.25.11-.57.16-.96.16s-.69-.04-.94-.1-.46-.18-.64-.34-.32-.34-.42-.55-.15-.49-.15-.84.06-.67.19-.91c.09-.18.21-.34.37-.48.16-.14.32-.25.49-.31.26-.11.6-.16,1.01-.16.58,0,1.02.1,1.32.31.3.21.52.51.64.9l-1.27.17c-.04-.15-.11-.26-.22-.34-.11-.08-.25-.11-.42-.11-.22,0-.41.08-.54.24s-.21.4-.21.73c0,.29.07.51.21.66Zm3.55,5.75c.19-.09.41-.14.67-.14.28,0,.51.05.67.15.16.1.3.25.4.45.21-.23.41-.39.58-.47.18-.08.39-.12.65-.12.38,0,.67.11.89.34.21.23.32.58.32,1.06v2.22h-1.36v-2.01c0-.16-.03-.28-.09-.36-.09-.12-.2-.18-.34-.18-.16,0-.29.06-.38.17s-.15.3-.15.56v1.82h-1.36v-1.95c0-.16,0-.26-.03-.32-.03-.09-.08-.16-.15-.21-.07-.05-.15-.08-.25-.08-.16,0-.28.06-.38.18s-.15.31-.15.58v1.8h-1.36v-3.53h1.26v.52c.18-.22.37-.37.55-.46Zm3.53,18.49c.13-.09.29-.14.48-.14s.42.06.66.19l-.42.96c-.16-.07-.29-.1-.38-.1-.18,0-.32.07-.41.22-.14.21-.21.59-.21,1.16v1.18h-1.36v-3.53h1.27v.58c.12-.25.25-.42.38-.52Zm.49-7.28c-.36.35-.86.52-1.5.52-.57,0-1.03-.14-1.38-.43-.43-.36-.65-.83-.65-1.4,0-.54.18-.98.55-1.33.36-.35.85-.52,1.47-.52.71,0,1.24.21,1.6.62.29.33.44.74.44,1.22,0,.54-.18.99-.54,1.34Zm-6.49-3.09v3.53h-1.35v-3.53h1.35Zm-1.35-.42v-.92h1.35v.92h-1.35Zm3.46,11.56c-.07-.07-.19-.1-.36-.1-.22,0-.39.04-.5.11-.09.06-.16.16-.21.31l-1.29-.14c.05-.23.12-.4.21-.53.09-.13.22-.24.4-.34.12-.07.3-.12.51-.16s.45-.06.71-.06c.41,0,.73.02.98.07.25.05.45.14.62.28.12.1.21.24.27.42s.1.36.1.52v1.56c0,.17.01.3.03.39s.07.21.14.36h-1.27c-.05-.09-.08-.16-.1-.21-.02-.05-.03-.12-.05-.22-.18.17-.35.29-.53.37-.24.1-.52.15-.84.15-.42,0-.74-.1-.96-.29-.22-.2-.33-.44-.33-.72,0-.27.08-.49.24-.66.16-.17.45-.3.87-.39.51-.1.84-.17.99-.21s.31-.09.48-.16c0-.17-.03-.28-.1-.35Zm.17-11.14v3.43c0,.44-.03.75-.09.93-.06.18-.18.33-.35.44-.17.11-.41.17-.73.17-.26,0-.59-.04-.97-.12l.2-.98c.11.02.19.03.24.03.12,0,.2-.04.26-.12.06-.08.09-.24.09-.47v-3.31h1.36Zm-1.36-.41v-.93h1.36v.93h-1.36Zm3-.14v-.72h2.15v.72h-2.15Zm-8.48-.79v2.52l1.01-1.17h1.67l-1.27,1.24,1.34,2.3h-1.53l-.72-1.42-.51.5v.92h-1.38v-4.88h1.38Zm-.72-4.73h-2.71c.02.22.08.38.18.49.13.15.3.23.51.23.13,0,.26-.03.38-.1.07-.04.15-.12.24-.22l1.33.12c-.2.35-.45.61-.74.76-.29.15-.7.23-1.24.23-.47,0-.84-.07-1.1-.2-.27-.13-.49-.34-.67-.63-.18-.29-.26-.62-.26-1.01,0-.55.18-1,.53-1.34.35-.34.84-.51,1.47-.51.51,0,.9.08,1.2.23.29.15.52.38.67.67.15.29.23.67.23,1.13v.15Zm.73,25.63c-.16-.07-.29-.1-.38-.1-.18,0-.32.07-.41.22-.14.21-.21.59-.21,1.16v1.18h-1.36v-3.53h1.27v.58c.12-.25.25-.42.38-.52s.29-.14.48-.14.42.06.66.19l-.42.96Zm.22-6.08c-.18-.16-.32-.34-.42-.55s-.15-.49-.15-.84.06-.67.19-.91c.09-.18.21-.34.37-.48.16-.14.32-.25.49-.31.26-.11.6-.16,1.01-.16.58,0,1.02.1,1.32.31.3.21.52.51.64.9l-1.27.17c-.04-.15-.11-.26-.22-.34-.11-.08-.25-.11-.42-.11-.22,0-.41.08-.54.24s-.21.4-.21.73c0,.29.07.51.21.66.14.15.31.23.53.23.18,0,.33-.05.45-.14.12-.09.21-.23.27-.42l1.29.15c-.07.27-.19.5-.35.7-.16.2-.37.35-.62.46-.25.11-.57.16-.96.16s-.69-.04-.94-.1-.46-.18-.64-.34Zm2.07,16.72h-1.35v-3.53h1.35v3.53Zm0-3.96h-1.35v-.92h1.35v.92Zm2.28,3.85c0,.44-.03.75-.09.93-.06.18-.18.33-.35.44-.17.11-.41.17-.73.17-.26,0-.59-.04-.97-.12l.2-.98c.11.02.19.03.24.03.12,0,.2-.04.26-.12.06-.08.09-.24.09-.47v-3.31h1.36v3.43Zm0-3.84h-1.36v-.93h1.36v.93Zm3.8-.14h-2.15v-.72h2.15v.72Zm.57-4.09h-1.36v-2.01c0-.16-.03-.28-.09-.36-.09-.12-.2-.18-.34-.18-.16,0-.29.06-.38.17s-.15.3-.15.56v1.82h-1.36v-1.95c0-.16,0-.26-.03-.32-.03-.09-.08-.16-.15-.21-.07-.05-.15-.08-.25-.08-.16,0-.28.06-.38.18s-.15.31-.15.58v1.8h-1.36v-3.53h1.26v.52c.18-.22.37-.37.55-.46.19-.09.41-.14.67-.14.28,0,.51.05.67.15.16.1.3.25.4.45.21-.23.41-.39.58-.47.18-.08.39-.12.65-.12.38,0,.67.11.89.34.21.23.32.58.32,1.06v2.22Zm2.3.08c-.34,0-.59-.04-.75-.13-.16-.09-.28-.22-.35-.39-.08-.18-.11-.46-.11-.86v-1.24h-.5v-.99h.5v-.65l1.36-.7v1.34h.75v.99h-.75v1.25c0,.15.01.25.04.3.04.08.12.11.23.11.1,0,.24-.03.42-.09l.1.94c-.33.07-.65.11-.94.11Zm3.16-30.28v.99h-.75v1.25c0,.15.01.25.04.3.04.08.12.11.23.11.1,0,.24-.03.42-.09l.1.94c-.33.07-.65.11-.94.11-.34,0-.59-.04-.75-.13-.16-.09-.28-.22-.35-.39-.08-.18-.11-.46-.11-.86v-1.24h-.5v-.99h.5v-.65l1.36-.7v1.34h.75Zm-.7,10.35v1.36h-1.45v-1.36h1.45Zm.9,9.21c-.16-.07-.29-.1-.38-.1-.18,0-.32.07-.41.22-.14.21-.21.59-.21,1.16v1.18h-1.36v-3.53h1.27v.58c.12-.25.25-.42.38-.52s.29-.14.48-.14.42.06.66.19l-.42.96Zm2.05,2.46h-1.35v-3.53h1.35v3.53Zm0-3.96h-1.35v-.92h1.35v.92Zm.55-18.07v.99h-.65v2.54h-1.36v-2.54h-.51v-.99h.51v-.16c0-.14.02-.3.05-.48s.09-.31.17-.42.21-.2.36-.27c.15-.07.38-.1.68-.1.24,0,.58.03,1.04.08l-.15.82c-.16-.03-.29-.04-.39-.04-.12,0-.21.02-.26.06s-.09.11-.11.19c-.01.05-.02.15-.02.31h.65Zm4.24,20.59h-2.71c.02.22.08.38.18.49.13.15.3.23.51.23.13,0,.26-.03.38-.1.07-.04.15-.12.24-.22l1.33.12c-.2.35-.45.61-.74.76-.29.15-.7.23-1.24.23-.47,0-.84-.07-1.1-.2-.27-.13-.49-.34-.67-.63-.18-.29-.26-.62-.26-1.01,0-.55.18-1,.53-1.34.35-.34.84-.51,1.47-.51.51,0,.9.08,1.2.23.29.15.52.38.67.67.15.29.23.67.23,1.13v.15Zm-2.52-28.77v3.53h-1.35v-3.53h1.35Zm-1.35-.42v-.92h1.35v.92h-1.35Zm2.81,12.13l-.72-1.42-.51.5v.92h-1.38v-4.88h1.38v2.52l1.01-1.17h1.67l-1.27,1.24,1.34,2.3h-1.53Zm3.34,15.02c.13-.09.29-.14.48-.14s.42.06.66.19l-.42.96c-.16-.07-.29-.1-.38-.1-.18,0-.32.07-.41.22-.14.21-.21.59-.21,1.16v1.18h-1.36v-3.53h1.27v.58c.12-.25.25-.42.38-.52Zm2.3,10.85c-.13.29-.31.51-.53.66-.23.15-.48.22-.76.22-.24,0-.45-.05-.65-.15-.15-.08-.31-.23-.49-.45v.52h-1.27v-4.88h1.37v1.69c.14-.14.29-.25.46-.32s.36-.11.57-.11c.43,0,.79.15,1.07.46.28.31.42.75.42,1.33,0,.39-.06.73-.19,1.02Zm2.04-29.02c.28.31.42.75.42,1.33,0,.39-.06.73-.19,1.02-.13.29-.31.51-.53.66-.23.15-.48.22-.76.22-.24,0-.45-.05-.65-.15-.15-.08-.31-.23-.49-.45v.52h-1.27v-4.88h1.37v1.69c.14-.14.29-.25.46-.32s.36-.11.57-.11c.43,0,.79.15,1.07.46Zm-.93-8.45l-.42.96c-.16-.07-.29-.1-.38-.1-.18,0-.32.07-.41.22-.14.21-.21.59-.21,1.16v1.18h-1.36v-3.53h1.27v.58c.12-.25.25-.42.38-.52s.29-.14.48-.14.42.06.66.19Zm-4.81-19.94h1.37v1.69c.14-.14.29-.25.46-.32s.36-.11.57-.11c.43,0,.79.15,1.07.46.28.31.42.75.42,1.33,0,.39-.06.73-.19,1.02-.13.29-.31.51-.53.66-.23.15-.48.22-.76.22-.24,0-.45-.05-.65-.15-.15-.08-.31-.23-.49-.45v.52h-1.27v-4.88Zm.49,19.98c.29.15.52.38.67.67.15.29.23.67.23,1.13v.15h-2.71c.02.22.08.38.18.49.13.15.3.23.51.23.13,0,.26-.03.38-.1.07-.04.15-.12.24-.22l1.33.12c-.2.35-.45.61-.74.76-.29.15-.7.23-1.24.23-.47,0-.84-.07-1.1-.2-.27-.13-.49-.34-.67-.63-.18-.29-.26-.62-.26-1.01,0-.55.18-1,.53-1.34.35-.34.84-.51,1.47-.51.51,0,.9.08,1.2.23Zm-4.93-26.38c.35-.34.84-.51,1.47-.51.51,0,.9.08,1.2.23.29.15.52.38.67.67.15.29.23.67.23,1.13v.15h-2.71c.02.22.08.38.18.49.13.15.3.23.51.23.13,0,.26-.03.38-.1.07-.04.15-.12.24-.22l1.33.12c-.2.35-.45.61-.74.76-.29.15-.7.23-1.24.23-.47,0-.84-.07-1.1-.2-.27-.13-.49-.34-.67-.63-.18-.29-.26-.62-.26-1.01,0-.55.18-1,.53-1.34Zm-2.38,6.4h1.38v2.52l1.01-1.17h1.67l-1.27,1.24,1.34,2.3h-1.53l-.72-1.42-.51.5v.92h-1.38v-4.88Zm.28,19.83v.58c.12-.25.25-.42.38-.52s.29-.14.48-.14.42.06.66.19l-.42.96c-.16-.07-.29-.1-.38-.1-.18,0-.32.07-.41.22-.14.21-.21.59-.21,1.16v1.18h-1.36v-3.53h1.27Zm-3.35-18.49h.51v-.16c0-.14.02-.3.05-.48s.09-.31.17-.42.21-.2.36-.27c.15-.07.38-.1.68-.1.24,0,.58.03,1.04.08l-.15.82c-.16-.03-.29-.04-.39-.04-.12,0-.21.02-.26.06s-.09.11-.11.19c-.01.05-.02.15-.02.31h.65v.99h-.65v2.54h-1.36v-2.54h-.51v-.99Zm.04,18.49v.58c.12-.25.25-.42.38-.52s.29-.14.48-.14.42.06.66.19l-.42.96c-.16-.07-.29-.1-.38-.1-.18,0-.32.07-.41.22-.14.21-.21.59-.21,1.16v1.18h-1.36v-3.53h1.27Zm-2.48-6.78v-1.36h1.45v1.36h-1.45Zm-.45-11.71h.5v-.65l1.36-.7v1.34h.75v.99h-.75v1.25c0,.15.01.25.04.3.04.08.12.11.23.11.1,0,.24-.03.42-.09l.1.94c-.33.07-.65.11-.94.11-.34,0-.59-.04-.75-.13-.16-.09-.28-.22-.35-.39-.08-.18-.11-.46-.11-.86v-1.24h-.5v-.99Zm.47,18.76c.12.1.21.24.27.42s.1.36.1.52v1.56c0,.17.01.3.03.39s.07.21.14.36h-1.27c-.05-.09-.08-.16-.1-.21-.02-.05-.03-.12-.05-.22-.18.17-.35.29-.53.37-.24.1-.52.15-.84.15-.42,0-.74-.1-.96-.29-.22-.2-.33-.44-.33-.72,0-.27.08-.49.24-.66.16-.17.45-.3.87-.39.51-.1.84-.17.99-.21s.31-.09.48-.16c0-.17-.03-.28-.1-.35-.07-.07-.19-.1-.36-.1-.22,0-.39.04-.5.11-.09.06-.16.16-.21.31l-1.29-.14c.05-.23.12-.4.21-.53.09-.13.22-.24.4-.34.12-.07.3-.12.51-.16s.45-.06.71-.06c.41,0,.73.02.98.07.25.05.45.14.62.28Zm-3.78-11.86h2.15v.72h-2.15v-.72Zm-.41,1.72c.36-.35.85-.52,1.47-.52.71,0,1.24.21,1.6.62.29.33.44.74.44,1.22,0,.54-.18.99-.54,1.34s-.86.52-1.5.52c-.57,0-1.03-.14-1.38-.43-.43-.36-.65-.83-.65-1.4,0-.54.18-.98.55-1.33Zm-2.6-1.79h1.36v.93h-1.36v-.93Zm-.59,5.21c.11.02.19.03.24.03.12,0,.2-.04.26-.12.06-.08.09-.24.09-.47v-3.31h1.36v3.43c0,.44-.03.75-.09.93-.06.18-.18.33-.35.44-.17.11-.41.17-.73.17-.26,0-.59-.04-.97-.12l.2-.98Zm-1.68-5.21h1.35v.92h-1.35v-.92Zm0,1.34h1.35v3.53h-1.35v-3.53Zm-3.21-1.34v2.52l1.01-1.17h1.67l-1.27,1.24,1.34,2.3h-1.53l-.72-1.42-.51.5v.92h-1.38v-4.88h1.38Zm-4.28-6.4c.35-.34.84-.51,1.47-.51.51,0,.9.08,1.2.23.29.15.52.38.67.67.15.29.23.67.23,1.13v.15h-2.71c.02.22.08.38.18.49.13.15.3.23.51.23.13,0,.26-.03.38-.1.07-.04.15-.12.24-.22l1.33.12c-.2.35-.45.61-.74.76-.29.15-.7.23-1.24.23-.47,0-.84-.07-1.1-.2-.27-.13-.49-.34-.67-.63-.18-.29-.26-.62-.26-1.01,0-.55.18-1,.53-1.34Zm.67,6.4l1.83,4.88h-1.58l-.24-.81h-1.71l-.24.81h-1.54l1.83-4.88h1.64Zm-5.58-8.18h1.35v1.8c.18-.19.37-.33.55-.41.18-.08.4-.12.65-.12.37,0,.66.11.87.34.21.22.32.57.32,1.03v2.25h-1.36v-1.94c0-.22-.04-.38-.12-.47-.08-.09-.2-.14-.35-.14-.16,0-.3.06-.4.19-.1.12-.15.35-.15.67v1.7h-1.35v-4.88Zm.88,26.67v1.34h.75v.99h-.75v1.25c0,.15.01.25.04.3.04.08.12.11.23.11.1,0,.24-.03.42-.09l.1.94c-.33.07-.65.11-.94.11-.34,0-.59-.04-.75-.13-.16-.09-.28-.22-.35-.39-.08-.18-.11-.46-.11-.86v-1.24h-.5v-.99h.5v-.65l1.36-.7Zm-1.28-15.04h-2.71c.02.22.08.38.18.49.13.15.3.23.51.23.13,0,.26-.03.38-.1.07-.04.15-.12.24-.22l1.33.12c-.2.35-.45.61-.74.76-.29.15-.7.23-1.24.23-.47,0-.84-.07-1.1-.2-.27-.13-.49-.34-.67-.63-.18-.29-.26-.62-.26-1.01,0-.55.18-1,.53-1.34.35-.34.84-.51,1.47-.51.51,0,.9.08,1.2.23.29.15.52.38.67.67.15.29.23.67.23,1.13v.15Zm-2.85-10.28h.5v-.65l1.36-.7v1.34h.75v.99h-.75v1.25c0,.15.01.25.04.3.04.08.12.11.23.11.1,0,.24-.03.42-.09l.1.94c-.33.07-.65.11-.94.11-.34,0-.59-.04-.75-.13-.16-.09-.28-.22-.35-.39-.08-.18-.11-.46-.11-.86v-1.24h-.5v-.99Z"/>
    <path class="cls-1" d="m83.91,30.64c-.08.07-.11.16-.11.25,0,.11.04.19.11.26.07.07.18.1.33.1s.29-.04.42-.11.22-.16.28-.27c.05-.11.08-.24.08-.41v-.22c-.19.07-.38.12-.58.18-.27.07-.45.15-.52.22Z"/>
    <path class="cls-1" d="m33.89,30.64c-.08.07-.11.16-.11.25,0,.11.04.19.11.26.07.07.18.1.33.1s.29-.04.42-.11.22-.16.28-.27c.05-.11.08-.24.08-.41v-.22c-.19.07-.38.12-.58.18-.27.07-.45.15-.52.22Z"/>
    <polygon class="cls-1" points="30.6 18 30.07 19.76 31.14 19.76 30.6 18"/>
    <path class="cls-1" d="m82.02,37.31c-.11-.07-.23-.11-.39-.11s-.26.03-.33.08-.1.12-.1.2c0,.09.04.15.13.2s.28.08.58.12c.04,0,.07.01.11.02.14-.09.27-.19.41-.28l-.25.02c-.03-.11-.09-.2-.17-.25Z"/>
    <path class="cls-1" d="m32.29,63.96c-.22,0-.39.09-.52.26-.08.11-.13.27-.16.48h1.33c-.03-.26-.1-.45-.21-.56-.11-.11-.26-.17-.45-.17Z"/>
    <path class="cls-1" d="m44.61,20.78c.2,0,.36-.07.48-.22.12-.15.19-.39.19-.72,0-.31-.06-.53-.19-.68-.13-.15-.28-.22-.47-.22-.2,0-.36.08-.49.23-.13.15-.19.38-.19.69s.06.55.19.7c.13.15.29.23.48.23Z"/>
    <path class="cls-1" d="m67.75,38.82c-.08.07-.11.16-.11.25,0,.11.04.19.11.26.07.07.18.1.33.1s.29-.04.42-.11.22-.16.28-.27c.05-.11.08-.24.08-.41v-.22c-.19.07-.38.12-.58.18-.27.07-.45.15-.52.22Z"/>
    <path class="cls-1" d="m59.43,29.29c-.11-.11-.26-.17-.45-.17-.22,0-.39.09-.52.26-.08.11-.13.27-.16.48h1.33c-.03-.26-.1-.45-.21-.56Z"/>
    <path class="cls-1" d="m21.99,38.82c-.08.07-.11.16-.11.25,0,.11.04.19.11.26.07.07.18.1.33.1s.29-.04.42-.11.22-.16.28-.27c.05-.11.08-.24.08-.41v-.22c-.19.07-.38.12-.58.18-.27.07-.45.15-.52.22Z"/>
    <path class="cls-1" d="m25.7,45.47c-.22,0-.39.09-.52.26-.08.11-.13.27-.16.48h1.33c-.03-.26-.1-.45-.21-.56-.11-.11-.26-.17-.45-.17Z"/>
    <path class="cls-1" d="m78.12,29.29c-.11-.11-.26-.17-.45-.17-.22,0-.39.09-.52.26-.08.11-.13.27-.16.48h1.33c-.03-.26-.1-.45-.21-.56Z"/>
    <path class="cls-1" d="m45.25,30.64c-.08.07-.11.16-.11.25,0,.11.04.19.11.26.07.07.18.1.33.1s.29-.04.42-.11.22-.16.28-.27c.05-.11.08-.24.08-.41v-.22c-.19.07-.38.12-.58.18-.27.07-.45.15-.52.22Z"/>
    <path class="cls-1" d="m72.74,39.19c.17,0,.32-.07.43-.2s.17-.36.17-.66c0-.28-.06-.48-.18-.62-.12-.14-.27-.2-.45-.2-.16,0-.29.07-.4.2-.11.13-.16.35-.16.66,0,.29.05.5.16.63s.25.2.41.2Z"/>
    <path class="cls-1" d="m32.74,10.8c-.11-.11-.26-.17-.45-.17-.22,0-.39.09-.52.26-.08.11-.13.27-.16.48h1.33c-.03-.26-.1-.45-.21-.56Z"/>
    <path class="cls-1" d="m5.46,30.07l-.4-1.29c-.11.05-.23.11-.33.16l-.34,1.13h1.07Z"/>
    <path class="cls-1" d="m9.38,72.3c-.11-.11-.26-.17-.45-.17-.22,0-.39.09-.52.26-.08.11-.13.27-.16.48h1.33c-.03-.26-.1-.45-.21-.56Z"/>
    <path class="cls-1" d="m5.1,39.16c.43.23.88.45,1.37.67l-.78-2.79-.59,2.12Z"/>
    <path class="cls-1" d="m19.72,12.15c-.08.07-.11.16-.11.25,0,.11.04.19.11.26.07.07.18.1.33.1s.29-.04.42-.11.22-.16.28-.27c.05-.11.08-.24.08-.41v-.22c-.19.07-.38.12-.58.18-.27.07-.45.15-.52.22Z"/>
    <path class="cls-1" d="m34.56,37.29c-.22,0-.39.09-.52.26-.08.11-.13.27-.16.48h1.33c-.03-.26-.1-.45-.21-.56-.11-.11-.26-.17-.45-.17Z"/>
    <path class="cls-1" d="m54.23,65.82c.37.25.72.49,1.07.71l-.59-1.17-.47.46Z"/>
    <path class="cls-1" d="m46.89,45.6c-.2,0-.36.08-.49.23-.13.15-.19.38-.19.69s.06.55.19.7c.13.15.29.23.48.23s.36-.07.48-.22c.12-.15.19-.39.19-.72,0-.31-.06-.53-.19-.68-.13-.15-.28-.22-.47-.22Z"/>
    <polygon class="cls-1" points="32.34 46.42 33.41 46.42 32.87 44.67 32.34 46.42"/>
    <path class="cls-1" d="m42.98,57.31c-.08.07-.11.16-.11.25,0,.11.04.19.11.26.07.07.18.1.33.1s.29-.04.42-.11.22-.16.28-.27c.05-.11.08-.24.08-.41v-.22c-.19.07-.38.12-.58.18-.27.07-.45.15-.52.22Z"/>
    <path class="cls-1" d="m63.89,37.5c-.18,0-.33.07-.45.2-.12.14-.17.34-.17.62,0,.3.06.52.17.66s.26.2.43.2c.16,0,.3-.07.41-.2s.16-.36.16-.68c0-.28-.05-.48-.16-.62-.11-.13-.24-.2-.39-.2Z"/>
    <path class="cls-1" d="m44.62,72.26c-.2,0-.36.08-.49.23-.13.15-.19.38-.19.69s.06.55.19.7c.13.15.29.23.48.23s.36-.07.48-.22c.12-.15.19-.39.19-.72,0-.31-.06-.53-.19-.68-.13-.15-.28-.22-.47-.22Z"/>
    <path class="cls-1" d="m61.6,12.53c.16,0,.3-.07.41-.2s.16-.36.16-.68c0-.28-.05-.48-.16-.62-.11-.13-.24-.2-.39-.2-.18,0-.33.07-.45.2-.12.14-.17.34-.17.62,0,.3.06.52.17.66s.26.2.43.2Z"/>
    <path class="cls-1" d="m61.62,64.17c-.18,0-.33.07-.45.2-.12.14-.17.34-.17.62,0,.3.06.52.17.66s.26.2.43.2c.16,0,.3-.07.41-.2s.16-.36.16-.68c0-.28-.05-.48-.16-.62-.11-.13-.24-.2-.39-.2Z"/>
    <path class="cls-1" d="m56.71,55.78c-.22,0-.39.09-.52.26-.08.11-.13.27-.16.48h1.33c-.03-.26-.1-.45-.21-.56-.11-.11-.26-.17-.45-.17Z"/>
    <path class="cls-1" d="m22.93,74c.13.15.3.23.51.23.04,0,.08-.02.11-.03.14-.07.28-.15.42-.22.03-.03.05-.04.08-.07h.05c.24-.12.49-.26.73-.39h-2.09c.02.22.08.38.18.49Z"/>
    <path class="cls-1" d="m23.43,72.13c-.22,0-.39.09-.52.26-.08.11-.13.27-.16.48h1.33c-.03-.26-.1-.45-.21-.56-.11-.11-.26-.17-.45-.17Z"/>
    <path class="cls-1" d="m76.84,38.82c-.08.07-.11.16-.11.25,0,.11.04.19.11.26.07.07.18.1.33.1s.29-.04.42-.11.22-.16.28-.27c.05-.11.08-.24.08-.41v-.22c-.19.07-.38.12-.58.18-.27.07-.45.15-.52.22Z"/>
    <path class="cls-1" d="m31.62,57.31c-.08.07-.11.16-.11.25,0,.11.04.19.11.26.07.07.18.1.33.1s.29-.04.42-.11.22-.16.28-.27c.05-.11.08-.24.08-.41v-.22c-.19.07-.38.12-.58.18-.27.07-.45.15-.52.22Z"/>
    <path class="cls-1" d="m15.62,64.14c-.17,0-.31.06-.41.19-.1.13-.15.33-.15.62,0,.25.05.44.16.57.11.12.25.18.43.18.17,0,.31-.06.42-.19s.17-.32.17-.58-.06-.45-.18-.59c-.12-.14-.27-.2-.44-.2Z"/>
    <path class="cls-1" d="m18.33,37.68c-.12-.14-.27-.2-.44-.2s-.31.06-.41.19c-.1.13-.15.33-.15.62,0,.25.05.44.16.57.11.12.25.18.43.18.17,0,.31-.06.42-.19s.17-.32.17-.58-.06-.45-.18-.59Z"/>
    <path class="cls-1" d="m19.72,65.49c-.08.07-.11.16-.11.25,0,.11.04.19.11.26.07.07.18.1.33.1s.29-.04.42-.11.22-.16.28-.27c.05-.11.08-.24.08-.41v-.22c-.19.07-.38.12-.58.18-.27.07-.45.15-.52.22Z"/>
    <path class="cls-1" d="m23.43,18.8c-.22,0-.39.09-.52.26-.08.11-.13.27-.16.48h1.33c-.03-.26-.1-.45-.21-.56-.11-.11-.26-.17-.45-.17Z"/>
    <path class="cls-1" d="m11.2,37.29c-.22,0-.39.09-.52.26-.08.11-.13.27-.16.48h1.33c-.03-.26-.1-.45-.21-.56-.11-.11-.26-.17-.45-.17Z"/>
    <path class="cls-1" d="m17.44,47c-.08.07-.11.16-.11.25,0,.11.04.19.11.26.07.07.18.1.33.1s.29-.04.42-.11.22-.16.28-.27c.05-.11.08-.24.08-.41v-.22c-.19.07-.38.12-.58.18-.27.07-.45.15-.52.22Z"/>
    <path class="cls-1" d="m8.93,63.96c-.22,0-.39.09-.52.26-.08.11-.13.27-.16.48h1.33c-.03-.26-.1-.45-.21-.56-.11-.11-.26-.17-.45-.17Z"/>
    <path class="cls-1" d="m16.67,55.91c-.2,0-.36.08-.49.23-.13.15-.19.38-.19.69s.06.55.19.7c.13.15.29.23.48.23s.36-.07.48-.22c.12-.15.19-.39.19-.72,0-.31-.06-.53-.19-.68-.13-.15-.28-.22-.47-.22Z"/>
    <path class="cls-1" d="m15.17,73.66c-.08.07-.11.16-.11.25,0,.11.04.19.11.26.07.07.18.1.33.1s.29-.04.42-.11.22-.16.28-.27c.05-.11.08-.24.08-.41v-.22c-.19.07-.38.12-.58.18-.27.07-.45.15-.52.22Z"/>
    <path class="cls-1" d="m18.93,31.09c.2,0,.36-.07.48-.22.12-.15.19-.39.19-.72,0-.31-.06-.53-.19-.68-.13-.15-.28-.22-.47-.22-.2,0-.36.08-.49.23-.13.15-.19.38-.19.69s.06.55.19.7c.13.15.29.23.48.23Z"/>
    <path class="cls-3" d="m7.1,57.67l.51-.5.72,1.42h1.53l-1.34-2.3,1.27-1.24h-1.67l-1.01,1.17v-.67c-.53,1.03-.98,2.04-1.37,3.03h1.37v-.92Z"/>
    <rect class="cls-3" x="10.31" y="55.06" width="1.35" height="3.53"/>
    <rect class="cls-3" x="10.31" y="53.72" width="1.35" height=".92"/>
    <path class="cls-3" d="m13.84,59.41c.06-.18.09-.49.09-.93v-3.43h-1.36v3.31c0,.24-.03.39-.09.47-.06.08-.15.12-.26.12-.05,0-.13-.01-.24-.03l-.2.98c.39.08.71.12.97.12.32,0,.56-.06.73-.17.17-.11.29-.26.35-.44Z"/>
    <rect class="cls-3" x="12.58" y="53.72" width="1.36" height=".93"/>
    <rect class="cls-3" x="15.58" y="53.78" width="2.15" height=".72"/>
    <path class="cls-3" d="m18.25,55.6c-.36-.41-.9-.62-1.6-.62-.62,0-1.11.17-1.47.52-.36.35-.55.79-.55,1.33,0,.58.22,1.05.65,1.4.35.29.81.43,1.38.43.64,0,1.14-.17,1.5-.52s.54-.79.54-1.34c0-.48-.15-.89-.44-1.22Zm-1.11,1.94c-.13.15-.29.22-.48.22s-.35-.08-.48-.23c-.13-.15-.19-.38-.19-.7s.06-.54.19-.69c.13-.15.29-.23.49-.23.19,0,.34.07.47.22.13.15.19.38.19.68,0,.33-.06.57-.19.72Z"/>
    <rect class="cls-3" x="21.66" y="55.06" width="1.35" height="3.53"/>
    <rect class="cls-3" x="21.66" y="53.72" width="1.35" height=".92"/>
    <path class="cls-3" d="m27.21,58.04c.12-.19.19-.39.19-.59s-.06-.39-.17-.56c-.12-.17-.28-.3-.5-.39-.22-.09-.55-.16-1-.21-.3-.04-.49-.08-.58-.12s-.13-.11-.13-.2c0-.08.04-.14.1-.2s.18-.08.33-.08.28.04.39.11c.08.05.13.14.17.25l1.28-.13c-.09-.23-.2-.41-.33-.55-.13-.14-.3-.24-.5-.3-.2-.06-.51-.1-.93-.1-.4,0-.72.04-.95.12-.24.08-.42.21-.56.38s-.2.37-.2.6c0,.21.06.4.19.57s.28.28.46.35c.18.07.51.15.98.23.31.06.51.1.58.14.1.05.15.13.15.23,0,.09-.04.16-.12.22-.1.08-.24.12-.42.12-.17,0-.3-.03-.4-.1-.1-.07-.18-.18-.23-.34l-1.34.13c.08.34.25.6.53.79.27.18.73.28,1.38.28.46,0,.82-.06,1.08-.17s.46-.27.58-.46Z"/>
    <path class="cls-3" d="m31.26,56.61c-.42.08-.71.21-.87.39-.16.17-.24.39-.24.66,0,.29.11.53.33.72.22.2.54.29.96.29.32,0,.6-.05.84-.15.18-.07.35-.2.53-.37.02.1.03.18.05.22.02.05.05.12.1.21h1.27c-.07-.15-.12-.27-.14-.36s-.03-.22-.03-.39v-1.56c0-.17-.03-.34-.1-.52s-.16-.32-.27-.42c-.16-.14-.37-.24-.62-.28-.25-.05-.57-.07-.98-.07-.25,0-.49.02-.71.06s-.39.09-.51.16c-.17.1-.31.21-.4.34-.09.13-.16.31-.21.53l1.29.14c.05-.15.12-.26.21-.31.11-.07.28-.11.5-.11.17,0,.29.03.36.1.07.07.1.18.1.35-.17.07-.33.12-.48.16s-.48.11-.99.21Zm1.47.52c0,.17-.03.31-.08.41-.05.11-.15.19-.28.27s-.27.11-.42.11-.25-.03-.33-.1c-.07-.07-.11-.15-.11-.26,0-.09.04-.18.11-.25.07-.07.25-.14.52-.22.2-.05.4-.11.58-.18v.22Z"/>
    <path class="cls-3" d="m40.09,58.51c.25-.11.46-.26.62-.46.16-.2.28-.43.35-.7l-1.29-.15c-.06.19-.15.33-.27.42-.12.09-.27.14-.45.14-.21,0-.39-.08-.53-.23-.14-.15-.21-.37-.21-.66,0-.33.07-.57.21-.73s.32-.24.54-.24c.18,0,.32.04.42.11.1.08.18.19.22.34l1.27-.17c-.12-.4-.33-.7-.64-.9-.3-.21-.74-.31-1.32-.31-.41,0-.75.05-1.01.16-.17.07-.33.17-.49.31-.16.14-.28.3-.37.48-.12.24-.19.54-.19.91s.05.63.15.84.24.39.42.55.39.27.64.34.56.1.94.1.71-.05.96-.16Z"/>
    <path class="cls-3" d="m42.62,56.61c-.42.08-.71.21-.87.39-.16.17-.24.39-.24.66,0,.29.11.53.33.72.22.2.54.29.96.29.32,0,.6-.05.84-.15.18-.07.35-.2.53-.37.02.1.03.18.05.22.02.05.05.12.1.21h1.27c-.07-.15-.12-.27-.14-.36s-.03-.22-.03-.39v-1.56c0-.17-.03-.34-.1-.52s-.16-.32-.27-.42c-.16-.14-.37-.24-.62-.28-.25-.05-.57-.07-.98-.07-.25,0-.49.02-.71.06s-.39.09-.51.16c-.17.1-.31.21-.4.34-.09.13-.16.31-.21.53l1.29.14c.05-.15.12-.26.21-.31.11-.07.28-.11.5-.11.17,0,.29.03.36.1.07.07.1.18.1.35-.17.07-.33.12-.48.16s-.48.11-.99.21Zm1.47.52c0,.17-.03.31-.08.41-.05.11-.15.19-.28.27s-.27.11-.42.11-.25-.03-.33-.1c-.07-.07-.11-.15-.11-.26,0-.09.04-.18.11-.25.07-.07.25-.14.52-.22.2-.05.4-.11.58-.18v.22Z"/>
    <path class="cls-3" d="m46.24,55.06v3.53h1.36v-1.18c0-.57.07-.95.21-1.16.1-.15.23-.22.41-.22.09,0,.22.03.38.1l.42-.96c-.24-.12-.46-.19-.66-.19s-.35.05-.48.14-.26.27-.38.52v-.58h-1.27Z"/>
    <path class="cls-3" d="m51.19,55.12c-.13.09-.26.27-.38.52v-.58h-1.27v3.53h1.36v-1.18c0-.57.07-.95.21-1.16.1-.15.23-.22.41-.22.09,0,.22.03.38.1l.42-.96c-.24-.12-.46-.19-.66-.19s-.35.05-.48.14Z"/>
    <rect class="cls-3" x="52.61" y="53.72" width="1.35" height=".92"/>
    <rect class="cls-3" x="52.61" y="55.06" width="1.35" height="3.53"/>
    <path class="cls-3" d="m57.85,55.21c-.29-.15-.69-.23-1.2-.23-.62,0-1.11.17-1.47.51-.35.34-.53.79-.53,1.34,0,.39.09.73.26,1.01.18.29.4.5.67.63.27.13.64.2,1.1.2.54,0,.95-.08,1.24-.23.29-.15.53-.41.74-.76l-1.33-.12c-.08.11-.16.18-.24.22-.12.07-.25.1-.38.1-.21,0-.38-.08-.51-.23-.09-.11-.15-.27-.18-.49h2.71v-.15c0-.47-.08-.84-.23-1.13-.15-.29-.38-.51-.67-.67Zm-1.81,1.3c.02-.21.07-.37.16-.48.13-.17.3-.26.52-.26.19,0,.34.06.45.17.11.11.18.3.21.56h-1.33Z"/>
    <path class="cls-3" d="m59.39,55.06v3.53h1.36v-1.18c0-.57.07-.95.21-1.16.1-.15.23-.22.41-.22.09,0,.22.03.38.1l.42-.96c-.24-.12-.46-.19-.66-.19s-.35.05-.48.14-.26.27-.38.52v-.58h-1.27Z"/>
    <path class="cls-3" d="m64.72,58.59s0-.09,0-.13v.13h0Z"/>
    <path class="cls-3" d="m5.75,66.77l1.08-4.88h-1.42l-.52,2.73-.44-1.6c-.21,1.11-.32,2.17-.33,3.17l.16.58h1.48Z"/>
    <path class="cls-3" d="m10.07,63.39c-.29-.15-.69-.23-1.2-.23-.62,0-1.11.17-1.47.51-.35.34-.53.79-.53,1.34,0,.39.09.73.26,1.01.18.29.4.5.67.63.27.13.64.2,1.1.2.54,0,.95-.08,1.24-.23.29-.15.53-.41.74-.76l-1.33-.12c-.08.11-.16.18-.24.22-.12.07-.25.1-.38.1-.21,0-.38-.08-.51-.23-.09-.11-.15-.27-.18-.49h2.71v-.15c0-.47-.08-.84-.23-1.13-.15-.29-.38-.51-.67-.67Zm-1.81,1.3c.02-.21.07-.37.16-.48.13-.17.3-.26.52-.26.19,0,.34.06.45.17.11.11.18.3.21.56h-1.33Z"/>
    <path class="cls-3" d="m16.33,63.24v.52c-.16-.21-.32-.37-.5-.46s-.41-.14-.68-.14c-.43,0-.78.14-1.04.43-.27.29-.4.71-.4,1.26,0,.48.1.87.31,1.16.29.41.67.62,1.14.62.24,0,.47-.06.68-.17.13-.07.27-.19.4-.34v.54c0,.26-.05.44-.14.55-.1.1-.24.16-.44.16-.15,0-.28-.03-.38-.1-.07-.05-.12-.13-.15-.25l-1.31-.15c0,.08,0,.14,0,.18,0,.36.13.64.4.86s.75.32,1.46.32c.31,0,.59-.03.83-.08.24-.06.44-.15.6-.27.16-.12.28-.29.38-.49s.14-.41.14-.63v-.16s0-3.34,0-3.34h-1.27Zm-.26,2.27c-.11.13-.26.19-.42.19-.18,0-.32-.06-.43-.18-.11-.12-.16-.31-.16-.57,0-.29.05-.5.15-.62.1-.12.24-.19.41-.19s.32.07.44.2c.12.14.18.33.18.59s-.06.45-.17.58Z"/>
    <path class="cls-3" d="m22.15,66.02v-1.56c0-.17-.03-.34-.1-.52s-.16-.32-.27-.42c-.16-.14-.37-.24-.62-.28-.25-.05-.57-.07-.98-.07-.25,0-.49.02-.71.06s-.39.09-.51.16c-.17.1-.31.21-.4.34-.09.13-.16.31-.21.53l1.29.14c.05-.15.12-.26.21-.31.11-.07.28-.11.5-.11.17,0,.29.03.36.1.07.07.1.18.1.35-.17.07-.33.12-.48.16s-.48.11-.99.21c-.42.08-.71.21-.87.39-.16.17-.24.39-.24.66,0,.29.11.53.33.72.22.2.54.29.96.29.32,0,.6-.05.84-.15.18-.07.35-.2.53-.37.02.1.03.18.05.22.02.05.05.12.1.21h1.27c-.07-.15-.12-.27-.14-.36s-.03-.22-.03-.39Zm-1.32-.71c0,.17-.03.31-.08.41-.05.11-.15.19-.28.27s-.27.11-.42.11-.25-.03-.33-.1c-.07-.07-.11-.15-.11-.26,0-.09.04-.18.11-.25.07-.07.25-.14.52-.22.2-.05.4-.11.58-.18v.22Z"/>
    <path class="cls-3" d="m24.75,65.89c-.11,0-.19-.04-.23-.11-.03-.05-.04-.15-.04-.3v-1.25h.75v-.99h-.75v-1.34l-1.36.7v.65h-.5v.99h.5v1.24c0,.39.04.68.11.86.08.18.19.31.35.39.16.09.41.13.75.13.29,0,.6-.04.94-.11l-.1-.94c-.18.06-.32.09-.42.09Z"/>
    <path class="cls-3" d="m28.41,63.16c-.25,0-.46.04-.65.12-.18.08-.37.22-.55.41v-1.8h-1.35v4.88h1.35v-1.7c0-.32.05-.54.15-.67.1-.12.23-.19.4-.19.15,0,.26.05.35.14.08.09.12.25.12.47v1.94h1.36v-2.25c0-.46-.11-.81-.32-1.03-.21-.22-.5-.34-.87-.34Z"/>
    <path class="cls-3" d="m33.43,63.39c-.29-.15-.69-.23-1.2-.23-.62,0-1.11.17-1.47.51-.35.34-.53.79-.53,1.34,0,.39.09.73.26,1.01.18.29.4.5.67.63.27.13.64.2,1.1.2.54,0,.95-.08,1.24-.23.29-.15.53-.41.74-.76l-1.33-.12c-.08.11-.16.18-.24.22-.12.07-.25.1-.38.1-.21,0-.38-.08-.51-.23-.09-.11-.15-.27-.18-.49h2.71v-.15c0-.47-.08-.84-.23-1.13-.15-.29-.38-.51-.67-.67Zm-1.81,1.3c.02-.21.07-.37.16-.48.13-.17.3-.26.52-.26.19,0,.34.06.45.17.11.11.18.3.21.56h-1.33Z"/>
    <path class="cls-3" d="m36.61,63.3c-.13.09-.26.27-.38.52v-.58h-1.27v3.53h1.36v-1.18c0-.57.07-.95.21-1.16.1-.15.23-.22.41-.22.09,0,.22.03.38.1l.42-.96c-.24-.12-.46-.19-.66-.19s-.35.05-.48.14Z"/>
    <path class="cls-3" d="m45.05,63.16c-.26,0-.47.04-.65.12-.17.08-.37.24-.58.47-.1-.2-.24-.35-.4-.45-.16-.1-.39-.15-.67-.15-.26,0-.49.05-.67.14-.19.09-.37.24-.55.46v-.52h-1.26v3.53h1.36v-1.8c0-.27.05-.46.15-.58s.23-.18.38-.18c.1,0,.18.03.25.08.07.05.12.13.15.21.02.06.03.16.03.32v1.95h1.36v-1.82c0-.25.05-.44.15-.56s.23-.17.38-.17c.13,0,.25.06.34.18.06.08.09.2.09.36v2.01h1.36v-2.22c0-.48-.11-.83-.32-1.06-.21-.23-.51-.34-.89-.34Z"/>
    <path class="cls-3" d="m48.98,65.89c-.11,0-.19-.04-.23-.11-.03-.05-.04-.15-.04-.3v-1.25h.75v-.99h-.75v-1.34l-1.36.7v.65h-.5v.99h.5v1.24c0,.39.04.68.11.86.08.18.19.31.35.39.16.09.41.13.75.13.29,0,.6-.04.94-.11l-.1-.94c-.18.06-.32.09-.42.09Z"/>
    <path class="cls-3" d="m52.24,63.24h-.65c0-.16,0-.26.02-.31.02-.09.06-.15.11-.19s.14-.06.26-.06c.1,0,.23.01.39.04l.15-.82c-.45-.06-.8-.08-1.04-.08-.3,0-.52.03-.68.1-.15.07-.27.16-.36.27s-.14.25-.17.42-.05.33-.05.48v.16h-.51v.99h.51v1.6c.31-.7.63-1.42.95-2.18,0,0,0,0,0,0,.27.2.53.39.79.58h.25v-.99Z"/>
    <path class="cls-3" d="m55.6,64.47l1.27-1.24h-1.67l-1.01,1.17v-2.52h-1.38v2.93c.49.35.97.68,1.42.99l.47-.46.59,1.17c.13.09.26.16.39.25h1.26l-1.34-2.3Z"/>
    <path class="cls-3" d="m62.03,63.16c-.21,0-.4.04-.57.11s-.33.18-.46.32v-1.69h-1.37v4.88h1.27v-.52c.18.22.34.37.49.45.2.1.41.15.65.15.28,0,.53-.07.76-.22.23-.15.41-.36.53-.66.13-.29.19-.63.19-1.02,0-.58-.14-1.02-.42-1.33-.28-.31-.64-.46-1.07-.46Zm-.03,2.5c-.11.13-.25.2-.41.2-.18,0-.32-.07-.43-.2s-.17-.36-.17-.66c0-.28.06-.48.17-.62.12-.14.27-.2.45-.2.15,0,.28.07.39.2.11.13.16.34.16.62,0,.32-.05.54-.16.68Z"/>
    <path class="cls-3" d="m64.32,63.71c-.09.13-.16.31-.21.53l.52.06c.02-.29.04-.59.06-.91-.16.09-.28.2-.37.32Z"/>
    <path class="cls-3" d="m64,65.83c0,.27.11.5.3.69.11-.47.2-1,.27-1.58-.14.06-.26.14-.33.22-.16.17-.24.39-.24.66Z"/>
    <path class="cls-3" d="m5.4,70.07l-.27,1.4c.28.61.62,1.18,1.01,1.69l.68-3.1h-1.42Z"/>
    <path class="cls-3" d="m8.92,75.03c.54,0,.95-.08,1.24-.23.29-.15.53-.41.74-.76l-1.33-.12c-.08.11-.16.18-.24.22-.12.07-.25.1-.38.1-.21,0-.38-.08-.51-.23-.09-.11-.15-.27-.18-.49h2.71v-.15c0-.47-.08-.84-.23-1.13-.15-.29-.38-.51-.67-.67-.29-.15-.69-.23-1.2-.23-.62,0-1.11.17-1.47.51-.35.34-.53.79-.53,1.34,0,.39.09.73.26,1.01.07.11.15.2.23.29.09.08.18.16.28.23.05.04.1.08.16.11.27.13.64.2,1.1.2Zm-.5-2.64c.13-.17.3-.26.52-.26.19,0,.34.06.45.17.11.11.18.3.21.56h-1.33c.02-.21.07-.37.16-.48Z"/>
    <path class="cls-3" d="m17.6,74.19v-1.56c0-.17-.03-.34-.1-.52s-.16-.32-.27-.42c-.16-.14-.37-.24-.62-.28-.25-.05-.57-.07-.98-.07-.25,0-.49.02-.71.06s-.39.09-.51.16c-.17.1-.31.21-.4.34-.09.13-.16.31-.21.53l1.29.14c.05-.15.12-.26.21-.31.11-.07.28-.11.5-.11.17,0,.29.03.36.1.07.07.1.18.1.35-.17.07-.33.12-.48.16s-.48.11-.99.21c-.42.08-.71.21-.87.39-.16.17-.24.39-.24.66,0,.29.11.53.33.72.22.2.54.29.96.29.32,0,.6-.05.84-.15.18-.07.35-.2.53-.37.02.1.03.18.05.22.02.05.05.12.1.21h1.27c-.07-.15-.12-.27-.14-.36s-.03-.22-.03-.39Zm-1.32-.71c0,.17-.03.31-.08.41-.05.11-.15.19-.28.27s-.27.11-.42.11-.25-.03-.33-.1c-.07-.07-.11-.15-.11-.26,0-.09.04-.18.11-.25.07-.07.25-.14.52-.22.2-.05.4-.11.58-.18v.22Z"/>
    <path class="cls-3" d="m20.07,71.47c-.13.09-.26.27-.38.52v-.58h-1.27v3.53h1.36v-1.18c0-.57.07-.95.21-1.16.1-.15.23-.22.41-.22.09,0,.22.03.38.1l.42-.96c-.24-.12-.46-.19-.66-.19s-.35.05-.48.14Z"/>
    <path class="cls-3" d="m23.98,73.98s.09-.04.13-.07h-.05s-.05.04-.08.07Z"/>
    <path class="cls-3" d="m24.57,71.56c-.29-.15-.69-.23-1.2-.23-.62,0-1.11.17-1.47.51-.35.34-.53.79-.53,1.34,0,.39.09.73.26,1.01.17.28.38.48.64.61.42-.19.85-.39,1.28-.61-.04,0-.07.03-.11.03-.21,0-.38-.08-.51-.23-.09-.11-.15-.27-.18-.49h2.09c.2-.11.4-.22.61-.34-.02-.37-.08-.7-.21-.94-.15-.29-.38-.51-.67-.67Zm-1.81,1.3c.02-.21.07-.37.16-.48.13-.17.3-.26.52-.26.19,0,.34.06.45.17.11.11.18.3.21.56h-1.33Z"/>
    <path class="cls-3" d="m29.71,70.31c.11-.08.21-.16.32-.24h-.23l-.09.24Z"/>
    <path class="cls-3" d="m35.56,73.53l.72,1.42h1.53l-1.34-2.3,1.27-1.24h-1.67l-1.01,1.17v-2.52h-.43c.03,1.75.17,3.3.43,4.63v-.67l.51-.5Z"/>
    <rect class="cls-3" x="38.26" y="71.41" width="1.35" height="3.53"/>
    <rect class="cls-3" x="38.26" y="70.07" width="1.35" height=".92"/>
    <path class="cls-3" d="m40.53,74.72c0,.24-.03.39-.09.47-.06.08-.15.12-.26.12-.05,0-.13-.01-.24-.03l-.2.98c.39.08.71.12.97.12.32,0,.56-.06.73-.17.17-.11.29-.26.35-.44.06-.18.09-.49.09-.93v-3.43h-1.36v3.31Z"/>
    <rect class="cls-3" x="40.53" y="70.07" width="1.36" height=".93"/>
    <rect class="cls-3" x="43.53" y="70.14" width="2.15" height=".72"/>
    <path class="cls-3" d="m44.6,71.33c-.62,0-1.11.17-1.47.52-.36.35-.55.79-.55,1.33,0,.58.22,1.05.65,1.4.35.29.81.43,1.38.43.24,0,.46-.03.66-.08.44-.63.88-1.3,1.33-2.05-.05-.36-.16-.68-.39-.94-.36-.41-.9-.62-1.6-.62Zm.49,2.56c-.13.15-.29.22-.48.22s-.35-.08-.48-.23c-.13-.15-.19-.38-.19-.7s.06-.54.19-.69c.13-.15.29-.23.49-.23.19,0,.34.07.47.22.13.15.19.38.19.68,0,.33-.06.57-.19.72Z"/>
    <path class="cls-3" d="m3.82,31.93l.24-.81h1.71l.24.81h1.58l-1.38-3.67c-.41.17-.79.34-1.15.52l.4,1.29h-1.07l.34-1.13c-.66.34-1.23.7-1.73,1.07l-.72,1.91h1.54Z"/>
    <path class="cls-3" d="m9.37,31.93v-.92l.51-.5.72,1.42h1.53l-1.34-2.3,1.27-1.24h-1.67l-1.01,1.17v-2.33c-.48.13-.94.26-1.38.4v4.29h1.38Z"/>
    <rect class="cls-3" x="12.58" y="27.05" width="1.35" height=".92"/>
    <rect class="cls-3" x="12.58" y="28.39" width="1.35" height="3.53"/>
    <rect class="cls-3" x="14.85" y="27.05" width="1.36" height=".93"/>
    <path class="cls-3" d="m16.11,32.75c.06-.18.09-.49.09-.93v-3.43h-1.36v3.31c0,.24-.03.39-.09.47-.06.08-.15.12-.26.12-.05,0-.13-.01-.24-.03l-.2.98c.39.08.71.12.97.12.32,0,.56-.06.73-.17.17-.11.29-.26.35-.44Z"/>
    <rect class="cls-3" x="17.85" y="27.12" width="2.15" height=".72"/>
    <path class="cls-3" d="m18.92,32.01c.64,0,1.14-.17,1.5-.52s.54-.79.54-1.34c0-.48-.15-.89-.44-1.22-.36-.41-.9-.62-1.6-.62-.62,0-1.11.17-1.47.52-.36.35-.55.79-.55,1.33,0,.58.22,1.05.65,1.4.35.29.81.43,1.38.43Zm-.47-2.53c.13-.15.29-.23.49-.23.19,0,.34.07.47.22.13.15.19.38.19.68,0,.33-.06.57-.19.72-.13.15-.29.22-.48.22s-.35-.08-.48-.23c-.13-.15-.19-.38-.19-.7s.06-.54.19-.69Z"/>
    <rect class="cls-3" x="23.93" y="28.39" width="1.35" height="3.53"/>
    <rect class="cls-3" x="23.93" y="27.05" width="1.35" height=".92"/>
    <path class="cls-3" d="m27.89,31.26c-.17,0-.3-.03-.4-.1-.1-.07-.18-.18-.23-.34l-1.34.13c.08.34.25.6.53.79.27.18.73.28,1.38.28.46,0,.82-.06,1.08-.17s.46-.27.58-.46.19-.39.19-.59-.06-.39-.17-.56c-.12-.17-.28-.3-.5-.39-.22-.09-.55-.16-1-.21-.3-.04-.49-.08-.58-.12s-.13-.11-.13-.2c0-.08.04-.14.1-.2s.18-.08.33-.08.28.04.39.11c.08.05.13.14.17.25l1.28-.13c-.09-.23-.2-.41-.33-.55-.13-.14-.3-.24-.5-.3-.2-.06-.51-.1-.93-.1-.4,0-.72.04-.95.12-.24.08-.42.21-.56.38s-.2.37-.2.6c0,.21.06.4.19.57s.28.28.46.35c.18.07.51.15.98.23.31.06.51.1.58.14.1.05.15.13.15.23,0,.09-.04.16-.12.22-.1.08-.24.12-.42.12Z"/>
    <path class="cls-3" d="m33.53,29.94c-.42.08-.71.21-.87.39-.16.17-.24.39-.24.66,0,.29.11.53.33.72.22.2.54.29.96.29.32,0,.6-.05.84-.15.18-.07.35-.2.53-.37.02.1.03.18.05.22.02.05.05.12.1.21h1.27c-.07-.15-.12-.27-.14-.36s-.03-.22-.03-.39v-1.56c0-.17-.03-.34-.1-.52s-.16-.32-.27-.42c-.16-.14-.37-.24-.62-.28-.25-.05-.57-.07-.98-.07-.25,0-.49.02-.71.06s-.39.09-.51.16c-.17.1-.31.21-.4.34-.09.13-.16.31-.21.53l1.29.14c.05-.15.12-.26.21-.31.11-.07.28-.11.5-.11.17,0,.29.03.36.1.07.07.1.18.1.35-.17.07-.33.12-.48.16s-.48.11-.99.21Zm1.47.52c0,.17-.03.31-.08.41-.05.11-.15.19-.28.27s-.27.11-.42.11-.25-.03-.33-.1c-.07-.07-.11-.15-.11-.26,0-.09.04-.18.11-.25.07-.07.25-.14.52-.22.2-.05.4-.11.58-.18v.22Z"/>
    <path class="cls-3" d="m41.34,29.24c.18,0,.32.04.42.11.1.08.18.19.22.34l1.27-.17c-.12-.4-.33-.7-.64-.9-.3-.21-.74-.31-1.32-.31-.41,0-.75.05-1.01.16-.17.07-.33.17-.49.31-.16.14-.28.3-.37.48-.12.24-.19.54-.19.91s.05.63.15.84.24.39.42.55.39.27.64.34.56.1.94.1.71-.05.96-.16c.25-.11.46-.26.62-.46.16-.2.28-.43.35-.7l-1.29-.15c-.06.19-.15.33-.27.42-.12.09-.27.14-.45.14-.21,0-.39-.08-.53-.23-.14-.15-.21-.37-.21-.66,0-.33.07-.57.21-.73s.32-.24.54-.24Z"/>
    <path class="cls-3" d="m45.01,28.37c-.22.04-.39.09-.51.16-.17.1-.31.21-.4.34-.09.13-.16.31-.21.53l1.29.14c.05-.15.12-.26.21-.31.11-.07.28-.11.5-.11.17,0,.29.03.36.1.07.07.1.18.1.35-.17.07-.33.12-.48.16s-.48.11-.99.21c-.42.08-.71.21-.87.39-.16.17-.24.39-.24.66,0,.29.11.53.33.72.22.2.54.29.96.29.32,0,.6-.05.84-.15.18-.07.35-.2.53-.37.02.1.03.18.05.22.02.05.05.12.1.21h1.27c-.07-.15-.12-.27-.14-.36s-.03-.22-.03-.39v-1.56c0-.17-.03-.34-.1-.52s-.16-.32-.27-.42c-.16-.14-.37-.24-.62-.28-.25-.05-.57-.07-.98-.07-.25,0-.49.02-.71.06Zm1.35,2.1c0,.17-.03.31-.08.41-.05.11-.15.19-.28.27s-.27.11-.42.11-.25-.03-.33-.1c-.07-.07-.11-.15-.11-.26,0-.09.04-.18.11-.25.07-.07.25-.14.52-.22.2-.05.4-.11.58-.18v.22Z"/>
    <path class="cls-3" d="m48.51,31.93h1.36v-1.18c0-.57.07-.95.21-1.16.1-.15.23-.22.41-.22.09,0,.22.03.38.1l.42-.96c-.24-.12-.46-.19-.66-.19s-.35.05-.48.14-.26.27-.38.52v-.58h-1.27v3.53Z"/>
    <path class="cls-3" d="m51.82,31.93h1.36v-1.18c0-.57.07-.95.21-1.16.1-.15.23-.22.41-.22.09,0,.22.03.38.1l.42-.96c-.24-.12-.46-.19-.66-.19s-.35.05-.48.14-.26.27-.38.52v-.58h-1.27v3.53Z"/>
    <rect class="cls-3" x="54.88" y="27.05" width="1.35" height=".92"/>
    <rect class="cls-3" x="54.88" y="28.39" width="1.35" height="3.53"/>
    <path class="cls-3" d="m56.93,30.17c0,.39.09.73.26,1.01.18.29.4.5.67.63.27.13.64.2,1.1.2.54,0,.95-.08,1.24-.23.29-.15.53-.41.74-.76l-1.33-.12c-.08.11-.16.18-.24.22-.12.07-.25.1-.38.1-.21,0-.38-.08-.51-.23-.09-.11-.15-.27-.18-.49h2.71v-.15c0-.47-.08-.84-.23-1.13-.15-.29-.38-.51-.67-.67-.29-.15-.69-.23-1.2-.23-.62,0-1.11.17-1.47.51-.35.34-.53.79-.53,1.34Zm1.54-.79c.13-.17.3-.26.52-.26.19,0,.34.06.45.17.11.11.18.3.21.56h-1.33c.02-.21.07-.37.16-.48Z"/>
    <path class="cls-3" d="m62.92,28.97v-.58h-1.27v3.53h1.36v-1.18c0-.57.07-.95.21-1.16.1-.15.23-.22.41-.22.09,0,.22.03.38.1l.42-.96c-.24-.12-.46-.19-.66-.19s-.35.05-.48.14-.26.27-.38.52Z"/>
    <rect class="cls-3" x="66.99" y="27.05" width="1.36" height="4.88"/>
    <rect class="cls-3" x="69.26" y="28.39" width="1.35" height="3.53"/>
    <rect class="cls-3" x="69.26" y="27.05" width="1.35" height=".92"/>
    <polygon class="cls-3" points="72.86 31.01 73.37 30.51 74.09 31.93 75.61 31.93 74.27 29.63 75.54 28.39 73.87 28.39 72.86 29.57 72.86 27.05 71.48 27.05 71.48 31.93 72.86 31.93 72.86 31.01"/>
    <path class="cls-3" d="m76.55,31.81c.27.13.64.2,1.1.2.54,0,.95-.08,1.24-.23.29-.15.53-.41.74-.76l-1.33-.12c-.08.11-.16.18-.24.22-.12.07-.25.1-.38.1-.21,0-.38-.08-.51-.23-.09-.11-.15-.27-.18-.49h2.71v-.15c0-.47-.08-.84-.23-1.13-.15-.29-.38-.51-.67-.67-.29-.15-.69-.23-1.2-.23-.62,0-1.11.17-1.47.51-.35.34-.53.79-.53,1.34,0,.39.09.73.26,1.01.18.29.4.5.67.63Zm.61-2.44c.13-.17.3-.26.52-.26.19,0,.34.06.45.17.11.11.18.3.21.56h-1.33c.02-.21.07-.37.16-.48Z"/>
    <path class="cls-3" d="m83.55,29.94c-.42.08-.71.21-.87.39-.16.17-.24.39-.24.66,0,.29.11.53.33.72.22.2.54.29.96.29.32,0,.6-.05.84-.15.18-.07.35-.2.53-.37.02.1.03.18.05.22.02.05.05.12.1.21h1.27c-.07-.15-.12-.27-.14-.36s-.03-.22-.03-.39v-1.56c0-.17-.03-.34-.1-.52s-.16-.32-.27-.42c-.16-.14-.37-.24-.62-.28-.25-.05-.57-.07-.98-.07-.25,0-.49.02-.71.06s-.39.09-.51.16c-.17.1-.31.21-.4.34-.09.13-.16.31-.21.53l1.29.14c.05-.15.12-.26.21-.31.11-.07.28-.11.5-.11.17,0,.29.03.36.1.07.07.1.18.1.35-.17.07-.33.12-.48.16s-.48.11-.99.21Zm1.47.52c0,.17-.03.31-.08.41-.05.11-.15.19-.28.27s-.27.11-.42.11-.25-.03-.33-.1c-.07-.07-.11-.15-.11-.26,0-.09.04-.18.11-.25.07-.07.25-.14.52-.22.2-.05.4-.11.58-.18v.22Z"/>
    <path class="cls-3" d="m90.32,28.46c-.16-.1-.39-.15-.67-.15-.26,0-.49.05-.67.14-.19.09-.37.24-.55.46v-.52h-1.26v3.53h1.36v-1.8c0-.27.05-.46.15-.58s.23-.18.38-.18c.1,0,.18.03.25.08.07.05.12.13.15.21.02.06.03.16.03.32v1.09c.55-.76.98-1.51,1.32-2.23-.03.03-.05.04-.08.07-.1-.2-.24-.35-.4-.45Z"/>
    <path class="cls-3" d="m9.09,35.23h-1.42l-.52,2.73-.76-2.73h-1.43l-.75,2.73-.52-2.73h-1.43l.53,2.38c.63.54,1.39,1.06,2.3,1.55l.59-2.12.78,2.79c.22.1.46.19.69.28h.87l1.08-4.88Z"/>
    <path class="cls-3" d="m12.35,36.72c-.29-.15-.69-.23-1.2-.23-.62,0-1.11.17-1.47.51-.35.34-.53.79-.53,1.34,0,.39.09.73.26,1.01.18.29.4.5.67.63.27.13.64.2,1.1.2.54,0,.95-.08,1.24-.23.29-.15.53-.41.74-.76l-1.33-.12c-.08.11-.16.18-.24.22-.12.07-.25.1-.38.1-.21,0-.38-.08-.51-.23-.09-.11-.15-.27-.18-.49h2.71v-.15c0-.47-.08-.84-.23-1.13-.15-.29-.38-.51-.67-.67Zm-1.81,1.3c.02-.21.07-.37.16-.48.13-.17.3-.26.52-.26.19,0,.34.06.45.17.11.11.18.3.21.56h-1.33Z"/>
    <path class="cls-3" d="m18.75,41.45c.24-.06.44-.15.6-.27.16-.12.28-.29.38-.49s.14-.41.14-.63v-.16s0-3.34,0-3.34h-1.27v.52c-.16-.21-.32-.37-.5-.46s-.41-.14-.68-.14c-.43,0-.78.14-1.04.43-.27.29-.4.71-.4,1.26,0,.48.1.87.31,1.16.29.41.67.62,1.14.62.24,0,.47-.06.68-.17.13-.07.27-.19.4-.34v.54c0,.26-.05.44-.14.55-.1.1-.24.16-.44.16-.15,0-.28-.03-.38-.1-.07-.05-.12-.13-.15-.25l-1.31-.15c0,.08,0,.14,0,.18,0,.36.13.64.4.86s.75.32,1.46.32c.31,0,.59-.03.83-.08Zm-.42-2.61c-.11.13-.26.19-.42.19-.18,0-.32-.06-.43-.18-.11-.12-.16-.31-.16-.57,0-.29.05-.5.15-.62.1-.12.24-.19.41-.19s.32.07.44.2c.12.14.18.33.18.59s-.06.45-.17.58Z"/>
    <path class="cls-3" d="m20.62,37.58l1.29.14c.05-.15.12-.26.21-.31.11-.07.28-.11.5-.11.17,0,.29.03.36.1.07.07.1.18.1.35-.17.07-.33.12-.48.16s-.48.11-.99.21c-.42.08-.71.21-.87.39-.16.17-.24.39-.24.66,0,.29.11.53.33.72.22.2.54.29.96.29.32,0,.6-.05.84-.15.18-.07.35-.2.53-.37.02.1.03.18.05.22.02.05.05.12.1.21h1.27c-.07-.15-.12-.27-.14-.36s-.03-.22-.03-.39v-1.56c0-.17-.03-.34-.1-.52s-.16-.32-.27-.42c-.16-.14-.37-.24-.62-.28-.25-.05-.57-.07-.98-.07-.25,0-.49.02-.71.06s-.39.09-.51.16c-.17.1-.31.21-.4.34-.09.13-.16.31-.21.53Zm2.47,1.06c0,.17-.03.31-.08.41-.05.11-.15.19-.28.27s-.27.11-.42.11-.25-.03-.33-.1c-.07-.07-.11-.15-.11-.26,0-.09.04-.18.11-.25.07-.07.25-.14.52-.22.2-.05.4-.11.58-.18v.22Z"/>
    <path class="cls-3" d="m25.39,36.57h-.5v.99h.5v1.24c0,.39.04.68.11.86.08.18.19.31.35.39.16.09.41.13.75.13.29,0,.6-.04.94-.11l-.1-.94c-.18.06-.32.09-.42.09-.11,0-.19-.04-.23-.11-.03-.05-.04-.15-.04-.3v-1.25h.75v-.99h-.75v-1.34l-1.36.7v.65Z"/>
    <path class="cls-3" d="m30.51,38.16v1.94h1.36v-2.25c0-.46-.11-.81-.32-1.03-.21-.22-.5-.34-.87-.34-.25,0-.46.04-.65.12-.18.08-.37.22-.55.41v-1.8h-1.35v4.88h1.35v-1.7c0-.32.05-.54.15-.67.1-.12.23-.19.4-.19.15,0,.26.05.35.14.08.09.12.25.12.47Z"/>
    <path class="cls-3" d="m35.71,36.72c-.29-.15-.69-.23-1.2-.23-.62,0-1.11.17-1.47.51-.35.34-.53.79-.53,1.34,0,.39.09.73.26,1.01.18.29.4.5.67.63.27.13.64.2,1.1.2.54,0,.95-.08,1.24-.23.29-.15.53-.41.74-.76l-1.33-.12c-.08.11-.16.18-.24.22-.12.07-.25.1-.38.1-.21,0-.38-.08-.51-.23-.09-.11-.15-.27-.18-.49h2.71v-.15c0-.47-.08-.84-.23-1.13-.15-.29-.38-.51-.67-.67Zm-1.81,1.3c.02-.21.07-.37.16-.48.13-.17.3-.26.52-.26.19,0,.34.06.45.17.11.11.18.3.21.56h-1.33Z"/>
    <path class="cls-3" d="m37.24,36.57v3.53h1.36v-1.18c0-.57.07-.95.21-1.16.1-.15.23-.22.41-.22.09,0,.22.03.38.1l.42-.96c-.24-.12-.46-.19-.66-.19s-.35.05-.48.14-.26.27-.38.52v-.58h-1.27Z"/>
    <path class="cls-3" d="m42.53,36.57v3.53h1.36v-1.8c0-.27.05-.46.15-.58s.23-.18.38-.18c.1,0,.18.03.25.08.07.05.12.13.15.21.02.06.03.16.03.32v1.95h1.36v-1.82c0-.25.05-.44.15-.56s.23-.17.38-.17c.13,0,.25.06.34.18.06.08.09.2.09.36v2.01h1.36v-2.22c0-.48-.11-.83-.32-1.06-.21-.23-.51-.34-.89-.34-.26,0-.47.04-.65.12-.17.08-.37.24-.58.47-.1-.2-.24-.35-.4-.45-.16-.1-.39-.15-.67-.15-.26,0-.49.05-.67.14-.19.09-.37.24-.55.46v-.52h-1.26Z"/>
    <path class="cls-3" d="m49.61,35.92v.65h-.5v.99h.5v1.24c0,.39.04.68.11.86.08.18.19.31.35.39.16.09.41.13.75.13.29,0,.6-.04.94-.11l-.1-.94c-.18.06-.32.09-.42.09-.11,0-.19-.04-.23-.11-.03-.05-.04-.15-.04-.3v-1.25h.75v-.99h-.75v-1.34l-1.36.7Z"/>
    <path class="cls-3" d="m54,36.07c.05-.04.14-.06.26-.06.1,0,.23.01.39.04l.15-.82c-.45-.06-.8-.08-1.04-.08-.3,0-.52.03-.68.1-.15.07-.27.16-.36.27s-.14.25-.17.42-.05.33-.05.48v.16h-.51v.99h.51v2.54h1.36v-2.54h.65v-.99h-.65c0-.16,0-.26.02-.31.02-.09.06-.15.11-.19Z"/>
    <polygon class="cls-3" points="59.14 36.57 57.47 36.57 56.46 37.74 56.46 35.23 55.08 35.23 55.08 40.1 56.46 40.1 56.46 39.19 56.97 38.69 57.69 40.1 59.21 40.1 57.87 37.81 59.14 36.57"/>
    <path class="cls-3" d="m63.73,36.6c-.17.07-.33.18-.46.32v-1.69h-1.37v4.88h1.27v-.52c.18.22.34.37.49.45.2.1.41.15.65.15.28,0,.53-.07.76-.22.23-.15.41-.36.53-.66.13-.29.19-.63.19-1.02,0-.58-.14-1.02-.42-1.33-.28-.31-.64-.46-1.07-.46-.21,0-.4.04-.57.11Zm.54,2.39c-.11.13-.25.2-.41.2-.18,0-.32-.07-.43-.2s-.17-.36-.17-.66c0-.28.06-.48.17-.62.12-.14.27-.2.45-.2.15,0,.28.07.39.2.11.13.16.34.16.62,0,.32-.05.54-.16.68Z"/>
    <path class="cls-3" d="m67.38,38.12c-.42.08-.71.21-.87.39-.16.17-.24.39-.24.66,0,.29.11.53.33.72.22.2.54.29.96.29.32,0,.6-.05.84-.15.18-.07.35-.2.53-.37.02.1.03.18.05.22.02.05.05.12.1.21h1.27c-.07-.15-.12-.27-.14-.36s-.03-.22-.03-.39v-1.56c0-.17-.03-.34-.1-.52s-.16-.32-.27-.42c-.16-.14-.37-.24-.62-.28-.25-.05-.57-.07-.98-.07-.25,0-.49.02-.71.06s-.39.09-.51.16c-.17.1-.31.21-.4.34-.09.13-.16.31-.21.53l1.29.14c.05-.15.12-.26.21-.31.11-.07.28-.11.5-.11.17,0,.29.03.36.1.07.07.1.18.1.35-.17.07-.33.12-.48.16s-.48.11-.99.21Zm1.47.52c0,.17-.03.31-.08.41-.05.11-.15.19-.28.27s-.27.11-.42.11-.25-.03-.33-.1c-.07-.07-.11-.15-.11-.26,0-.09.04-.18.11-.25.07-.07.25-.14.52-.22.2-.05.4-.11.58-.18v.22Z"/>
    <path class="cls-3" d="m72.3,40.18c.24,0,.46-.05.65-.15.15-.08.31-.23.49-.45v.52h1.27v-4.88h-1.37v1.69c-.13-.14-.29-.25-.46-.32s-.36-.11-.57-.11c-.43,0-.79.16-1.07.47-.28.31-.42.76-.42,1.34,0,.52.13.97.38,1.33.25.37.62.55,1.1.55Zm.03-2.49c.11-.13.24-.2.4-.2.18,0,.33.07.45.2.12.14.18.34.18.62,0,.31-.06.53-.17.66s-.26.2-.43.2c-.16,0-.3-.07-.41-.2s-.16-.35-.16-.63c0-.31.05-.53.16-.66Z"/>
    <path class="cls-3" d="m79.26,37.79c0-.17-.03-.34-.1-.52s-.16-.32-.27-.42c-.16-.14-.37-.24-.62-.28-.25-.05-.57-.07-.98-.07-.25,0-.49.02-.71.06s-.39.09-.51.16c-.17.1-.31.21-.4.34-.09.13-.16.31-.21.53l1.29.14c.05-.15.12-.26.21-.31.11-.07.28-.11.5-.11.17,0,.29.03.36.1.07.07.1.18.1.35-.17.07-.33.12-.48.16s-.48.11-.99.21c-.42.08-.71.21-.87.39-.16.17-.24.39-.24.66,0,.29.11.53.33.72.22.2.54.29.96.29.32,0,.6-.05.84-.15.18-.07.35-.2.53-.37.02.1.03.18.05.22.02.05.05.12.1.21h1c-.19-.08-.35-.15-.54-.23.23-.13.44-.25.66-.38,0-.05-.01-.09-.01-.15v-1.56Zm-1.32.85c0,.17-.03.31-.08.41-.05.11-.15.19-.28.27s-.27.11-.42.11-.25-.03-.33-.1c-.07-.07-.11-.15-.11-.26,0-.09.04-.18.11-.25.07-.07.25-.14.52-.22.2-.05.4-.11.58-.18v.22Z"/>
    <path class="cls-3" d="m79.86,39.17s.06-.04.09-.06h-.11s.01.04.02.06Z"/>
    <path class="cls-3" d="m82.64,36.59c-.2-.06-.51-.1-.93-.1-.4,0-.72.04-.95.12-.24.08-.42.21-.56.38s-.2.37-.2.6c0,.21.06.4.19.57s.28.28.46.35c.05.02.13.04.2.06.41-.25.8-.5,1.18-.76-.04,0-.07-.01-.11-.02-.3-.04-.49-.08-.58-.12s-.13-.11-.13-.2c0-.08.04-.14.1-.2s.18-.08.33-.08.28.04.39.11c.08.05.13.14.17.25l.25-.02c.27-.18.53-.36.79-.54-.03-.04-.05-.08-.08-.11-.13-.14-.3-.24-.5-.3Z"/>
    <path class="cls-3" d="m13.24,46.7c0-.05-.01-.09-.01-.14-.08.1-.16.19-.24.29h.26v-.15Z"/>
    <path class="cls-3" d="m13.17,47.37l-.57-.05c-.27.33-.54.67-.8,1,.25-.04.46-.09.62-.18.29-.15.53-.41.74-.76Z"/>
    <path class="cls-3" d="m17.08,46.3c-.42.08-.71.21-.87.39-.16.17-.24.39-.24.66,0,.29.11.53.33.72.22.2.54.29.96.29.32,0,.6-.05.84-.15.18-.07.35-.2.53-.37.02.1.03.18.05.22.02.05.05.12.1.21h1.27c-.07-.15-.12-.27-.14-.36s-.03-.22-.03-.39v-1.56c0-.17-.03-.34-.1-.52s-.16-.32-.27-.42c-.16-.14-.37-.24-.62-.28-.25-.05-.57-.07-.98-.07-.25,0-.49.02-.71.06s-.39.09-.51.16c-.17.1-.31.21-.4.34-.09.13-.16.31-.21.53l1.29.14c.05-.15.12-.26.21-.31.11-.07.28-.11.5-.11.17,0,.29.03.36.1.07.07.1.18.1.35-.17.07-.33.12-.48.16s-.48.11-.99.21Zm1.47.52c0,.17-.03.31-.08.41-.05.11-.15.19-.28.27s-.27.11-.42.11-.25-.03-.33-.1c-.07-.07-.11-.15-.11-.26,0-.09.04-.18.11-.25.07-.07.25-.14.52-.22.2-.05.4-.11.58-.18v.22Z"/>
    <path class="cls-3" d="m23.48,44.85c-.24-.12-.46-.19-.66-.19s-.35.05-.48.14-.26.27-.38.52v-.58h-1.27v3.53h1.36v-1.18c0-.57.07-.95.21-1.16.1-.15.23-.22.41-.22.09,0,.22.03.38.1l.42-.96Z"/>
    <path class="cls-3" d="m27.74,46.7c0-.47-.08-.84-.23-1.13-.15-.29-.38-.51-.67-.67-.29-.15-.69-.23-1.2-.23-.62,0-1.11.17-1.47.51-.35.34-.53.79-.53,1.34,0,.39.09.73.26,1.01.18.29.4.5.67.63.27.13.64.2,1.1.2.54,0,.95-.08,1.24-.23.29-.15.53-.41.74-.76l-1.33-.12c-.08.11-.16.18-.24.22-.12.07-.25.1-.38.1-.21,0-.38-.08-.51-.23-.09-.11-.15-.27-.18-.49h2.71v-.15Zm-2.71-.5c.02-.21.07-.37.16-.48.13-.17.3-.26.52-.26.19,0,.34.06.45.17.11.11.18.3.21.56h-1.33Z"/>
    <path class="cls-3" d="m33.71,43.4h-1.64l-1.83,4.88h1.54l.24-.81h1.71l.24.81h1.58l-1.83-4.88Zm-1.37,3.02l.53-1.75.54,1.75h-1.07Z"/>
    <polygon class="cls-3" points="35.93 48.28 37.32 48.28 37.32 47.36 37.83 46.86 38.54 48.28 40.07 48.28 38.73 45.98 40 44.75 38.33 44.75 37.32 45.92 37.32 43.4 35.93 43.4 35.93 48.28"/>
    <rect class="cls-3" x="40.53" y="43.4" width="1.35" height=".92"/>
    <rect class="cls-3" x="40.53" y="44.75" width="1.35" height="3.53"/>
    <rect class="cls-3" x="42.8" y="43.4" width="1.36" height=".93"/>
    <path class="cls-3" d="m42.8,48.06c0,.24-.03.39-.09.47-.06.08-.15.12-.26.12-.05,0-.13-.01-.24-.03l-.2.98c.39.08.71.12.97.12.32,0,.56-.06.73-.17.17-.11.29-.26.35-.44.06-.18.09-.49.09-.93v-3.43h-1.36v3.31Z"/>
    <rect class="cls-3" x="45.8" y="43.47" width="2.15" height=".72"/>
    <path class="cls-3" d="m46.87,44.67c-.62,0-1.11.17-1.47.52-.36.35-.55.79-.55,1.33,0,.58.22,1.05.65,1.4.35.29.81.43,1.38.43.64,0,1.14-.17,1.5-.52s.54-.79.54-1.34c0-.48-.15-.89-.44-1.22-.36-.41-.9-.62-1.6-.62Zm.49,2.56c-.13.15-.29.22-.48.22s-.35-.08-.48-.23c-.13-.15-.19-.38-.19-.7s.06-.54.19-.69c.13-.15.29-.23.49-.23.19,0,.34.07.47.22.13.15.19.38.19.68,0,.33-.06.57-.19.72Z"/>
    <rect class="cls-3" x="49.57" y="46.92" width="1.45" height="1.36"/>
    <path class="cls-3" d="m50.91,5.26v-1.18c0-.57.07-.95.21-1.16.1-.15.23-.22.41-.22.09,0,.22.03.38.1l.35-.81c-.95.57-1.87,1.33-2.72,2.28v1h1.36Z"/>
    <path class="cls-3" d="m53.96,5.26V1.73h-1.24s-.08.04-.12.06v3.48h1.35Z"/>
    <path class="cls-3" d="m53.96,1.19c-.11.04-.21.07-.32.11h.32v-.11Z"/>
    <path class="cls-3" d="m55.59,5.14c.27.13.64.2,1.1.2.54,0,.95-.08,1.24-.23.29-.15.53-.41.74-.76l-1.33-.12c-.08.11-.16.18-.24.22-.12.07-.25.1-.38.1-.21,0-.38-.08-.51-.23-.09-.11-.15-.27-.18-.49h2.71v-.15c0-.47-.08-.84-.23-1.13-.15-.29-.38-.51-.67-.67-.29-.15-.69-.23-1.2-.23-.62,0-1.11.17-1.47.51-.35.34-.53.79-.53,1.34,0,.39.09.73.26,1.01.18.29.4.5.67.63Zm.61-2.44c.13-.17.3-.26.52-.26.19,0,.34.06.45.17.11.11.18.3.21.56h-1.33c.02-.21.07-.37.16-.48Z"/>
    <path class="cls-3" d="m59.39,5.26h1.36v-1.18c0-.57.07-.95.21-1.16.1-.15.23-.22.41-.22.09,0,.22.03.38.1l.02-.05c-.32-.26-.64-.49-.96-.7-.05.08-.1.16-.15.26v-.36c-.13-.08-.25-.15-.38-.21h-.89v3.53Z"/>
    <path class="cls-3" d="m19.86,10.74c.11-.07.28-.11.5-.11.17,0,.29.03.36.1.07.07.1.18.1.35-.17.07-.33.12-.48.16s-.48.11-.99.21c-.42.08-.71.21-.87.39-.16.17-.24.39-.24.66,0,.29.11.53.33.72.22.2.54.29.96.29.32,0,.6-.05.84-.15.18-.07.35-.2.53-.37.02.1.03.18.05.22.02.05.05.12.1.21h1.27c-.07-.15-.12-.27-.14-.36s-.03-.22-.03-.39v-1.56c0-.17-.03-.34-.1-.52s-.16-.32-.27-.42c-.16-.14-.37-.24-.62-.28-.25-.05-.57-.07-.98-.07-.25,0-.49.02-.71.06s-.39.09-.51.16c-.17.1-.31.21-.4.34-.03.04-.05.09-.07.14-.04.13-.08.26-.12.4l1.27.13c.05-.15.12-.26.21-.31Zm.96,1.24c0,.17-.03.31-.08.41-.05.11-.15.19-.28.27s-.27.11-.42.11-.25-.03-.33-.1c-.07-.07-.11-.15-.11-.26,0-.09.04-.18.11-.25.07-.07.25-.14.52-.22.2-.05.4-.11.58-.18v.22Z"/>
    <path class="cls-3" d="m23.12,12.14c0,.39.04.68.11.86.08.18.19.31.35.39.16.09.41.13.75.13.29,0,.6-.04.94-.11l-.1-.94c-.18.06-.32.09-.42.09-.11,0-.19-.04-.23-.11-.03-.05-.04-.15-.04-.3v-1.25h.75v-.99h-.75v-1.34l-1.36.7v.65h-.5v.99h.5v1.24Z"/>
    <path class="cls-3" d="m27.22,11.74c0-.32.05-.54.15-.67.1-.12.23-.19.4-.19.15,0,.26.05.35.14.08.09.12.25.12.47v1.94h1.36v-2.25c0-.46-.11-.81-.32-1.03-.21-.22-.5-.34-.87-.34-.25,0-.46.04-.65.12-.18.08-.37.22-.55.41v-1.8h-1.35v4.88h1.35v-1.7Z"/>
    <path class="cls-3" d="m31.17,13.32c.27.13.64.2,1.1.2.54,0,.95-.08,1.24-.23.29-.15.53-.41.74-.76l-1.33-.12c-.08.11-.16.18-.24.22-.12.07-.25.1-.38.1-.21,0-.38-.08-.51-.23-.09-.11-.15-.27-.18-.49h2.71v-.15c0-.47-.08-.84-.23-1.13-.15-.29-.38-.51-.67-.67-.29-.15-.69-.23-1.2-.23-.62,0-1.11.17-1.47.51-.35.34-.53.79-.53,1.34,0,.39.09.73.26,1.01.18.29.4.5.67.63Zm.61-2.44c.13-.17.3-.26.52-.26.19,0,.34.06.45.17.11.11.18.3.21.56h-1.33c.02-.21.07-.37.16-.48Z"/>
    <path class="cls-3" d="m36.24,9.9h-1.27v3.53h1.36v-1.18c0-.57.07-.95.21-1.16.1-.15.23-.22.41-.22.09,0,.22.03.38.1l.19-.44c-.31-.18-.63-.37-.94-.54-.12.1-.24.26-.35.49v-.58Z"/>
    <path class="cls-3" d="m41.62,13.44v-.27c-.46-.32-.91-.64-1.36-.94v1.2h1.36Z"/>
    <path class="cls-3" d="m46.26,11.22c0-.37-.08-.64-.21-.86-.34.96-.64,1.99-.89,3.08h1.1v-2.22Z"/>
    <path class="cls-3" d="m47.34,12.14c0,.39.04.68.11.86.08.18.19.31.35.39.16.09.41.13.75.13.29,0,.6-.04.94-.11l-.1-.94c-.18.06-.32.09-.42.09-.11,0-.19-.04-.23-.11-.03-.05-.04-.15-.04-.3v-1.25h.75v-.99h-.75v-1.34l-1.36.7v.65h-.5v.99h.5v1.24Z"/>
    <path class="cls-3" d="m50.24,13.44h1.36v-2.54h.65v-.99h-.65c0-.16,0-.26.02-.31.02-.09.06-.15.11-.19s.14-.06.26-.06c.1,0,.23.01.39.04l.15-.82c-.45-.06-.8-.08-1.04-.08-.3,0-.52.03-.68.1-.15.07-.27.16-.36.27s-.14.25-.17.42-.05.33-.05.48v.16h-.51v.99h.51v2.54Z"/>
    <polygon class="cls-3" points="54.19 12.52 54.7 12.02 55.42 13.44 56.94 13.44 55.6 11.14 56.87 9.9 55.2 9.9 54.19 11.08 54.19 8.56 52.81 8.56 52.81 13.44 54.19 13.44 54.19 12.52"/>
    <path class="cls-3" d="m60.9,12.92c.18.22.34.37.49.45.2.1.41.15.65.15.28,0,.53-.07.76-.22.23-.15.41-.36.53-.66.13-.29.19-.63.19-1.02,0-.58-.14-1.02-.42-1.33-.28-.31-.64-.46-1.07-.46-.21,0-.4.04-.57.11s-.33.18-.46.32v-1.69h-1.37v4.88h1.27v-.52Zm.26-1.88c.12-.14.27-.2.45-.2.15,0,.28.07.39.2.11.13.16.34.16.62,0,.32-.05.54-.16.68s-.25.2-.41.2c-.18,0-.32-.07-.43-.2s-.17-.36-.17-.66c0-.28.06-.48.17-.62Z"/>
    <path class="cls-3" d="m65.23,9.88c-.22.04-.39.09-.51.16-.17.1-.31.21-.4.34-.09.13-.16.31-.21.53l1.29.14c.05-.15.12-.26.21-.31.11-.07.28-.11.5-.11.17,0,.29.03.36.1.07.07.1.18.1.35-.17.07-.33.12-.48.16s-.48.11-.99.21c-.42.08-.71.21-.87.39-.16.17-.24.39-.24.66,0,.29.11.53.33.72.22.2.54.29.96.29.32,0,.6-.05.84-.15.18-.07.35-.2.53-.37.02.1.03.18.05.22.02.05.05.12.1.21h.68c-.31-1.31-.67-2.5-1.08-3.6-.15,0-.3-.01-.47-.01-.25,0-.49.02-.71.06Zm1.35,2.1c0,.17-.03.31-.08.41-.05.11-.15.19-.28.27s-.27.11-.42.11-.25-.03-.33-.1c-.07-.07-.11-.15-.11-.26,0-.09.04-.18.11-.25.07-.07.25-.14.52-.22.2-.05.4-.11.58-.18v.22Z"/>
    <path class="cls-3" d="m20.41,19.05c.09,0,.22.03.38.1l.42-.96c-.24-.12-.46-.19-.66-.19s-.35.05-.48.14-.26.27-.38.52v-.58h-.42c.19.45.4.9.64,1.37.03-.07.05-.13.09-.18.1-.15.23-.22.41-.22Z"/>
    <path class="cls-3" d="m24.57,18.23c-.29-.15-.69-.23-1.2-.23-.62,0-1.11.17-1.47.51-.35.34-.53.79-.53,1.34,0,.39.09.73.26,1.01.18.29.4.5.67.63.27.13.64.2,1.1.2.54,0,.95-.08,1.24-.23.29-.15.53-.41.74-.76l-1.33-.12c-.08.11-.16.18-.24.22-.12.07-.25.1-.38.1-.21,0-.38-.08-.51-.23-.09-.11-.15-.27-.18-.49h2.71v-.15c0-.47-.08-.84-.23-1.13-.15-.29-.38-.51-.67-.67Zm-1.81,1.3c.02-.21.07-.37.16-.48.13-.17.3-.26.52-.26.19,0,.34.06.45.17.11.11.18.3.21.56h-1.33Z"/>
    <path class="cls-3" d="m29.5,21.61l.24-.81h1.71l.24.81h1.58l-1.83-4.88h-1.64l-1.83,4.88h1.54Zm1.1-3.61l.54,1.75h-1.07l.53-1.75Z"/>
    <polygon class="cls-3" points="33.66 21.61 35.05 21.61 35.05 20.7 35.56 20.2 36.27 21.61 37.8 21.61 36.46 19.32 37.73 18.08 36.06 18.08 35.05 19.26 35.05 16.74 33.66 16.74 33.66 21.61"/>
    <rect class="cls-3" x="38.26" y="16.74" width="1.35" height=".92"/>
    <rect class="cls-3" x="38.26" y="18.08" width="1.35" height="3.53"/>
    <rect class="cls-3" x="40.53" y="16.74" width="1.36" height=".93"/>
    <path class="cls-3" d="m41.44,22.88c.17-.11.29-.26.35-.44.06-.18.09-.49.09-.93v-3.43h-1.36v3.31c0,.24-.03.39-.09.47-.06.08-.15.12-.26.12-.05,0-.13-.01-.24-.03l-.2.98c.39.08.71.12.97.12.32,0,.56-.06.73-.17Z"/>
    <rect class="cls-3" x="43.53" y="16.8" width="2.15" height=".72"/>
    <path class="cls-3" d="m44.6,21.69c.64,0,1.14-.17,1.5-.52s.54-.79.54-1.34c0-.48-.15-.89-.44-1.22-.36-.41-.9-.62-1.6-.62-.62,0-1.11.17-1.47.52-.36.35-.55.79-.55,1.33,0,.58.22,1.05.65,1.4.35.29.81.43,1.38.43Zm-.47-2.53c.13-.15.29-.23.49-.23.19,0,.34.07.47.22.13.15.19.38.19.68,0,.33-.06.57-.19.72-.13.15-.29.22-.48.22s-.35-.08-.48-.23c-.13-.15-.19-.38-.19-.7s.06-.54.19-.69Z"/>
    <rect class="cls-3" x="47.3" y="20.26" width="1.45" height="1.36"/>
  </g>
</svg>