<?xml version="1.0" encoding="UTF-8"?>
<svg id="_內容" data-name="內容" xmlns="http://www.w3.org/2000/svg" viewBox="0 0 121.07 48.74">
  <defs>
    <style>
      .cls-1 {
        fill: #f9afcd;
      }

      .cls-1, .cls-2 {
        stroke-width: 0px;
      }

      .cls-2 {
        fill: blue;
      }
    </style>
  </defs>
  <path class="cls-2" d="m104.41,0c-4.04,0-7.96,1.62-10.98,4.49-2.77-2.64-6.25-4.2-9.96-4.45h-.06s-.42-.02-.46-.03c-.16,0-.31,0-.45,0h0s-.04,0-.06,0h-.07c-.15,0-.29,0-.43,0h-.03s-.03,0-.03,0c-.14,0-.3.01-.47.02-3.69.24-7.14,1.78-9.9,4.38-3.01-2.83-6.87-4.41-10.89-4.41h-.13s-.03,0-.04,0c-4.01,0-7.88,1.59-10.89,4.41C46.81,1.82,43.36.28,39.68.04h-.06s-.42-.02-.46-.03c-.16,0-.31,0-.45,0h0s-.04,0-.06,0h-.08c-.14,0-.29,0-.43,0h-.03s-.03,0-.03,0c-.14,0-.3.01-.47.02-3.72.25-7.21,1.81-9.98,4.45C24.63,1.62,20.7,0,16.66,0,7.47,0,0,8.11,0,18.08c-.1,15.86,16.71,25.96,23.94,29.56,1.15.57,2.43.87,3.72.87s2.58-.31,3.74-.88c1.77-.88,4.4-2.3,7.25-4.21,2.85,1.91,5.48,3.33,7.25,4.21,1.16.58,2.45.88,3.74.88s2.57-.3,3.72-.87c1.79-.89,4.38-2.29,7.19-4.17,2.81,1.88,5.39,3.28,7.19,4.17,1.15.57,2.43.87,3.72.87s2.58-.31,3.74-.88c1.77-.88,4.4-2.3,7.25-4.21,2.85,1.91,5.48,3.33,7.25,4.21,1.16.58,2.45.88,3.74.88s2.57-.3,3.72-.87c7.23-3.6,24.03-13.7,23.94-29.58,0-9.95-7.47-18.06-16.66-18.06Zm-8.61,44.96c-.75.37-1.56.56-2.38.56s-1.65-.19-2.4-.57c-1.9-.95-4.73-2.49-7.74-4.58-.26-.18-.55-.27-.85-.27s-.6.09-.85.27c-3.01,2.09-5.84,3.63-7.74,4.58-.76.38-1.58.57-2.4.57s-1.63-.19-2.38-.56c-2.06-1.03-5.22-2.76-8.52-5.14-3.3,2.38-6.46,4.11-8.52,5.14-.75.37-1.56.56-2.38.56s-1.65-.19-2.4-.57c-1.9-.95-4.73-2.49-7.74-4.58-.26-.18-.55-.27-.85-.27s-.6.09-.85.27c-3.01,2.09-5.84,3.63-7.74,4.58-.76.38-1.58.57-2.4.57s-1.63-.19-2.38-.56c-6.2-3.09-22.36-12.53-22.27-26.88,0-8.33,6.12-15.08,13.66-15.08,3.88,0,7.38,1.78,9.86,4.65.3.34.71.51,1.12.51s.84-.17,1.14-.52c2.31-2.65,5.48-4.37,9.02-4.61,0,0,0,0,.01,0,.13,0,.26-.02.4-.02,0,0,.02,0,.02,0,.13,0,.27,0,.4,0,0,0,0,0,0,0s0,0,0,0c.13,0,.27,0,.4,0,0,0,0,0,0,0,.03,0,.33.01.36.02h.07c3.54.24,6.72,1.96,9.02,4.61.3.34.71.51,1.13.51.24,0,.47-.05.68-.16,2.5-3.06,6.11-4.99,10.13-4.99.03,0,.06,0,.09,0,.03,0,.06,0,.09,0,4.02,0,7.63,1.93,10.13,4.99.21.11.45.16.68.16.41,0,.83-.17,1.13-.51,2.31-2.65,5.48-4.37,9.02-4.61,0,0,0,0,.01,0,.13,0,.26-.02.4-.02,0,0,.02,0,.02,0,.13,0,.27,0,.4,0,0,0,0,0,0,0s0,0,0,0c.13,0,.27,0,.4,0,0,0,0,0,0,0,.03,0,.33.01.36.02h.07c3.54.24,6.72,1.96,9.02,4.61.3.35.72.52,1.14.52s.82-.17,1.12-.51c2.49-2.86,5.98-4.65,9.86-4.65,7.55,0,13.66,6.75,13.66,15.08.09,14.35-16.07,23.79-22.27,26.88Z"/>
  <path class="cls-1" d="m93.42,47.02c-1.06,0-2.12-.25-3.07-.73-1.9-.95-4.82-2.53-7.92-4.69-3.09,2.16-6.01,3.74-7.91,4.69-.95.47-2.01.73-3.07.73s-2.11-.25-3.05-.72c-1.93-.96-4.79-2.52-7.85-4.64-3.06,2.12-5.92,3.68-7.85,4.64-.94.47-1.99.72-3.05.72s-2.12-.25-3.07-.73c-1.9-.95-4.82-2.53-7.92-4.69-3.09,2.16-6.01,3.74-7.92,4.69-.95.47-2.01.73-3.07.73s-2.11-.25-3.05-.72c-6.98-3.48-23.2-13.19-23.1-28.23C1.5,8.94,8.3,1.5,16.66,1.5c4.2,0,8.1,1.83,10.99,5.16,2.64-3.06,6.22-4.88,10.05-5.13.16-.01.31-.02.46-.02.17,0,.55,0,.55,0,.13,0,.26,0,.39,0,.03,0,.38.02.41.02,3.87.26,7.41,2.04,10.05,5.04,2.85-3.23,6.79-5.06,10.89-5.06h.18c4.1,0,8.04,1.84,10.89,5.07,2.64-3,6.18-4.78,9.98-5.03.16-.01.31-.02.46-.02.17,0,.54,0,.54,0,.13,0,.26,0,.4,0,.03,0,.38.02.41.02,3.9.26,7.47,2.08,10.13,5.13,2.88-3.32,6.79-5.15,10.99-5.15,8.36,0,15.16,7.44,15.16,16.58.09,15.03-16.13,24.74-23.1,28.22-.94.47-1.99.72-3.05.72h0ZM36.38,8.47s-.09.02-.17.06c-2.62,1.59-3.93,4.53-3.41,7.66.01.09.04.12.04.12.17-.03.38-.11.51-.26.09-.1.11-.21.09-.36-.41-2.51.83-5.13,3.1-6.51.13-.08.21-.14.15-.36-.06-.22-.23-.36-.3-.36Zm21.82,0s-.09.02-.17.06c-2.62,1.59-3.93,4.53-3.41,7.66.01.09.04.12.04.12.17-.03.38-.11.51-.26.09-.1.11-.21.09-.36-.41-2.51.83-5.13,3.1-6.51.13-.08.21-.14.15-.36-.06-.22-.23-.36-.3-.36Zm-45.38,0s-.09.02-.17.06c-2.62,1.59-3.93,4.53-3.41,7.66.01.09.04.12.04.12.17-.03.38-.11.51-.26.09-.1.11-.21.09-.36-.41-2.51.83-5.13,3.1-6.51.13-.08.21-.14.15-.36-.06-.22-.23-.36-.3-.36Z"/>
  <path class="cls-2" d="m36.38,6.97c-.3,0-.62.09-.95.28-3.2,1.95-4.71,5.53-4.11,9.19.16.94.82,1.35,1.54,1.35,1.08,0,2.29-.93,2.05-2.34-.32-1.97.73-3.97,2.4-4.99,1.72-1.05.67-3.5-.93-3.5Z"/>
  <path class="cls-2" d="m12.82,6.97c-.3,0-.62.09-.95.28-3.2,1.95-4.71,5.53-4.11,9.19.16.94.82,1.35,1.54,1.35,1.08,0,2.29-.93,2.05-2.34-.32-1.97.73-3.97,2.4-4.99,1.72-1.05.67-3.5-.93-3.5Z"/>
  <path class="cls-2" d="m58.2,6.97c-.3,0-.62.09-.95.28-3.2,1.95-4.71,5.53-4.11,9.19.16.94.82,1.35,1.54,1.35,1.08,0,2.29-.93,2.05-2.34-.32-1.97.73-3.97,2.4-4.99,1.72-1.05.67-3.5-.93-3.5Z"/>
  <g>
    <path class="cls-2" d="m81.89,25.88c.32.7.52,1.42.61,2.16.09.74.04,1.44-.14,2.08s-.5,1.2-.97,1.67c-.47.47-1.09.77-1.86.9s-1.39.14-1.9.03c-.5-.12-.9-.31-1.19-.59-.29-.28-.5-.6-.63-.98-.12-.38-.2-.77-.22-1.18-.03-.35-.12-.6-.28-.75-.16-.14-.31-.19-.48-.13-.16.06-.28.22-.36.47-.08.25-.05.58.09,1,.14.42.23.8.29,1.16.05.36.03.68-.07.96-.1.28-.29.52-.57.71-.28.2-.7.34-1.26.44-.51.09-.94.08-1.3-.03s-.66-.3-.91-.56c-.24-.27-.42-.6-.54-.98-.12-.39-.19-.83-.21-1.31-.01-.36-.09-.61-.23-.76-.14-.15-.29-.19-.44-.14-.15.05-.27.21-.36.47-.09.26-.07.62.04,1.07.1.41.19.78.26,1.13.07.35.09.65.06.92-.03.27-.12.49-.28.66-.16.17-.41.29-.76.35-.48.08-.95.1-1.43.04-.48-.06-.93-.25-1.36-.57-.43-.32-.84-.81-1.21-1.45-.37-.65-.7-1.52-.97-2.61-.1-.38-.16-.81-.19-1.29-.03-.49.02-.95.15-1.4.13-.45.37-.84.72-1.18.36-.34.88-.55,1.57-.64.27-.03.54-.03.81,0,.27.03.5.1.71.22.21.12.38.28.53.5.14.21.24.49.28.85.24-.52.57-.99.99-1.42.42-.43.9-.75,1.44-.96.74-.26,1.42-.28,2.04-.06.62.22,1.06.57,1.32,1.04.25-.42.57-.81.94-1.16.37-.35.8-.62,1.29-.8.54-.19,1.05-.27,1.53-.24.48.03.91.16,1.28.4.38.24.69.56.93.98.24.41.4.91.47,1.49.04.42.14.72.31.91.16.19.34.27.52.24s.36-.18.53-.45c.17-.27.3-.66.39-1.18Z"/>
    <path class="cls-2" d="m80.98,21.63c.11-.02.23-.04.37-.08.13-.03.29-.07.46-.12.22-1.08.6-2,1.15-2.74.55-.74,1.24-1.27,2.06-1.6.64-.26,1.15-.35,1.53-.28.38.07.67.26.87.56.2.3.33.69.38,1.18.05.49.07,1.03.04,1.62.11-.02.21-.03.31-.04.1,0,.19-.02.29-.04.43-.04.77.04,1.01.25.24.21.38.46.43.76.04.29-.01.6-.17.91-.16.31-.43.55-.81.69-.17.06-.36.13-.58.2-.22.07-.46.14-.72.2-.02.23-.04.46-.05.67-.01.21-.02.42-.01.62-.01.57.06,1,.23,1.28.16.28.35.43.57.44.21.01.43-.12.63-.38.21-.26.35-.66.44-1.18.32.7.52,1.42.61,2.16.09.74.04,1.44-.14,2.08s-.5,1.2-.97,1.67c-.47.47-1.09.77-1.86.9-.59.1-1.15.11-1.68.01-.53-.09-1.02-.35-1.46-.76-.44-.41-.84-1.01-1.19-1.8-.35-.79-.64-1.82-.86-3.11-.05-.3-.1-.6-.13-.9-.04-.3-.06-.58-.08-.86-.02,0-.03,0-.04,0,0,0-.02,0-.04,0-.49-.01-.87-.12-1.14-.33-.27-.21-.42-.44-.47-.7s.02-.52.18-.77c.17-.25.45-.43.84-.53Z"/>
    <path class="cls-2" d="m91.49,23.97c.72-.63,1.37-1.11,1.93-1.44.24-.14.47-.25.7-.34s.43-.12.61-.11c.17.02.31.1.42.23.11.14.15.36.14.67-.02.54.06.93.24,1.16.18.23.39.34.62.32.23-.02.45-.14.65-.36.2-.22.3-.52.32-.9.31.58.46,1.11.43,1.59-.03.48-.16.87-.38,1.18-.22.31-.51.52-.87.62-.36.1-.71.07-1.05-.1.07.56.16,1.1.27,1.62.12.52.23,1.01.35,1.48.12.5.22.97.31,1.39.08.43.12.8.1,1.12-.02.32-.1.59-.25.79-.15.21-.4.34-.75.4-.48.08-.96.07-1.47-.04-.5-.11-1-.44-1.5-.99-.5-.55-.98-1.38-1.45-2.48-.47-1.1-.91-2.6-1.3-4.49-.4-1.84-.65-3.38-.75-4.6-.09-1.23-.03-2.22.18-2.99.21-.76.58-1.34,1.11-1.73.53-.39,1.21-.65,2.05-.8s1.47-.09,1.94.15c.47.25.81.62,1.03,1.13.22.51.34,1.13.38,1.86s.02,1.51-.03,2.33c-.05.83-.11,1.68-.18,2.56-.07.88-.09,1.72-.06,2.51,0,.13,0,.26,0,.38.01.12.02.25.03.38-.31-.17-.57-.46-.79-.84l-2.97-1.69Z"/>
    <path class="cls-2" d="m110.34,20.89c.32.7.52,1.42.61,2.16.09.74.04,1.44-.14,2.08s-.5,1.2-.97,1.67c-.47.47-1.09.77-1.86.9-.56.1-1.1.07-1.63-.07-.53-.14-1.03-.36-1.49-.65-.46-.29-.87-.63-1.24-1.03-.36-.4-.64-.81-.83-1.22l.23.89c.1.41.19.78.27,1.13.08.35.1.65.08.92-.03.27-.12.49-.28.66-.16.17-.41.29-.76.35-.48.08-.97.09-1.47.01-.5-.07-.99-.33-1.46-.76-.47-.43-.92-1.09-1.35-1.98-.43-.89-.83-2.11-1.18-3.67-.35-1.51-.55-2.76-.6-3.77-.05-1,.03-1.83.26-2.47.23-.65.61-1.13,1.15-1.46.54-.33,1.23-.57,2.07-.72.92-.16,1.61-.09,2.08.21.47.3.78.75.92,1.36.15.6.18,1.31.09,2.12-.09.81-.23,1.65-.42,2.51.15-.19.3-.36.46-.52.16-.16.33-.31.52-.46.56-.43,1.15-.71,1.75-.85.6-.14,1.17-.16,1.68-.05.52.11.96.32,1.33.65.37.33.6.75.69,1.25.12.67.08,1.23-.12,1.7-.2.47-.48.85-.85,1.14-.37.29-.8.5-1.29.63-.48.13-.96.16-1.43.12.44.3.95.42,1.51.36.56-.06,1.1-.23,1.61-.53.51-.29.96-.67,1.33-1.14.38-.47.61-.96.7-1.48Zm-7.03,2.39c.16-.03.29-.12.4-.28.11-.16.14-.38.09-.67-.04-.32-.14-.54-.29-.67-.15-.13-.33-.18-.52-.14s-.34.14-.44.31c-.1.17-.11.42-.04.73.05.29.15.48.31.6.16.11.32.15.48.13Z"/>
  </g>
</svg>