<?xml version="1.0" encoding="UTF-8"?>
<svg id="_圖層_1" data-name="圖層 1" xmlns="http://www.w3.org/2000/svg" viewBox="0 0 90.95 90.95">
  <defs>
    <style>
      .cls-1 {
        fill: #307850;
      }

      .cls-1, .cls-2 {
        stroke-width: 0px;
      }

      .cls-2 {
        fill: #fff;
      }
    </style>
  </defs>
  <rect class="cls-1" width="90.95" height="90.95" rx="26.56" ry="26.56"/>
  <g>
    <path class="cls-2" d="m80.45,57.41l3.62.24.09-1.34.48.03-.21,3.22-.48-.03.09-1.34-3.62-.24.04-.54Z"/>
    <path class="cls-2" d="m81.83,59.1c.54.09.92.31,1.13.65.17.29.23.61.17.97-.07.4-.26.7-.56.91-.31.21-.7.27-1.16.19-.38-.06-.67-.17-.86-.32-.2-.15-.34-.34-.42-.58-.08-.24-.1-.48-.06-.73.07-.41.26-.71.56-.92s.71-.27,1.2-.18Zm-.09.51c-.38-.06-.67-.03-.89.1-.21.13-.34.32-.39.57-.04.24.02.46.18.66s.43.32.82.39c.36.06.65.03.87-.1.21-.13.34-.32.38-.56.04-.25-.02-.47-.17-.66-.16-.19-.43-.32-.8-.39Z"/>
    <path class="cls-2" d="m79.23,63.88l.36.11c-.23-.26-.29-.57-.19-.92.07-.23.19-.41.37-.56.18-.15.4-.25.66-.28.26-.04.53-.01.82.08.28.09.53.21.73.37.2.16.34.36.41.58.07.22.07.45,0,.69-.05.17-.13.31-.25.42s-.24.19-.38.24l1.41.42-.14.48-3.94-1.18.13-.44Zm1.88-1.09c-.37-.11-.66-.11-.89-.02-.23.1-.37.25-.43.46-.06.21-.03.41.1.61s.37.35.73.46c.39.12.7.13.93.03.23-.09.37-.25.44-.47.06-.21.03-.42-.1-.61s-.39-.35-.77-.46Z"/>
    <path class="cls-2" d="m77.81,64.49l.46.14c-.07.09-.12.17-.15.25-.04.1-.06.19-.05.27,0,.08.04.15.08.21.03.05.13.14.29.29.02.02.05.05.1.09l3.18.15-.21.49-1.83-.12c-.23-.01-.47-.04-.72-.08.19.14.37.3.54.46l1.35,1.27-.2.46-2.34-2.23c-.25-.24-.42-.42-.51-.53-.12-.15-.19-.29-.21-.42-.03-.14,0-.28.05-.42.04-.09.1-.18.18-.27Z"/>
    <path class="cls-2" d="m77.12,69.3c-.05-.24-.06-.45-.03-.63.03-.18.09-.36.19-.53.16-.28.35-.46.58-.53.23-.07.45-.05.66.08.13.07.23.17.3.28.07.12.11.24.12.37.01.13,0,.26-.04.39-.03.1-.08.24-.16.42-.16.37-.25.66-.29.86.06.04.1.06.11.07.18.1.33.13.45.09.16-.05.31-.19.43-.41.12-.2.17-.38.15-.51-.02-.14-.1-.28-.26-.44l.3-.39c.16.14.27.29.33.45.06.15.08.33.04.53-.03.2-.12.41-.24.63-.12.22-.25.38-.38.49-.13.11-.25.17-.37.19-.12.02-.24,0-.38-.04-.08-.03-.22-.1-.42-.21l-.58-.33c-.41-.23-.67-.37-.79-.42-.12-.04-.24-.07-.37-.07l.26-.45c.12,0,.24.04.37.1Zm1,.52c.03-.19.11-.46.24-.8.08-.19.12-.34.13-.43s0-.18-.04-.25c-.04-.08-.1-.14-.17-.18-.12-.07-.24-.08-.37-.04-.13.04-.24.15-.34.32-.1.17-.14.34-.14.51,0,.17.05.33.14.46.07.1.21.21.4.32l.16.09Z"/>
    <path class="cls-2" d="m79.12,72.09l.48.33-.3.44-.38-.26c-.21-.14-.34-.27-.4-.38-.08-.15-.1-.32-.07-.5h.23c-.02.12-.01.22.03.31.04.09.13.18.25.28l.15-.21Z"/>
    <path class="cls-2" d="m76.38,71.38l-.25.43c-.17-.1-.34-.14-.5-.11-.16.03-.32.14-.46.31-.14.18-.21.34-.21.49,0,.15.06.26.15.34.09.07.19.09.3.05.08-.03.23-.12.45-.29.3-.23.52-.37.67-.44.14-.07.28-.09.42-.07.14.02.27.07.38.17.1.08.18.18.23.3.05.12.07.24.07.37,0,.1-.03.21-.08.34s-.13.25-.22.38c-.14.18-.3.32-.46.41-.16.09-.31.14-.46.13s-.3-.06-.47-.16l.25-.42c.13.08.27.1.4.07.13-.03.26-.12.38-.27.14-.18.22-.33.22-.46,0-.12-.04-.22-.12-.28-.05-.04-.11-.06-.18-.06-.07,0-.14.02-.23.07-.05.03-.17.11-.38.26-.3.22-.51.36-.65.43-.13.07-.27.1-.41.09-.14-.01-.28-.07-.41-.18-.13-.11-.22-.24-.28-.41s-.06-.35,0-.54c.05-.19.15-.38.29-.56.24-.3.49-.48.74-.53s.52,0,.8.15Z"/>
    <path class="cls-2" d="m72.67,73.94l-.41.27c-.12-.1-.23-.15-.35-.14-.15.01-.31.09-.47.23-.17.15-.28.31-.31.46-.03.15-.01.31.07.46.05.09.18.26.4.51,0-.34.11-.62.35-.83.3-.27.64-.36,1-.29.36.08.68.27.95.58.19.21.32.44.41.69.08.25.09.48.04.71-.06.23-.19.43-.38.6-.26.23-.57.31-.93.25l.24.27-.35.3-1.7-1.93c-.31-.35-.49-.63-.55-.83s-.05-.42.03-.64.23-.42.45-.62c.26-.23.53-.36.8-.38.27-.02.51.09.71.33Zm.87,1.62c-.26-.29-.5-.46-.74-.49s-.44.03-.61.18c-.17.15-.26.35-.26.58,0,.24.13.5.38.79.24.27.48.43.73.46.24.03.45-.03.62-.17.17-.15.25-.34.24-.58,0-.24-.12-.49-.36-.76Z"/>
    <path class="cls-2" d="m71.45,77.29c.31.45.42.88.32,1.27-.08.33-.28.59-.58.8-.33.23-.68.31-1.05.23s-.68-.31-.95-.7c-.22-.32-.34-.6-.37-.84-.03-.25,0-.48.12-.7s.27-.41.48-.55c.34-.23.69-.31,1.05-.24s.68.32.97.74Zm-.42.29c-.22-.31-.45-.5-.69-.57-.24-.06-.47-.02-.67.12-.2.14-.32.34-.35.59-.03.25.07.54.29.86.21.3.43.49.68.55s.47.02.67-.12c.21-.14.32-.34.35-.59s-.07-.53-.28-.84Z"/>
    <path class="cls-2" d="m68.77,79.1c.26.49.31.92.17,1.3-.12.31-.35.55-.67.72-.36.19-.71.22-1.07.1-.35-.12-.64-.39-.86-.81-.18-.34-.27-.63-.27-.88,0-.25.07-.48.2-.68.14-.21.32-.37.55-.49.37-.19.72-.23,1.07-.11.35.12.64.4.87.85Zm-.46.24c-.18-.34-.38-.55-.62-.64s-.46-.08-.68.04c-.22.12-.36.29-.42.54-.06.25,0,.54.19.89.17.33.37.54.61.63.24.09.46.08.68-.03.22-.12.36-.3.42-.54.06-.24,0-.54-.18-.87Z"/>
    <path class="cls-2" d="m63.42,79.92l.13.35c.07-.34.28-.58.61-.71.22-.08.45-.1.68-.05.23.05.44.17.62.35s.33.41.44.7c.11.28.15.55.15.81,0,.26-.08.49-.22.68-.14.19-.32.33-.55.41-.17.06-.33.08-.48.06-.16-.02-.3-.07-.42-.16l.52,1.38-.47.18-1.46-3.85.43-.16Zm2,.83c-.13-.36-.31-.59-.53-.71-.22-.12-.42-.14-.63-.07-.2.08-.35.23-.42.45-.08.22-.05.51.08.85.14.38.32.63.54.76.21.12.43.14.64.06.21-.08.35-.23.42-.45.07-.22.04-.52-.1-.89Z"/>
    <path class="cls-2" d="m60.92,80.71l.44,2.95-.44.07-.06-.41c-.07.16-.17.29-.31.4-.14.11-.3.18-.5.21-.22.03-.4.01-.55-.06-.15-.07-.27-.18-.35-.34-.18.38-.45.6-.82.65-.29.04-.52,0-.7-.14s-.3-.38-.35-.71l-.3-2.02.49-.07.28,1.86c.03.2.07.34.11.42.04.08.11.15.21.19.09.04.2.05.31.04.21-.03.37-.12.48-.28.12-.16.15-.39.1-.69l-.26-1.71.49-.07.29,1.91c.03.22.1.38.2.48.1.1.24.13.42.11.14-.02.26-.08.37-.17.11-.09.18-.21.21-.36.03-.15.03-.36-.01-.63l-.23-1.53.49-.08Z"/>
    <path class="cls-2" d="m56.55,82.78c0,.55-.15.96-.46,1.23-.25.22-.56.33-.93.33-.41,0-.74-.13-.99-.4-.26-.27-.39-.64-.39-1.11,0-.38.06-.69.17-.91.11-.22.28-.39.5-.51.22-.12.46-.18.71-.18.41,0,.75.13,1,.4.25.27.38.65.38,1.16Zm-.51,0c0-.38-.08-.67-.25-.86-.17-.19-.37-.29-.62-.29s-.46.1-.62.29c-.16.19-.25.48-.25.87,0,.37.08.65.25.84.17.19.37.28.62.28s.46-.09.62-.28c.16-.19.25-.47.25-.86Z"/>
    <path class="cls-2" d="m53.38,82.78c0,.55-.15.96-.46,1.23-.25.22-.56.33-.93.33-.41,0-.74-.13-.99-.4-.26-.27-.39-.64-.39-1.11,0-.38.06-.69.17-.91.11-.22.28-.39.5-.51.22-.12.46-.18.71-.18.41,0,.75.13,1,.4.25.27.38.65.38,1.16Zm-.51,0c0-.38-.08-.67-.25-.86-.17-.19-.37-.29-.62-.29s-.46.1-.62.29c-.16.19-.25.48-.25.87,0,.37.08.65.25.84.17.19.37.28.62.28s.46-.09.62-.28c.16-.19.25-.47.25-.86Z"/>
    <path class="cls-2" d="m48.13,81.29v.38c.19-.29.46-.44.82-.44.24,0,.45.07.65.2.2.13.35.31.46.55s.16.5.16.81-.05.57-.15.81c-.1.24-.25.43-.44.56s-.42.19-.66.19c-.18,0-.34-.04-.47-.11-.14-.08-.25-.17-.34-.3v1.48h-.5v-4.11h.46Zm1.58,1.49c0-.38-.08-.67-.24-.86-.16-.19-.35-.28-.56-.28s-.4.09-.56.27-.23.46-.23.83c0,.41.08.71.23.9.16.19.35.29.58.29s.41-.09.56-.27c.15-.18.22-.47.22-.87Z"/>
    <path class="cls-2" d="m45.29,81.29v2.98h-.5v-2.98h.5Zm0,3.53v.58h-.5v-.58h.5Z"/>
    <path class="cls-2" d="m44.21,82.18l-.49.08c-.03-.2-.11-.35-.23-.46s-.3-.16-.53-.16-.4.05-.51.14c-.11.09-.17.21-.17.33,0,.11.05.2.15.27.07.04.24.1.51.17.37.09.62.17.76.24.14.07.25.16.32.28.07.12.11.25.11.4,0,.13-.03.26-.09.37-.06.11-.14.21-.25.28-.08.06-.18.11-.32.15-.13.04-.28.06-.43.06-.23,0-.43-.03-.61-.1-.18-.07-.3-.16-.39-.27s-.14-.27-.17-.46l.49-.07c.02.15.09.27.19.36s.26.13.45.13c.23,0,.39-.04.49-.12.1-.08.15-.17.15-.27,0-.07-.02-.12-.06-.18-.04-.05-.1-.1-.19-.13-.05-.02-.2-.06-.44-.13-.35-.09-.6-.17-.74-.23-.14-.06-.25-.15-.33-.27-.08-.12-.12-.26-.12-.43s.05-.33.15-.48c.1-.15.24-.26.42-.35.18-.08.39-.12.62-.12.38,0,.67.08.88.24.2.16.33.4.38.72Z"/>
    <path class="cls-2" d="m39.79,82.18l-.49.08c-.03-.2-.11-.35-.23-.46s-.3-.16-.53-.16-.4.05-.51.14c-.11.09-.17.21-.17.33,0,.11.05.2.15.27.07.04.24.1.51.17.37.09.62.17.76.24.14.07.25.16.32.28.07.12.11.25.11.4,0,.13-.03.26-.09.37-.06.11-.14.21-.25.28-.08.06-.18.11-.32.15-.13.04-.28.06-.43.06-.23,0-.43-.03-.61-.1-.18-.07-.3-.16-.39-.27s-.14-.27-.17-.46l.49-.07c.02.15.09.27.19.36s.26.13.45.13c.23,0,.39-.04.49-.12.1-.08.15-.17.15-.27,0-.07-.02-.12-.06-.18-.04-.05-.1-.1-.19-.13-.05-.02-.2-.06-.44-.13-.35-.09-.6-.17-.74-.23-.14-.06-.25-.15-.33-.27-.08-.12-.12-.26-.12-.43s.05-.33.15-.48c.1-.15.24-.26.42-.35.18-.08.39-.12.62-.12.38,0,.67.08.88.24.2.16.33.4.38.72Z"/>
    <path class="cls-2" d="m36.75,80.15v4.12h-.46v-.39c-.11.15-.23.26-.36.34-.13.08-.3.11-.49.11-.25,0-.47-.07-.67-.2-.19-.13-.34-.32-.44-.55-.1-.24-.15-.5-.15-.78,0-.3.05-.58.16-.82.11-.24.27-.43.47-.56.21-.13.42-.2.65-.2.17,0,.32.04.45.11.13.07.24.16.33.27v-1.45h.5Zm-.45,2.62c0-.38-.08-.67-.23-.85-.15-.18-.34-.28-.56-.28s-.41.1-.57.29-.24.48-.24.88.08.66.23.85.34.28.55.28.4-.1.57-.3.25-.49.25-.88Z"/>
    <path class="cls-2" d="m33.71,82.78c-.06.55-.25.94-.58,1.17-.28.19-.59.27-.96.23-.4-.04-.72-.21-.95-.5-.23-.29-.32-.68-.27-1.15.04-.38.13-.68.26-.88.14-.21.32-.36.55-.46.23-.1.47-.13.73-.11.41.04.73.21.95.5.23.29.31.69.26,1.19Zm-.51-.05c.04-.38-.01-.67-.16-.88-.14-.21-.34-.32-.59-.35-.25-.03-.46.05-.65.22-.18.17-.3.45-.34.84-.04.37.02.65.16.86.15.21.34.32.58.35.25.03.46-.05.65-.22s.29-.45.33-.83Z"/>
    <path class="cls-2" d="m30.68,80.93l-.67,2.9-.44-.1.09-.41c-.28.27-.62.36-1.02.27-.17-.04-.33-.11-.46-.2-.13-.1-.22-.2-.27-.32-.05-.12-.07-.25-.07-.4,0-.1.03-.26.08-.49l.41-1.79.49.11-.41,1.77c-.05.2-.06.35-.05.46.02.11.06.2.15.28s.19.14.32.17c.21.05.4.02.58-.08.18-.1.31-.33.4-.71l.36-1.59.49.11Z"/>
    <path class="cls-2" d="m27.6,81.1l-.49-.09c.04-.2.02-.37-.06-.51-.08-.14-.23-.25-.45-.33-.22-.08-.39-.09-.53-.04-.14.05-.23.14-.27.26-.04.11-.02.21.05.3.05.06.19.18.42.33.31.21.53.37.64.48.11.11.18.24.21.38.03.14.02.28-.03.41-.04.12-.11.23-.21.32-.09.09-.2.15-.33.18-.09.03-.21.04-.35.03-.14,0-.28-.04-.43-.09-.22-.08-.4-.18-.54-.3s-.23-.25-.27-.39-.04-.3,0-.49l.48.1c-.03.15,0,.29.06.4.07.12.2.21.38.27.22.08.38.09.5.06s.19-.11.23-.2c.02-.06.02-.12,0-.19-.02-.06-.06-.13-.13-.19-.04-.03-.17-.12-.37-.27-.3-.21-.51-.36-.62-.47-.11-.1-.19-.22-.22-.36-.04-.14-.03-.29.03-.45.06-.16.16-.29.3-.4.14-.11.31-.17.51-.18.2-.02.41.02.63.09.36.13.61.3.74.52.14.22.18.49.12.8Z"/>
    <path class="cls-2" d="m24.65,80.68c-.24.5-.56.8-.95.9-.32.09-.65.05-.98-.11-.36-.18-.6-.45-.71-.8-.11-.35-.07-.74.14-1.17.17-.34.35-.59.55-.74.2-.15.42-.23.67-.24s.49.04.72.15c.37.18.61.45.72.8.11.35.06.75-.17,1.21Zm-.46-.23c.17-.34.22-.64.16-.88-.06-.24-.21-.42-.43-.53-.22-.11-.45-.11-.68-.02-.23.1-.43.32-.61.67-.16.33-.21.62-.15.86s.21.42.43.53c.22.11.45.12.68.02.23-.1.43-.32.6-.66Z"/>
    <path class="cls-2" d="m22.42,77.86l-1.56,2.54-.38-.24.24-.38c-.21.12-.37.18-.49.19-.12,0-.23-.02-.33-.08-.14-.09-.26-.22-.35-.41l.39-.31c.07.13.15.22.25.29.09.06.19.08.3.07.11-.01.21-.06.3-.14.14-.12.27-.28.38-.46l.82-1.33.43.26Z"/>
    <path class="cls-2" d="m18.69,76.46l-.37-.36c.25-.19.51-.29.79-.29.28,0,.55.1.83.31.34.26.54.57.58.94.04.37-.09.74-.38,1.13-.3.4-.64.63-1.01.7-.37.07-.72-.02-1.04-.27-.31-.24-.49-.54-.53-.91s.09-.75.39-1.14c.02-.02.05-.06.08-.11l1.75,1.33c.18-.27.26-.53.23-.77-.03-.24-.14-.43-.33-.58-.15-.11-.3-.17-.46-.17-.16,0-.34.06-.53.19Zm.82,1.64l-1.31-.99c-.13.21-.2.4-.19.56,0,.25.12.45.32.61.18.14.38.19.6.16.22-.03.41-.14.58-.34Z"/>
    <path class="cls-2" d="m17.1,73.72l-.26.27c.34-.08.64,0,.9.25.17.16.28.36.33.59.05.23.03.47-.05.71-.08.24-.23.48-.44.7-.21.21-.43.38-.67.48-.24.11-.47.14-.71.09-.23-.04-.43-.15-.61-.32-.13-.12-.22-.26-.26-.41-.05-.15-.06-.3-.04-.45l-1.02,1.06-.36-.34,2.85-2.96.33.32Zm.11,2.17c.26-.27.4-.54.42-.78.02-.25-.05-.44-.21-.59-.16-.15-.35-.21-.59-.19-.24.02-.48.17-.74.44-.28.29-.43.56-.46.81-.02.25.05.45.22.6.16.15.36.22.59.19.24-.03.49-.18.76-.47Z"/>
    <path class="cls-2" d="m15.05,71.37l.27.38-3.33,2.41-.29-.4,1.19-.86c-.34-.01-.61-.15-.8-.42-.11-.15-.18-.31-.21-.48-.04-.17-.03-.34.02-.51s.13-.32.25-.48c.12-.16.26-.3.44-.43.41-.3.81-.43,1.18-.39s.66.2.87.48c.2.28.25.59.12.92l.3-.22Zm-1.22.89c.29-.21.47-.4.54-.57.12-.28.1-.53-.06-.75-.13-.18-.32-.27-.57-.29s-.53.09-.83.31c-.32.23-.5.46-.56.69-.06.23-.03.44.1.61.13.18.32.27.57.29.25.02.52-.08.81-.29Z"/>
    <path class="cls-2" d="m14.58,68.7l-.39.28c-.03-.11-.06-.2-.1-.27-.05-.1-.11-.17-.18-.21-.07-.04-.14-.06-.22-.07-.06,0-.19.01-.4.05-.03,0-.07.01-.13.02l-2.05,2.44-.26-.47,1.2-1.38c.15-.18.32-.35.5-.52-.23.06-.46.11-.69.15l-1.82.3-.25-.44,3.19-.51c.34-.06.59-.08.73-.09.19,0,.34.02.47.09.12.06.22.16.3.3.05.08.08.19.1.31Z"/>
    <path class="cls-2" d="m10.66,63.77c.21.12.38.25.5.39s.21.3.28.49c.11.31.11.57.02.78-.09.22-.26.37-.49.45-.14.05-.27.06-.41.04-.14-.02-.26-.07-.36-.15-.1-.08-.2-.17-.28-.28-.06-.08-.13-.21-.22-.39-.18-.36-.33-.62-.46-.78-.07.02-.11.04-.13.04-.19.07-.31.16-.36.28-.07.16-.06.36.03.59.08.22.17.37.29.45.12.08.28.11.5.09l.1.48c-.21.03-.4.02-.56-.04-.16-.05-.3-.16-.43-.32s-.24-.36-.32-.6c-.08-.24-.12-.44-.12-.61,0-.17.04-.3.1-.4.06-.1.15-.19.27-.26.08-.04.22-.1.43-.18l.64-.22c.44-.16.72-.26.83-.33.11-.06.21-.14.3-.24l.17.49c-.08.08-.19.16-.31.22Zm-1.05.41c.13.15.28.38.45.71.1.18.18.31.24.38.06.07.14.11.22.13.08.02.17.01.25-.01.13-.04.22-.13.27-.25.05-.12.04-.28-.02-.46-.06-.18-.16-.33-.29-.44-.13-.11-.28-.18-.44-.2-.13-.01-.29.02-.5.09l-.17.06Z"/>
    <path class="cls-2" d="m10.67,62.56l-4.01.91-.11-.49,2.29-.52-1.44-.89-.14-.63,1.33.86,1.55-1.62.14.6-1.27,1.29.41.27,1.15-.26.11.49Z"/>
    <path class="cls-2" d="m6.62,60.36l-.58.08-.07-.5.58-.08.07.5Zm3.5-.5l-2.95.43-.07-.5,2.95-.42.07.49Z"/>
    <path class="cls-2" d="m6.45,59.01l-.58.06-.05-.5.58-.06.05.5Zm4.72.18l-.44-.05c.02-.1.02-.18.02-.24,0-.1-.05-.17-.12-.22-.07-.04-.25-.05-.52-.03l-3.12.3-.05-.5,3.13-.3c.36-.04.62-.01.78.07.2.1.31.29.34.57.01.13,0,.27-.02.39Z"/>
    <path class="cls-2" d="m8.36,57.7c-.55,0-.96-.14-1.23-.44-.23-.25-.34-.56-.35-.92,0-.41.12-.74.39-1,.26-.26.63-.4,1.11-.4.38,0,.69.05.91.16.22.11.4.27.52.49.12.21.19.45.19.71,0,.41-.12.75-.38,1.01-.26.26-.65.39-1.15.4Zm0-.51c.38,0,.67-.09.85-.26.19-.17.28-.38.27-.63,0-.25-.1-.45-.3-.61-.19-.16-.49-.24-.88-.23-.37,0-.65.09-.83.26-.19.17-.28.38-.27.62,0,.25.1.46.29.62.19.16.48.24.86.23Z"/>
    <path class="cls-2" d="m9.83,34.41l-3.62-.15-.06,1.34-.48-.02.13-3.22.48.02-.06,1.35,3.62.15-.02.54Z"/>
    <path class="cls-2" d="m8.41,32.72c-.55-.08-.93-.29-1.15-.63-.18-.28-.25-.6-.19-.97.06-.4.24-.71.54-.92s.69-.29,1.16-.22c.38.06.67.16.87.3.2.14.35.33.43.57s.11.48.08.73c-.06.41-.24.72-.54.93-.3.21-.7.28-1.2.21Zm.07-.51c.38.06.67.01.88-.12.21-.13.34-.33.37-.57.04-.25-.03-.46-.19-.65-.17-.19-.44-.31-.83-.37-.37-.05-.65-.01-.87.12-.21.14-.33.33-.37.57-.04.25.03.47.19.66.16.19.43.31.81.37Z"/>
    <path class="cls-2" d="m10.89,27.91l-.36-.1c.24.26.31.56.21.91-.06.23-.18.42-.36.57-.18.16-.39.26-.65.3-.26.04-.53.02-.82-.06-.29-.08-.53-.2-.74-.35s-.35-.35-.42-.57c-.07-.22-.08-.45-.01-.69.05-.17.12-.31.23-.43s.23-.2.38-.25l-1.42-.39.13-.48,3.97,1.08-.12.45Zm-1.85,1.13c.37.1.66.1.89,0,.22-.1.36-.26.42-.47.06-.21.02-.41-.12-.61-.13-.19-.38-.34-.74-.44-.39-.11-.7-.11-.93-.01-.22.1-.37.26-.43.48-.06.21-.02.42.12.61.14.19.4.34.78.44Z"/>
    <path class="cls-2" d="m12.29,27.28l-.46-.12c.07-.09.12-.17.15-.25.04-.1.06-.19.05-.27,0-.08-.04-.15-.08-.21-.04-.05-.13-.14-.29-.28-.02-.02-.06-.05-.1-.09l-3.19-.07.2-.5,1.83.07c.23,0,.47.03.72.06-.19-.14-.38-.29-.55-.44l-1.38-1.23.19-.46,2.4,2.17c.26.23.43.4.52.51.12.14.2.28.23.42s.01.28-.04.42c-.04.09-.09.18-.18.28Z"/>
    <path class="cls-2" d="m12.87,22.43c.05.24.07.45.04.63-.02.18-.08.36-.18.53-.15.29-.34.47-.57.54s-.44.06-.66-.06c-.13-.07-.23-.16-.3-.28-.08-.12-.12-.24-.13-.37-.01-.13,0-.26.03-.4.02-.1.07-.24.15-.43.15-.38.24-.67.27-.87-.06-.03-.1-.06-.11-.06-.18-.1-.33-.13-.45-.08-.16.06-.3.2-.42.42-.11.21-.16.38-.14.52.02.14.11.28.27.43l-.29.4c-.16-.14-.28-.29-.35-.44-.07-.15-.08-.33-.05-.53.03-.2.11-.42.23-.64.12-.22.24-.39.37-.5.13-.11.25-.18.36-.2.12-.02.24-.01.38.03.08.03.22.09.42.2l.59.32c.41.22.68.36.8.4.12.04.24.06.38.06l-.25.46c-.12,0-.24-.03-.37-.09Zm-1.01-.5c-.02.2-.09.46-.22.81-.07.19-.11.34-.12.43s0,.18.05.25c.04.08.1.13.18.17.12.06.24.07.37.03s.24-.15.33-.33c.09-.17.14-.34.13-.51,0-.17-.05-.32-.15-.46-.08-.1-.21-.21-.41-.31l-.16-.09Z"/>
    <path class="cls-2" d="m10.79,19.7l-.49-.32.29-.45.39.25c.21.14.34.26.41.37.08.15.11.32.08.5h-.23c.02-.11,0-.21-.04-.3-.05-.09-.13-.18-.26-.27l-.14.22Z"/>
    <path class="cls-2" d="m13.56,20.32l.24-.44c.18.1.34.13.51.09.16-.04.31-.14.45-.32.14-.18.21-.35.2-.49s-.06-.26-.16-.33c-.09-.07-.19-.08-.3-.05-.08.03-.23.13-.45.3-.3.23-.52.39-.66.46-.14.07-.28.1-.42.08-.14-.02-.27-.07-.38-.16-.11-.08-.18-.18-.24-.3-.05-.12-.08-.24-.08-.37,0-.1.03-.21.08-.34.05-.13.12-.26.21-.38.14-.18.29-.33.45-.42.16-.1.31-.14.45-.14.14,0,.3.05.47.14l-.24.43c-.13-.08-.27-.1-.4-.07s-.26.13-.38.28c-.14.18-.21.34-.21.46,0,.12.04.22.12.28.05.04.11.06.18.06.07,0,.14-.02.22-.07.04-.03.17-.12.37-.27.29-.22.5-.37.64-.45.13-.07.27-.11.41-.1.14,0,.28.06.42.17.13.1.23.24.29.4.06.17.06.35.02.54-.05.2-.14.38-.28.57-.23.3-.47.49-.72.55s-.52.02-.8-.13Z"/>
    <path class="cls-2" d="m17.21,17.68l.41-.28c.12.1.23.14.35.13.16-.02.31-.1.47-.24.17-.16.27-.31.3-.47.03-.15,0-.31-.08-.46-.05-.09-.19-.26-.41-.5.02.34-.1.62-.34.84-.3.28-.63.38-.99.31-.36-.07-.69-.25-.97-.55-.19-.21-.33-.44-.42-.68-.09-.25-.11-.48-.05-.71.05-.23.18-.43.37-.61.26-.24.56-.33.92-.27l-.24-.26.34-.31,1.75,1.89c.31.34.5.61.57.82.06.21.06.42-.02.64-.07.22-.22.43-.44.63-.26.24-.52.37-.79.4-.27.03-.51-.08-.72-.32Zm-.91-1.6c.26.29.51.44.75.47.23.03.44-.04.61-.19.17-.16.25-.35.24-.59,0-.24-.14-.5-.4-.78-.25-.27-.49-.42-.74-.44s-.45.04-.61.19c-.16.15-.24.35-.23.58,0,.24.14.49.38.76Z"/>
    <path class="cls-2" d="m18.34,14.31c-.32-.45-.44-.87-.35-1.26.08-.33.26-.6.56-.81.33-.24.67-.32,1.04-.26.37.07.69.29.96.67.22.31.36.59.39.83.04.25,0,.48-.1.71-.11.23-.26.42-.47.57-.33.24-.68.33-1.05.26s-.69-.3-.99-.71Zm.42-.3c.22.31.46.49.7.55.25.06.47.01.67-.13.2-.15.31-.34.33-.6.02-.25-.08-.53-.31-.85-.22-.3-.45-.48-.69-.53s-.47-.01-.67.13c-.2.15-.31.34-.34.59-.02.25.08.53.3.84Z"/>
    <path class="cls-2" d="m20.98,12.43c-.27-.48-.33-.91-.2-1.29.11-.32.33-.56.65-.74.35-.2.71-.24,1.06-.13.36.11.65.37.88.79.19.33.28.63.29.87,0,.25-.06.48-.19.69s-.31.38-.53.5c-.36.2-.72.25-1.07.13s-.65-.38-.89-.83Zm.45-.25c.19.33.4.54.63.63.24.09.46.07.68-.05.22-.12.35-.3.4-.55.05-.25-.02-.54-.21-.88-.18-.32-.39-.53-.62-.61s-.46-.07-.68.05c-.22.12-.35.3-.41.55s.01.53.2.87Z"/>
    <path class="cls-2" d="m26.31,11.48l-.14-.35c-.06.34-.26.58-.6.72-.22.09-.44.11-.67.06-.23-.05-.44-.16-.63-.34-.19-.18-.34-.41-.46-.69-.11-.28-.17-.54-.17-.8,0-.26.07-.49.2-.68.13-.19.31-.34.54-.43.17-.07.33-.09.48-.07.16.02.3.07.42.15l-.56-1.37.46-.19,1.55,3.81-.43.17Zm-2.02-.78c.14.35.33.59.54.7.22.11.43.13.63.05.2-.08.34-.24.41-.46s.04-.51-.1-.85c-.15-.38-.34-.62-.55-.74s-.43-.13-.64-.05c-.21.08-.34.24-.41.46-.07.23-.03.52.12.89Z"/>
    <path class="cls-2" d="m28.79,10.63l-.52-2.93.44-.08.07.41c.07-.16.17-.3.3-.41s.3-.19.49-.22c.21-.04.4-.02.55.04s.27.17.36.33c.17-.38.44-.61.81-.67.29-.05.52,0,.71.12.18.13.3.37.36.7l.35,2.01-.49.09-.33-1.85c-.04-.2-.08-.34-.12-.42-.05-.08-.12-.14-.21-.18-.09-.04-.2-.05-.31-.03-.2.04-.36.13-.47.29s-.14.39-.09.69l.3,1.71-.49.09-.33-1.91c-.04-.22-.11-.38-.21-.48-.1-.1-.24-.13-.42-.1-.14.02-.26.08-.36.18-.11.09-.17.22-.2.37-.03.15-.02.36.03.63l.27,1.52-.49.09Z"/>
    <path class="cls-2" d="m33.1,8.45c-.01-.55.13-.96.43-1.24.25-.23.55-.34.92-.35.41,0,.74.12,1,.38.26.26.4.63.41,1.1,0,.38-.04.69-.15.91-.11.22-.27.4-.49.52-.21.13-.45.19-.71.2-.41,0-.75-.12-1.01-.38s-.4-.64-.41-1.15Zm.51-.01c0,.38.1.67.27.85.17.19.38.28.63.27.25,0,.45-.11.61-.3s.24-.49.23-.88c0-.37-.1-.65-.27-.83-.17-.19-.38-.28-.62-.27-.25,0-.46.1-.62.3-.16.19-.24.48-.23.86Z"/>
    <path class="cls-2" d="m36.27,8.41c0-.55.15-.96.46-1.23.25-.22.56-.33.93-.33.41,0,.74.13.99.4.26.27.39.64.39,1.11,0,.38-.06.69-.17.91-.11.22-.28.39-.5.51-.22.12-.46.18-.71.18-.41,0-.75-.13-1-.4-.25-.27-.38-.65-.38-1.16Zm.51,0c0,.38.08.67.25.86.17.19.37.29.62.29s.46-.1.62-.29c.16-.19.25-.48.25-.87,0-.37-.08-.65-.25-.84-.17-.19-.37-.28-.62-.28s-.46.09-.62.28c-.16.19-.25.47-.25.86Z"/>
    <path class="cls-2" d="m41.55,9.9v-.38c-.19.29-.46.44-.82.44-.24,0-.45-.07-.65-.2-.2-.13-.35-.31-.46-.55s-.16-.5-.16-.81.05-.57.15-.81c.1-.24.25-.43.44-.56s.42-.19.66-.19c.18,0,.34.04.47.11.14.08.25.17.34.3v-1.48h.5v4.11h-.46Zm-1.58-1.49c0,.38.08.67.24.86.16.19.35.28.56.28s.4-.09.56-.27.23-.46.23-.83c0-.41-.08-.71-.23-.9-.16-.19-.35-.29-.58-.29s-.41.09-.56.27c-.15.18-.22.47-.22.87Z"/>
    <path class="cls-2" d="m44.37,6.37v-.58h.5v.58h-.5Zm0,3.53v-2.98h.5v2.98h-.5Z"/>
    <path class="cls-2" d="m45.43,9.01l.49-.08c.03.2.11.35.23.46s.3.16.53.16.4-.05.51-.14c.11-.09.17-.21.17-.33,0-.11-.05-.2-.15-.27-.07-.04-.24-.1-.51-.17-.37-.09-.62-.17-.76-.24-.14-.07-.25-.16-.32-.28-.07-.12-.11-.25-.11-.4,0-.13.03-.26.09-.37.06-.11.14-.21.25-.28.08-.06.18-.11.32-.15.13-.04.28-.06.43-.06.23,0,.43.03.61.1.18.07.3.16.39.27s.14.27.17.46l-.49.07c-.02-.15-.09-.27-.19-.36s-.26-.13-.45-.13c-.23,0-.39.04-.49.12-.1.08-.15.17-.15.27,0,.07.02.12.06.18.04.05.1.1.19.13.05.02.2.06.44.13.35.09.6.17.74.23.14.06.25.15.33.27.08.12.12.26.12.43s-.05.33-.15.48c-.1.15-.24.26-.42.35-.18.08-.39.12-.62.12-.38,0-.67-.08-.88-.24-.2-.16-.33-.4-.38-.72Z"/>
    <path class="cls-2" d="m49.88,9.01l.49-.08c.03.2.11.35.23.46s.3.16.53.16.4-.05.51-.14c.11-.09.17-.21.17-.33,0-.11-.05-.2-.15-.27-.07-.04-.24-.1-.51-.17-.37-.09-.62-.17-.76-.24-.14-.07-.25-.16-.32-.28-.07-.12-.11-.25-.11-.4,0-.13.03-.26.09-.37.06-.11.14-.21.25-.28.08-.06.18-.11.32-.15.13-.04.28-.06.43-.06.23,0,.43.03.61.1.18.07.3.16.39.27s.14.27.17.46l-.49.07c-.02-.15-.09-.27-.19-.36s-.26-.13-.45-.13c-.23,0-.39.04-.49.12-.1.08-.15.17-.15.27,0,.07.02.12.06.18.04.05.1.1.19.13.05.02.2.06.44.13.35.09.6.17.74.23.14.06.25.15.33.27.08.12.12.26.12.43s-.05.33-.15.48c-.1.15-.24.26-.42.35-.18.08-.39.12-.62.12-.38,0-.67-.08-.88-.24-.2-.16-.33-.4-.38-.72Z"/>
    <path class="cls-2" d="m52.9,11.04v-4.12h.46v.39c.11-.15.23-.26.36-.34.13-.08.3-.11.49-.11.25,0,.47.07.67.2.19.13.34.32.44.55.1.24.15.5.15.78,0,.3-.05.58-.16.82-.11.24-.27.43-.47.56-.21.13-.42.2-.65.2-.17,0-.32-.04-.45-.11-.13-.07-.24-.16-.33-.27v1.45h-.5Zm.45-2.62c0,.38.08.67.23.85.15.18.34.28.56.28s.41-.1.57-.29.24-.48.24-.88-.08-.66-.23-.85-.34-.28-.55-.28-.4.1-.57.3-.25.49-.25.88Z"/>
    <path class="cls-2" d="m55.94,8.39c.04-.55.23-.95.55-1.19.27-.2.59-.29.95-.26.4.03.72.19.96.48.23.29.33.67.3,1.14-.03.38-.11.68-.24.89s-.31.37-.54.47-.47.15-.72.12c-.41-.03-.73-.19-.97-.48s-.33-.68-.29-1.18Zm.51.04c-.03.38.03.67.18.87s.35.31.6.33c.25.02.46-.06.64-.24.18-.18.29-.46.32-.85.03-.37-.03-.65-.18-.85-.15-.2-.35-.31-.59-.33-.25-.02-.46.06-.64.23-.18.17-.28.45-.31.83Z"/>
    <path class="cls-2" d="m59.03,10.17l.59-2.92.44.09-.08.42c.28-.28.62-.38,1.02-.29.17.04.33.1.46.19.13.09.23.2.28.32.05.12.08.25.08.4,0,.09-.02.26-.07.49l-.37,1.79-.49-.1.36-1.78c.04-.2.05-.36.04-.46-.02-.11-.07-.2-.15-.28-.08-.08-.19-.13-.32-.16-.21-.04-.4-.01-.58.09-.18.1-.31.34-.38.71l-.32,1.59-.49-.1Z"/>
    <path class="cls-2" d="m62.1,9.91l.49.08c-.04.2-.01.37.08.51.09.14.24.25.46.32.22.07.39.08.53.02.13-.06.22-.14.26-.26.04-.11.02-.21-.06-.3-.05-.06-.2-.17-.43-.32-.32-.2-.54-.36-.65-.47-.11-.11-.19-.23-.22-.37s-.03-.28.02-.41c.04-.13.11-.23.2-.32.09-.09.2-.15.32-.19.09-.03.21-.04.35-.04.14,0,.28.03.43.08.22.07.4.17.55.29.14.12.24.25.28.38.04.14.05.3.02.49l-.49-.09c.03-.15,0-.29-.07-.4-.07-.12-.2-.2-.39-.26-.22-.07-.39-.09-.5-.04-.12.04-.19.11-.22.21-.02.06-.02.12,0,.19.02.06.07.13.14.19.04.03.17.12.38.26.31.2.52.35.63.45.11.1.19.22.23.35.04.13.03.28-.02.45-.05.16-.15.3-.29.41-.14.11-.31.18-.51.2-.2.02-.41,0-.63-.08-.36-.12-.62-.29-.76-.5-.14-.21-.19-.48-.14-.8Z"/>
    <path class="cls-2" d="m65.04,10.26c.23-.5.54-.81.93-.92.32-.09.65-.07.98.09.37.17.61.43.74.78.12.35.08.74-.11,1.17-.16.35-.34.6-.53.75-.2.15-.42.24-.67.26-.25.02-.49-.02-.72-.13-.38-.17-.62-.43-.74-.78-.12-.35-.07-.75.14-1.21Zm.47.21c-.16.35-.2.64-.13.88s.22.41.45.52c.23.1.45.1.68,0,.23-.11.43-.33.59-.69.15-.33.2-.62.12-.86-.07-.24-.22-.41-.44-.52-.23-.1-.45-.11-.68,0-.23.1-.42.33-.58.67Z"/>
    <path class="cls-2" d="m67.35,13.03l1.5-2.57.39.23-.23.39c.21-.12.37-.19.49-.2.12,0,.23.02.33.07.15.08.27.22.36.4l-.38.32c-.07-.12-.16-.22-.26-.28-.09-.05-.2-.08-.3-.06-.11.01-.21.06-.3.15-.14.13-.26.28-.37.47l-.79,1.35-.43-.25Z"/>
    <path class="cls-2" d="m71.12,14.35l.38.35c-.24.2-.5.3-.78.31-.28,0-.55-.09-.83-.29-.35-.25-.55-.56-.6-.93-.05-.37.07-.74.35-1.14.29-.41.62-.65.99-.72.37-.08.72,0,1.05.24.32.23.5.53.55.89s-.08.75-.36,1.15c-.02.02-.04.06-.08.11l-1.79-1.28c-.18.28-.25.53-.22.77.03.24.15.43.35.57.15.11.3.16.47.16.16,0,.34-.07.52-.2Zm-.86-1.62l1.34.96c.13-.22.19-.41.18-.57-.02-.25-.13-.45-.33-.6-.19-.13-.39-.18-.61-.15-.22.03-.41.15-.58.35Z"/>
    <path class="cls-2" d="m72.78,17.05l.25-.28c-.34.09-.64.01-.91-.23-.17-.16-.29-.35-.35-.58-.06-.23-.05-.47.03-.71.08-.25.22-.48.43-.71.2-.22.42-.38.66-.5.24-.11.47-.15.7-.11.23.04.44.14.62.3.13.12.22.25.27.4.05.15.07.3.05.45l1-1.09.37.34-2.78,3.03-.34-.31Zm-.16-2.16c-.26.28-.39.54-.4.79,0,.25.06.44.22.59.16.15.36.21.59.18.23-.03.48-.18.73-.45.28-.3.42-.57.44-.82.01-.25-.06-.45-.23-.6-.16-.15-.36-.21-.6-.17-.23.03-.48.2-.75.49Z"/>
    <path class="cls-2" d="m74.87,19.34l-.28-.37,3.27-2.49.3.4-1.17.89c.34,0,.61.14.81.4.11.14.18.3.22.48s.04.34,0,.51-.12.33-.24.49c-.11.16-.26.31-.43.44-.41.31-.8.45-1.17.42s-.67-.18-.88-.46c-.21-.28-.26-.58-.15-.92l-.3.23Zm1.2-.92c-.28.22-.46.41-.53.58-.11.28-.09.53.08.74.13.17.32.27.57.28s.53-.1.83-.33c.31-.24.49-.47.55-.7.05-.23.02-.44-.11-.61-.13-.17-.32-.27-.57-.28s-.52.09-.81.31Z"/>
    <path class="cls-2" d="m75.41,22l.38-.29c.03.11.07.2.11.27.06.1.12.16.18.2s.14.06.22.06c.06,0,.19-.02.4-.06.03,0,.07-.01.13-.02l1.99-2.49.28.46-1.17,1.41c-.15.18-.31.36-.48.54.23-.07.46-.13.69-.17l1.81-.35.26.43-3.18.58c-.34.06-.58.1-.72.1-.19,0-.35-.02-.47-.08-.13-.06-.23-.16-.31-.29-.05-.08-.09-.19-.11-.31Z"/>
    <path class="cls-2" d="m79.45,26.83c-.21-.12-.38-.24-.5-.38-.12-.14-.22-.3-.29-.48-.11-.3-.13-.56-.04-.78.09-.22.25-.37.48-.46.14-.05.27-.07.41-.05.14.02.26.06.36.14.11.07.2.17.28.28.06.08.14.21.23.39.19.36.35.62.48.77.07-.02.11-.04.12-.04.19-.07.31-.17.36-.29.06-.16.05-.36-.04-.59-.08-.22-.18-.37-.3-.44s-.28-.1-.5-.08l-.11-.48c.21-.03.4-.03.56.02.16.05.3.15.44.31s.25.35.34.59c.09.24.13.44.13.61s-.03.3-.09.41-.15.19-.27.27c-.07.05-.22.11-.43.19l-.63.24c-.44.17-.71.28-.82.35-.11.06-.21.15-.29.25l-.19-.49c.08-.08.18-.16.31-.22Zm1.04-.44c-.13-.14-.29-.38-.47-.7-.1-.18-.18-.31-.25-.37-.06-.07-.14-.11-.22-.13-.08-.02-.17-.01-.25.02-.13.05-.21.13-.26.26-.05.13-.04.28.03.46.07.18.17.33.3.44.13.11.28.17.44.18.12,0,.29-.02.5-.1l.17-.07Z"/>
    <path class="cls-2" d="m79.47,28.03l3.99-1.01.12.49-2.27.57,1.46.85.16.63-1.35-.82-1.51,1.66-.15-.6,1.24-1.32-.42-.26-1.15.29-.12-.49Z"/>
    <path class="cls-2" d="m80.08,30.72l2.94-.5.08.49-2.94.5-.08-.49Zm3.48-.59l.57-.1.08.49-.57.1-.08-.49Z"/>
    <path class="cls-2" d="m79.05,31.44l.44.04c-.01.1-.02.18-.01.24.01.1.05.17.13.21.07.04.25.05.52.01l3.11-.37.06.5-3.12.37c-.36.04-.62.03-.78-.05-.2-.1-.32-.29-.35-.56-.02-.13-.01-.27,0-.4Zm4.72.07l.58-.07.06.5-.58.07-.06-.5Z"/>
    <path class="cls-2" d="m81.91,32.86c.55-.02.97.12,1.24.41.23.25.35.55.36.92.01.41-.11.74-.37,1.01-.26.27-.62.41-1.1.42-.38.01-.69-.03-.91-.14-.22-.11-.4-.27-.53-.48-.13-.21-.2-.45-.21-.71-.01-.41.11-.75.37-1.01.26-.26.64-.4,1.14-.42Zm.02.51c-.38.01-.66.11-.85.28-.18.17-.27.38-.26.63,0,.25.11.45.31.61.2.16.49.23.88.22.37-.01.64-.11.83-.28.18-.17.27-.38.26-.63,0-.25-.11-.45-.31-.61-.19-.16-.48-.23-.86-.22Z"/>
  </g>
  <g>
    <g>
      <path class="cls-2" d="m41.43,26.03h.44c.18,0,.33-.15.33-.33v-.57c0-.18.15-.33.33-.33h5.79c.18,0,.33.15.33.33v.51c0,.18.15.33.33.33h4.45c.18,0,.33-.15.33-.33v-.51c0-.18.15-.33.33-.33h4.49c.18,0,.33-.15.33-.33v-2.98c0-.18-.15-.33-.33-.33h-4.49c-.18,0-.33-.15-.33-.33v-.73c0-.18-.15-.33-.33-.33h-4.45c-.18,0-.33.15-.33.33v.73c0,.18-.15.33-.33.33h-5.79c-.18,0-.33-.15-.33-.33v-.73c0-.18-.15-.33-.33-.33h-4.45c-.18,0-.33.15-.33.33v.73c0,.18-.15.33-.33.33h-4.4c-.18,0-.33.15-.33.33v2.98c0,.18.15.33.33.33h4.4c.18,0,.33.15.33.33v.57c0,.18.15.33.33.33h4Z"/>
      <path class="cls-2" d="m32.03,27.28v2.55c0,.18.15.33.33.33h1.41c.18,0,.33.15.33.33v1.69c0,.18-.15.33-.33.33h-1.41c-.18,0-.33.15-.33.33v3.01c0,.18.15.33.33.33h.85c.26,0,.42.29.28.51-.4.64-.87,1.28-1.39,1.91-.05.06-.08.13-.08.21v5.12c0,.31.38.45.58.22.31-.37.61-.76.89-1.16.19-.26.6-.13.6.19v1.94c0,.18.15.33.33.33h4.35c.18,0,.33-.15.33-.33v-2.34c0-.35.47-.46.63-.15.1.2.19.39.27.56.09.19.33.25.5.12l2.23-1.73c.13-.1.17-.29.08-.43-.65-1.07-1.63-2.54-2.92-4.44-.15-.22,0-.52.27-.52h1.11c.24,0,.4.25.3.46-.07.15-.13.31-.19.45-.07.18.02.38.2.44l3.56,1.24c.16.06.33-.02.41-.17,1.17-2.44,2.05-5.16,2.57-8.15.03-.18-.09-.35-.26-.38l-3.76-.75c-.18-.04-.35.08-.39.26-.28,1.35-.61,2.67-1,3.96-.11.36-.65.28-.65-.1v-.6c0-.18-.15-.33-.33-.33h-2.3c-.18,0-.33-.15-.33-.33v-1.69c0-.18.15-.33.33-.33h2.63c.24,0,.4-.24.3-.46l-1.1-2.55c-.05-.12-.17-.2-.3-.2h-8.61c-.18,0-.33.15-.33.33Z"/>
      <path class="cls-2" d="m46.48,45.39c1.76-1.25,3.31-2.9,4.64-4.94.13-.21.44-.2.56.02,1.17,2.03,2.59,3.66,4.24,4.92.06.04.13.07.2.07h2.47c.18,0,.33-.15.33-.33v-2.9c0-.11-.05-.21-.14-.27-1.59-1.1-2.7-2.33-3.47-3.84-.13-.26.12-.56.4-.46l1.83.62c.15.05.32-.01.4-.16.34-.65.66-1.32.96-2.02.02-.04.03-.09.03-.13v-6.29c0-.16-.11-.29-.27-.32l-2.12-.41c-.18-.03-.35.08-.38.25-.36,1.61-.82,3.16-1.37,4.64-.12.33-.61.27-.64-.08-.06-.68-.1-1.45-.1-2.31v-4.14c0-.18-.15-.33-.33-.33h-4.58c-.18,0-.33.15-.33.33v4.14c0,3.04-.64,5.51-1.88,7.38-1.19,1.78-3.04,3.23-5.6,4.41-.19.09-.26.33-.13.5l1.21,1.6c.06.08.16.13.26.13h3.63c.07,0,.14-.02.19-.06Z"/>
    </g>
    <g>
      <path class="cls-2" d="m58.61,49.85h-12.87c-.3,0-.44-.36-.23-.57h0c.21-.21.07-.57-.23-.57h-6.61c-.07,0-.13.02-.19.06-1.8,1.27-3.89,2.43-6.26,3.48-.12.05-.2.17-.2.3v3.93c0,.23.23.39.44.31.98-.35,1.89-.71,2.73-1.09.09-.04.2-.04.29,0,.85.46,1.81.93,2.85,1.39.3.13.24.57-.08.63-1.76.31-3.74.61-5.95.89-.17.02-.29.16-.29.33v3.19c0,.2.18.35.38.33,5.18-.7,9.58-1.59,13.19-2.64.06-.02.12-.02.18,0,3.69,1.06,7.99,1.96,12.8,2.64.2.03.38-.13.38-.33v-3.33c0-.16-.12-.3-.28-.33-2-.3-3.79-.6-5.36-.88-.32-.06-.37-.48-.08-.62,1.97-.95,3.84-2.06,5.59-3.28.09-.06.14-.16.14-.27v-3.24c0-.18-.15-.33-.33-.33Zm-12.79,6.02c-1.77-.55-3.37-1.15-4.83-1.84-.32-.15-.22-.63.14-.63h9.04c.34,0,.46.46.16.62-1.31.7-2.73,1.31-4.3,1.84-.07.02-.14.02-.21,0Z"/>
      <path class="cls-2" d="m58.61,63.44h-9.69c-.18,0-.33-.15-.33-.33v-1.66c0-.18-.15-.33-.33-.33h-5.9c-.18,0-.33.15-.33.33v1.66c0,.18-.15.33-.33.33h-9.35c-.18,0-.33.15-.33.33v3.04c0,.18.15.33.33.33h5.54c.37,0,.46.51.12.64-1.7.63-3.61,1.22-5.74,1.79-.14.04-.25.17-.25.32v3.28c0,.18.15.33.33.33h1.06s.07,0,.1-.02c3.04-.97,5.71-2.03,8.04-3.19.22-.11.48.05.48.3v2.58c0,.18.15.33.33.33h5.9c.18,0,.33-.15.33-.33v-2.58c0-.24.26-.41.48-.3,2.33,1.15,4.99,2.21,8.03,3.19.03.01.07.02.1.02h1.41c.18,0,.33-.15.33-.33v-3.19c0-.15-.1-.28-.25-.32-2.27-.6-4.3-1.22-6.09-1.88-.35-.13-.25-.64.12-.64h5.89c.18,0,.33-.15.33-.33v-3.04c0-.18-.15-.33-.33-.33Z"/>
    </g>
  </g>
</svg>