<?xml version="1.0" encoding="UTF-8"?>
<svg id="_圖層_1" data-name="圖層 1" xmlns="http://www.w3.org/2000/svg" viewBox="0 0 119.39 46.49">
  <defs>
    <style>
      .cls-1 {
        fill: #e64d1e;
        stroke: #e64d1e;
        stroke-miterlimit: 10;
        stroke-width: 6px;
      }

      .cls-2 {
        fill: #040000;
        stroke-width: 0px;
      }
    </style>
  </defs>
  <path class="cls-1" d="m84.24,3c-9.85,0-18.65,2.79-24.55,7.18-5.9-4.39-14.7-7.18-24.55-7.18-17.75,0-32.14,9.07-32.14,20.25s14.39,20.25,32.14,20.25c9.85,0,18.65-2.79,24.55-7.18,5.9,4.39,14.7,7.18,24.55,7.18,17.75,0,32.14-9.07,32.14-20.25S101.99,3,84.24,3Z"/>
  <g>
    <g>
      <path class="cls-2" d="m19.1,20.44h.18c.08,0,.14-.06.14-.14v-.25c0-.08.06-.14.14-.14h2.39c.08,0,.14.06.14.14v.22c0,.08.06.14.14.14h1.83c.08,0,.14-.06.14-.14v-.22c0-.08.06-.14.14-.14h1.85c.08,0,.14-.06.14-.14v-1.27c0-.08-.06-.14-.14-.14h-1.85c-.08,0-.14-.06-.14-.14v-.31c0-.08-.06-.14-.14-.14h-1.83c-.08,0-.14.06-.14.14v.31c0,.08-.06.14-.14.14h-2.39c-.08,0-.14-.06-.14-.14v-.31c0-.08-.06-.14-.14-.14h-1.83c-.08,0-.14.06-.14.14v.31c0,.08-.06.14-.14.14h-1.81c-.08,0-.14.06-.14.14v1.27c0,.08.06.14.14.14h1.81c.08,0,.14.06.14.14v.25c0,.08.06.14.14.14h1.65Z"/>
      <path class="cls-2" d="m15.23,20.97v1.09c0,.08.06.14.14.14h.58c.08,0,.14.06.14.14v.72c0,.08-.06.14-.14.14h-.58c-.08,0-.14.06-.14.14v1.29c0,.08.06.14.14.14h.35c.11,0,.17.12.12.22-.17.27-.36.55-.57.82-.02.03-.03.06-.03.09v2.18c0,.13.16.19.24.09.13-.16.25-.32.37-.49.08-.11.25-.06.25.08v.83c0,.08.06.14.14.14h1.79c.08,0,.14-.06.14-.14v-1c0-.15.19-.2.26-.06.04.09.08.17.11.24.04.08.14.11.21.05l.92-.74c.05-.04.07-.12.03-.18-.27-.46-.67-1.08-1.2-1.9-.06-.09,0-.22.11-.22h.46c.1,0,.16.1.12.2-.03.06-.06.13-.08.19-.03.08,0,.16.08.19l1.47.53c.07.02.14,0,.17-.07.48-1.04.84-2.21,1.06-3.48.01-.08-.04-.15-.11-.16l-1.55-.32c-.07-.02-.14.03-.16.11-.12.58-.25,1.14-.41,1.69-.05.16-.27.12-.27-.04v-.26c0-.08-.06-.14-.14-.14h-.95c-.08,0-.14-.06-.14-.14v-.72c0-.08.06-.14.14-.14h1.08c.1,0,.16-.1.13-.2l-.45-1.09c-.02-.05-.07-.09-.13-.09h-3.55c-.08,0-.14.06-.14.14Z"/>
      <path class="cls-2" d="m21.18,28.71c.73-.53,1.36-1.24,1.91-2.11.06-.09.18-.08.23,0,.48.87,1.07,1.56,1.75,2.1.02.02.05.03.08.03h1.02c.08,0,.14-.06.14-.14v-1.24s-.02-.09-.06-.12c-.65-.47-1.11-.99-1.43-1.64-.06-.11.05-.24.17-.2l.75.27c.06.02.13,0,.16-.07.14-.28.27-.56.4-.86,0-.02.01-.04.01-.06v-2.69c0-.07-.05-.13-.11-.14l-.87-.18c-.07-.01-.14.03-.16.11-.15.69-.34,1.35-.57,1.98-.05.14-.25.12-.26-.03-.03-.29-.04-.62-.04-.99v-1.77c0-.08-.06-.14-.14-.14h-1.89c-.08,0-.14.06-.14.14v1.77c0,1.3-.26,2.35-.78,3.15s-1.25,1.38-2.31,1.88c-.08.04-.11.14-.05.21l.5.68s.07.06.11.06h1.5s.06,0,.08-.03Z"/>
    </g>
    <g>
      <path class="cls-2" d="m104.04,18.89h-4.8c-.11,0-.17-.14-.09-.22h0c.08-.08.02-.22-.09-.22h-2.47s-.05,0-.07.02c-.67.49-1.45.94-2.34,1.34-.04.02-.07.07-.07.12v1.52c0,.09.08.15.16.12.36-.14.71-.27,1.02-.42.04-.02.07-.02.11,0,.32.18.68.36,1.06.54.11.05.09.22-.03.24-.66.12-1.4.23-2.22.34-.06,0-.11.06-.11.13v1.23c0,.08.07.14.14.13,1.93-.27,3.58-.62,4.92-1.02.02,0,.05,0,.07,0,1.38.41,2.98.76,4.78,1.02.07.01.14-.05.14-.13v-1.29c0-.06-.05-.12-.11-.13-.75-.12-1.41-.23-2-.34-.12-.02-.14-.19-.03-.24.73-.37,1.43-.8,2.09-1.27.03-.02.05-.06.05-.11v-1.25c0-.07-.06-.13-.12-.13Zm-4.77,2.33c-.66-.21-1.26-.45-1.8-.71-.12-.06-.08-.24.05-.24h3.37c.13,0,.17.18.06.24-.49.27-1.02.51-1.6.71-.03,0-.05,0-.08,0Z"/>
      <path class="cls-2" d="m104.04,24.15h-3.62c-.07,0-.12-.06-.12-.13v-.64c0-.07-.06-.13-.12-.13h-2.2c-.07,0-.12.06-.12.13v.64c0,.07-.06.13-.12.13h-3.49c-.07,0-.12.06-.12.13v1.18c0,.07.06.13.12.13h2.07c.14,0,.17.2.04.25-.63.24-1.35.47-2.14.69-.05.01-.09.07-.09.12v1.27c0,.07.06.13.12.13h.4s.03,0,.04,0c1.14-.38,2.13-.79,3-1.23.08-.04.18.02.18.11v1c0,.07.06.13.12.13h2.2c.07,0,.12-.06.12-.13v-1c0-.09.1-.16.18-.11.87.45,1.86.86,3,1.23.01,0,.03,0,.04,0h.53c.07,0,.12-.06.12-.13v-1.23c0-.06-.04-.11-.09-.12-.85-.23-1.6-.47-2.27-.73-.13-.05-.09-.25.04-.25h2.2c.07,0,.12-.06.12-.13v-1.18c0-.07-.06-.13-.12-.13Z"/>
    </g>
    <g>
      <path class="cls-2" d="m39.95,18.42h-3.45c-.13,0-.25.07-.31.19l-2.93,5.8c-.39.77-.59,1.63-.59,2.5v1.01c0,.2.16.36.35.36h2.76c.19,0,.35-.16.35-.36v-1.13c0-.2.16-.36.35-.36h3.48c.19,0,.35.16.35.36v1.13c0,.2.16.36.35.36h2.83c.19,0,.35-.16.35-.36v-.99c0-.88-.21-1.75-.61-2.53l-2.97-5.78c-.06-.12-.18-.19-.31-.19Zm-2.87,5.05l1.15-2.55,1.14,2.55h-2.29Z"/>
      <path class="cls-2" d="m52.25,18.41c-.09,0-.17.03-.24.1l-2.96,2.85h-.06v-2.59c0-.2-.16-.36-.35-.36h-2.56c-.19,0-.35.16-.35.36v9.13c0,.2.16.36.35.36h2.56c.19,0,.35-.16.35-.36v-3.8h.06s2.95,4.02,2.95,4.02c.07.09.17.14.28.14h3.37c.29,0,.45-.35.27-.59l-3.67-4.69c-.11-.15-.1-.36.03-.49l3.48-3.47c.23-.22.07-.62-.24-.62h-3.27Z"/>
      <path class="cls-2" d="m58.2,28.26h2.56c.19,0,.35-.16.35-.36v-9.13c0-.2-.16-.36-.35-.36h-2.56c-.19,0-.35.16-.35.36v9.13c0,.2.16.36.35.36Z"/>
      <path class="cls-2" d="m81.38,18.09c-3.22,0-5.85,1.07-5.84,4.8v.72c-.01,3.71,2.62,4.79,5.84,4.8,3.21,0,5.85-1.08,5.84-4.8v-.72c0-3.71-2.62-4.8-5.84-4.8Zm2.59,5.28c.02,1.67-1.18,1.97-2.59,1.99-1.42-.02-2.62-.33-2.6-1.99v-.25c-.02-1.66,1.18-1.96,2.6-1.99,1.41.02,2.61.33,2.59,1.99v.25Z"/>
      <path class="cls-2" d="m67.81,21.79h2.6c.19,0,.35.16.35.36v1.83c.02,1.42-1.11,1.67-2.44,1.68-1.33-.02-2.46-.26-2.44-1.68v-.48c0-.2-.16-.36-.35-.36h-2.56c-.19,0-.35.16-.35.36v.69c-.01,3.27,2.56,4.2,5.69,4.21,3.15,0,5.7-.95,5.7-4.21v-5.42c0-.2-.16-.36-.35-.36h-5.85c-.19,0-.35.16-.35.36v2.66c0,.2.16.36.35.36Z"/>
    </g>
  </g>
</svg>