<?xml version="1.0" encoding="UTF-8"?>
<svg id="_內容" data-name="內容" xmlns="http://www.w3.org/2000/svg" viewBox="0 0 113.39 55.04">
  <defs>
    <style>
      .cls-1, .cls-2 {
        stroke-width: 0px;
      }

      .cls-2 {
        fill: #baa58c;
      }
    </style>
  </defs>
  <path class="cls-2" d="m109.72,3.67h0c-5.7-5.7-16.51-4.5-27.48,2.62-.53-.97-1.19-1.85-1.97-2.62-5.7-5.71-16.19-4.65-27.12,2.38-.51-.88-1.12-1.67-1.83-2.38-3.94-3.94-10.24-4.73-17.73-2.21-6.51,2.19-13.41,6.71-19.43,12.73-6.02,6.02-10.54,12.92-12.72,19.43-2.52,7.49-1.73,13.78,2.21,17.72,3.96,3.96,10.46,4.78,17.97,2.17,2.99-1.03,6.09-2.58,9.16-4.55.51.87,1.12,1.67,1.82,2.37,2.42,2.42,5.79,3.7,9.76,3.7,2.53,0,5.29-.51,8.21-1.52,3.12-1.08,6.34-2.7,9.52-4.78.53.96,1.19,1.83,1.96,2.61,2.39,2.39,5.75,3.65,9.71,3.65,8.19,0,18.7-5.43,27.44-14.17,13.59-13.59,18.11-29.56,10.52-37.15Z"/>
  <g>
    <path class="cls-1" d="m59.91,21.61l-10.96,10.96c-.4.4-.4,1.05,0,1.45.19.19.45.3.73.3s.53-.11.73-.3l10.96-10.96c.4-.4.4-1.05,0-1.45-.39-.39-1.07-.39-1.45,0Z"/>
    <path class="cls-1" d="m30.96,21.61l-10.96,10.96c-.4.4-.4,1.05,0,1.45.19.19.45.3.73.3s.53-.11.73-.3l10.96-10.96c.4-.4.4-1.05,0-1.45-.39-.39-1.07-.39-1.45,0Z"/>
    <path class="cls-1" d="m107.06,6.33c-4.99-4.99-16.24-2.39-26.93,6.14-.16-2.56-1-4.62-2.52-6.14-4.96-4.96-15.78-2.58-26.47,5.77-.22-2.4-1.05-4.34-2.48-5.77-2.88-2.88-7.8-3.34-13.86-1.3-5.97,2.01-12.35,6.2-17.96,11.82-5.61,5.61-9.81,11.99-11.82,17.96-2.04,6.06-1.57,10.98,1.3,13.85,1.72,1.72,4.11,2.59,7.09,2.59,2.1,0,4.45-.44,6.97-1.32,4.02-1.39,8.29-3.82,12.4-7.04.22,2.4,1.05,4.33,2.48,5.76,1.72,1.72,4.11,2.59,7.09,2.59,2.1,0,4.45-.44,6.97-1.32,4.18-1.45,8.62-4,12.86-7.4.16,2.56,1.01,4.61,2.52,6.12,1.69,1.69,4.06,2.55,7.04,2.55,7.23,0,16.72-5,24.77-13.06,11.67-11.67,16.39-25.95,10.52-31.82ZM19.73,47.99c-5.34,1.85-9.58,1.57-11.94-.79-2.36-2.36-2.64-6.6-.79-11.94,1.94-5.59,5.95-11.62,11.3-16.97,7.61-7.61,16.73-12.53,23.23-12.53,2.43,0,4.34.68,5.68,2.02,1.38,1.38,2.05,3.36,2.01,5.9-1.18,1.01-2.34,2.08-3.42,3.16-7.44,7.45-12.41,16.4-13,23.41-4.32,3.6-8.83,6.27-13.07,7.74h0Zm29.13-31.24c-1.28,6.16-5.75,13.53-12.16,19.94-.5.5-1.03,1.01-1.57,1.51.2-.95.48-1.93.82-2.94,1.94-5.59,5.95-11.62,11.3-16.97.5-.5,1.03-1.01,1.61-1.54Zm-.18,31.24c-5.34,1.85-9.58,1.57-11.94-.79-1.37-1.37-2.04-3.36-1.99-5.91,1.18-1.01,2.33-2.07,3.4-3.15,7.44-7.44,12.41-16.39,12.99-23.4,6.74-5.62,13.96-8.98,19.33-8.98,2.43,0,4.34.68,5.68,2.02,1.44,1.44,2.13,3.63,2,6.33-1.01.89-1.99,1.8-2.92,2.73-7.37,7.37-12.2,15.94-12.96,22.96-4.48,3.83-9.18,6.65-13.6,8.19h0Zm29.01-30.66c-1.44,6.04-5.86,13.18-12.04,19.36-.33.33-.66.65-.99.97,1.43-6.04,5.86-13.19,12.04-19.37.33-.33.66-.65.99-.96Zm28.66,2.6c-1.97,5.52-5.97,11.47-11.26,16.76-10.87,10.87-23.84,15.58-28.91,10.51-1.46-1.46-2.13-3.59-2-6.33,1.01-.88,1.99-1.8,2.92-2.73,7.36-7.36,12.2-15.93,12.96-22.96,6.9-5.9,14.32-9.42,19.86-9.42,2.43,0,4.35.68,5.69,2.02,2.42,2.42,2.68,6.73.74,12.15Z"/>
    <path class="cls-1" d="m89.35,21.61l-10.96,10.96c-.4.4-.4,1.05,0,1.45.19.19.45.3.73.3s.53-.11.73-.3l10.96-10.96c.4-.4.4-1.05,0-1.45-.39-.39-1.07-.39-1.45,0Z"/>
  </g>
</svg>