<?xml version="1.0" encoding="UTF-8"?>
<svg id="_圖層_1" data-name="圖層 1" xmlns="http://www.w3.org/2000/svg" viewBox="0 0 76.87 76.87">
  <defs>
    <style>
      .cls-1 {
        fill: #d9a5a7;
        stroke: #d9a5a7;
        stroke-miterlimit: 10;
        stroke-width: 6px;
      }

      .cls-2 {
        fill: #040000;
        stroke-width: 0px;
      }
    </style>
  </defs>
  <circle class="cls-1" cx="38.43" cy="38.43" r="35.43"/>
  <path class="cls-2" d="m41.18,30.71h-5.6c-.21,0-.4.12-.5.3l-4.75,9.09c-.63,1.21-.96,2.55-.96,3.91v1.58c0,.31.25.56.56.56h4.49c.31,0,.56-.25.56-.56v-1.77c0-.31.25-.56.56-.56h5.66c.31,0,.56.25.56.56v1.77c0,.31.25.56.56.56h4.6c.31,0,.56-.25.56-.56v-1.55c0-1.38-.34-2.75-.99-3.97l-4.83-9.07c-.1-.18-.29-.3-.5-.3Zm-4.66,7.92l1.87-4,1.86,4h-3.72Z"/>
  <g>
    <path class="cls-2" d="m69.73,42.15l-.98,4.9-1.29-.26.33-1.64-3.93-.78.32-1.61,3.93.78.33-1.64,1.29.26Z"/>
    <path class="cls-2" d="m65.37,46.44c.55.21.93.57,1.14,1.08s.2,1.08-.04,1.71c-.28.72-.7,1.18-1.26,1.39-.45.17-.92.15-1.41-.04-.55-.21-.94-.57-1.15-1.07-.21-.5-.19-1.08.06-1.73.22-.58.55-.99.98-1.23.53-.3,1.09-.33,1.68-.11Zm-.53,1.38c-.32-.12-.58-.15-.79-.08-.2.07-.34.2-.42.4-.08.2-.06.39.04.58.1.19.32.34.65.47.31.12.57.15.77.08s.34-.2.41-.39c.08-.2.06-.4-.04-.59-.1-.19-.31-.35-.63-.47Z"/>
    <path class="cls-2" d="m64.17,56.55l-4.54-2.78.72-1.18.49.3c-.11-.29-.15-.53-.14-.71.02-.24.09-.47.23-.69.27-.45.65-.69,1.14-.71.48-.03.97.11,1.46.41.54.33.88.72,1.01,1.16.13.44.07.86-.18,1.26-.12.2-.26.35-.43.47-.16.12-.35.2-.56.24l1.57.96-.78,1.27Zm-2.11-3.03c.26.16.48.22.68.19s.34-.13.44-.3c.09-.15.1-.31.04-.48-.06-.17-.23-.35-.52-.52-.27-.16-.5-.23-.68-.21-.19.03-.33.11-.42.26-.1.16-.12.33-.06.52s.23.36.52.54Z"/>
    <path class="cls-2" d="m60.27,57.06l1.05-.95c.15.2.24.39.28.56s.03.36-.02.57c-.03.15-.12.33-.24.53-.13.2-.28.41-.47.61-.3.33-.55.58-.77.75-.22.17-.44.26-.68.29-.16.02-.35,0-.54-.09s-.36-.18-.5-.3l-1.27-1.14c-.14-.12-.25-.21-.34-.26-.09-.05-.22-.1-.39-.15l.92-1.03c.11.02.19.05.24.07.05.02.12.06.22.13,0-.27.02-.5.09-.7.1-.27.26-.53.49-.79.31-.34.62-.53.94-.57.32-.04.59.05.82.26.22.2.34.42.37.67.03.25-.08.58-.32.99-.29.49-.47.81-.54.96s-.15.32-.22.51c.14.12.25.18.36.17s.22-.08.34-.22c.16-.18.25-.34.28-.48.02-.11-.02-.24-.1-.4Zm-1.43.44c.08-.2.17-.4.28-.6.14-.28.21-.47.2-.58,0-.12-.04-.21-.12-.27-.09-.08-.18-.11-.29-.1s-.22.08-.32.19c-.11.12-.18.26-.22.42-.04.16-.03.3.02.42.05.12.14.24.27.36l.18.16Z"/>
    <path class="cls-2" d="m58.74,60.55l-1.22.97-2.21-1.52,1.01,2.47-1.14.9-1.35-4.18c-.15-.48-.21-.84-.17-1.08.06-.34.29-.67.7-1,.17-.13.44-.31.83-.54l.73.74c-.21.08-.42.2-.62.36-.14.11-.22.23-.26.36-.04.13-.02.3.05.51l3.66,2.02Z"/>
    <path class="cls-2" d="m55.47,64.94l-1.35.82-.63-1.04c-.23-.38-.34-.73-.31-1.05.02-.32.18-.68.46-1.08l.63.37c-.17.26-.27.47-.29.63-.02.16,0,.33.09.48l.64-.39.76,1.25Z"/>
    <path class="cls-2" d="m51.73,62.21l-1.27.74c-.13-.13-.26-.21-.39-.23-.13-.02-.28,0-.44.08-.18.08-.3.19-.37.31-.05.09-.06.18-.02.27.04.1.13.15.25.15.09,0,.3-.04.64-.13.5-.13.86-.21,1.07-.22s.42.03.62.14c.2.11.35.27.45.48.11.23.13.46.08.69-.06.23-.18.44-.38.63-.2.19-.49.38-.89.56-.42.19-.74.3-.97.33-.23.03-.44,0-.63-.07-.19-.07-.39-.2-.58-.39l1.21-.71c.08.1.18.15.28.17.14.02.28,0,.43-.07.15-.07.25-.15.29-.23.04-.09.05-.17.01-.24-.04-.09-.11-.13-.22-.13-.11,0-.32.05-.63.15-.47.16-.83.24-1.09.25-.26.01-.48-.04-.68-.15-.19-.11-.33-.27-.43-.47-.09-.2-.12-.43-.09-.67.03-.25.16-.49.37-.72.21-.23.54-.46.99-.67.64-.3,1.14-.42,1.49-.36.36.06.65.23.88.54Z"/>
    <path class="cls-2" d="m42.83,68.06l-1.36.23-.61-3.59-.03-.17c-.04-.24-.03-.47.04-.71.06-.23.17-.43.32-.59.15-.16.34-.29.59-.4.25-.1.54-.18.87-.24.76-.13,1.31-.1,1.63.08.32.18.52.46.58.85,0,.05.02.11.03.19l-1.44.08c-.06-.12-.13-.21-.21-.24-.12-.06-.26-.07-.42-.04-.21.04-.36.12-.44.25-.08.13-.1.33-.06.61l.1.58c.11-.19.24-.34.37-.44.2-.16.44-.26.7-.3.51-.09.96.07,1.34.46.28.28.46.67.54,1.19.1.59.03,1.07-.2,1.43s-.58.58-1.04.66c-.3.05-.55.04-.76-.03-.21-.07-.42-.2-.62-.41l.1.56Zm1.06-2.08c-.05-.27-.14-.47-.28-.58-.14-.11-.3-.15-.5-.12-.18.03-.32.13-.42.28-.1.16-.13.38-.08.65.05.28.15.48.3.6.15.12.32.17.51.14s.32-.12.41-.28.11-.39.05-.7Z"/>
    <path class="cls-2" d="m40.32,66.47c0,.59-.22,1.07-.62,1.44s-.94.56-1.62.54c-.77-.01-1.35-.25-1.74-.7-.31-.37-.46-.81-.45-1.34,0-.59.21-1.08.61-1.45.4-.37.95-.55,1.64-.54.62,0,1.12.18,1.49.5.46.4.69.91.68,1.54Zm-1.48-.02c0-.34-.06-.6-.2-.77s-.31-.25-.52-.26c-.21,0-.39.08-.53.23-.14.16-.21.42-.22.78,0,.33.06.58.19.75s.3.25.51.25c.22,0,.39-.08.54-.24s.22-.41.22-.75Z"/>
    <path class="cls-2" d="m35.24,66.35c-.11.58-.4,1.01-.86,1.31-.46.3-1.02.38-1.69.25-.76-.15-1.29-.48-1.59-.99-.24-.41-.31-.88-.21-1.4.11-.58.4-1.02.86-1.32.46-.3,1.03-.38,1.71-.25.61.12,1.07.37,1.39.75.39.47.52,1.02.4,1.64Zm-1.45-.28c.07-.34.05-.6-.06-.79-.11-.19-.26-.3-.47-.34-.21-.04-.4,0-.56.14-.17.13-.28.38-.35.73-.06.33-.04.58.06.77.1.19.26.3.46.34.21.04.4,0,.57-.14.17-.14.29-.37.35-.7Z"/>
    <path class="cls-2" d="m25.07,66.94l1.94-4.95,1.29.5-.21.53c.27-.15.49-.24.67-.26.24-.03.48,0,.72.1.49.19.79.52.9,1,.11.47.06.98-.14,1.51-.23.59-.55.99-.96,1.2-.41.2-.83.22-1.27.05-.21-.08-.39-.2-.54-.34-.15-.14-.26-.31-.34-.51l-.67,1.72-1.39-.54Zm2.61-2.61c-.11.28-.13.51-.07.7.06.19.19.31.37.39.16.06.32.05.48-.04.16-.09.3-.29.43-.61.11-.29.14-.53.09-.71-.06-.18-.17-.3-.33-.37-.18-.07-.35-.06-.52.03-.17.09-.32.29-.44.6Z"/>
    <path class="cls-2" d="m21.88,63.6l-1.06-.88.36-.43c-.3.05-.56.06-.78,0-.22-.05-.44-.17-.66-.35-.24-.2-.39-.39-.46-.59-.07-.2-.08-.42-.03-.66-.34.05-.61.04-.82,0-.21-.05-.42-.17-.63-.35-.32-.26-.49-.56-.51-.9-.02-.34.13-.71.47-1.11l1.54-1.87,1.14.94-1.4,1.69c-.11.13-.17.26-.17.36,0,.17.04.3.16.39.13.11.28.15.44.12.16-.03.33-.15.51-.37l1.27-1.53,1.14.94-1.35,1.64c-.11.13-.17.23-.2.28-.04.09-.04.19-.02.28.02.09.07.18.15.24.13.11.28.15.45.12.17-.03.34-.16.53-.38l1.25-1.52,1.14.94-2.46,2.97Z"/>
    <path class="cls-2" d="m17.56,57.23c-.47.36-.97.5-1.52.41s-1.02-.39-1.43-.93c-.47-.61-.65-1.21-.53-1.8.09-.47.35-.87.77-1.19.47-.36.98-.5,1.51-.42s1.02.4,1.44.95c.38.49.56.98.54,1.48-.02.61-.29,1.11-.79,1.49Zm-.9-1.17c.27-.21.43-.42.48-.63.05-.21,0-.4-.12-.57-.13-.17-.3-.26-.51-.27s-.46.09-.74.31c-.26.2-.42.41-.47.62-.05.21,0,.39.12.56.13.17.31.26.52.27.22.01.46-.09.73-.29Z"/>
    <path class="cls-2" d="m14.51,53.17c-.52.27-1.04.31-1.56.13-.52-.18-.93-.57-1.24-1.17-.35-.69-.42-1.31-.2-1.86.18-.45.5-.79.97-1.03.53-.27,1.05-.32,1.57-.14s.93.57,1.25,1.19c.28.55.37,1.07.27,1.55-.13.6-.48,1.04-1.04,1.33Zm-.68-1.32c.31-.16.5-.33.58-.53.08-.2.08-.39-.02-.58-.1-.19-.25-.31-.46-.36s-.47.01-.79.17c-.3.15-.49.33-.57.52-.08.2-.08.39.02.57.1.19.25.31.46.36.21.05.47,0,.77-.16Z"/>
    <path class="cls-2" d="m7.76,45.53l5.1-1.53.4,1.32-.55.16c.29.12.49.24.62.37.17.17.29.38.36.63.15.5.07.94-.23,1.32-.3.38-.73.65-1.27.82-.61.18-1.12.18-1.54-.02s-.69-.52-.82-.97c-.07-.22-.09-.43-.07-.63.02-.2.08-.39.19-.58l-1.77.53-.43-1.43Zm3.66.45c-.29.09-.49.21-.59.38s-.13.34-.07.53c.05.16.16.28.33.35s.42.06.74-.04c.3-.09.5-.21.61-.37.11-.16.13-.32.08-.49-.05-.18-.17-.31-.35-.39-.18-.08-.43-.07-.75.03Z"/>
    <path class="cls-2" d="m7.14,41.23l-.1-1.47,1-.07.1,1.47-1,.07Zm1.46-.09l-.1-1.47,3.85-.25.1,1.47-3.85.25Z"/>
    <path class="cls-2" d="m11.2,38.84l-.05-1.47c.18-.05.31-.13.39-.23.08-.1.13-.25.14-.43.01-.2-.02-.35-.1-.47-.06-.09-.13-.14-.23-.14-.11,0-.19.04-.26.15-.05.08-.11.29-.19.62-.12.51-.22.86-.31,1.05-.09.19-.23.35-.42.48-.19.12-.4.18-.63.17-.25-.02-.47-.1-.64-.26-.17-.16-.3-.37-.37-.63-.07-.26-.1-.61-.07-1.05.03-.46.08-.8.17-1.01.08-.21.2-.39.36-.53.16-.14.36-.25.62-.33l.05,1.41c-.13.03-.22.08-.28.16-.08.11-.13.25-.14.41-.01.17.01.29.07.37.05.08.12.12.21.13.09,0,.17-.04.22-.13.05-.09.11-.3.17-.62.09-.49.18-.85.3-1.08.11-.23.27-.41.46-.52.19-.12.4-.17.62-.15.22.01.43.09.64.24.2.15.36.37.46.66.11.3.14.69.11,1.19-.04.7-.17,1.2-.39,1.48-.22.29-.52.46-.89.52Z"/>
    <path class="cls-2" d="m11.98,31.9l.33-1.43c.18,0,.33-.04.43-.12.11-.08.19-.21.24-.38.06-.19.07-.35.02-.48-.03-.1-.09-.16-.18-.19-.1-.03-.2,0-.29.08-.06.06-.18.25-.34.56-.25.46-.44.77-.57.94-.13.17-.31.29-.52.36s-.43.07-.65,0c-.24-.08-.43-.22-.55-.42-.13-.2-.19-.43-.2-.71s.06-.62.2-1.03c.14-.44.28-.75.42-.93.14-.19.3-.32.48-.42.19-.09.41-.15.68-.16l-.31,1.37c-.13,0-.23.03-.32.09-.11.09-.19.21-.24.36-.05.16-.06.28-.03.37.03.09.09.15.17.18.09.03.17,0,.25-.07.08-.08.18-.26.32-.56.21-.45.39-.77.56-.97.17-.2.36-.33.58-.39s.43-.06.63,0c.21.07.4.2.55.39.16.19.25.45.28.76s-.04.71-.19,1.18c-.22.67-.47,1.11-.76,1.33-.28.22-.62.31-.99.28Z"/>
    <path class="cls-2" d="m15.76,28.6l-4.69-2.51.65-1.22.5.27c-.12-.28-.18-.51-.18-.69,0-.24.06-.48.19-.71.24-.45.61-.71,1.09-.77.48-.06.98.04,1.49.32.56.3.92.67,1.08,1.1.15.43.12.85-.1,1.27-.11.2-.24.36-.4.49-.16.13-.34.22-.54.28l1.62.87-.7,1.31Zm-2.28-2.9c.27.14.5.19.69.15.19-.04.33-.15.43-.32.08-.15.09-.31.02-.48-.07-.17-.25-.33-.55-.49-.27-.15-.51-.2-.69-.16-.19.04-.32.13-.4.29-.09.17-.1.34-.03.52.07.18.25.35.54.51Z"/>
    <path class="cls-2" d="m15.15,22.71c-.46-.37-.71-.82-.76-1.37-.05-.55.14-1.09.56-1.61.48-.6,1.02-.92,1.62-.95.48-.02.93.13,1.34.46.46.37.72.83.77,1.37.05.54-.14,1.09-.57,1.63-.39.48-.82.78-1.31.88-.6.12-1.14-.01-1.64-.4Zm.92-1.16c.27.21.51.32.73.31.22,0,.39-.09.52-.26.13-.17.18-.35.14-.56-.04-.21-.2-.42-.48-.65-.26-.21-.5-.31-.71-.3-.21,0-.38.09-.51.25-.13.17-.18.36-.14.57s.2.43.46.64Z"/>
    <path class="cls-2" d="m17.22,17.2l1.04-.9.41.47c-.01-.33.02-.6.11-.82.09-.22.24-.43.47-.63.31-.27.63-.39.96-.36.33.03.67.24,1,.62l1.61,1.85-1.12.98-1.39-1.6c-.16-.18-.31-.28-.44-.3-.13-.02-.26.03-.38.13-.14.12-.2.26-.19.44s.12.39.35.66l1.22,1.39-1.11.97-2.53-2.9Z"/>
    <path class="cls-2" d="m22.6,16.26l1.18-.88c.14.12.28.18.41.19.13,0,.28-.04.43-.13.17-.1.28-.22.33-.35.04-.1.04-.19-.01-.27-.06-.09-.15-.13-.27-.12-.09,0-.3.07-.62.2-.48.19-.83.3-1.04.34-.21.04-.42.02-.63-.07s-.38-.23-.5-.42c-.13-.22-.18-.44-.15-.68.03-.23.13-.46.31-.67.17-.21.45-.43.82-.66.39-.24.7-.38.93-.44s.44-.06.64,0,.41.16.62.32l-1.13.84c-.1-.09-.19-.13-.3-.14-.14,0-.28.03-.42.12-.14.09-.23.17-.27.27-.03.09-.03.17.01.24.05.08.13.12.23.11.11,0,.31-.08.61-.22.45-.21.8-.33,1.06-.37.26-.04.49-.01.69.08.2.09.36.23.48.42.12.19.17.41.16.66,0,.25-.1.5-.28.76-.18.26-.49.51-.91.77-.6.36-1.08.54-1.44.52-.36-.02-.67-.16-.94-.43Z"/>
    <path class="cls-2" d="m26.24,13.12c-.21-.55-.2-1.07.03-1.57.23-.5.66-.87,1.29-1.12.72-.28,1.34-.28,1.87,0,.43.22.73.58.93,1.07.21.55.21,1.08-.02,1.57-.23.5-.67.87-1.32,1.12-.58.22-1.1.26-1.57.1-.58-.19-.98-.58-1.21-1.17Zm1.38-.54c.12.32.28.53.47.63.19.1.38.12.58.04.2-.08.33-.22.4-.42s.04-.47-.09-.8c-.12-.31-.27-.52-.46-.62-.19-.1-.38-.12-.57-.04-.2.08-.34.22-.41.42-.07.21-.04.47.08.78Z"/>
    <path class="cls-2" d="m30.76,9.46l1.35-.3.14.62c.07-.3.16-.51.28-.64.12-.13.28-.22.48-.26.21-.05.46-.03.74.04l-.22,1.13c-.19-.03-.33-.04-.43-.02-.19.04-.32.15-.39.33-.1.25-.08.68.05,1.28l.28,1.26-1.45.32-.83-3.76Z"/>
    <path class="cls-2" d="m38.9,10.7l-2.96.19c.04.23.12.41.23.52.15.16.34.23.57.21.14,0,.28-.05.41-.13.08-.05.16-.14.24-.26l1.46.04c-.2.4-.45.69-.75.88-.3.19-.75.3-1.34.34-.51.03-.91-.01-1.22-.14-.3-.12-.56-.34-.77-.64-.21-.3-.33-.66-.36-1.08-.04-.6.12-1.1.49-1.5.36-.4.88-.62,1.56-.66.55-.04.99.02,1.32.17.33.15.59.37.77.68.19.31.3.71.33,1.22v.17Zm-1.54-.61c-.05-.28-.14-.48-.27-.6s-.3-.17-.5-.15c-.23.01-.42.12-.54.31-.08.12-.13.3-.14.53l1.45-.09Z"/>
    <path class="cls-2" d="m44.09,7.47l-.61,5.28-1.37-.16.07-.57c-.22.22-.41.36-.58.43-.22.09-.47.11-.73.08-.52-.06-.9-.31-1.13-.73-.23-.43-.31-.93-.25-1.49.07-.63.28-1.1.62-1.4s.75-.43,1.22-.37c.23.03.43.09.61.19.18.1.33.23.46.4l.21-1.83,1.48.17Zm-1.86,3.19c.03-.3,0-.53-.11-.69-.11-.16-.26-.25-.46-.28-.17-.02-.32.04-.45.16-.13.13-.22.36-.26.69-.04.31,0,.55.1.71s.24.25.42.27c.19.02.35-.03.49-.17.14-.13.23-.36.27-.7Z"/>
    <path class="cls-2" d="m48.45,8.59l1.38.57-.7,1.71c.2-.09.39-.13.6-.13.2,0,.41.04.62.13.43.18.73.48.89.91.16.43.12.94-.12,1.52-.16.39-.37.71-.62.95-.25.24-.52.39-.81.44-.29.05-.57.02-.85-.09-.24-.1-.44-.24-.6-.42-.12-.14-.22-.36-.3-.65l-.22.53-1.28-.52,2.02-4.92Zm.09,3.69c-.13.31-.16.55-.1.74.06.18.18.31.35.39.16.07.33.06.49-.04.17-.09.31-.29.45-.62.12-.28.15-.51.09-.69-.05-.18-.16-.3-.31-.36-.19-.08-.37-.07-.54.02s-.32.27-.43.55Z"/>
    <path class="cls-2" d="m52.48,11.89l1.32.83-.7,2.59,1.99-1.78,1.23.78-3.49,2.67c-.4.3-.72.48-.96.52-.34.06-.73-.05-1.18-.33-.18-.11-.44-.31-.79-.6l.45-.93c.14.17.33.33.55.47.15.09.29.13.42.12.13-.01.29-.08.46-.22l.69-4.12Z"/>
    <path class="cls-2" d="m59.15,21.14l-1.24-1.39-.83.39-1.12-1.25,5.3-2.06,1.2,1.34-2.63,5.04-1.15-1.28.48-.78Zm.63-1.02l1.03-1.71-1.81.84.78.87Z"/>
    <path class="cls-2" d="m64.43,20.68l.77,1.3-2.36,1.4,1.66.3.93,1.56-1.87-.5-1.41,2.54-.85-1.43.93-1.46-.75-.2-.86.51-.77-1.3,4.58-2.71Z"/>
    <path class="cls-2" d="m65.75,26.14l.57,1.36-3.55,1.5-.57-1.36,3.55-1.5Zm1.35-.57l.57,1.36-.93.39-.57-1.36.93-.39Z"/>
    <path class="cls-2" d="m66.75,28.66l.45,1.41-3.56,1.13c-.45.14-.79.21-1,.21-.21,0-.4-.08-.58-.22s-.31-.38-.42-.7c-.09-.27-.15-.62-.2-1.05l1.09-.12c.01.12.03.21.04.26.04.12.11.2.21.23.1.04.27.02.52-.06l3.44-1.09Zm1.4-.44l.45,1.41-.97.31-.45-1.41.97-.31Z"/>
    <path class="cls-2" d="m65.65,31.45c.58-.1,1.09.01,1.53.34.44.33.72.82.84,1.49.13.76.01,1.37-.36,1.84-.3.37-.71.61-1.23.7-.58.1-1.1,0-1.54-.33s-.72-.83-.84-1.51c-.11-.61-.04-1.13.21-1.56.3-.53.77-.85,1.39-.95Zm.26,1.46c-.34.06-.58.17-.72.34-.14.17-.19.35-.15.56.04.21.15.37.33.48.18.11.45.13.8.07.33-.06.56-.17.7-.33.14-.16.19-.35.15-.55-.04-.21-.15-.37-.34-.48s-.45-.14-.78-.08Zm3.2-1l.4,2.31-.78.13-.4-2.31.78-.13Z"/>
  </g>
</svg>