<?xml version="1.0" encoding="UTF-8"?>
<svg id="_圖層_1" data-name="圖層 1" xmlns="http://www.w3.org/2000/svg" viewBox="0 0 89.87 82.24">
  <defs>
    <style>
      .cls-1 {
        fill: #8266aa;
        stroke: #8266aa;
        stroke-miterlimit: 10;
        stroke-width: 5px;
      }

      .cls-2 {
        fill: #040000;
        font-family: Arial-Black, 'Arial Black';
        font-size: 10.74px;
        font-weight: 800;
      }

      .cls-3 {
        letter-spacing: 0em;
      }
    </style>
  </defs>
  <path class="cls-1" d="m86.43,37.69c-1.81-3.98-5.91-6.26-10.08-6.95-5.63-.93-11.42.4-16.76,2.49,4.16-2.95,7.92-6.5,10.38-10.9,2.19-3.91,3.17-8.7,1.21-12.9-1.55-3.33-4.8-5.59-8.44-5.95-4.37-.43-8.4,1.98-11.09,5.26-3.62,4.41-5.36,10.09-6.22,15.75-.48-5.08-1.67-10.12-4.26-14.46-2.29-3.84-5.94-7.07-10.54-7.48-3.66-.33-7.26,1.35-9.39,4.33-2.56,3.57-2.49,8.28-.99,12.26,2.01,5.33,6.06,9.67,10.52,13.24-4.64-2.13-9.59-3.61-14.64-3.54-4.46.06-9.09,1.6-11.75,5.38-2.13,3.02-2.46,6.99-.94,10.34,1.81,3.98,5.91,6.26,10.08,6.95,5.63.93,11.42-.4,16.76-2.49-4.16,2.95-7.92,6.5-10.38,10.9-2.19,3.91-3.17,8.7-1.21,12.9,1.55,3.33,4.8,5.59,8.44,5.95,4.37.43,8.4-1.98,11.09-5.26,3.62-4.41,5.36-10.09,6.22-15.75.48,5.08,1.67,10.12,4.26,14.46,2.29,3.84,5.94,7.07,10.54,7.48,3.66.33,7.26-1.35,9.39-4.33,2.56-3.57,2.49-8.28.99-12.26-2.01-5.33-6.06-9.67-10.52-13.24,4.64,2.13,9.59,3.61,14.64,3.54,4.46-.06,9.09-1.6,11.75-5.38,2.13-3.02,2.46-6.99.94-10.34Z"/>
  <text class="cls-2" transform="translate(48.36 14.18) rotate(.26)"><tspan x="0" y="0">mt</tspan><tspan class="cls-3" x="15.51" y="0">f</tspan><tspan x="19.8" y="0">k</tspan></text>
  <text class="cls-2" transform="translate(13.91 77.96) rotate(.26)"><tspan x="0" y="0">mt</tspan><tspan class="cls-3" x="15.51" y="0">f</tspan><tspan x="19.8" y="0">k</tspan></text>
  <text class="cls-2" transform="translate(32.04 44.15) rotate(.26)"><tspan x="0" y="0">mt</tspan><tspan class="cls-3" x="15.51" y="0">f</tspan><tspan x="19.8" y="0">k</tspan></text>
</svg>