<?xml version="1.0" encoding="UTF-8"?>
<svg id="_內容" data-name="內容" xmlns="http://www.w3.org/2000/svg" viewBox="0 0 105.3 141.73">
  <defs>
    <style>
      .cls-1, .cls-2 {
        stroke-width: 0px;
      }

      .cls-2 {
        fill: #f74f06;
      }
    </style>
  </defs>
  <path class="cls-2" d="m98.61,87.58c-.63-.9-1.23-1.76-1.73-2.54-.11-.16-.21-.33-.31-.49-3.3-5.39-2.84-11.67,1.24-16.82,3.08-3.89,8.81-11.12,7.2-18.19-.56-2.47-2.26-5.91-7.18-8.3-1.27-.62-2.69-.92-4.35-.92-1.91,0-3.82.4-5.67.78-.59.12-1.19.25-1.75.35.5-.69,1.07-1.4,1.47-1.9,1.19-1.49,2.43-3.04,3.17-4.71,2.52-5.68,1.93-13.52-4.07-17.49-2.13-1.41-4.78-2.15-7.68-2.15-.98,0-1.98.08-2.97.25-.24-2.85-.96-5.34-2.17-7.55C71.24,3.18,65.95,0,60.67,0c-1.85,0-3.61.39-5.24,1.15h-.02s-.08.05-.08.05c-3.61,1.75-5.34,4.74-6.21,7.04-.33-.2-.65-.39-.98-.59-.6-.36-1.21-.73-1.82-1.1-2.4-1.48-5.99-2.34-9.85-2.34-9.06,0-15.26,4.57-15.8,11.64-.29,3.79,1.73,6.72,3.21,8.86.56.81,1.14,1.65,1.39,2.25.07.16.12.31.17.43-.7,0-1.47-.11-2.07-.19-1.91-.27-4.18-.55-6.54-.55-1.06,0-2.09.06-3.07.17-5.9.68-10.65,3.75-12.7,8.21-1.82,3.97-1.29,8.41,1.5,12.5,1.7,2.5,3.64,4.67,5.52,6.78,1.03,1.16,2.03,2.28,2.95,3.4-.99.62-2.16,1.26-2.89,1.66-1.8.99-3.23,1.77-4.24,2.76-2.22,2.19-3.35,5.04-3.09,7.82.22,2.37,1.31,5.69,5.22,8.05,2.09,1.26,4.45,1.91,6.35,2.44.48.13.94.26,1.34.38.63.19.96.38,1.11.48.01.5-.26,1.98-2.64,5.72l-.37.58c-3.05,4.76-7.65,11.96-6.01,18.9.79,3.33,2.93,6.11,6.2,8.05.81.48,1.73.92,2.73,1.32h-.54c-2.09,0-3.99,1.15-4.95,3l-4.8,9.18c-1.01,1.93-1.54,4.1-1.54,6.28v1.6c0,3.08,2.51,5.59,5.59,5.59h4.54c1.56,0,2.98-.65,4-1.69,1.02,1.04,2.43,1.69,4,1.69h4.64c.77,0,1.5-.16,2.16-.44.65.27,1.36.42,2.11.42h4.19c1.1,0,2.12-.32,2.98-.87.88.56,1.92.87,2.98.87h5.53c.72,0,1.43-.15,2.08-.41.65.26,1.35.41,2.09.41h4.19c1.49,0,2.84-.59,3.84-1.54,2.24,1.18,5.08,1.76,8.56,1.76,3.84,0,6.86-.69,9.22-2.12.57-.34,1.09-.73,1.57-1.15,2.52,2.16,6.09,3.27,10.65,3.28h.01s.01,0,.01,0c4.95-.01,8.74-1.31,11.27-3.86,1.52-1.53,3.32-4.29,3.31-8.77v-1.12c0-5.62-2.73-8.63-5.03-10.17-.99-.66-2.1-1.18-3.32-1.58.08-.03.16-.06.24-.08,4.54-1.64,7.7-4.22,9.38-7.69,1.79-3.68,1.8-7.78.03-12.19-1.29-3.22-3.32-6.13-5.12-8.69Z"/>
  <path class="cls-1" d="m92.3,87.18c-4.45-7.25-3.74-15.84,1.59-22.56,4.31-5.43,11-14.37,1.76-18.86-4.06-1.97-13.59,4.08-15.47-1.44-1.3-3.82,4.53-8.32,5.94-11.51,1.59-3.6,1.52-8.77-2.25-11.27-2.7-1.79-6.7-1.61-9.89-.35-1.45.57-3.03-.49-2.95-1.98.17-3.09-.12-6.17-1.61-8.9-2.14-3.92-7.63-6.63-11.88-4.59,0,0,0,0,0,0-2.66,1.28-3.69,3.7-4.29,6.31-.46,2.02-2.93,2.94-4.71,1.77-1.54-1.01-3.16-1.93-4.84-2.97-4.24-2.62-17.39-2.72-18.01,5.41-.24,3.2,2.99,5.84,4.22,8.81.57,1.37.94,2.87.6,4.31-.82,3.53-4.87,3.25-7.85,2.83-2.76-.39-5.56-.68-8.33-.36-7.25.84-12,6.47-7.62,12.91,3,4.42,7.14,8.01,10.17,12.43,2.22,3.25-7.72,6.84-9.46,8.56-1.02,1.01-1.75,2.38-1.62,3.78.44,4.64,5.8,5.45,9.38,6.53,7.89,2.4,3.96,9.43,1.24,13.7-3.6,5.64-10.3,15.49-1.85,20.52,7.31,4.34,27.3,5,28.51-5.94.67-6.03-7.74-11.14-5.68-16.9,2.46-6.85,14.02-6.04,19.19-2.65,4.56,3,3.44,7.03,1,11.03-2.17,3.56-4.86,8.55-1.43,12.24,5.81,6.24,19.83,5.89,27.78,5.13,5.27-.5,12.77-1.81,15.24-6.9,3.12-6.4-3.14-13.25-6.52-18.51-.13-.2-.25-.39-.37-.58Zm-45.13-22.69c-.68,0-1.24-.56-1.24-1.24v-22.05c0-.68.56-1.24,1.24-1.24s1.24.56,1.24,1.24v22.05c0,.68-.56,1.24-1.24,1.24Z"/>
  <g>
    <path class="cls-1" d="m19.85,120.91h-5.66c-.21,0-.41.12-.51.31l-4.8,9.18c-.64,1.22-.97,2.58-.97,3.95v1.6c0,.31.26.57.57.57h4.54c.31,0,.57-.26.57-.57v-1.79c0-.31.26-.57.57-.57h5.71c.31,0,.57.26.57.57v1.79c0,.31.26.57.57.57h4.64c.31,0,.57-.26.57-.57v-1.56c0-1.4-.34-2.77-1-4.01l-4.88-9.16c-.1-.19-.29-.3-.5-.3Zm-4.71,8l1.88-4.04,1.87,4.04h-3.76Z"/>
    <path class="cls-1" d="m40.03,120.89c-.14,0-.28.05-.39.15l-4.86,4.52h-.09v-4.1c0-.31-.26-.57-.57-.57h-4.19c-.31,0-.57.26-.57.57v14.46c0,.31.26.57.57.57h4.19c.31,0,.57-.26.57-.57v-6.02h.09l4.85,6.37c.11.14.28.22.45.22h5.53c.48,0,.74-.56.44-.93l-6.01-7.43c-.19-.23-.17-.56.05-.77l5.7-5.5c.37-.36.12-.98-.4-.98h-5.37Z"/>
    <rect class="cls-1" x="49.21" y="120.89" width="5.33" height="15.6" rx=".57" ry=".57"/>
    <path class="cls-1" d="m87.83,120.39c-5.28.01-9.61,1.7-9.59,7.6v1.13c-.02,5.88,4.3,7.58,9.59,7.6,5.27-.01,9.6-1.71,9.58-7.6v-1.13c0-5.88-4.29-7.6-9.58-7.6Zm4.25,8.36c.03,2.64-1.94,3.12-4.25,3.16-2.33-.04-4.3-.52-4.27-3.16v-.4c-.03-2.63,1.94-3.11,4.27-3.15,2.32.04,4.29.52,4.25,3.15v.4Z"/>
    <path class="cls-1" d="m65.56,126.24h4.27c.31,0,.57.26.57.57v2.9c.03,2.25-1.82,2.64-4.01,2.67-2.18-.03-4.03-.42-4-2.67v-.76c0-.31-.26-.57-.57-.57h-4.19c-.31,0-.57.26-.57.57v1.1c-.02,5.17,4.19,6.66,9.34,6.67,5.17,0,9.35-1.51,9.35-6.67v-8.59c0-.31-.26-.57-.57-.57h-9.6c-.31,0-.57.26-.57.57v4.22c0,.31.26.57.57.57Z"/>
  </g>
</svg>