<?xml version="1.0" encoding="UTF-8"?>
<svg id="_內容" data-name="內容" xmlns="http://www.w3.org/2000/svg" viewBox="0 0 107.18 61.23">
  <defs>
    <style>
      .cls-1 {
        fill: #662d84;
      }

      .cls-1, .cls-2 {
        stroke-width: 0px;
      }

      .cls-2 {
        fill: #fff;
      }
    </style>
  </defs>
  <path class="cls-1" d="m98.02,30.62c11.8-9.85,9.47-17.8,7.74-20.97-6.17-11.32-29.35-12.86-52.17-3.65C30.77-3.21,7.6-1.67,1.42,9.64c-1.73,3.17-4.06,11.13,7.74,20.97C-2.63,40.46-.31,48.42,1.42,51.59c6.17,11.32,29.35,12.86,52.17,3.65,9.97,4.02,20.01,6,28.67,6,11.15,0,20.02-3.27,23.49-9.64,1.73-3.17,4.06-11.13-7.74-20.97Zm-40.22-3.55c-.53.53-1.4.53-1.93,0l-2.27-2.27-2.27,2.27c-.53.53-1.4.53-1.93,0-.53-.53-.53-1.4,0-1.93l2.27-2.27-2.27-2.27c-.53-.53-.53-1.4,0-1.93.53-.53,1.4-.53,1.93,0l2.27,2.27,2.27-2.27c.53-.53,1.4-.53,1.93,0,.53.53.53,1.4,0,1.93l-2.27,2.27,2.27,2.27c.53.53.53,1.4,0,1.93Z"/>
  <g>
    <path class="cls-2" d="m39.59,35.81c.62,0,1.09.12,1.43.37.34.25.51.6.51,1.05,0,.26-.06.47-.17.65s-.28.33-.49.45c.26.14.46.3.6.48.14.18.2.41.2.69,0,.44-.15.78-.46,1.03-.31.25-.73.38-1.24.38h-3.59v-5.09h3.22Zm-.96,2.02h.06c.12,0,.23,0,.31-.03.08-.02.15-.05.21-.09.05-.04.09-.09.12-.15.02-.06.03-.14.03-.23,0-.17-.05-.3-.15-.38-.1-.08-.25-.12-.43-.12h-.15v.99Zm0,1.95h.09c.24,0,.42-.04.53-.12.11-.08.16-.22.16-.41,0-.38-.21-.57-.63-.57h-.16v1.1Z"/>
    <path class="cls-2" d="m46.84,35.81l1.77,5.09h-2.25l-.29-.86h-1.65l-.29.86h-2.25l1.77-5.09h3.21Zm-2.02,3.03h.83l-.41-1.24h-.01l-.41,1.24Z"/>
    <path class="cls-2" d="m51.68,35.81c.54,0,1.03.11,1.45.32.42.21.75.52.99.93.23.4.35.84.35,1.3s-.12.91-.36,1.31c-.24.4-.57.7-1,.91-.43.21-.92.31-1.47.31h-2.5v-5.09h2.55Zm-.29,3.14h.06c.27,0,.47-.05.59-.14.12-.09.18-.25.18-.47,0-.19-.06-.33-.17-.44-.11-.1-.29-.15-.53-.15h-.13v1.19Z"/>
    <path class="cls-2" d="m59.66,35.81l1.77,5.09h-2.25l-.29-.86h-1.65l-.29.86h-2.25l1.77-5.09h3.21Zm-2.02,3.03h.83l-.41-1.24h-.01l-.41,1.24Z"/>
    <path class="cls-2" d="m64.16,35.73c.17,0,.35,0,.53.02.18.02.36.04.55.07.19.03.36.07.52.11s.31.09.44.14l-.56,1.6c-.18-.24-.37-.42-.59-.55-.22-.13-.44-.2-.68-.2-.14,0-.24.03-.3.09-.06.06-.09.13-.09.21,0,.08.06.16.18.23s.31.16.56.25c.66.24,1.09.48,1.28.72.19.24.28.53.28.87,0,.54-.21.95-.62,1.24-.41.29-1.02.43-1.83.43-.42,0-.82-.03-1.2-.09-.38-.06-.75-.16-1.12-.3l.55-1.7c.16.24.35.44.59.59.24.15.46.22.68.22.11,0,.2-.03.27-.08.07-.05.11-.12.11-.21,0-.1-.05-.18-.15-.26s-.26-.15-.47-.23c-.52-.2-.89-.41-1.08-.64-.19-.23-.29-.52-.29-.86,0-.57.2-.99.61-1.28s1.02-.43,1.82-.43Z"/>
    <path class="cls-2" d="m69.14,35.73c.17,0,.35,0,.53.02.18.02.36.04.55.07.19.03.36.07.52.11s.31.09.44.14l-.56,1.6c-.18-.24-.37-.42-.59-.55-.22-.13-.44-.2-.68-.2-.14,0-.24.03-.3.09-.06.06-.09.13-.09.21,0,.08.06.16.18.23s.31.16.56.25c.66.24,1.09.48,1.28.72.19.24.28.53.28.87,0,.54-.21.95-.62,1.24-.41.29-1.02.43-1.83.43-.42,0-.82-.03-1.2-.09-.38-.06-.75-.16-1.12-.3l.55-1.7c.16.24.35.44.59.59.24.15.46.22.68.22.11,0,.2-.03.27-.08.07-.05.11-.12.11-.21,0-.1-.05-.18-.15-.26s-.26-.15-.47-.23c-.52-.2-.89-.41-1.08-.64-.19-.23-.29-.52-.29-.86,0-.57.2-.99.61-1.28s1.02-.43,1.82-.43Z"/>
  </g>
</svg>