<?xml version="1.0" encoding="UTF-8"?>
<svg id="_內容" data-name="內容" xmlns="http://www.w3.org/2000/svg" viewBox="0 0 86.56 70.87">
  <defs>
    <style>
      .cls-1, .cls-2 {
        stroke-width: 0px;
      }

      .cls-2 {
        fill: #e01c24;
      }
    </style>
  </defs>
  <path class="cls-2" d="m64.38,0c-9.87,0-18.23,10.31-21.1,24.56C40.41,10.31,32.04,0,22.17,0,9.93,0,0,15.86,0,35.43s9.93,35.43,22.17,35.43c9.87,0,18.23-10.31,21.1-24.56,2.87,14.25,11.23,24.56,21.1,24.56,12.25,0,22.17-15.86,22.17-35.43S76.63,0,64.38,0Z"/>
  <g>
    <path class="cls-1" d="m23.71,14.23c-7.34,0-12.88,10.21-12.88,23.76,0,1.11.9,2.02,2.02,2.02s2.02-.9,2.02-2.02c0-11.63,4.66-19.73,8.85-19.73,3.08,0,6.41,4.4,7.96,11.35-.79-1.3-1.83-2.12-3.12-2.12-2.37,0-4.21,2.9-4.8,7.57l-.08.6,2.32,2.32-2.32,2.32.08.6c.59,4.67,2.43,7.57,4.8,7.57,1.28,0,2.32-.82,3.11-2.12-1.55,6.95-4.88,11.35-7.96,11.35-1.11,0-2.02.9-2.02,2.02s.9,2.02,2.02,2.02c7.34,0,12.88-10.21,12.88-23.76s-5.54-23.76-12.88-23.76Z"/>
    <path class="cls-1" d="m17.56,13.19c1.07.27,2.17-.37,2.45-1.44.28-1.07-.36-2.18-1.43-2.46-2.48-.66-5.19.54-7.65,3.36-2.26,2.59-4.12,6.37-5.25,10.63-.28,1.07.36,2.18,1.43,2.46.17.04.34.07.51.07.91,0,1.71-.62,1.95-1.5.89-3.35,2.36-6.5,4.04-8.63,1.44-1.83,2.91-2.77,3.93-2.5Z"/>
    <path class="cls-1" d="m65.92,14.23c-7.34,0-12.88,10.21-12.88,23.76,0,1.11.9,2.02,2.02,2.02s2.02-.9,2.02-2.02c0-11.63,4.66-19.73,8.85-19.73,3.08,0,6.41,4.4,7.96,11.35-.79-1.3-1.83-2.12-3.12-2.12-2.37,0-4.21,2.9-4.8,7.57l-.08.6,2.32,2.32-2.32,2.32.08.6c.59,4.67,2.43,7.57,4.8,7.57,1.28,0,2.32-.82,3.11-2.12-1.55,6.95-4.88,11.35-7.96,11.35-1.11,0-2.02.9-2.02,2.02s.9,2.02,2.02,2.02c7.34,0,12.88-10.21,12.88-23.76s-5.54-23.76-12.88-23.76Z"/>
    <path class="cls-1" d="m59.77,13.19c1.07.27,2.17-.37,2.45-1.44.28-1.07-.36-2.18-1.43-2.46-2.48-.66-5.19.54-7.65,3.36-2.26,2.59-4.12,6.37-5.25,10.63-.28,1.07.36,2.18,1.43,2.46.17.04.34.07.51.07.91,0,1.71-.62,1.95-1.5.89-3.35,2.36-6.5,4.04-8.63,1.44-1.83,2.91-2.77,3.93-2.5Z"/>
  </g>
</svg>