<?xml version="1.0" encoding="UTF-8"?>
<svg id="_內容" data-name="內容" xmlns="http://www.w3.org/2000/svg" viewBox="0 0 125.39 35.44">
  <defs>
    <style>
      .cls-1, .cls-2 {
        stroke-width: 0px;
      }

      .cls-2 {
        fill: #e01c24;
      }
    </style>
  </defs>
  <path class="cls-2" d="m120.87,19.1c-.48-1.3-1.03-3.13-1.25-3.87-.9-3.01-1.83-6.12-3.4-8.8C113.12,1.12,108.89,0,105.88,0s-7.23,1.11-10.34,6.43c-.16.27-.31.55-.46.83-.15-.28-.3-.56-.46-.83C91.52,1.12,87.29,0,84.29,0s-7.23,1.11-10.34,6.43c-.16.27-.31.55-.46.83-.15-.28-.3-.56-.46-.83C69.93,1.12,65.7,0,62.7,0,59.7,0,55.47,1.12,52.37,6.43c-.16.27-.31.55-.46.83-.15-.28-.3-.56-.46-.83C48.34,1.11,44.11,0,41.11,0c-3,0-7.23,1.11-10.34,6.43-.16.27-.31.55-.46.84-.15-.28-.3-.56-.46-.84C26.74,1.11,22.51,0,19.51,0s-7.23,1.11-10.34,6.43c-1.57,2.68-2.5,5.79-3.4,8.8-.22.74-.77,2.57-1.25,3.87-2.71,1.48-4.52,4.34-4.52,7.64,0,4.8,3.9,8.7,8.7,8.7,3,0,7.23-1.11,10.34-6.43.16-.28.32-.56.47-.84.15.29.3.57.47.84,3.11,5.31,7.34,6.42,10.34,6.42,3,0,7.23-1.11,10.34-6.43.16-.27.31-.55.46-.83.15.28.3.56.46.83,3.11,5.31,7.34,6.43,10.34,6.43s7.23-1.11,10.34-6.43c.16-.27.31-.55.46-.83.15.28.3.56.46.83,3.11,5.31,7.33,6.43,10.34,6.43s7.23-1.11,10.34-6.43c.16-.27.31-.55.46-.83.15.28.3.56.46.83,3.11,5.31,7.34,6.43,10.34,6.43s7.23-1.11,10.34-6.43c.16-.27.31-.55.46-.83.15.28.3.56.46.83,3.11,5.31,7.34,6.43,10.34,6.43,4.8,0,8.7-3.9,8.7-8.7,0-3.3-1.81-6.17-4.52-7.64Z"/>
  <path class="cls-1" d="m116.78,24.04c-.99-.67-2.23-4.83-2.91-7.09-1.61-5.38-3.28-10.95-7.99-10.95s-6.38,5.56-7.99,10.95c-.65,2.18-1.84,6.14-2.81,7.01-.97-.87-2.16-4.83-2.81-7.01-1.61-5.38-3.28-10.95-7.99-10.95-4.71,0-6.38,5.56-7.99,10.95-.65,2.18-1.84,6.14-2.81,7.01-.97-.87-2.15-4.83-2.81-7.01-1.61-5.38-3.28-10.95-7.99-10.95-4.71,0-6.38,5.56-7.99,10.95-.65,2.18-1.84,6.14-2.81,7.01-.97-.87-2.16-4.83-2.81-7.01-1.61-5.38-3.28-10.95-7.99-10.95s-6.38,5.56-7.99,10.95c-.65,2.18-1.84,6.14-2.81,7.01-.97-.87-2.16-4.83-2.81-7.01-1.61-5.38-3.28-10.95-7.99-10.95-4.71,0-6.38,5.56-7.99,10.95-.68,2.26-1.92,6.43-2.91,7.09-1.45.05-2.6,1.24-2.6,2.7s1.21,2.7,2.7,2.7c3.7,0,5.52-3.43,6.91-7.51h7.7s.05,0,.08,0c1.39,4.08,3.21,7.52,6.92,7.52s5.52-3.43,6.91-7.51h7.77c1.39,4.08,3.21,7.51,6.91,7.51,3.7,0,5.52-3.43,6.91-7.51h7.77c1.39,4.08,3.21,7.51,6.91,7.51,3.7,0,5.52-3.43,6.91-7.51h7.77c1.39,4.08,3.21,7.51,6.91,7.51s5.52-3.43,6.91-7.51h7.77c1.39,4.08,3.21,7.51,6.91,7.51,1.49,0,2.7-1.21,2.7-2.7s-1.16-2.65-2.6-2.7Zm-94.63-6.11h-5.28c.68-2.24,1.75-5.65,2.64-6.45.89.8,1.97,4.21,2.64,6.45Zm18.96-6.45c.89.8,1.96,4.21,2.64,6.45h-5.28c.67-2.24,1.75-5.65,2.64-6.45Zm24.23,6.45h-5.28c.67-2.24,1.75-5.65,2.64-6.45.89.8,1.96,4.21,2.64,6.45Zm18.95-6.45c.89.8,1.96,4.21,2.64,6.45h-5.28c.67-2.24,1.75-5.65,2.64-6.45Zm24.23,6.45h-5.28c.67-2.24,1.75-5.65,2.64-6.45.89.8,1.96,4.21,2.64,6.45Z"/>
</svg>