<?xml version="1.0" encoding="UTF-8"?>
<svg id="_內容" data-name="內容" xmlns="http://www.w3.org/2000/svg" viewBox="0 0 105.01 58.21">
  <defs>
    <style>
      .cls-1, .cls-2 {
        stroke-width: 0px;
      }

      .cls-2 {
        fill: #f74f06;
      }
    </style>
  </defs>
  <path class="cls-2" d="m74.2,6.71c.1,0,.18-.04.24-.11s.1-.2.1-.37c0-.15-.03-.27-.1-.34s-.15-.11-.25-.11c-.09,0-.16.04-.22.11-.06.07-.09.19-.09.36,0,.16.03.28.09.35.06.07.14.11.23.11Z"/>
  <path class="cls-2" d="m33.75,52.51c.09,0,.16-.04.22-.11s.09-.2.09-.37c0-.15-.03-.27-.09-.34-.06-.07-.13-.11-.21-.11-.1,0-.18.04-.25.11-.06.07-.1.19-.1.34,0,.17.03.29.09.36.06.07.14.11.24.11Z"/>
  <path class="cls-2" d="m76.47,6.51s-.06.09-.06.14c0,.06.02.11.06.14s.1.06.18.06.16-.02.23-.06c.07-.04.12-.09.15-.15s.05-.13.05-.23v-.12c-.1.04-.21.07-.32.1-.15.04-.25.08-.29.12Z"/>
  <polygon class="cls-2" points="37.7 56.47 38.28 56.47 37.99 55.51 37.7 56.47"/>
  <path class="cls-2" d="m35.88,52.3s-.06.09-.06.14c0,.06.02.11.06.14.04.04.1.06.18.06s.16-.02.23-.06c.07-.04.12-.09.15-.15s.04-.13.04-.23v-.12c-.1.04-.21.07-.32.1-.15.04-.25.08-.29.12Z"/>
  <path class="cls-2" d="m62.49,47.82s-.06.09-.06.14c0,.06.02.11.06.14s.1.06.18.06.16-.02.23-.06c.07-.04.12-.09.15-.15.03-.06.04-.13.04-.23v-.12c-.1.04-.21.07-.32.1-.15.04-.25.08-.29.12Z"/>
  <path class="cls-2" d="m62.75,51.46c-.12,0-.21.05-.28.14-.04.06-.07.15-.09.26h.73c-.01-.14-.05-.25-.12-.31-.06-.06-.14-.09-.25-.09Z"/>
  <path class="cls-2" d="m69.3,6.71c.09,0,.16-.04.23-.11.06-.07.09-.2.09-.37,0-.15-.03-.27-.09-.34-.06-.07-.13-.11-.22-.11-.1,0-.18.04-.25.11s-.1.19-.1.34c0,.17.03.29.09.37.06.08.14.11.24.11Z"/>
  <path class="cls-2" d="m61.84,10.28c-.06-.06-.15-.09-.25-.09-.12,0-.21.05-.29.14-.05.06-.07.15-.09.26h.74c-.01-.14-.05-.25-.12-.31Z"/>
  <path class="cls-2" d="m69.6,10.19c-.12,0-.21.05-.29.14-.05.06-.07.15-.09.26h.74c-.01-.14-.05-.25-.12-.31-.06-.06-.15-.09-.25-.09Z"/>
  <path class="cls-2" d="m71.44,6.51s-.06.09-.06.14c0,.06.02.11.06.14.04.04.1.06.18.06s.16-.02.23-.06c.07-.04.12-.09.15-.15s.05-.13.05-.23v-.12c-.1.04-.21.07-.32.1-.15.04-.25.08-.29.12Z"/>
  <path class="cls-2" d="m81.32,10.26c-.11,0-.2.04-.27.13-.07.08-.11.21-.11.38s.04.3.11.39c.07.08.16.13.27.13s.2-.04.27-.12c.07-.08.1-.21.1-.4,0-.17-.03-.3-.1-.38-.07-.08-.16-.12-.26-.12Z"/>
  <polygon class="cls-2" points="73.57 9.74 73.28 10.71 73.87 10.71 73.57 9.74"/>
  <path class="cls-2" d="m65.04,11.03s-.06.09-.06.14c0,.06.02.11.06.14.04.04.1.06.18.06s.16-.02.23-.06c.07-.04.12-.09.15-.15.03-.06.05-.13.05-.23v-.12c-.1.04-.21.07-.32.1-.15.04-.25.08-.29.12Z"/>
  <path class="cls-2" d="m85.1,6.63c.09,0,.17-.04.23-.11.06-.07.09-.18.09-.32s-.03-.25-.1-.33-.15-.11-.24-.11-.17.03-.23.1c-.06.07-.09.18-.09.34,0,.14.03.25.09.31.06.07.14.1.24.1Z"/>
  <path class="cls-2" d="m11.44,52.78s.01,0,.02,0c0,0,0,0,0-.02,0,0,0,0-.01,0Z"/>
  <path class="cls-2" d="m88.2,19.19c0-2.43-8.13-4.55-20.27-5.72,4.11-.38,7.75-.87,10.78-1.44l.02-.1c.06.01.1.02.13.02.06,0,.11-.02.15-.07.03-.04.05-.13.05-.26v-1.83h.75v1.89c0,.05,0,.09,0,.14.31-.06.6-.13.89-.19-.05-.03-.11-.04-.15-.08-.24-.2-.36-.46-.36-.78,0-.3.1-.54.3-.74.2-.19.47-.29.82-.29.39,0,.69.11.89.34.16.18.24.41.24.68,0,.18-.05.34-.12.48.16-.04.33-.08.49-.13v-.12h.43c3.16-.91,4.97-1.94,4.97-3.04,0-.25-.1-.49-.27-.73-.09.02-.17.04-.27.04-.31,0-.57-.08-.76-.24-.24-.2-.36-.46-.36-.78,0-.03.01-.06.02-.09-.12-.06-.24-.13-.38-.19v1.14s0,.09,0,.09c0,.12-.03.24-.08.35s-.12.2-.21.27c-.09.07-.2.12-.33.15-.13.03-.29.05-.46.05-.39,0-.66-.06-.81-.18-.15-.12-.22-.28-.22-.47,0-.02,0-.06,0-.1l.73.08c.02.07.05.11.08.14.06.04.12.06.21.06.11,0,.19-.03.24-.09s.08-.16.08-.3v-.3c-.07.09-.15.15-.22.19-.12.06-.24.09-.37.09-.26,0-.47-.11-.63-.34-.11-.16-.17-.38-.17-.64,0-.3.07-.54.22-.7.07-.07.15-.12.23-.16-3.03-1.03-7.76-1.91-13.64-2.56-.05,0-.08.01-.13.01-.22,0-.38-.03-.52-.08-.33-.03-.66-.07-.99-.1v.14h-.75v-.21c-.31-.03-.62-.06-.94-.09v.3h-.75v-.37c-.36-.03-.72-.06-1.08-.09v.46h-.75v-.52c-.15-.01-.3-.02-.46-.04v.13c0,.09,0,.16.02.22s.04.12.08.2h-.7c-.03-.05-.05-.09-.06-.11,0-.03-.02-.07-.03-.12-.1.09-.2.16-.29.2-.13.05-.29.08-.46.08-.23,0-.41-.05-.53-.16-.12-.11-.18-.24-.18-.4,0-.07.01-.12.03-.18-.27-.02-.54-.03-.82-.05l.53.06c-.04.15-.1.28-.19.39-.09.11-.2.19-.34.25-.14.06-.32.09-.53.09s-.38-.02-.52-.06c-.14-.04-.26-.1-.36-.19-.1-.09-.18-.19-.23-.3-.04-.09-.06-.2-.07-.34-.54-.03-1.08-.05-1.63-.08v.5c0,.09,0,.16.02.22.01.05.04.12.08.2h-.7c-.03-.05-.05-.09-.06-.11s-.02-.07-.03-.12c-.1.09-.2.16-.29.2-.13.05-.29.08-.46.08-.23,0-.41-.05-.53-.16s-.18-.24-.18-.4c0-.15.04-.27.13-.37.04-.04.1-.08.17-.11-.69-.03-1.38-.05-2.08-.07.06.04.12.07.16.12.06.09.1.2.1.31,0,.11-.03.22-.1.33-.07.11-.18.19-.32.25-.15.06-.35.09-.6.09-.36,0-.61-.05-.76-.15-.15-.1-.25-.25-.29-.43l.74-.07c.03.09.07.15.13.19.06.04.13.06.22.06.1,0,.18-.02.23-.06.04-.03.06-.07.06-.12,0-.05-.03-.1-.08-.12-.04-.02-.15-.05-.32-.08-.26-.05-.44-.09-.54-.13-.1-.04-.19-.1-.26-.2,0-.01,0-.02-.01-.04-.17,0-.35,0-.52-.01v1.12s-.75,0-.75,0v-1.13c-.55,0-1.11-.02-1.67-.02,0,.06.03.11.03.18,0,.3-.1.55-.3.74-.2.19-.47.29-.83.29-.31,0-.57-.08-.76-.24-.24-.2-.36-.46-.36-.78,0-.07.03-.14.04-.2-.14,0-.28,0-.42,0v1.12c0,.24-.02.41-.05.51-.03.1-.1.18-.19.24-.09.06-.23.09-.4.09-.14,0-.32-.02-.54-.06l.11-.54c.06.01.1.02.13.02.06,0,.11-.02.15-.07.03-.04.05-.13.05-.26v-1.05c-.17,0-.34,0-.51,0v1.18h-.75v-1.17c-.31,0-.63,0-.94,0l.68,1.17h-.84l-.4-.78-.28.28v.51h-.77v-1.15c-.21,0-.43,0-.64.01l.43,1.14h-.87l-.13-.45h-.95l-.13.45h-.85l.41-1.09C19.92,2.1,4.75,4.75,4.75,7.95c0,2.34,8.13,4.39,20.27,5.52-12.14,1.17-20.27,3.29-20.27,5.72,0,2.27,7.08,4.27,17.88,5.47-10.81,1.6-17.88,4.25-17.88,7.25,0,2.39,4.49,4.56,11.76,6.15-7.28,2.14-11.76,5.05-11.76,8.27,0,.12.02.24.03.36l.32-.84h.9l1,2.67h-.86l-.13-.44h-.8c.54,1.04,1.55,2.03,2.97,2.96.04,0,.07-.02.12-.02.15,0,.28.03.37.08s.19.14.27.25v-.29h.69v.84c.15.08.31.16.47.24,0,0,0-.02.01-.02.09-.09.25-.17.48-.21.28-.06.46-.09.54-.12.08-.02.17-.05.26-.09,0-.09-.02-.15-.06-.19-.04-.04-.1-.05-.2-.05-.12,0-.21.02-.27.06-.05.03-.09.09-.11.17l-.71-.07c.03-.12.07-.22.12-.29s.12-.13.22-.19c.07-.04.16-.07.28-.09.12-.02.25-.03.39-.03.22,0,.4.01.54.04.13.02.25.08.34.16.06.05.11.13.15.23.04.1.05.2.05.29v.85c0,.09,0,.16.02.21.01.05.04.12.08.2h-.27c2.59,1.09,5.8,2.04,9.49,2.83l-.23-1.02h.78l.22,1.18s.09.02.14.03l.33-1.21h.78l.41,1.49.28-1.49h.78l-.36,1.63c.13.02.26.05.39.07,0-.3.1-.54.29-.73.19-.19.46-.28.8-.28.28,0,.5.04.66.13.16.08.28.21.37.36s.13.37.13.62v.08h-1.11c.86.14,1.73.27,2.62.38,0-.04-.02-.07-.02-.11,0-.15.04-.27.13-.36.09-.09.25-.17.48-.21.28-.06.46-.1.54-.12s.17-.05.26-.09c0-.09-.02-.16-.06-.19-.04-.04-.1-.05-.2-.05-.12,0-.21.02-.27.06-.05.03-.09.09-.11.17l-.71-.07c.03-.12.07-.22.12-.29.05-.07.12-.13.22-.19.07-.04.16-.07.28-.09.12-.02.25-.03.39-.03.22,0,.4.01.54.04.13.02.25.08.34.16.06.05.11.13.15.23.04.1.05.2.05.29v.86c0,.09,0,.16.02.21,0,.02.02.05.02.07.14.02.27.03.41.05v-1.85h.69v.32c.07-.14.14-.23.21-.28.07-.05.16-.08.26-.08s.23.03.36.1l-.23.53c-.09-.04-.16-.05-.21-.05-.1,0-.17.04-.23.12-.08.11-.11.32-.11.63v.65c3.45.36,7.13.59,10.94.68l.1-.5c.06.01.1.02.13.02.06,0,.11-.02.14-.06.03-.04.05-.13.05-.26v-1.81h.74v1.88c0,.24-.02.41-.05.51-.03.1-.1.18-.19.24,0,0-.02,0-.02,0,.85.01,1.71.02,2.57.02,23.04,0,41.72-5.32,41.72-11.88,0-3.21-4.49-6.13-11.76-8.27,7.28-1.59,11.76-3.76,11.76-6.15,0-3-7.08-5.66-17.88-7.25,10.81-1.21,17.88-3.21,17.88-5.47ZM8.65,48.52l-.39-.78-.28.27v.5h-.76v-2.67h.76v1.38l.55-.64h.91l-.69.68.73,1.26h-.84Zm1.83,0h-.74v-1.94h.74v1.94Zm0-2.17h-.74v-.5h.74v.5Zm1.25,2.11c0,.24-.02.41-.05.51-.03.1-.1.18-.19.24-.09.06-.23.09-.4.09-.14,0-.32-.02-.53-.06l.11-.54c.06.01.1.02.13.02.06,0,.11-.02.14-.06.03-.04.05-.13.05-.26v-1.81h.74v1.88Zm0-2.1h-.74v-.51h.74v.51ZM76.71,11.74l-.4-.78-.28.28v.51h-.77v-2.7h.77v1.39l.56-.65h.92l-.7.68.74,1.27h-.84Zm1.1,0v-1.95h.75v1.95s-.75,0-.75,0Zm0-2.19v-.51h.75v.51h-.75Zm2.01,0h-.75v-.52h.75v.52Zm2.1-.08h-1.19v-.4h1.19v.4Zm-.18-2.93s-.15-.05-.32-.08c-.26-.05-.44-.09-.54-.13-.1-.04-.19-.1-.26-.2-.07-.09-.1-.2-.1-.31,0-.13.04-.24.11-.33s.18-.16.31-.21c.13-.05.31-.07.53-.07.23,0,.41.02.52.05.11.04.2.09.28.17.07.07.14.18.18.3l-.71.07c-.02-.06-.05-.11-.09-.14-.06-.04-.13-.06-.21-.06s-.15.02-.18.05-.06.07-.06.11c0,.05.02.08.07.11.05.02.16.05.32.07.25.03.43.07.56.12.12.05.21.12.28.21.06.09.1.2.1.31s-.03.22-.1.33c-.07.11-.18.19-.32.25-.15.06-.35.09-.6.09-.36,0-.61-.05-.76-.15-.15-.1-.25-.25-.29-.43l.74-.07c.03.09.07.15.13.19.06.04.13.06.22.06.1,0,.18-.02.23-.06.04-.03.06-.07.06-.12,0-.05-.03-.1-.08-.12Zm-2.3,0s-.15-.05-.32-.08c-.26-.05-.44-.09-.54-.13-.1-.04-.19-.1-.26-.2-.07-.09-.1-.2-.1-.31,0-.13.04-.24.11-.33.07-.09.18-.16.31-.21.13-.05.31-.07.53-.07.23,0,.41.02.52.05.11.04.2.09.28.17s.14.18.18.3l-.71.07c-.02-.06-.05-.11-.09-.14-.06-.04-.13-.06-.21-.06s-.15.02-.18.05-.06.07-.06.11c0,.05.02.08.07.11.05.02.16.05.32.07.25.03.43.07.56.12.12.05.21.12.28.21.06.09.1.2.1.31s-.03.22-.1.33c-.07.11-.18.19-.32.25-.15.06-.35.09-.6.09-.36,0-.61-.05-.76-.15s-.25-.25-.29-.43l.74-.07c.03.09.07.15.13.19.06.04.13.06.22.06.1,0,.18-.02.23-.06.04-.03.06-.07.06-.12,0-.05-.03-.1-.08-.12Zm-2.41-.82s-.1-.06-.2-.06c-.12,0-.21.02-.28.06-.05.03-.09.09-.12.17l-.72-.08c.03-.13.07-.22.12-.3s.12-.13.22-.19c.07-.04.16-.07.28-.09s.25-.03.39-.03c.22,0,.4.01.54.04.14.03.25.08.34.16.06.06.11.13.15.23.04.1.06.2.06.29v.86c0,.09,0,.16.02.22.01.05.04.12.08.2h-.7c-.03-.05-.05-.09-.06-.11,0-.03-.02-.07-.03-.12-.1.09-.2.16-.29.2-.13.05-.29.08-.46.08-.23,0-.41-.05-.53-.16-.12-.11-.18-.24-.18-.4,0-.15.04-.27.13-.37.09-.1.25-.17.48-.21.28-.06.46-.1.55-.12s.17-.05.26-.09c0-.09-.02-.16-.06-.19Zm-3.65-.24c.16-.17.35-.26.59-.26.12,0,.22.02.32.06.1.04.18.1.25.18v-.93h.76v2.7h-.7v-.29c-.1.12-.19.21-.27.25-.11.06-.23.08-.36.08-.27,0-.47-.1-.61-.3-.14-.2-.21-.45-.21-.74,0-.32.08-.57.23-.74Zm.66,3.56l1.01,2.7h-.87l-.13-.45h-.95l-.13.45h-.85l1.01-2.7h.91Zm-2.04-3.32s-.1-.06-.2-.06c-.12,0-.21.02-.28.06-.05.03-.09.09-.12.17l-.72-.08c.03-.13.07-.22.12-.3s.12-.13.22-.19c.07-.04.16-.07.28-.09s.25-.03.39-.03c.22,0,.4.01.54.04.14.03.25.08.34.16.06.06.11.13.15.23.04.1.06.2.06.29v.86c0,.09,0,.16.02.22.01.05.04.12.08.2h-.7c-.03-.05-.05-.09-.06-.11s-.02-.07-.03-.12c-.1.09-.2.16-.29.2-.13.05-.29.08-.46.08-.23,0-.41-.05-.53-.16-.12-.11-.18-.24-.18-.4,0-.15.04-.27.13-.37s.25-.17.48-.21c.28-.06.46-.1.55-.12.08-.02.17-.05.26-.09,0-.09-.02-.16-.06-.19Zm-1.39,4.52c.08.16.13.37.13.63v.08h-1.5c.01.12.05.21.1.27.07.08.17.13.28.13.07,0,.14-.02.21-.06.04-.02.08-.06.13-.12l.74.07c-.11.2-.25.34-.41.42-.16.09-.39.13-.69.13-.26,0-.46-.04-.61-.11-.15-.07-.27-.19-.37-.35-.1-.16-.15-.35-.15-.56,0-.31.1-.55.29-.74.2-.19.47-.28.81-.28.28,0,.5.04.66.13.16.08.29.21.37.37Zm-2.4-5.72h.76v.93c.07-.08.16-.14.25-.18.1-.04.2-.06.32-.06.24,0,.43.09.59.26s.23.42.23.74c0,.21-.04.4-.11.56-.07.16-.17.28-.3.36-.13.08-.27.12-.42.12-.13,0-.25-.03-.36-.08-.08-.04-.17-.13-.27-.25v.29h-.7v-2.7Zm-1.37,5.26h.7v.32c.07-.14.14-.23.21-.29.07-.05.16-.08.27-.08s.23.03.36.1l-.23.53c-.09-.04-.16-.06-.21-.06-.1,0-.17.04-.23.12-.08.11-.12.33-.12.64v.65h-.75v-1.95Zm-2.4-5.26h.77v1.39l.56-.65h.92l-.7.68.74,1.27h-.84l-.4-.78-.28.28v.51h-.77v-2.7Zm-3.3.74h.28v-.36l.75-.38v.74h.41v.55h-.41v.69c0,.08,0,.14.02.16.02.04.07.06.13.06.06,0,.13-.02.23-.05l.06.52c-.19.04-.36.06-.52.06-.19,0-.32-.02-.41-.07s-.15-.12-.2-.22c-.04-.1-.06-.26-.06-.47v-.69h-.28v-.55Zm-3.64,0h.7v.29c.1-.12.2-.2.3-.25.1-.05.23-.08.37-.08.16,0,.28.03.37.08.09.06.17.14.22.25.12-.13.22-.21.32-.26.1-.05.22-.07.36-.07.21,0,.37.06.49.19.12.12.18.32.18.58v1.23h-.75v-1.11c0-.09-.02-.15-.05-.2-.05-.07-.11-.1-.19-.1-.09,0-.16.03-.21.1s-.08.17-.08.31v1.01h-.75v-1.08c0-.09,0-.14-.01-.17-.02-.05-.04-.09-.08-.12-.04-.03-.09-.05-.14-.05-.09,0-.16.03-.21.1-.06.07-.08.17-.08.32v1h-.75v-1.95Zm-.06,3.78l.28,1.51.42-1.51h.79l.42,1.51.29-1.51h.79l-.59,2.7h-.82l-.47-1.7-.47,1.7h-.82l-.6-2.7h.79Zm-2.87-3.78h.7v.32c.07-.14.14-.23.21-.29.07-.05.16-.08.27-.08s.23.03.36.1l-.23.53c-.09-.04-.16-.06-.21-.06-.1,0-.17.04-.23.12-.08.11-.12.33-.12.64v.66h-.75v-1.95Zm-2.32.24c.2-.19.47-.28.81-.28.28,0,.5.04.66.13.16.08.29.21.37.37.08.16.13.37.13.63v.08h-1.5c.01.12.05.21.1.27.07.08.17.13.28.13.07,0,.14-.02.21-.06.04-.02.08-.06.13-.12l.74.07c-.11.2-.25.34-.41.42-.16.09-.39.13-.69.13-.26,0-.46-.04-.61-.11-.15-.07-.27-.19-.37-.35-.1-.16-.15-.35-.15-.56,0-.31.1-.55.29-.74Zm-7.12,42.5c.07.08.17.13.28.13.07,0,.14-.02.21-.05.04-.02.08-.06.13-.12l.73.07c-.11.19-.25.33-.4.42s-.38.13-.68.13c-.26,0-.46-.04-.61-.11-.15-.07-.27-.19-.37-.34-.1-.16-.14-.34-.14-.56,0-.3.1-.55.29-.73.19-.19.46-.28.8-.28.28,0,.5.04.66.13.16.08.28.21.37.36s.13.37.13.62v.08h-1.49c.01.12.05.21.1.27Zm-2.1-42.55c.15-.16.34-.24.58-.24.15,0,.28.03.38.08.1.05.19.14.28.26v-.29h.7v1.93c0,.12-.02.24-.08.35-.05.11-.12.2-.21.27-.09.07-.2.12-.33.15-.13.03-.29.05-.46.05-.39,0-.66-.06-.81-.18-.15-.12-.22-.28-.22-.47,0-.02,0-.06,0-.1l.73.08c.02.07.05.11.08.14.06.04.12.06.21.06.11,0,.19-.03.24-.09s.08-.16.08-.3v-.3c-.07.09-.15.15-.22.19-.12.06-.24.09-.37.09-.26,0-.47-.11-.63-.34-.11-.16-.17-.38-.17-.64,0-.3.07-.54.22-.7Zm-1.02,40.39h.76v1.38l.55-.64h.91l-.69.68.73,1.26h-.84l-.39-.78-.28.27v.5h-.76v-2.67Zm-.03,5.37c.06.05.11.13.15.23.04.1.05.2.05.29v.85c0,.09,0,.16.02.21.01.05.04.12.08.2h-.7s-.05-.09-.05-.11-.02-.07-.03-.12c-.1.09-.19.16-.29.2-.13.05-.28.08-.46.08-.23,0-.41-.05-.53-.16-.12-.11-.18-.24-.18-.4,0-.15.04-.27.13-.36s.25-.17.48-.21c.28-.06.46-.09.54-.12.08-.02.17-.05.26-.09,0-.09-.02-.15-.06-.19-.04-.04-.1-.05-.2-.05-.12,0-.21.02-.27.06-.05.03-.09.09-.11.17l-.71-.07c.03-.12.07-.22.12-.29s.12-.13.22-.19c.07-.04.16-.07.28-.09.12-.02.25-.03.39-.03.22,0,.4.01.54.04.13.02.25.08.34.16Zm-3.25,1.75c-.11.06-.23.08-.36.08-.26,0-.47-.1-.6-.3s-.21-.44-.21-.73c0-.32.08-.57.23-.74.15-.17.35-.26.59-.26.12,0,.22.02.31.06.09.04.18.1.25.18v-.93h.75v2.67h-.69v-.29c-.1.12-.19.2-.27.25Zm-1.2-6.34c.07-.05.16-.08.26-.08s.23.03.36.1l-.23.53c-.09-.04-.16-.05-.21-.05-.1,0-.17.04-.23.12-.08.11-.11.32-.11.63v.65h-.75v-1.94h.69v.32c.07-.14.14-.23.21-.28Zm2.02,1.9v-2.67h.74v2.67h-.74Zm1.25,0v-1.94h.74v1.94h-.74Zm.74-2.67v.5h-.74v-.5h.74Zm-2.21-40.35c.2-.19.47-.28.81-.28.28,0,.5.04.66.13.16.08.29.21.37.37.08.16.13.37.13.63v.08h-1.5c.01.12.05.21.1.27.07.08.17.13.28.13.07,0,.14-.02.21-.06.04-.02.08-.06.13-.12l.74.07c-.11.2-.25.34-.41.42-.16.09-.39.13-.69.13-.26,0-.46-.04-.61-.11-.15-.07-.27-.19-.37-.35-.1-.16-.15-.35-.15-.56,0-.31.1-.55.29-.74Zm-3.31-.98l.28,1.51.42-1.51h.79l.42,1.51.29-1.51h.79l-.59,2.7h-.82l-.47-1.7-.47,1.7h-.82l-.6-2.7h.79Zm-1.7,42.3c.19-.19.46-.28.8-.28.28,0,.5.04.66.13.16.08.28.21.37.36s.13.37.13.62v.08h-1.49c.01.12.05.21.1.27.07.08.17.13.28.13.07,0,.14-.02.21-.05.04-.02.08-.06.13-.12l.73.07c-.11.19-.25.33-.4.42-.16.08-.38.13-.68.13-.26,0-.46-.04-.61-.11s-.27-.19-.37-.34c-.1-.16-.14-.34-.14-.56,0-.3.1-.55.29-.73Zm-1.41-.97h.74v.5h-.74v-.5Zm0,.74h.74v1.94h-.74v-1.94Zm-3.49,0h.69v.32c.07-.14.14-.23.21-.28.07-.05.16-.08.26-.08s.23.03.36.1l-.23.53c-.09-.04-.16-.05-.21-.05-.1,0-.17.04-.23.12-.08.11-.11.32-.11.63v.65h-.75v-1.94Zm-13.47-.74h.74v.5h-.74v-.5Zm0,.74h.74v1.94h-.74v-1.94Zm-3.33-.7h1.18v.4h-1.18v-.4Zm.7,7.16c-.18,0-.32-.02-.41-.07s-.15-.12-.19-.22c-.04-.1-.06-.25-.06-.47v-.68h-.27v-.54h.27v-.36l.74-.38v.74h.41v.54h-.41v.69c0,.08,0,.14.02.16.02.04.07.06.13.06.05,0,.13-.02.23-.05l.05.51c-.18.04-.35.06-.51.06Zm-.12-4.48c-.31,0-.56-.08-.75-.24-.24-.2-.35-.45-.35-.77,0-.3.1-.54.3-.73.2-.19.47-.29.81-.29.39,0,.68.11.88.34.16.18.24.4.24.67,0,.3-.1.54-.3.73-.2.19-.47.29-.82.29Zm3,4.44h-.75v-1.06c0-.12-.02-.21-.07-.26-.04-.05-.11-.08-.19-.08-.09,0-.16.03-.22.1s-.08.19-.08.37v.93h-.74v-2.67h.74v.98c.1-.1.2-.18.3-.22s.22-.07.35-.07c.2,0,.36.06.48.18.12.12.17.31.17.57v1.23Zm2.59-.78h-1.49c.01.12.05.21.1.27.07.08.17.13.28.13.07,0,.14-.02.21-.05.04-.02.08-.06.13-.12l.73.07c-.11.19-.25.33-.4.42-.16.08-.38.13-.68.13-.26,0-.46-.04-.61-.11-.15-.07-.27-.19-.37-.34s-.14-.34-.14-.56c0-.3.1-.55.29-.73.19-.19.46-.28.8-.28.28,0,.5.04.66.13.16.08.28.21.37.36s.13.37.13.62v.08Zm.19-4c-.07.11-.17.19-.32.25-.15.06-.34.09-.59.09-.35,0-.61-.05-.76-.15-.15-.1-.25-.24-.29-.43l.74-.07c.03.09.07.15.13.19.05.04.13.06.22.06.1,0,.18-.02.23-.06.04-.03.06-.07.06-.12,0-.05-.03-.09-.08-.12-.04-.02-.15-.05-.32-.08-.26-.05-.44-.09-.54-.12-.1-.04-.18-.1-.25-.19-.07-.09-.1-.19-.1-.31,0-.13.04-.24.11-.33.07-.09.18-.16.31-.21s.3-.07.52-.07c.23,0,.4.02.51.05.11.04.2.09.28.16.07.07.13.17.18.3l-.7.07c-.02-.06-.05-.11-.09-.14-.06-.04-.13-.06-.21-.06s-.14.01-.18.04c-.04.03-.06.07-.06.11,0,.05.02.08.07.11.05.02.15.05.32.07.25.03.43.07.55.12.12.05.21.12.28.21.06.09.1.19.1.3s-.03.22-.1.33Zm1.45,3.43c-.09-.04-.16-.05-.21-.05-.1,0-.17.04-.23.12-.08.11-.11.32-.11.63v.65h-.75v-1.94h.69v.32c.07-.14.14-.23.21-.28s.16-.08.26-.08.23.03.36.1l-.23.53Zm1.32-3.17c-.13.05-.28.08-.46.08-.23,0-.41-.05-.53-.16-.12-.11-.18-.24-.18-.4,0-.15.04-.27.13-.36.09-.09.25-.17.48-.21.28-.06.46-.1.54-.12s.17-.05.26-.09c0-.09-.02-.16-.06-.19s-.1-.05-.2-.05c-.12,0-.21.02-.27.06-.05.03-.09.09-.11.17l-.71-.07c.03-.12.07-.22.12-.29.05-.07.12-.13.22-.19.07-.04.16-.07.28-.09.12-.02.25-.03.39-.03.22,0,.4.01.54.04s.25.08.34.16c.06.05.11.13.15.23.04.1.05.2.05.29v.86c0,.09,0,.16.02.21.01.05.04.12.08.2h-.7s-.05-.09-.05-.11c0-.03-.02-.07-.03-.12-.1.09-.19.16-.29.2Zm3.57,4.52h-.74v-1.1c0-.09-.02-.15-.05-.2-.05-.07-.11-.1-.19-.1-.09,0-.16.03-.21.09-.05.06-.08.16-.08.3v1h-.74v-1.07c0-.09,0-.14-.01-.17-.02-.05-.04-.09-.08-.12-.04-.03-.08-.04-.14-.04-.09,0-.16.03-.21.1-.06.06-.08.17-.08.32v.99h-.74v-1.94h.69v.28c.1-.12.2-.2.3-.25.1-.05.22-.07.37-.07.15,0,.28.03.37.08.09.05.16.14.22.24.12-.13.22-.21.32-.26.1-.05.21-.07.35-.07.21,0,.37.06.49.19.12.12.17.32.17.58v1.22Zm-.33-4.49c-.14-.04-.25-.1-.35-.19s-.18-.19-.23-.3c-.06-.12-.08-.27-.08-.46s.03-.36.1-.5c.05-.1.12-.18.2-.26.09-.08.17-.13.27-.17.14-.06.33-.09.56-.09.32,0,.56.06.72.17.17.11.28.28.35.5l-.7.09c-.02-.08-.06-.15-.12-.19s-.14-.06-.23-.06c-.12,0-.22.04-.3.13-.08.09-.11.22-.11.4,0,.16.04.28.11.36.08.08.17.12.29.12.1,0,.18-.02.25-.07.07-.05.12-.13.15-.23l.71.08c-.04.15-.1.27-.19.38-.09.11-.2.19-.34.25s-.31.09-.53.09-.38-.02-.51-.06Zm1.59,4.54c-.18,0-.32-.02-.41-.07s-.15-.12-.19-.22c-.04-.1-.06-.25-.06-.47v-.68h-.27v-.54h.27v-.36l.74-.38v.74h.41v.54h-.41v.69c0,.08,0,.14.02.16.02.04.07.06.13.06.05,0,.13-.02.23-.05l.05.51c-.18.04-.35.06-.51.06Zm2.1-2.27c-.09-.01-.16-.02-.22-.02-.07,0-.11.01-.14.03s-.05.06-.06.11c0,.03,0,.08,0,.17h.35v.54h-.35v1.39h-.74v-1.39h-.28v-.54h.28v-.09c0-.08,0-.17.03-.26.02-.09.05-.17.1-.23.05-.06.11-.11.2-.15.08-.04.21-.06.37-.06.13,0,.32.02.57.05l-.08.45Zm-.33-2.26s-.05-.09-.05-.11-.02-.07-.03-.12c-.1.09-.19.16-.29.2-.13.05-.28.08-.46.08-.23,0-.41-.05-.53-.16-.12-.11-.18-.24-.18-.4,0-.15.04-.27.13-.36.09-.09.25-.17.48-.21.28-.06.46-.1.54-.12.08-.02.17-.05.26-.09,0-.09-.02-.16-.06-.19s-.1-.05-.2-.05c-.12,0-.21.02-.27.06-.05.03-.09.09-.11.17l-.71-.07c.03-.12.07-.22.12-.29.05-.07.12-.13.22-.19.07-.04.16-.07.28-.09.12-.02.25-.03.39-.03.22,0,.4.01.54.04.13.02.25.08.34.16.06.05.11.13.15.23s.05.2.05.29v.86c0,.09,0,.16.02.21.01.05.04.12.08.2h-.7Zm2,4.48l-.39-.78-.28.27v.5h-.76v-2.67h.76v1.38l.55-.64h.91l-.69.68.73,1.26h-.84Zm1.96-5.88c-.1,0-.17.04-.23.12-.08.11-.11.32-.11.63v.65h-.75v-1.94h.69v.32c.07-.14.14-.23.21-.28.07-.05.16-.08.26-.08s.23.03.36.1l-.23.53c-.09-.04-.16-.05-.21-.05Zm.35,5.88v-2.67h.75v.93c.07-.08.16-.14.25-.18.09-.04.2-.06.31-.06.24,0,.43.08.59.25s.23.41.23.73c0,.21-.04.4-.11.56s-.17.28-.29.36-.26.12-.41.12c-.13,0-.25-.03-.36-.08-.08-.04-.17-.13-.27-.25v.29h-.69Zm2.5,3.7h-1.49c.01.12.05.21.1.27.07.08.17.13.28.13.07,0,.14-.02.21-.05.04-.02.08-.06.13-.12l.73.07c-.11.19-.25.33-.4.42-.16.08-.38.13-.68.13-.26,0-.46-.04-.61-.11-.15-.07-.27-.19-.37-.34s-.14-.34-.14-.56c0-.3.1-.55.29-.73.19-.19.46-.28.8-.28.28,0,.5.04.66.13.16.08.28.21.37.36s.13.37.13.62v.08Zm1.06-3.73c-.13.05-.28.08-.46.08-.23,0-.41-.05-.53-.16-.12-.11-.18-.24-.18-.4,0-.15.04-.27.13-.36s.25-.17.48-.21c.28-.06.46-.09.54-.12.08-.02.17-.05.26-.09,0-.09-.02-.15-.06-.19-.04-.04-.1-.05-.2-.05-.12,0-.21.02-.27.06-.05.03-.09.09-.11.17l-.71-.07c.03-.12.07-.22.12-.29.05-.07.12-.13.22-.19.07-.04.16-.07.28-.09.12-.02.25-.03.39-.03.22,0,.4.01.54.04.13.02.25.08.34.16.06.05.11.13.15.23.04.1.05.2.05.29v.85c0,.09,0,.16.02.21.01.05.04.12.08.2h-.7s-.05-.09-.05-.11c0-.03-.02-.07-.03-.12-.1.09-.19.16-.29.2Zm2.35,4.52l-.13-.44h-.94l-.13.44h-.84l1-2.67h.9l1,2.67h-.86Zm2.51,0l-.39-.78-.28.27v.5h-.76v-2.67h.76v1.38l.55-.64h.91l-.69.68.73,1.26h-.84Zm1.83,0h-.74v-1.94h.74v1.94Zm0-2.17h-.74v-.51h.74v.51Zm1.25,0h-.74v-.51h.74v.51Zm-.03-2.37c-.15.06-.34.09-.59.09-.35,0-.61-.05-.76-.15-.15-.1-.25-.24-.29-.43l.74-.07c.03.09.07.15.13.19s.13.06.22.06c.1,0,.18-.02.23-.06.04-.03.06-.07.06-.12,0-.05-.03-.09-.08-.12-.04-.02-.15-.05-.32-.08-.26-.04-.44-.09-.54-.12-.1-.04-.18-.1-.25-.19s-.1-.19-.1-.31c0-.13.04-.24.11-.33s.18-.16.31-.21c.13-.05.3-.07.52-.07.23,0,.4.02.51.05.11.04.2.09.28.16.07.07.13.17.18.3l-.7.07c-.02-.06-.05-.11-.09-.14-.06-.04-.13-.06-.21-.06s-.14.01-.18.04c-.04.03-.06.07-.06.11,0,.05.02.08.07.11.05.02.15.05.32.07.25.03.43.07.55.12.12.05.21.12.28.21.06.09.1.19.1.3s-.03.22-.1.33c-.07.11-.17.19-.32.25Zm2.34,4.29c-.2.19-.47.29-.82.29-.31,0-.56-.08-.75-.24-.24-.2-.35-.45-.35-.77,0-.3.1-.54.3-.73.2-.19.47-.29.81-.29.39,0,.68.11.88.34.16.18.24.4.24.67,0,.3-.1.54-.3.73Zm-1.41-2v-.4h1.18v.4h-1.18Zm1.67-2.54c-.07.11-.17.19-.32.25-.15.06-.34.09-.59.09-.35,0-.61-.05-.76-.15-.15-.1-.25-.24-.29-.43l.74-.07c.03.09.07.15.13.19s.13.06.22.06c.1,0,.18-.02.23-.06.04-.03.06-.07.06-.12,0-.05-.03-.09-.08-.12-.04-.02-.15-.05-.32-.08-.26-.04-.44-.09-.54-.12-.1-.04-.18-.1-.25-.19s-.1-.19-.1-.31c0-.13.04-.24.11-.33.07-.09.18-.16.31-.21.13-.05.3-.07.52-.07.23,0,.4.02.51.05.11.04.2.09.28.16.07.07.13.17.18.3l-.7.07c-.02-.06-.05-.11-.09-.14-.06-.04-.13-.06-.21-.06s-.14.01-.18.04c-.04.03-.06.07-.06.11,0,.05.02.08.07.11.05.02.15.05.32.07.25.03.43.07.55.12.12.05.21.12.28.21.06.09.1.19.1.3s-.03.22-.1.33Zm.08-45.6s-.02-.07-.03-.12c-.1.09-.2.16-.29.2-.13.05-.29.08-.46.08-.23,0-.41-.05-.53-.16-.12-.11-.18-.24-.18-.4,0-.15.04-.27.13-.37s.25-.17.48-.21c.28-.06.46-.1.55-.12.08-.02.17-.05.26-.09,0-.09-.02-.16-.06-.19s-.1-.06-.2-.06c-.12,0-.21.02-.28.06-.05.03-.09.09-.12.17l-.72-.08c.03-.13.07-.22.12-.3s.12-.13.22-.19c.07-.04.16-.07.28-.09s.25-.03.39-.03c.22,0,.4.01.54.04.14.03.25.08.34.16.06.06.11.13.15.23.04.1.06.2.06.29v.86c0,.09,0,.16.02.22.01.05.04.12.08.2h-.7c-.03-.05-.05-.09-.06-.11Zm1.11,50.38h-.79v-.74h.79v.74Zm-.19-51.67v-.55h.28v-.36s.75-.38.75-.38v.74h.41v.55h-.41v.69c0,.08,0,.14.02.16.02.04.07.06.13.06.06,0,.13-.02.23-.05l.06.52c-.19.04-.36.06-.52.06-.19,0-.32-.02-.41-.07-.09-.05-.15-.12-.2-.22-.04-.1-.06-.26-.06-.47v-.69h-.28Zm.28,42.2c0-.15.04-.27.13-.36.09-.09.25-.17.48-.21.28-.06.46-.1.54-.12s.17-.05.26-.09c0-.09-.02-.16-.06-.19-.04-.04-.1-.05-.2-.05-.12,0-.21.02-.27.06-.05.03-.09.09-.11.17l-.71-.07c.03-.12.07-.22.12-.29.05-.07.12-.13.22-.19.07-.04.16-.07.28-.09.12-.02.25-.03.39-.03.22,0,.4.01.54.04.13.02.25.08.34.16.06.05.11.13.15.23.04.1.05.2.05.29v.86c0,.09,0,.16.02.21.01.05.04.12.08.2h-.7s-.05-.09-.05-.11c0-.03-.02-.07-.03-.12-.1.09-.19.16-.29.2-.13.05-.28.08-.46.08-.23,0-.41-.05-.53-.16-.12-.11-.18-.24-.18-.4Zm2.39,5.32c-.05.11-.12.2-.21.27s-.19.12-.33.15c-.13.03-.28.05-.45.05-.39,0-.66-.06-.8-.18-.15-.12-.22-.27-.22-.47,0-.02,0-.06,0-.1l.72.08c.02.07.05.11.08.14.05.04.12.06.21.06.11,0,.19-.03.24-.09.05-.06.08-.16.08-.3v-.29c-.07.09-.15.15-.22.19-.11.06-.24.09-.37.09-.26,0-.47-.11-.63-.34-.11-.16-.17-.37-.17-.64,0-.3.07-.53.22-.69s.34-.24.57-.24c.15,0,.28.03.37.08s.19.14.27.25v-.29h.69v1.91c0,.12-.02.24-.08.35Zm-.04-47.42c-.06.07-.08.19-.08.37v.94h-.75v-2.7h.75v.99c.1-.11.2-.18.3-.23s.22-.07.36-.07c.2,0,.36.06.48.19s.18.31.18.57v1.24h-.75v-1.07c0-.12-.02-.21-.07-.26-.05-.05-.11-.08-.19-.08-.09,0-.16.03-.22.1Zm2.4,46.85c-.2.19-.47.29-.82.29-.31,0-.56-.08-.75-.24-.24-.2-.35-.45-.35-.77,0-.3.1-.54.3-.73.2-.19.47-.29.81-.29.39,0,.68.11.88.34.16.18.24.4.24.67,0,.3-.1.54-.3.73Zm.33-5.54c-.05-.07-.11-.1-.19-.1-.09,0-.16.03-.21.09-.05.06-.08.16-.08.3v1h-.74v-1.07c0-.09,0-.14-.01-.17-.02-.05-.04-.09-.08-.12-.04-.03-.08-.04-.14-.04-.09,0-.16.03-.21.1-.05.06-.08.17-.08.32v.99h-.74v-1.94h.69v.28c.1-.12.2-.2.3-.25.1-.05.22-.07.37-.07.15,0,.28.03.37.08.09.05.16.14.22.24.12-.13.22-.21.32-.26.1-.05.21-.07.35-.07.21,0,.37.06.49.18.12.12.17.32.17.58v1.22h-.74v-1.1c0-.09-.02-.15-.05-.2Zm1.14,5.82c-.18,0-.32-.02-.41-.07s-.15-.12-.19-.22c-.04-.1-.06-.25-.06-.47v-.68h-.27v-.54h.27v-.36l.74-.38v.74h.41v.54h-.41v.69c0,.08,0,.14.02.16.02.04.07.06.13.06.05,0,.13-.02.23-.05l.05.51c-.18.04-.35.06-.51.06Zm1.12-4.48c-.31,0-.56-.08-.75-.24-.24-.2-.35-.45-.35-.77,0-.3.1-.54.3-.73.2-.19.47-.29.81-.29.39,0,.68.11.88.34.16.18.24.4.24.67,0,.3-.1.54-.3.73-.2.19-.47.29-.82.29Zm1.79,4.48c-.18,0-.32-.02-.41-.07-.09-.05-.15-.12-.19-.22-.04-.1-.06-.25-.06-.47v-.68h-.27v-.54h.27v-.36l.74-.38v.74h.41v.54h-.41v.69c0,.08,0,.14.02.16.02.04.07.06.13.06.05,0,.13-.02.23-.05l.05.51c-.18.04-.35.06-.51.06Zm.1-4.59c-.15-.07-.27-.19-.37-.34-.1-.16-.14-.34-.14-.56,0-.3.1-.55.29-.73s.46-.28.8-.28c.28,0,.5.04.66.13.16.08.28.21.37.36s.13.37.13.62v.08h-1.49c.01.12.05.21.1.27.07.08.17.13.28.13.07,0,.14-.02.21-.05.04-.02.08-.06.13-.12l.73.07c-.11.19-.25.33-.4.42-.16.08-.38.13-.68.13-.26,0-.46-.04-.61-.11Zm2.18,4.55s-.05-.09-.05-.11c0-.03-.02-.07-.03-.12-.1.09-.19.16-.29.2-.13.05-.28.08-.46.08-.23,0-.41-.05-.53-.16-.12-.11-.18-.24-.18-.4,0-.15.04-.27.13-.36s.25-.17.48-.21c.28-.06.46-.09.54-.12.08-.02.17-.05.26-.09,0-.09-.02-.15-.06-.19-.04-.04-.1-.05-.2-.05-.12,0-.21.02-.27.06-.05.03-.09.09-.11.17l-.71-.07c.03-.12.07-.22.12-.29.05-.07.12-.13.22-.19.07-.04.16-.07.28-.09.12-.02.25-.03.39-.03.22,0,.4.01.54.04.13.02.25.08.34.16.06.05.11.13.15.23.04.1.05.2.05.29v.85c0,.09,0,.16.02.21.01.05.04.12.08.2h-.7Zm1.82,0h-.74v-2.67h.74v2.67Zm.07-4.92c-.07.16-.17.28-.29.36-.12.08-.26.12-.41.12-.13,0-.25-.03-.36-.08-.08-.04-.17-.13-.27-.25v.29h-.69v-2.67h.75v.93c.07-.08.16-.14.25-.18.09-.04.2-.06.31-.06.24,0,.43.08.59.25.15.17.23.41.23.73,0,.21-.04.4-.11.56Zm-.34-36.41c-.15-.07-.27-.19-.37-.35-.1-.16-.15-.35-.15-.56,0-.31.1-.55.29-.74.2-.19.47-.28.81-.28.28,0,.5.04.66.13.16.08.29.21.37.37.08.16.13.37.13.63v.08h-1.5c.01.12.05.21.1.27.07.08.17.13.28.13.07,0,.14-.02.21-.06.04-.02.08-.06.13-.12l.74.07c-.11.2-.25.34-.41.42-.16.09-.39.13-.69.13-.26,0-.46-.04-.61-.11Zm2.9,40.55h-1.49c.01.12.05.21.1.27.07.08.17.13.28.13.07,0,.14-.02.21-.05.04-.02.08-.06.13-.12l.73.07c-.11.19-.25.33-.4.42-.16.08-.38.13-.68.13-.26,0-.46-.04-.61-.11-.15-.07-.27-.19-.37-.34s-.14-.34-.14-.56c0-.3.1-.55.29-.73.19-.19.46-.28.8-.28.28,0,.5.04.66.13.16.08.28.21.37.36s.13.37.13.62v.08Zm-.65-3.7s-.05-.09-.05-.11-.02-.07-.03-.12c-.1.09-.19.16-.29.2-.13.05-.28.08-.46.08-.23,0-.41-.05-.53-.16-.12-.11-.18-.24-.18-.4,0-.15.04-.27.13-.36.09-.09.25-.17.48-.21.28-.06.46-.1.54-.12.08-.02.17-.05.26-.09,0-.09-.02-.16-.06-.19s-.1-.05-.2-.05c-.12,0-.21.02-.27.06-.05.03-.09.09-.11.17l-.71-.07c.03-.12.07-.22.12-.29.05-.07.12-.13.22-.19.07-.04.16-.07.28-.09.12-.02.25-.03.39-.03.22,0,.4.01.54.04.13.02.25.08.34.16.06.05.11.13.15.23s.05.2.05.29v.86c0,.09,0,.16.02.21.01.05.04.12.08.2h-.7Zm.91-43.26v.55h-.36v1.41s-.75,0-.75,0v-1.41h-.28v-.55h.28v-.09c0-.08,0-.17.03-.26.02-.1.05-.17.1-.23.05-.06.11-.11.2-.15.09-.04.21-.06.37-.06.13,0,.32.02.57.05l-.08.45c-.09-.01-.16-.02-.22-.02-.07,0-.12.01-.15.03-.03.02-.05.06-.06.11,0,.03,0,.08,0,.17h.36Zm2.13,47.74h-.75v-1.06c0-.12-.02-.21-.07-.26-.04-.05-.11-.08-.19-.08-.09,0-.16.03-.22.1s-.08.19-.08.37v.93h-.74v-1.94h.69v.32c.1-.13.21-.22.31-.28.11-.06.23-.08.39-.08.21,0,.37.06.48.18.12.12.17.31.17.57v1.23Zm-1.99-4.48v-.74h.79v.74h-.79Zm1.51-36.78c-.03-.05-.05-.09-.06-.11,0-.03-.02-.07-.03-.12-.1.09-.2.16-.29.2-.13.05-.29.08-.46.08-.23,0-.41-.05-.53-.16s-.18-.24-.18-.4c0-.15.04-.27.13-.37.09-.1.25-.17.48-.21.28-.06.46-.1.55-.12.08-.02.17-.05.26-.09,0-.09-.02-.16-.06-.19-.04-.04-.1-.06-.2-.06-.12,0-.21.02-.28.06-.05.03-.09.09-.12.17l-.72-.08c.03-.13.07-.22.12-.3s.12-.13.22-.19c.07-.04.16-.07.28-.09.12-.02.25-.03.39-.03.22,0,.4.01.54.04.14.03.25.08.34.16.06.06.11.13.15.23.04.1.06.2.06.29v.86c0,.09,0,.16.02.22.01.05.04.12.08.2h-.7Zm1.74,41.31c-.18,0-.32-.02-.41-.07s-.15-.12-.19-.22c-.04-.1-.06-.25-.06-.47v-.68h-.27v-.54h.27v-.36l.74-.38v.74h.41v.54h-.41v.69c0,.08,0,.14.02.16.02.04.07.06.13.06.05,0,.13-.02.23-.05l.05.51c-.18.04-.35.06-.51.06Zm1.64-.04h-.79v-.74h.79v.74Z"/>
  <path class="cls-2" d="m22.99,56.15c.07.01.14.03.2.04l-.11-.39-.1.35Z"/>
  <path class="cls-2" d="m48.31,2.11c.07.08.16.13.27.13s.2-.04.27-.12c.07-.08.1-.21.1-.4,0-.07,0-.13-.02-.19-.23,0-.46,0-.7,0-.01.06-.02.12-.02.2,0,.17.04.3.11.39Z"/>
  <path class="cls-2" d="m41.13,1.67l-.03-.09c-.18,0-.36,0-.54.01l-.03.08h.59Z"/>
  <path class="cls-2" d="m45.67,56.02c-.11,0-.2.04-.27.12s-.11.21-.11.38.03.3.1.38c.07.08.16.12.26.12s.19-.04.26-.12c.07-.08.1-.21.1-.39,0-.17-.03-.29-.1-.37s-.15-.12-.26-.12Z"/>
  <path class="cls-2" d="m11.36,52.43c.03-.06.04-.13.04-.23v-.12c-.1.04-.21.07-.32.1-.15.04-.25.08-.29.12-.04.04-.06.09-.06.14,0,.01.01.02.01.03.1.05.21.09.32.14.05,0,.1-.01.14-.04.07-.04.12-.09.15-.15Z"/>
  <path class="cls-2" d="m57.03,2.33c.08,0,.16-.02.23-.06.07-.04.12-.09.15-.15.03-.06.05-.13.05-.23v-.12c-.1.04-.21.07-.32.1-.15.04-.25.08-.29.12-.04.04-.06.09-.06.14,0,.06.02.11.06.14.04.04.1.06.18.06Z"/>
  <path class="cls-2" d="m60.96,2.24c.1,0,.18-.03.25-.08.06-.05.11-.12.14-.22-.26-.02-.52-.03-.78-.05.02.09.04.16.09.22.08.08.17.12.29.12Z"/>
  <path class="cls-2" d="m63.13,2.27s.1.06.18.06.16-.02.23-.06c.07-.04.12-.09.15-.15,0,0,0-.02,0-.02-.2-.01-.4-.03-.6-.04-.01.02-.03.05-.03.07,0,.06.02.11.06.14Z"/>
  <path class="cls-2" d="m30.15,57.27s.02,0,.03,0c0,0,0-.01,0-.02,0,0-.02.01-.03.02Z"/>
  <path class="cls-2" d="m26.11,55.94c-.12,0-.21.05-.28.14-.04.06-.07.15-.09.26h.73c-.01-.14-.05-.25-.12-.31-.06-.06-.14-.09-.25-.09Z"/>
  <path class="cls-2" d="m29.53,56.78s-.06.09-.06.14c0,.06.02.11.06.14.04.04.1.06.18.06s.16-.02.23-.06.12-.09.15-.15c.03-.06.04-.13.04-.23v-.12c-.1.04-.21.07-.32.1-.15.04-.25.08-.29.12Z"/>
  <path class="cls-2" d="m34.06,55.94c-.12,0-.21.05-.28.14-.04.06-.07.15-.09.26h.73c-.01-.14-.05-.25-.12-.31-.06-.06-.14-.09-.25-.09Z"/>
  <polygon class="cls-2" points="5.25 47.51 5.84 47.51 5.54 46.54 5.25 47.51"/>
  <path class="cls-2" d="m49.4,51.56c-.09,0-.17.03-.23.1s-.08.18-.08.34c0,.14.03.24.09.31.06.07.14.1.24.1s.17-.03.23-.1c.06-.07.09-.18.09-.32s-.03-.25-.1-.32c-.07-.07-.15-.11-.24-.11Z"/>
  <path class="cls-2" d="m40.43,5.76c-.06-.06-.15-.09-.25-.09-.12,0-.21.05-.29.14-.05.06-.07.15-.09.26h.74c-.01-.14-.05-.25-.12-.31Z"/>
  <path class="cls-2" d="m40.86,52.3s-.06.09-.06.14c0,.06.02.11.06.14.04.04.1.06.18.06s.16-.02.23-.06.12-.09.15-.15.04-.13.04-.23v-.12c-.1.04-.21.07-.32.1-.15.04-.25.08-.29.12Z"/>
  <path class="cls-2" d="m38.61,51.58c-.09,0-.16.04-.22.11-.06.07-.09.19-.09.36,0,.16.03.27.09.35.06.07.13.11.22.11.09,0,.17-.04.24-.11.06-.07.09-.2.09-.36,0-.15-.03-.27-.1-.34-.06-.07-.15-.11-.24-.11Z"/>
  <path class="cls-2" d="m51.96,51.54c-.11,0-.2.04-.27.12-.07.08-.11.21-.11.38s.03.3.1.38c.07.08.16.12.26.12s.19-.04.26-.12c.07-.08.1-.21.1-.39,0-.17-.03-.29-.1-.37s-.15-.12-.26-.12Z"/>
  <path class="cls-2" d="m21.42,47.82s-.06.09-.06.14c0,.06.02.11.06.14s.1.06.18.06.16-.02.23-.06c.07-.04.12-.09.15-.15.03-.06.04-.13.04-.23v-.12c-.1.04-.21.07-.32.1-.15.04-.25.08-.29.12Z"/>
  <path class="cls-2" d="m17.7,51.46c-.12,0-.21.05-.28.14-.04.06-.07.15-.09.26h.73c-.01-.14-.05-.25-.12-.31-.06-.06-.14-.09-.25-.09Z"/>
  <path class="cls-2" d="m13.23,47.05c-.11,0-.2.04-.27.12s-.11.21-.11.38.03.3.1.38.16.12.26.12.19-.04.26-.12.1-.21.1-.39c0-.17-.03-.29-.1-.37-.07-.08-.15-.12-.26-.12Z"/>
  <path class="cls-2" d="m35.41,47.08c-.06-.06-.14-.09-.25-.09-.12,0-.21.05-.28.14-.04.06-.07.15-.09.26h.73c-.01-.14-.05-.25-.12-.31Z"/>
  <path class="cls-2" d="m46.14,6.51s-.06.09-.06.14c0,.06.02.11.06.14.04.04.1.06.18.06s.16-.02.23-.06c.07-.04.12-.09.15-.15s.05-.13.05-.23v-.12c-.1.04-.21.07-.32.1-.15.04-.25.08-.29.12Z"/>
  <path class="cls-2" d="m49.01,48.16c.08,0,.16-.02.23-.06.07-.04.12-.09.15-.15.03-.06.04-.13.04-.23v-.12c-.1.04-.21.07-.32.1-.15.04-.25.08-.29.12-.04.04-.06.09-.06.14,0,.06.02.11.06.14.04.04.1.06.18.06Z"/>
  <path class="cls-2" d="m53.34,5.76c-.06-.06-.15-.09-.25-.09-.12,0-.21.05-.29.14-.05.06-.07.15-.09.26h.74c-.01-.14-.05-.25-.12-.31Z"/>
  <path class="cls-2" d="m60.37,47.1c-.1,0-.18.04-.25.11-.06.07-.1.19-.1.34,0,.17.03.29.09.36.06.07.14.11.24.11.09,0,.16-.04.22-.11.06-.07.09-.2.09-.37,0-.15-.03-.27-.09-.34-.06-.07-.13-.11-.21-.11Z"/>
  <path class="cls-2" d="m58.11,47.08c-.06-.06-.14-.09-.25-.09-.12,0-.21.05-.28.14-.04.06-.07.15-.09.26h.73c-.01-.14-.05-.25-.12-.31Z"/>
  <path class="cls-2" d="m45.41,46.98c-.12,0-.21.05-.28.14-.04.06-.07.15-.09.26h.73c-.01-.14-.05-.25-.12-.31-.06-.06-.14-.09-.25-.09Z"/>
  <path class="cls-2" d="m27.64,47.82s-.06.09-.06.14c0,.06.02.11.06.14s.1.06.18.06.16-.02.23-.06c.07-.04.12-.09.15-.15.03-.06.04-.13.04-.23v-.12c-.1.04-.21.07-.32.1-.15.04-.25.08-.29.12Z"/>
  <path class="cls-2" d="m58.7,52.3s-.06.09-.06.14c0,.06.02.11.06.14.04.04.1.06.18.06s.16-.02.23-.06.12-.09.15-.15.04-.13.04-.23v-.12c-.1.04-.21.07-.32.1-.15.04-.25.08-.29.12Z"/>
  <path class="cls-2" d="m43.89,6.63c.09,0,.17-.04.23-.11.06-.07.09-.18.09-.32s-.03-.25-.1-.33c-.07-.08-.15-.11-.24-.11s-.17.03-.23.1-.09.18-.09.34c0,.14.03.25.09.31.06.07.14.1.24.1Z"/>
  <path class="cls-2" d="m55.36,47.05c-.11,0-.2.04-.27.12s-.11.21-.11.38.03.3.1.38.16.12.26.12.19-.04.26-.12.1-.21.1-.39c0-.17-.03-.29-.1-.37-.07-.08-.15-.12-.26-.12Z"/>
  <path class="cls-1" d="m40.22,2.7l.13-.45h.95l.13.45h.87l-.43-1.14c-.26,0-.52.01-.78.02l.03.09h-.59l.03-.08c-.26,0-.52.01-.78.02l-.41,1.09h.85Z"/>
  <path class="cls-1" d="m43.29,2.7v-.51l.28-.28.4.78h.84l-.68-1.17c-.54,0-1.07.01-1.6.02v1.15h.77Z"/>
  <path class="cls-1" d="m45.81,2.7v-1.18c-.25,0-.5,0-.75,0v1.17h.75Z"/>
  <path class="cls-1" d="m46.27,2.83s-.08.07-.15.07c-.03,0-.07,0-.13-.02l-.11.54c.21.04.39.06.54.06.18,0,.31-.03.4-.09.09-.06.16-.14.19-.24.03-.1.05-.27.05-.51v-1.12c-.2,0-.39,0-.59,0-.05,0-.1,0-.16,0v1.05c0,.13-.02.22-.05.26Z"/>
  <path class="cls-1" d="m47.81,2.5c.19.16.45.24.76.24.35,0,.63-.1.83-.29.2-.19.3-.44.3-.74,0-.06-.02-.12-.03-.18-.25,0-.5,0-.75,0,.01.06.02.11.02.19,0,.18-.03.31-.1.4-.07.08-.16.12-.27.12s-.2-.04-.27-.13c-.07-.08-.11-.21-.11-.39,0-.08,0-.14.02-.2-.24,0-.49,0-.74,0-.01.07-.04.13-.04.2,0,.32.12.58.36.78Z"/>
  <path class="cls-1" d="m52.09,2.7v-1.12c-.25,0-.5-.01-.75-.01v1.13h.75Z"/>
  <path class="cls-1" d="m52.88,1.82c.1.04.28.08.54.13.17.03.28.06.32.08.06.03.08.07.08.12,0,.05-.02.09-.06.12-.06.04-.13.06-.23.06-.09,0-.17-.02-.22-.06-.06-.04-.1-.1-.13-.19l-.74.07c.04.19.14.33.29.43.15.1.41.15.76.15.25,0,.45-.03.6-.09.15-.06.25-.15.32-.25.07-.11.1-.22.1-.33,0-.11-.03-.21-.1-.31-.04-.05-.1-.08-.16-.12-.55-.02-1.09-.03-1.64-.04,0,.01,0,.02.01.04.07.09.15.16.26.2Z"/>
  <path class="cls-1" d="m56.04,2.18c0,.16.06.29.18.4s.3.16.53.16c.18,0,.33-.03.46-.08.1-.04.19-.11.29-.2,0,.06.02.1.03.12s.03.06.06.11h.7c-.04-.08-.06-.15-.08-.2-.01-.05-.02-.12-.02-.22v-.5c-.61-.03-1.23-.05-1.86-.08-.07.03-.13.07-.17.11-.09.1-.13.22-.13.37Zm.81-.19s.14-.08.29-.12c.11-.03.22-.06.32-.1v.12c0,.09-.02.17-.05.23-.03.06-.08.11-.15.15-.07.04-.15.06-.23.06s-.14-.02-.18-.06c-.04-.04-.06-.09-.06-.14,0-.05.02-.1.06-.14Z"/>
  <path class="cls-1" d="m60.13,2.5c.1.09.22.15.36.19.14.04.31.06.52.06s.39-.03.53-.09c.14-.06.25-.14.34-.25.09-.11.15-.24.19-.39l-.53-.06c-.06,0-.12,0-.18-.01-.03.1-.08.17-.14.22-.07.05-.15.08-.25.08-.12,0-.21-.04-.29-.12-.05-.05-.08-.13-.09-.22-.25-.01-.5-.03-.75-.04.01.13.03.25.07.34.06.12.13.22.23.3Z"/>
  <path class="cls-1" d="m62.5,2.58c.12.11.3.16.53.16.18,0,.33-.03.46-.08.1-.04.19-.11.29-.2,0,.06.02.1.03.12,0,.03.03.06.06.11h.7c-.04-.08-.06-.15-.08-.2s-.02-.12-.02-.22v-.13c-.25-.02-.52-.04-.77-.05,0,0,0,.02,0,.02-.03.06-.08.11-.15.15-.07.04-.15.06-.23.06s-.14-.02-.18-.06-.06-.09-.06-.14c0-.03.02-.05.03-.07-.25-.02-.5-.03-.76-.05-.02.06-.03.11-.03.18,0,.16.06.29.18.4Z"/>
  <path class="cls-1" d="m65.68,2.7v-.46c-.25-.02-.5-.04-.75-.06v.52h.75Z"/>
  <path class="cls-1" d="m67.51,2.7v-.3c-.25-.02-.5-.05-.75-.07v.37h.75Z"/>
  <path class="cls-1" d="m69.2,2.7v-.14c-.25-.02-.5-.05-.75-.07v.21h.75Z"/>
  <path class="cls-1" d="m70.84,2.73c-.22-.02-.43-.05-.65-.07.14.05.31.08.52.08.05,0,.08,0,.13-.01Z"/>
  <polygon class="cls-1" points="36.65 7.22 37.12 5.52 37.6 7.22 38.42 7.22 39.01 4.52 38.22 4.52 37.94 6.03 37.52 4.52 36.73 4.52 36.31 6.03 36.03 4.52 35.24 4.52 35.84 7.22 36.65 7.22"/>
  <path class="cls-1" d="m39.56,7.15c.15.07.35.11.61.11.3,0,.53-.04.69-.13.16-.09.3-.23.41-.42l-.74-.07c-.05.06-.09.1-.13.12-.07.04-.14.06-.21.06-.12,0-.21-.04-.28-.13-.05-.06-.08-.15-.1-.27h1.5v-.08c0-.26-.04-.47-.13-.63-.08-.16-.21-.28-.37-.37-.16-.08-.38-.13-.66-.13-.34,0-.61.09-.81.28-.2.19-.29.44-.29.74,0,.21.05.4.15.56.1.16.22.27.37.35Zm.33-1.35c.07-.09.17-.14.29-.14.1,0,.19.03.25.09.06.06.1.17.12.31h-.74c.01-.12.04-.2.09-.26Z"/>
  <path class="cls-1" d="m43.62,7.14c.13,0,.26-.03.37-.09.07-.04.15-.1.22-.19v.3c0,.14-.03.24-.08.3s-.13.09-.24.09c-.08,0-.15-.02-.21-.06-.04-.03-.07-.07-.08-.14l-.73-.08s0,.07,0,.1c0,.2.07.35.22.47.15.12.42.18.81.18.17,0,.32-.02.46-.05.13-.03.24-.08.33-.15.09-.07.16-.16.21-.27.05-.11.08-.23.08-.35v-.09s0-1.85,0-1.85h-.7v.29c-.09-.12-.18-.2-.28-.26-.1-.05-.22-.08-.38-.08-.24,0-.43.08-.58.24s-.22.39-.22.7c0,.27.06.48.17.64.16.23.37.34.63.34Zm.03-1.27c.06-.07.13-.1.23-.1s.18.04.24.11c.07.08.1.18.1.33s-.03.25-.09.32c-.06.07-.14.11-.23.11-.1,0-.18-.03-.24-.1-.06-.07-.09-.17-.09-.31,0-.16.03-.28.09-.34Z"/>
  <path class="cls-1" d="m47.5,7.02c-.01-.05-.02-.12-.02-.22v-.86c0-.09-.02-.19-.06-.29-.04-.1-.09-.18-.15-.23-.09-.08-.2-.13-.34-.16-.14-.03-.32-.04-.54-.04-.14,0-.27.01-.39.03s-.21.05-.28.09c-.1.05-.17.11-.22.19s-.09.17-.12.3l.72.08c.03-.08.07-.14.12-.17.06-.04.15-.06.28-.06.1,0,.16.02.2.06s.06.1.06.19c-.09.04-.18.07-.26.09-.08.02-.27.06-.55.12-.23.05-.39.12-.48.21s-.13.22-.13.37c0,.16.06.29.18.4.12.11.3.16.53.16.18,0,.33-.03.46-.08.1-.04.19-.11.29-.2,0,.06.02.1.03.12s.03.06.06.11h.7c-.04-.08-.06-.15-.08-.2Zm-.75-.61c0,.09-.02.17-.05.23s-.08.11-.15.15c-.07.04-.15.06-.23.06s-.14-.02-.18-.06c-.04-.04-.06-.09-.06-.14,0-.05.02-.1.06-.14.04-.04.14-.08.29-.12.11-.03.22-.06.32-.1v.12Z"/>
  <path class="cls-1" d="m48.08,6.97c.04.1.11.17.2.22.09.05.23.07.41.07.16,0,.33-.02.52-.06l-.06-.52c-.1.03-.18.05-.23.05-.06,0-.1-.02-.13-.06-.02-.03-.02-.08-.02-.16v-.69h.41v-.55h-.41v-.74l-.75.38v.36s-.28,0-.28,0v.55h.28v.69c0,.22.02.38.06.47Z"/>
  <path class="cls-1" d="m50.85,6.14v1.07h.75v-1.24c0-.26-.06-.45-.18-.57s-.28-.19-.48-.19c-.14,0-.26.02-.36.07s-.2.12-.3.23v-.99h-.75v2.7h.75v-.94c0-.18.03-.3.08-.37.06-.07.13-.1.22-.1.08,0,.15.03.19.08.05.05.07.14.07.26Z"/>
  <path class="cls-1" d="m52.47,7.15c.15.07.35.11.61.11.3,0,.53-.04.69-.13.16-.09.3-.23.41-.42l-.74-.07c-.05.06-.09.1-.13.12-.07.04-.14.06-.21.06-.12,0-.21-.04-.28-.13-.05-.06-.08-.15-.1-.27h1.5v-.08c0-.26-.04-.47-.13-.63-.08-.16-.21-.28-.37-.37-.16-.08-.38-.13-.66-.13-.34,0-.61.09-.81.28-.2.19-.29.44-.29.74,0,.21.05.4.15.56.1.16.22.27.37.35Zm.33-1.35c.07-.09.17-.14.29-.14.1,0,.19.03.25.09.06.06.1.17.12.31h-.74c.01-.12.04-.2.09-.26Z"/>
  <path class="cls-1" d="m55.32,6.56c0-.31.04-.53.12-.64.05-.08.13-.12.23-.12.05,0,.12.02.21.06l.23-.53c-.13-.07-.25-.1-.36-.1s-.19.03-.27.08c-.07.05-.14.15-.21.29v-.32h-.7v1.95h.75v-.66Z"/>
  <path class="cls-1" d="m58.25,6.22c0-.15.03-.26.08-.32.06-.07.13-.1.21-.1.05,0,.1.02.14.05.04.03.07.07.08.12,0,.03.01.09.01.17v1.08h.75v-1.01c0-.14.03-.24.08-.31s.12-.1.21-.1c.07,0,.14.03.19.1.03.04.05.11.05.2v1.11h.75v-1.23c0-.27-.06-.46-.18-.58-.12-.12-.28-.19-.49-.19-.14,0-.26.02-.36.07-.1.05-.2.13-.32.26-.06-.11-.13-.19-.22-.25-.09-.06-.21-.08-.37-.08-.15,0-.27.03-.37.08-.1.05-.2.14-.3.25v-.29h-.7v1.95h.75v-1Z"/>
  <path class="cls-1" d="m61.41,6.5c0,.22.02.38.06.47.04.1.11.17.2.22s.23.07.41.07c.16,0,.33-.02.52-.06l-.06-.52c-.1.03-.18.05-.23.05-.06,0-.1-.02-.13-.06-.02-.03-.02-.08-.02-.16v-.69h.41v-.55h-.41v-.74l-.75.38v.36h-.28v.55h.28v.69Z"/>
  <path class="cls-1" d="m63.84,4.99s.08-.03.15-.03c.06,0,.13,0,.22.02l.08-.45c-.25-.03-.44-.05-.57-.05-.16,0-.29.02-.37.06-.09.04-.15.09-.2.15-.05.06-.08.14-.1.23-.02.1-.03.18-.03.26v.09h-.28v.55h.28v1.41h.75v-1.41s.36,0,.36,0v-.55h-.36c0-.09,0-.14,0-.17.01-.05.03-.08.06-.11Z"/>
  <polygon class="cls-1" points="65.2 6.71 65.48 6.44 65.88 7.22 66.72 7.22 65.98 5.95 66.68 5.26 65.76 5.26 65.2 5.91 65.2 4.52 64.44 4.52 64.44 7.22 65.2 7.22 65.2 6.71"/>
  <path class="cls-1" d="m68.91,6.93c.1.12.19.2.27.25.11.06.23.08.36.08.15,0,.29-.04.42-.12.13-.08.22-.2.3-.36.07-.16.11-.35.11-.56,0-.32-.08-.57-.23-.74s-.35-.26-.59-.26c-.12,0-.22.02-.32.06-.1.04-.18.1-.25.18v-.93h-.76v2.7h.7v-.29Zm.15-1.04c.06-.08.15-.11.25-.11.08,0,.16.04.22.11.06.07.09.19.09.34,0,.18-.03.3-.09.37-.06.07-.14.11-.23.11-.1,0-.18-.04-.24-.11-.06-.08-.09-.2-.09-.37,0-.15.03-.27.1-.34Z"/>
  <path class="cls-1" d="m71.24,6.12c-.23.05-.39.12-.48.21s-.13.22-.13.37c0,.16.06.29.18.4.12.11.3.16.53.16.18,0,.33-.03.46-.08.1-.04.19-.11.29-.2,0,.06.02.1.03.12s.03.06.06.11h.7c-.04-.08-.06-.15-.08-.2-.01-.05-.02-.12-.02-.22v-.86c0-.09-.02-.19-.06-.29-.04-.1-.09-.18-.15-.23-.09-.08-.2-.13-.34-.16-.14-.03-.32-.04-.54-.04-.14,0-.27.01-.39.03s-.21.05-.28.09c-.1.05-.17.11-.22.19s-.09.17-.12.3l.72.08c.03-.08.07-.14.12-.17.06-.04.15-.06.28-.06.1,0,.16.02.2.06s.06.1.06.19c-.09.04-.18.07-.26.09-.08.02-.27.06-.55.12Zm.81.29c0,.09-.02.17-.05.23s-.08.11-.15.15c-.07.04-.15.06-.23.06s-.14-.02-.18-.06c-.04-.04-.06-.09-.06-.14,0-.05.02-.1.06-.14.04-.04.14-.08.29-.12.11-.03.22-.06.32-.1v.12Z"/>
  <path class="cls-1" d="m73.96,7.26c.13,0,.25-.03.36-.08.08-.04.17-.13.27-.25v.29h.7v-2.7h-.76v.93c-.07-.08-.16-.14-.25-.18-.1-.04-.2-.06-.32-.06-.24,0-.44.09-.59.26-.16.17-.23.42-.23.74,0,.29.07.54.21.74.14.2.34.3.61.3Zm.02-1.37c.06-.07.13-.11.22-.11.1,0,.18.04.25.11s.1.19.1.34c0,.17-.03.29-.1.37s-.14.11-.24.11c-.09,0-.16-.04-.23-.11-.06-.07-.09-.19-.09-.35,0-.17.03-.29.09-.36Z"/>
  <path class="cls-1" d="m76.27,6.12c-.23.05-.39.12-.48.21-.09.1-.13.22-.13.37,0,.16.06.29.18.4.12.11.3.16.53.16.18,0,.33-.03.46-.08.1-.04.19-.11.29-.2,0,.06.02.1.03.12,0,.03.03.06.06.11h.7c-.04-.08-.06-.15-.08-.2-.01-.05-.02-.12-.02-.22v-.86c0-.09-.02-.19-.06-.29-.04-.1-.09-.18-.15-.23-.09-.08-.2-.13-.34-.16-.14-.03-.32-.04-.54-.04-.14,0-.27.01-.39.03s-.21.05-.28.09c-.1.05-.17.11-.22.19s-.09.17-.12.3l.72.08c.03-.08.07-.14.12-.17.06-.04.15-.06.28-.06.1,0,.16.02.2.06s.06.1.06.19c-.09.04-.18.07-.26.09s-.27.06-.55.12Zm.81.29c0,.09-.02.17-.05.23s-.08.11-.15.15c-.07.04-.15.06-.23.06s-.14-.02-.18-.06-.06-.09-.06-.14c0-.05.02-.1.06-.14.04-.04.14-.08.29-.12.11-.03.22-.06.32-.1v.12Z"/>
  <path class="cls-1" d="m79.22,6.85c-.09,0-.17-.02-.22-.06-.06-.04-.1-.1-.13-.19l-.74.07c.04.19.14.33.29.43s.41.15.76.15c.25,0,.45-.03.6-.09.15-.06.25-.15.32-.25.07-.11.1-.22.1-.33s-.03-.21-.1-.31c-.06-.09-.16-.16-.28-.21-.12-.05-.31-.09-.56-.12-.16-.02-.27-.04-.32-.07-.05-.02-.07-.06-.07-.11,0-.04.02-.08.06-.11s.1-.05.18-.05.15.02.21.06c.04.03.07.08.09.14l.71-.07c-.05-.13-.11-.23-.18-.3s-.17-.13-.28-.17c-.11-.04-.28-.05-.52-.05-.22,0-.4.02-.53.07-.13.05-.23.12-.31.21-.07.09-.11.2-.11.33,0,.12.03.22.1.31.07.09.15.16.26.2.1.04.28.08.54.13.17.03.28.06.32.08.06.03.08.07.08.12,0,.05-.02.09-.06.12-.06.04-.13.06-.23.06Z"/>
  <path class="cls-1" d="m81.52,6.85c-.09,0-.17-.02-.22-.06-.06-.04-.1-.1-.13-.19l-.74.07c.04.19.14.33.29.43.15.1.41.15.76.15.25,0,.45-.03.6-.09.15-.06.25-.15.32-.25.07-.11.1-.22.1-.33s-.03-.21-.1-.31c-.06-.09-.16-.16-.28-.21-.12-.05-.31-.09-.56-.12-.16-.02-.27-.04-.32-.07-.05-.02-.07-.06-.07-.11,0-.04.02-.08.06-.11s.1-.05.18-.05.15.02.21.06c.04.03.07.08.09.14l.71-.07c-.05-.13-.11-.23-.18-.3-.07-.07-.17-.13-.28-.17-.11-.04-.28-.05-.52-.05-.22,0-.4.02-.53.07-.13.05-.23.12-.31.21s-.11.2-.11.33c0,.12.03.22.1.31.07.09.15.16.26.2.1.04.28.08.54.13.17.03.28.06.32.08.06.03.08.07.08.12,0,.05-.02.09-.06.12-.06.04-.13.06-.23.06Z"/>
  <path class="cls-1" d="m84.03,6.16c0,.27.06.48.17.64.16.23.37.34.63.34.13,0,.26-.03.37-.09.07-.04.15-.1.22-.19v.3c0,.14-.03.24-.08.3s-.13.09-.24.09c-.08,0-.15-.02-.21-.06-.04-.03-.07-.07-.08-.14l-.73-.08s0,.07,0,.1c0,.2.07.35.22.47.15.12.42.18.81.18.17,0,.32-.02.46-.05.13-.03.24-.08.33-.15.09-.07.16-.16.21-.27s.08-.23.08-.35v-.09s0-1.14,0-1.14c-.48-.23-1.05-.46-1.7-.67-.09.04-.17.09-.23.16-.15.16-.22.39-.22.7Zm.83-.29c.06-.07.13-.1.23-.1s.18.04.24.11.1.18.1.33-.03.25-.09.32c-.06.07-.14.11-.23.11-.1,0-.18-.03-.24-.1-.06-.07-.09-.17-.09-.31,0-.16.03-.28.09-.34Z"/>
  <path class="cls-1" d="m86.9,7.02c.19.16.45.24.76.24.1,0,.18-.03.27-.04-.27-.36-.73-.72-1.37-1.06,0,.03-.02.05-.02.09,0,.32.12.58.36.78Z"/>
  <polygon class="cls-1" points="58.07 11.74 58.54 10.04 59.01 11.74 59.83 11.74 60.42 9.04 59.63 9.04 59.35 10.55 58.93 9.04 58.14 9.04 57.73 10.55 57.44 9.04 56.65 9.04 57.25 11.74 58.07 11.74"/>
  <path class="cls-1" d="m62.67,11.23l-.74-.07c-.05.06-.09.1-.13.12-.07.04-.14.06-.21.06-.12,0-.21-.04-.28-.13-.05-.06-.08-.15-.1-.27h1.5v-.08c0-.26-.04-.47-.13-.63-.08-.16-.21-.28-.37-.37-.16-.08-.38-.13-.66-.13-.34,0-.61.09-.81.28-.2.19-.29.44-.29.74,0,.21.05.4.15.56.1.16.22.27.37.35.15.07.35.11.61.11.3,0,.53-.04.69-.13.16-.09.3-.23.41-.42Zm-1.37-.91c.07-.09.17-.14.29-.14.1,0,.19.03.25.09.06.06.1.17.12.31h-.74c.01-.12.04-.2.09-.26Z"/>
  <path class="cls-1" d="m66.38,11.32v-.86c0-.09-.02-.19-.06-.29-.04-.1-.09-.18-.15-.23-.09-.08-.2-.13-.34-.16-.14-.03-.32-.04-.54-.04-.14,0-.27.01-.39.03-.12.02-.21.05-.28.09-.1.05-.17.11-.22.19s-.09.17-.12.3l.72.08c.03-.08.07-.14.12-.17.06-.04.15-.06.28-.06.1,0,.16.02.2.06.04.04.06.1.06.19-.09.04-.18.07-.26.09-.08.02-.27.06-.55.12-.23.05-.39.12-.48.21-.09.1-.13.22-.13.37,0,.16.06.29.18.4s.3.16.53.16c.18,0,.33-.03.46-.08.1-.04.19-.11.29-.2,0,.06.02.1.03.12,0,.03.03.06.06.11h.7c-.04-.08-.06-.15-.08-.2-.01-.05-.02-.12-.02-.22Zm-.73-.39c0,.09-.02.17-.05.23-.03.06-.08.11-.15.15-.07.04-.15.06-.23.06s-.14-.02-.18-.06c-.04-.04-.06-.09-.06-.14,0-.05.02-.1.06-.14.04-.04.14-.08.29-.12.11-.03.22-.06.32-.1v.12Z"/>
  <path class="cls-1" d="m67.59,11.08c0-.31.04-.53.12-.64.05-.08.13-.12.23-.12.05,0,.12.02.21.06l.23-.53c-.13-.07-.25-.1-.36-.1s-.19.03-.27.08c-.07.05-.14.15-.21.29v-.32h-.7v1.95h.75v-.65Z"/>
  <path class="cls-1" d="m69.57,9.74c-.34,0-.61.09-.81.28-.2.19-.29.44-.29.74,0,.21.05.4.15.56.1.16.22.27.37.35.15.07.35.11.61.11.3,0,.53-.04.69-.13.16-.09.3-.23.41-.42l-.74-.07c-.05.06-.09.1-.13.12-.07.04-.14.06-.21.06-.12,0-.21-.04-.28-.13-.05-.06-.08-.15-.1-.27h1.5v-.08c0-.26-.04-.47-.13-.63-.08-.16-.21-.28-.37-.37-.16-.08-.38-.13-.66-.13Zm-.34.85c.01-.12.04-.2.09-.26.07-.09.17-.14.29-.14.1,0,.19.03.25.09.06.06.1.17.12.31h-.74Z"/>
  <path class="cls-1" d="m72.96,11.74l.13-.45h.95l.13.45h.87l-1.01-2.7h-.91l-1.01,2.7h.85Zm.61-2l.3.97h-.59l.29-.97Z"/>
  <polygon class="cls-1" points="77.51 9.79 76.59 9.79 76.03 10.43 76.03 9.04 75.26 9.04 75.26 11.74 76.03 11.74 76.03 11.23 76.31 10.96 76.71 11.74 77.55 11.74 76.81 10.47 77.51 9.79"/>
  <rect class="cls-1" x="77.8" y="9.04" width=".75" height=".51"/>
  <rect class="cls-1" x="77.8" y="9.79" width=".75" height="1.95"/>
  <path class="cls-1" d="m79.81,9.79h-.75v1.83c0,.13-.02.22-.05.26-.03.04-.08.07-.15.07-.03,0-.07,0-.13-.02l-.02.1c.37-.07.74-.14,1.09-.21,0-.05,0-.08,0-.14v-1.89Z"/>
  <rect class="cls-1" x="79.06" y="9.04" width=".75" height=".52"/>
  <path class="cls-1" d="m82.2,10.08c-.2-.23-.5-.34-.89-.34-.34,0-.61.1-.82.29-.2.19-.3.44-.3.74,0,.32.12.58.36.78.04.04.1.05.15.08.57-.12,1.11-.25,1.62-.38.07-.14.12-.3.12-.48,0-.27-.08-.49-.24-.68Zm-.62,1.07c-.07.08-.16.12-.27.12s-.2-.04-.27-.13c-.07-.08-.11-.21-.11-.39s.04-.3.11-.38c.07-.08.16-.13.27-.13.1,0,.19.04.26.12.07.08.1.21.1.38,0,.18-.03.31-.1.4Z"/>
  <rect class="cls-1" x="80.72" y="9.08" width="1.19" height=".4"/>
  <path class="cls-1" d="m82.8,11.11c.15-.04.29-.08.43-.12h-.43v.12Z"/>
  <path class="cls-1" d="m6.14,48.52h.86l-1-2.67h-.9l-.32.84c.05.47.19.94.42,1.39h.8l.13.44Zm-.89-1.02l.29-.96.3.96h-.59Z"/>
  <polygon class="cls-1" points="9.45 46.59 8.53 46.59 7.98 47.23 7.98 45.85 7.22 45.85 7.22 48.52 7.98 48.52 7.98 48.02 8.26 47.75 8.65 48.52 9.49 48.52 8.75 47.27 9.45 46.59"/>
  <rect class="cls-1" x="9.74" y="46.59" width=".74" height="1.94"/>
  <rect class="cls-1" x="9.74" y="45.85" width=".74" height=".5"/>
  <rect class="cls-1" x="10.98" y="45.85" width=".74" height=".51"/>
  <path class="cls-1" d="m10.98,48.4c0,.13-.02.21-.05.26-.03.04-.08.06-.14.06-.03,0-.07,0-.13-.02l-.11.54c.21.04.39.06.53.06.17,0,.31-.03.4-.09.09-.06.16-.14.19-.24.03-.1.05-.27.05-.51v-1.88h-.74v1.81Z"/>
  <rect class="cls-1" x="12.63" y="45.89" width="1.18" height=".4"/>
  <path class="cls-1" d="m14.09,46.88c-.2-.22-.49-.34-.88-.34-.34,0-.61.1-.81.29-.2.19-.3.43-.3.73,0,.32.12.57.35.77.19.16.44.24.75.24.35,0,.62-.1.82-.29.2-.19.3-.43.3-.73,0-.27-.08-.49-.24-.67Zm-.61,1.06c-.07.08-.16.12-.26.12s-.19-.04-.26-.12-.1-.21-.1-.38.04-.3.11-.38.16-.12.27-.12c.1,0,.19.04.26.12.07.08.1.21.1.37,0,.18-.03.31-.1.39Z"/>
  <rect class="cls-1" x="15.96" y="45.85" width=".74" height=".5"/>
  <rect class="cls-1" x="15.96" y="46.59" width=".74" height="1.94"/>
  <path class="cls-1" d="m18.73,47.38c-.12-.05-.3-.09-.55-.12-.16-.02-.27-.04-.32-.07-.05-.02-.07-.06-.07-.11,0-.04.02-.08.06-.11.04-.03.1-.04.18-.04s.15.02.21.06c.04.03.07.07.09.14l.7-.07c-.05-.13-.11-.23-.18-.3-.07-.07-.17-.13-.28-.16-.11-.04-.28-.05-.51-.05-.22,0-.39.02-.52.07s-.23.11-.31.21c-.07.09-.11.2-.11.33,0,.12.03.22.1.31.07.09.15.16.25.19.1.04.28.08.54.12.17.03.28.06.32.08.06.03.08.07.08.12,0,.05-.02.09-.06.12-.05.04-.13.06-.23.06-.09,0-.16-.02-.22-.06-.05-.04-.1-.1-.13-.19l-.74.07c.04.19.14.33.29.43.15.1.4.15.76.15.25,0,.45-.03.59-.09.15-.06.25-.15.32-.25.07-.11.1-.21.1-.33s-.03-.21-.1-.3c-.06-.09-.16-.16-.28-.21Z"/>
  <path class="cls-1" d="m22.09,48.41s.03.06.05.11h.7c-.04-.08-.06-.15-.08-.2-.01-.05-.02-.12-.02-.21v-.86c0-.09-.02-.19-.05-.29-.04-.1-.09-.18-.15-.23-.09-.08-.2-.13-.34-.16s-.31-.04-.54-.04c-.14,0-.27.01-.39.03-.12.02-.21.05-.28.09-.09.05-.17.11-.22.19-.05.07-.09.17-.12.29l.71.07c.03-.08.07-.14.11-.17.06-.04.15-.06.27-.06.09,0,.16.02.2.05s.06.1.06.19c-.09.04-.18.07-.26.09s-.26.06-.54.12c-.23.05-.39.12-.48.21-.09.09-.13.22-.13.36,0,.16.06.29.18.4.12.11.3.16.53.16.17,0,.33-.03.46-.08.1-.04.19-.11.29-.2,0,.06.02.1.03.12Zm-.07-.69c0,.09-.01.17-.04.23-.03.06-.08.11-.15.15-.07.04-.15.06-.23.06s-.14-.02-.18-.06-.06-.08-.06-.14c0-.05.02-.1.06-.14.04-.04.14-.08.29-.12.11-.03.22-.06.32-.1v.12Z"/>
  <path class="cls-1" d="m26.4,48.23c.09-.11.15-.23.19-.38l-.71-.08c-.03.1-.08.18-.15.23-.07.05-.15.07-.25.07-.12,0-.21-.04-.29-.12-.08-.08-.11-.2-.11-.36,0-.18.04-.31.11-.4.08-.09.18-.13.3-.13.1,0,.17.02.23.06s.1.1.12.19l.7-.09c-.07-.22-.18-.38-.35-.5-.17-.11-.41-.17-.72-.17-.23,0-.41.03-.56.09-.09.04-.18.09-.27.17-.09.08-.15.16-.2.26-.07.13-.1.3-.1.5s.03.34.08.46c.06.12.13.22.23.3s.22.15.35.19.31.06.51.06.39-.03.53-.09.25-.14.34-.25Z"/>
  <path class="cls-1" d="m28.99,48.33c-.01-.05-.02-.12-.02-.21v-.86c0-.09-.02-.19-.05-.29s-.09-.18-.15-.23c-.09-.08-.2-.13-.34-.16-.13-.02-.31-.04-.54-.04-.14,0-.27.01-.39.03-.12.02-.21.05-.28.09-.09.05-.17.11-.22.19-.05.07-.09.17-.12.29l.71.07c.03-.08.07-.14.11-.17.06-.04.15-.06.27-.06.09,0,.16.02.2.05s.06.1.06.19c-.09.04-.18.07-.26.09-.08.02-.26.06-.54.12-.23.05-.39.12-.48.21-.09.09-.13.22-.13.36,0,.16.06.29.18.4.12.11.3.16.53.16.17,0,.33-.03.46-.08.1-.04.19-.11.29-.2,0,.06.02.1.03.12s.03.06.05.11h.7c-.04-.08-.06-.15-.08-.2Zm-.74-.6c0,.09-.01.17-.04.23-.03.06-.08.11-.15.15-.07.04-.15.06-.23.06s-.14-.02-.18-.06-.06-.08-.06-.14c0-.05.02-.1.06-.14.04-.04.14-.08.29-.12.11-.03.22-.06.32-.1v.12Z"/>
  <path class="cls-1" d="m30.17,47.88c0-.31.04-.52.11-.63.05-.08.13-.12.23-.12.05,0,.12.02.21.05l.23-.53c-.13-.07-.25-.1-.36-.1s-.19.03-.26.08c-.07.05-.14.15-.21.28v-.32h-.69v1.94h.75v-.65Z"/>
  <path class="cls-1" d="m32.41,46.54c-.1,0-.19.03-.26.08-.07.05-.14.15-.21.28v-.32h-.69v1.94h.75v-.65c0-.31.04-.52.11-.63.05-.08.13-.12.23-.12.05,0,.12.02.21.05l.23-.53c-.13-.07-.25-.1-.36-.1Z"/>
  <rect class="cls-1" x="32.92" y="46.59" width=".74" height="1.94"/>
  <rect class="cls-1" x="32.92" y="45.85" width=".74" height=".5"/>
  <path class="cls-1" d="m34.55,48.46c.15.07.35.11.61.11.3,0,.52-.04.68-.13.16-.08.29-.22.4-.42l-.73-.07c-.05.06-.09.1-.13.12-.07.04-.13.05-.21.05-.12,0-.21-.04-.28-.13-.05-.06-.08-.15-.1-.27h1.49v-.08c0-.26-.04-.46-.13-.62s-.21-.28-.37-.36c-.16-.08-.38-.13-.66-.13-.34,0-.61.09-.8.28-.19.19-.29.43-.29.73,0,.21.05.4.14.56.1.16.22.27.37.34Zm.33-1.34c.07-.09.16-.14.28-.14.1,0,.18.03.25.09.06.06.1.16.12.31h-.73c.01-.12.04-.2.09-.26Z"/>
  <path class="cls-1" d="m36.63,46.59v1.94h.75v-.65c0-.31.04-.52.11-.63.05-.08.13-.12.23-.12.05,0,.12.02.21.05l.23-.53c-.13-.07-.25-.1-.36-.1s-.19.03-.26.08c-.07.05-.14.15-.21.28v-.32h-.69Z"/>
  <rect class="cls-1" x="39.55" y="45.85" width=".74" height="2.67"/>
  <rect class="cls-1" x="40.8" y="45.85" width=".74" height=".5"/>
  <rect class="cls-1" x="40.8" y="46.59" width=".74" height="1.94"/>
  <polygon class="cls-1" points="42.77 48.02 43.05 47.75 43.44 48.52 44.28 48.52 43.55 47.27 44.24 46.59 43.33 46.59 42.77 47.23 42.77 45.85 42.01 45.85 42.01 48.52 42.77 48.52 42.77 48.02"/>
  <path class="cls-1" d="m46.53,47.66c0-.26-.04-.46-.13-.62s-.21-.28-.37-.36c-.16-.08-.38-.13-.66-.13-.34,0-.61.09-.8.28-.19.19-.29.43-.29.73,0,.21.05.4.14.56.1.16.22.27.37.34.15.07.35.11.61.11.3,0,.52-.04.68-.13s.29-.22.4-.42l-.73-.07c-.05.06-.09.1-.13.12-.07.04-.13.05-.21.05-.12,0-.21-.04-.28-.13-.05-.06-.08-.15-.1-.27h1.49v-.08Zm-1.49-.27c.01-.12.04-.2.09-.26.07-.09.16-.14.28-.14.1,0,.18.03.25.09.06.06.1.16.12.31h-.73Z"/>
  <path class="cls-1" d="m49.18,48.49c.1-.04.19-.11.29-.2,0,.06.02.1.03.12,0,.03.03.06.05.11h.7c-.04-.08-.06-.15-.08-.2-.01-.05-.02-.12-.02-.21v-.86c0-.09-.02-.19-.05-.29-.04-.1-.09-.18-.15-.23-.09-.08-.2-.13-.34-.16-.13-.02-.31-.04-.54-.04-.14,0-.27.01-.39.03-.12.02-.21.05-.28.09-.09.05-.17.11-.22.19-.05.07-.09.17-.12.29l.71.07c.03-.08.07-.14.11-.17.06-.04.15-.06.27-.06.09,0,.16.02.2.05.04.04.06.1.06.19-.09.04-.18.07-.26.09s-.26.06-.54.12c-.23.05-.39.12-.48.21-.09.09-.13.22-.13.36,0,.16.06.29.18.4.12.11.3.16.53.16.17,0,.33-.03.46-.08Zm-.36-.67s.14-.08.29-.12c.11-.03.22-.06.32-.1v.12c0,.09-.01.17-.04.23-.03.06-.08.11-.15.15-.07.04-.15.06-.23.06s-.14-.02-.18-.06c-.04-.04-.06-.08-.06-.14,0-.05.02-.1.06-.14Z"/>
  <path class="cls-1" d="m53.89,48.52v-1.22c0-.26-.06-.46-.17-.58-.12-.12-.28-.18-.49-.18-.14,0-.26.02-.35.07-.1.05-.2.13-.32.26-.06-.11-.13-.19-.22-.24-.09-.05-.21-.08-.37-.08-.14,0-.27.02-.37.07-.1.05-.2.13-.3.25v-.28h-.69v1.94h.74v-.99c0-.15.03-.25.08-.32.05-.06.12-.1.21-.1.05,0,.1.01.14.04.04.03.07.07.08.12,0,.03.01.09.01.17v1.07h.74v-1c0-.14.03-.24.08-.3.05-.06.12-.09.21-.09.07,0,.14.03.19.1.03.04.05.11.05.2v1.1h.74Z"/>
  <path class="cls-1" d="m56.23,46.88c-.2-.22-.49-.34-.88-.34-.34,0-.61.1-.81.29-.2.19-.3.43-.3.73,0,.32.12.57.35.77.19.16.44.24.75.24.35,0,.62-.1.82-.29.2-.19.3-.43.3-.73,0-.27-.08-.49-.24-.67Zm-.61,1.06c-.07.08-.16.12-.26.12s-.19-.04-.26-.12-.1-.21-.1-.38.04-.3.11-.38.16-.12.27-.12c.1,0,.19.04.26.12.07.08.1.21.1.37,0,.18-.03.31-.1.39Z"/>
  <path class="cls-1" d="m58.93,48.02l-.73-.07c-.05.06-.09.1-.13.12-.07.04-.13.05-.21.05-.12,0-.21-.04-.28-.13-.05-.06-.08-.15-.1-.27h1.49v-.08c0-.26-.04-.46-.13-.62s-.21-.28-.37-.36c-.16-.08-.38-.13-.66-.13-.34,0-.61.09-.8.28s-.29.43-.29.73c0,.21.05.4.14.56.1.16.22.27.37.34.15.07.35.11.61.11.3,0,.52-.04.68-.13.16-.08.29-.22.4-.42Zm-1.36-.9c.07-.09.16-.14.28-.14.1,0,.18.03.25.09.06.06.1.16.12.31h-.73c.01-.12.04-.2.09-.26Z"/>
  <path class="cls-1" d="m60.6,46.54c-.11,0-.22.02-.31.06-.09.04-.18.1-.25.18v-.93h-.75v2.67h.69v-.29c.1.12.18.2.27.25.11.06.23.08.36.08.15,0,.29-.04.41-.12.12-.08.22-.2.29-.36.07-.16.11-.35.11-.56,0-.32-.08-.56-.23-.73-.15-.17-.35-.25-.59-.25Zm-.02,1.37c-.06.07-.13.11-.22.11-.1,0-.18-.04-.24-.11-.06-.07-.09-.2-.09-.36,0-.15.03-.27.1-.34.06-.07.15-.11.25-.11.08,0,.16.04.21.11.06.07.09.18.09.34,0,.17-.03.3-.09.37Z"/>
  <path class="cls-1" d="m63.82,48.11v-.86c0-.09-.02-.19-.05-.29s-.09-.18-.15-.23c-.09-.08-.2-.13-.34-.16-.13-.02-.31-.04-.54-.04-.14,0-.27.01-.39.03-.12.02-.21.05-.28.09-.09.05-.17.11-.22.19-.05.07-.09.17-.12.29l.71.07c.03-.08.07-.14.11-.17.06-.04.15-.06.27-.06.09,0,.16.02.2.05s.06.1.06.19c-.09.04-.18.07-.26.09-.08.02-.26.06-.54.12-.23.05-.39.12-.48.21-.09.09-.13.22-.13.36,0,.16.06.29.18.4.12.11.3.16.53.16.17,0,.33-.03.46-.08.1-.04.19-.11.29-.2,0,.06.02.1.03.12s.03.06.05.11h.7c-.04-.08-.06-.15-.08-.2-.01-.05-.02-.12-.02-.21Zm-.73-.39c0,.09-.01.17-.04.23-.03.06-.08.11-.15.15-.07.04-.15.06-.23.06s-.14-.02-.18-.06-.06-.08-.06-.14c0-.05.02-.1.06-.14.04-.04.14-.08.29-.12.11-.03.22-.06.32-.1v.12Z"/>
  <rect class="cls-1" x="64.26" y="47.78" width=".79" height=".74"/>
  <path class="cls-1" d="m8.95,51.07v.29c-.09-.12-.18-.2-.27-.25s-.22-.08-.37-.08c-.04,0-.08.02-.12.02.45.29.93.58,1.46.86v-.84h-.69Z"/>
  <path class="cls-1" d="m12.15,52.81c-.01-.05-.02-.12-.02-.21v-.85c0-.09-.02-.19-.05-.29-.04-.1-.09-.18-.15-.23-.09-.08-.2-.13-.34-.16-.13-.02-.31-.04-.54-.04-.14,0-.27.01-.39.03-.12.02-.21.05-.28.09-.09.05-.17.11-.22.19s-.09.17-.12.29l.71.07c.03-.08.07-.14.11-.17.06-.04.15-.06.27-.06.09,0,.16.02.2.05.04.04.06.1.06.19-.09.04-.18.07-.26.09-.08.02-.26.06-.54.12-.23.05-.39.12-.48.21,0,0,0,.02-.01.02.21.11.42.21.64.32,0-.01-.01-.02-.01-.03,0-.05.02-.1.06-.14.04-.04.14-.08.29-.12.11-.03.22-.06.32-.1v.12c0,.09-.01.17-.04.23s-.08.11-.15.15c-.04.02-.09.03-.14.04.12.05.24.11.37.16,0,0,0,0,.01,0,0,0,0,0,0,.02.17.07.33.15.51.22h.27c-.04-.08-.06-.15-.08-.2Z"/>
  <path class="cls-1" d="m13.56,52.52c-.06,0-.1-.02-.13-.06-.02-.03-.02-.08-.02-.16v-.69h.41v-.54h-.41v-.74l-.74.38v.36h-.27v.54h.27v.68c0,.22.02.37.06.47.04.1.11.17.19.22s.22.07.41.07c.16,0,.33-.02.51-.06l-.05-.51c-.1.03-.17.05-.23.05Z"/>
  <path class="cls-1" d="m15.57,51.03c-.14,0-.25.02-.35.07s-.2.12-.3.22v-.98h-.74v2.67h.74v-.93c0-.18.03-.3.08-.37s.13-.1.22-.1c.08,0,.14.03.19.08.04.05.07.14.07.26v1.06h.75v-1.23c0-.25-.06-.44-.17-.57-.12-.12-.28-.18-.48-.18Z"/>
  <path class="cls-1" d="m18.32,51.15c-.16-.08-.38-.13-.66-.13-.34,0-.61.09-.8.28-.19.19-.29.43-.29.73,0,.21.05.4.14.56s.22.27.37.34c.15.07.35.11.61.11.3,0,.52-.04.68-.13.16-.08.29-.22.4-.42l-.73-.07c-.05.06-.09.1-.13.12-.07.04-.13.05-.21.05-.12,0-.21-.04-.28-.13-.05-.06-.08-.15-.1-.27h1.49v-.08c0-.26-.04-.46-.13-.62s-.21-.28-.37-.36Zm-.99.71c.01-.12.04-.2.09-.26.07-.09.16-.14.28-.14.1,0,.18.03.25.09.06.06.1.16.12.31h-.73Z"/>
  <path class="cls-1" d="m20.06,51.1c-.07.05-.14.15-.21.28v-.32h-.69v1.94h.75v-.65c0-.31.04-.52.11-.63.05-.08.13-.12.23-.12.05,0,.12.02.21.05l.23-.53c-.13-.07-.25-.1-.36-.1s-.19.03-.26.08Z"/>
  <path class="cls-1" d="m24.69,51.03c-.14,0-.26.02-.35.07-.1.05-.2.13-.32.26-.06-.11-.13-.19-.22-.24-.09-.05-.21-.08-.37-.08-.14,0-.27.02-.37.07-.1.05-.2.13-.3.25v-.28h-.69v1.94h.74v-.99c0-.15.03-.25.08-.32.05-.06.12-.1.21-.1.05,0,.1.01.14.04.04.03.07.07.08.12,0,.03.01.09.01.17v1.07h.74v-1c0-.14.03-.24.08-.3.05-.06.12-.09.21-.09.07,0,.14.03.19.1.03.04.05.11.05.2v1.1h.74v-1.22c0-.26-.06-.46-.17-.58-.12-.12-.28-.19-.49-.19Z"/>
  <path class="cls-1" d="m26.84,52.52c-.06,0-.1-.02-.13-.06-.02-.03-.02-.08-.02-.16v-.69h.41v-.54h-.41v-.74l-.74.38v.36h-.27v.54h.27v.68c0,.22.02.37.06.47.04.1.11.17.19.22s.22.07.41.07c.16,0,.33-.02.51-.06l-.05-.51c-.1.03-.18.05-.23.05Z"/>
  <path class="cls-1" d="m27.85,50.34c-.08.04-.15.09-.2.15-.05.06-.08.14-.1.23-.02.09-.03.18-.03.26v.09h-.28v.54h.28v1.39h.74v-1.39h.35v-.54h-.35c0-.09,0-.14,0-.17.01-.05.03-.08.06-.11s.08-.03.14-.03c.05,0,.13,0,.22.02l.08-.45c-.25-.03-.44-.05-.57-.05-.16,0-.29.02-.37.06Z"/>
  <polygon class="cls-1" points="31.16 51.07 30.25 51.07 29.7 51.71 29.7 50.33 28.94 50.33 28.94 53.01 29.7 53.01 29.7 52.5 29.97 52.23 30.37 53.01 31.2 53.01 30.47 51.75 31.16 51.07"/>
  <path class="cls-1" d="m33.37,52.72c.1.12.18.2.27.25.11.06.23.08.36.08.15,0,.29-.04.41-.12s.22-.2.29-.36.11-.35.11-.56c0-.32-.08-.56-.23-.73s-.35-.25-.59-.25c-.11,0-.22.02-.31.06-.09.04-.18.1-.25.18v-.93h-.75v2.67h.69v-.29Zm.14-1.03c.06-.07.15-.11.25-.11.08,0,.16.04.21.11.06.07.09.18.09.34,0,.17-.03.3-.09.37s-.13.11-.22.11c-.1,0-.18-.04-.24-.11-.06-.07-.09-.2-.09-.36,0-.15.03-.27.1-.34Z"/>
  <path class="cls-1" d="m36.6,53.01h.7c-.04-.08-.06-.15-.08-.2-.01-.05-.02-.12-.02-.21v-.85c0-.09-.02-.19-.05-.29-.04-.1-.09-.18-.15-.23-.09-.08-.2-.13-.34-.16-.13-.02-.31-.04-.54-.04-.14,0-.27.01-.39.03-.12.02-.21.05-.28.09-.09.05-.17.11-.22.19-.05.07-.09.17-.12.29l.71.07c.03-.08.07-.14.11-.17.06-.04.15-.06.27-.06.09,0,.16.02.2.05.04.04.06.1.06.19-.09.04-.18.07-.26.09-.08.02-.26.06-.54.12-.23.05-.39.12-.48.21s-.13.22-.13.36c0,.16.06.29.18.4.12.11.3.16.53.16.17,0,.33-.03.46-.08.1-.04.19-.11.29-.2,0,.06.02.1.03.12,0,.03.03.06.05.11Zm-.12-.8c0,.09-.01.17-.04.23s-.08.11-.15.15c-.07.04-.15.06-.23.06s-.14-.02-.18-.06c-.04-.04-.06-.08-.06-.14,0-.05.02-.1.06-.14.04-.04.14-.08.29-.12.11-.03.22-.06.32-.1v.12Z"/>
  <path class="cls-1" d="m39.69,53.01v-2.67h-.75v.93c-.07-.08-.16-.14-.25-.18-.09-.04-.2-.06-.31-.06-.24,0-.43.09-.59.26-.15.17-.23.42-.23.74,0,.29.07.53.21.73s.34.3.6.3c.13,0,.25-.03.36-.08.08-.04.17-.12.27-.25v.29h.69Zm-.84-.61c-.06.07-.14.11-.24.11-.09,0-.16-.04-.22-.11-.06-.07-.09-.19-.09-.35,0-.17.03-.29.09-.36.06-.07.13-.11.22-.11.1,0,.18.04.24.11.06.07.1.19.1.34,0,.17-.03.29-.09.36Z"/>
  <path class="cls-1" d="m40.73,51.06c-.12.02-.21.05-.28.09-.09.05-.17.11-.22.19s-.09.17-.12.29l.71.07c.03-.08.07-.14.11-.17.06-.04.15-.06.27-.06.09,0,.16.02.2.05.04.04.06.1.06.19-.09.04-.18.07-.26.09-.08.02-.26.06-.54.12-.23.05-.39.12-.48.21s-.13.22-.13.36c0,.16.06.29.18.4.12.11.3.16.53.16.17,0,.33-.03.46-.08.1-.04.19-.11.29-.2,0,.06.02.1.03.12s.03.06.05.11h.7c-.04-.08-.06-.15-.08-.2-.01-.05-.02-.12-.02-.21v-.85c0-.09-.02-.19-.05-.29-.04-.1-.09-.18-.15-.23-.09-.08-.2-.13-.34-.16-.13-.02-.31-.04-.54-.04-.14,0-.27.01-.39.03Zm.74,1.15c0,.09-.01.17-.04.23s-.08.11-.15.15-.15.06-.23.06-.14-.02-.18-.06c-.04-.04-.06-.08-.06-.14,0-.05.02-.1.06-.14.04-.04.14-.08.29-.12.11-.03.22-.06.32-.1v.12Z"/>
  <path class="cls-1" d="m44.47,52.07c-.06-.09-.16-.16-.28-.21-.12-.05-.3-.09-.55-.12-.16-.02-.27-.04-.32-.07-.05-.02-.07-.06-.07-.11,0-.04.02-.08.06-.11.04-.03.1-.04.18-.04s.15.02.21.06c.04.03.07.07.09.14l.7-.07c-.05-.13-.11-.23-.18-.3-.07-.07-.17-.13-.28-.16-.11-.04-.28-.05-.51-.05-.22,0-.39.02-.52.07-.13.05-.23.11-.31.21s-.11.2-.11.33c0,.12.03.22.1.31s.15.16.25.19c.1.04.28.08.54.12.17.03.28.06.32.08.06.03.08.07.08.12,0,.05-.02.09-.06.12-.05.04-.13.06-.23.06-.09,0-.16-.02-.22-.06s-.1-.1-.13-.19l-.74.07c.04.19.14.33.29.43.15.1.4.15.76.15.25,0,.45-.03.59-.09.15-.06.25-.15.32-.25.07-.11.1-.21.1-.33s-.03-.21-.1-.3Z"/>
  <path class="cls-1" d="m46.47,51.86c-.12-.05-.3-.09-.55-.12-.16-.02-.27-.04-.32-.07-.05-.02-.07-.06-.07-.11,0-.04.02-.08.06-.11.04-.03.1-.04.18-.04s.15.02.21.06c.04.03.07.07.09.14l.7-.07c-.05-.13-.11-.23-.18-.3-.07-.07-.17-.13-.28-.16-.11-.04-.28-.05-.51-.05-.22,0-.39.02-.52.07-.13.05-.23.11-.31.21-.07.09-.11.2-.11.33,0,.12.03.22.1.31s.15.16.25.19c.1.04.28.08.54.12.17.03.28.06.32.08.06.03.08.07.08.12,0,.05-.02.09-.06.12-.05.04-.13.06-.23.06-.09,0-.16-.02-.22-.06s-.1-.1-.13-.19l-.74.07c.04.19.14.33.29.43.15.1.4.15.76.15.25,0,.45-.03.59-.09.15-.06.25-.15.32-.25.07-.11.1-.21.1-.33s-.03-.21-.1-.3c-.06-.09-.16-.16-.28-.21Z"/>
  <path class="cls-1" d="m50.48,51.07h-.69v.29c-.09-.12-.18-.2-.27-.25s-.22-.08-.37-.08c-.24,0-.43.08-.57.24s-.22.39-.22.69c0,.26.06.48.17.64.16.23.37.34.63.34.13,0,.26-.03.37-.09.07-.04.15-.1.22-.19v.29c0,.14-.03.24-.08.3-.05.06-.13.09-.24.09-.08,0-.15-.02-.21-.06-.04-.03-.07-.07-.08-.14l-.72-.08s0,.07,0,.1c0,.2.07.35.22.47.15.12.41.18.8.18.17,0,.32-.02.45-.05.13-.03.24-.08.33-.15s.15-.16.21-.27c.05-.11.08-.23.08-.35v-.09s0-1.83,0-1.83Zm-.84,1.25c-.06.07-.14.1-.23.1-.1,0-.18-.03-.24-.1-.06-.07-.09-.17-.09-.31,0-.16.03-.27.08-.34s.13-.1.23-.1.17.04.24.11c.07.07.1.18.1.32s-.03.25-.09.32Z"/>
  <path class="cls-1" d="m51.95,51.03c-.34,0-.61.1-.81.29-.2.19-.3.43-.3.73,0,.32.12.57.35.77.19.16.44.24.75.24.35,0,.62-.1.82-.29s.3-.43.3-.73c0-.26-.08-.49-.24-.67-.2-.22-.49-.34-.88-.34Zm.27,1.4c-.07.08-.16.12-.26.12s-.19-.04-.26-.12c-.07-.08-.1-.21-.1-.38s.04-.3.11-.38c.07-.08.16-.12.27-.12.1,0,.19.04.26.12s.1.21.1.37c0,.18-.03.31-.1.39Z"/>
  <path class="cls-1" d="m54.47,52.52c-.06,0-.1-.02-.13-.06-.02-.03-.02-.08-.02-.16v-.69h.41v-.54h-.41v-.74l-.74.38v.36h-.27v.54h.27v.68c0,.22.02.37.06.47.04.1.11.17.19.22s.22.07.41.07c.16,0,.33-.02.51-.06l-.05-.51c-.1.03-.17.05-.23.05Z"/>
  <path class="cls-1" d="m57.37,52.52c-.06,0-.1-.02-.13-.06-.02-.03-.02-.08-.02-.16v-.69h.41v-.54h-.41v-.74l-.74.38v.36h-.27v.54h.27v.68c0,.22.02.37.06.47.04.1.11.17.19.22.09.05.22.07.41.07.16,0,.33-.02.51-.06l-.05-.51c-.1.03-.18.05-.23.05Z"/>
  <path class="cls-1" d="m60.03,52.59v-.85c0-.09-.02-.19-.05-.29-.04-.1-.09-.18-.15-.23-.09-.08-.2-.13-.34-.16-.13-.02-.31-.04-.54-.04-.14,0-.27.01-.39.03-.12.02-.21.05-.28.09-.09.05-.17.11-.22.19-.05.07-.09.17-.12.29l.71.07c.03-.08.07-.14.11-.17.06-.04.15-.06.27-.06.09,0,.16.02.2.05.04.04.06.1.06.19-.09.04-.18.07-.26.09-.08.02-.26.06-.54.12-.23.05-.39.12-.48.21s-.13.22-.13.36c0,.16.06.29.18.4.12.11.3.16.53.16.17,0,.33-.03.46-.08.1-.04.19-.11.29-.2,0,.06.02.1.03.12,0,.03.03.06.05.11h.7c-.04-.08-.06-.15-.08-.2-.01-.05-.02-.12-.02-.21Zm-.73-.39c0,.09-.01.17-.04.23s-.08.11-.15.15-.15.06-.23.06-.14-.02-.18-.06c-.04-.04-.06-.08-.06-.14,0-.05.02-.1.06-.14.04-.04.14-.08.29-.12.11-.03.22-.06.32-.1v.12Z"/>
  <rect class="cls-1" x="60.5" y="50.33" width=".74" height="2.67"/>
  <path class="cls-1" d="m63.37,51.15c-.16-.08-.38-.13-.66-.13-.34,0-.61.09-.8.28-.19.19-.29.43-.29.73,0,.21.05.4.14.56s.22.27.37.34c.15.07.35.11.61.11.3,0,.52-.04.68-.13.16-.08.29-.22.4-.42l-.73-.07c-.05.06-.09.1-.13.12-.07.04-.13.05-.21.05-.12,0-.21-.04-.28-.13-.05-.06-.08-.15-.1-.27h1.49v-.08c0-.26-.04-.46-.13-.62s-.21-.28-.37-.36Zm-.99.71c.01-.12.04-.2.09-.26.07-.09.16-.14.28-.14.1,0,.18.03.25.09.06.06.1.16.12.31h-.73Z"/>
  <path class="cls-1" d="m65.6,51.03c-.15,0-.28.03-.39.08-.11.06-.21.15-.31.28v-.32h-.69v1.94h.74v-.93c0-.18.03-.3.08-.37s.13-.1.22-.1c.08,0,.14.03.19.08.04.05.07.14.07.26v1.06h.75v-1.23c0-.26-.06-.44-.17-.57-.12-.12-.28-.18-.48-.18Z"/>
  <path class="cls-1" d="m67.74,52.52c-.06,0-.1-.02-.13-.06-.02-.03-.02-.08-.02-.16v-.69h.41v-.54h-.41v-.74l-.74.38v.36h-.27v.54h.27v.68c0,.22.02.37.06.47.04.1.11.17.19.22s.22.07.41.07c.16,0,.33-.02.51-.06l-.05-.51c-.1.03-.17.05-.23.05Z"/>
  <rect class="cls-1" x="68.35" y="52.26" width=".79" height=".74"/>
  <path class="cls-1" d="m24.18,54.81l-.28,1.49-.41-1.49h-.78l-.33,1.21c.21.04.42.09.63.13l.1-.35.11.39c.46.09.93.17,1.4.26l.36-1.63h-.78Z"/>
  <path class="cls-1" d="m21.22,54.81l.23,1.02c.26.05.52.11.78.16l-.22-1.18h-.78Z"/>
  <path class="cls-1" d="m27.23,56.62c0-.26-.04-.46-.13-.62s-.21-.28-.37-.36c-.16-.08-.38-.13-.66-.13-.34,0-.61.09-.8.28-.19.19-.29.43-.29.73.37.06.75.13,1.14.19h1.11v-.08Zm-1.49-.27c.01-.12.04-.2.09-.26.07-.09.16-.14.28-.14.1,0,.18.03.25.09.06.06.1.16.12.31h-.73Z"/>
  <path class="cls-1" d="m30.86,57.07v-.86c0-.09-.02-.19-.05-.29-.04-.1-.09-.18-.15-.23-.09-.08-.2-.13-.34-.16-.13-.02-.31-.04-.54-.04-.14,0-.27.01-.39.03-.12.02-.21.05-.28.09-.09.05-.17.11-.22.19-.05.07-.09.17-.12.29l.71.07c.03-.08.07-.14.11-.17.06-.04.15-.06.27-.06.09,0,.16.02.2.05.04.04.06.1.06.19-.09.04-.18.07-.26.09s-.26.06-.54.12c-.23.05-.39.12-.48.21-.09.09-.13.22-.13.36,0,.04.02.08.02.11.46.06.93.12,1.4.18,0,0,.02-.01.03-.02,0,.01,0,.01,0,.02.24.03.48.05.72.08,0-.02-.02-.05-.02-.07-.01-.05-.02-.12-.02-.21Zm-.73-.39c0,.09-.01.17-.04.23-.03.06-.08.11-.15.15s-.15.06-.23.06-.14-.02-.18-.06c-.04-.04-.06-.08-.06-.14,0-.05.02-.1.06-.14.04-.04.14-.08.29-.12.11-.03.22-.06.32-.1v.12Z"/>
  <path class="cls-1" d="m32.18,56.2c.05-.08.13-.12.23-.12.05,0,.12.02.21.05l.23-.53c-.13-.07-.25-.1-.36-.1s-.19.03-.26.08c-.07.05-.14.15-.21.28v-.32h-.69v1.85c.25.03.49.06.75.08v-.65c0-.31.04-.52.11-.63Z"/>
  <path class="cls-1" d="m34.68,55.63c-.16-.08-.38-.13-.66-.13-.34,0-.61.09-.8.28-.19.19-.29.43-.29.73,0,.21.05.4.14.56s.22.27.37.34c.15.07.35.11.61.11.3,0,.52-.04.68-.13.16-.08.29-.22.4-.42l-.73-.07c-.05.06-.09.1-.13.12-.07.04-.13.05-.21.05-.12,0-.21-.04-.28-.13-.05-.06-.08-.15-.1-.27h1.49v-.08c0-.26-.04-.46-.13-.62s-.21-.28-.37-.36Zm-.99.71c.01-.12.04-.2.09-.26.07-.09.16-.14.28-.14.1,0,.18.03.25.09.06.06.1.16.12.31h-.73Z"/>
  <path class="cls-1" d="m37.55,54.81l-1,2.67h.84l.13-.44h.94l.13.44h.86l-1-2.67h-.9Zm.15,1.65l.29-.96.3.96h-.59Z"/>
  <polygon class="cls-1" points="41.89 55.55 40.98 55.55 40.42 56.19 40.42 54.81 39.67 54.81 39.67 57.49 40.42 57.49 40.42 56.98 40.7 56.71 41.1 57.49 41.93 57.49 41.2 56.23 41.89 55.55"/>
  <rect class="cls-1" x="42.18" y="54.81" width=".74" height=".51"/>
  <rect class="cls-1" x="42.18" y="55.55" width=".74" height="1.94"/>
  <path class="cls-1" d="m44.12,57.94c.03-.1.05-.27.05-.51v-1.88h-.74v1.81c0,.13-.02.21-.05.26-.03.04-.08.06-.14.06-.03,0-.07,0-.13-.02l-.1.5c.3,0,.6.01.91.02,0,0,.02,0,.02,0,.09-.06.16-.14.19-.24Z"/>
  <rect class="cls-1" x="43.43" y="54.81" width=".74" height=".51"/>
  <path class="cls-1" d="m45.66,55.51c-.34,0-.61.1-.81.29-.2.19-.3.43-.3.73,0,.32.12.57.35.77.19.16.44.24.75.24.35,0,.62-.1.82-.29s.3-.43.3-.73c0-.27-.08-.49-.24-.67-.2-.22-.49-.34-.88-.34Zm.27,1.4c-.07.08-.16.12-.26.12s-.19-.04-.26-.12c-.07-.08-.1-.21-.1-.38s.04-.3.11-.38.16-.12.27-.12c.1,0,.19.04.26.12s.1.21.1.37c0,.18-.03.31-.1.39Z"/>
  <rect class="cls-1" x="45.07" y="54.85" width="1.18" height=".4"/>
  <rect class="cls-1" x="47.14" y="56.74" width=".79" height=".74"/>
</svg>