<?xml version="1.0" encoding="UTF-8"?>
<svg id="_圖層_1" data-name="圖層 1" xmlns="http://www.w3.org/2000/svg" viewBox="0 0 87.2 99.85">
  <defs>
    <style>
      .cls-1 {
        fill: #8060a4;
        stroke: #8060a4;
        stroke-miterlimit: 10;
        stroke-width: 5px;
      }

      .cls-2 {
        fill: #fff;
        stroke-width: 0px;
      }
    </style>
  </defs>
  <path class="cls-1" d="m77.81,74.29c-3.84-6.34-3.23-13.84,1.37-19.71,3.72-4.75,9.49-12.56,1.52-16.48-3.5-1.72-11.73,3.56-13.35-1.26-1.12-3.33,3.91-7.27,5.12-10.06,1.38-3.14,1.31-7.66-1.94-9.85-2.33-1.56-5.78-1.41-8.54-.31-1.25.5-2.62-.42-2.55-1.73.15-2.7-.1-5.39-1.39-7.78-1.85-3.43-6.59-5.79-10.25-4.01,0,0,0,0,0,0-2.29,1.11-3.19,3.23-3.7,5.51-.4,1.76-2.53,2.57-4.07,1.54-1.33-.88-2.73-1.69-4.18-2.59-3.66-2.29-15.01-2.38-15.54,4.73-.21,2.79,2.58,5.1,3.65,7.7.49,1.19.81,2.51.52,3.76-.7,3.09-4.2,2.84-6.77,2.47-2.38-.34-4.8-.59-7.19-.32-6.25.73-10.35,5.66-6.58,11.28,2.59,3.86,6.16,7,8.78,10.86,1.92,2.84-6.66,5.98-8.16,7.48-.88.88-1.51,2.08-1.4,3.3.38,4.06,5.01,4.76,8.09,5.71,6.81,2.09,3.41,8.24,1.07,11.97-3.1,4.93-8.89,13.54-1.6,17.93,6.31,3.8,23.56,4.37,24.61-5.19.58-5.27-6.68-9.74-4.9-14.77,2.12-5.99,12.1-5.28,16.56-2.31,3.94,2.62,2.97,6.14.86,9.64-1.87,3.11-4.2,7.47-1.23,10.69,5.01,5.46,17.11,5.14,23.98,4.48,4.54-.44,11.02-1.59,13.15-6.03,2.69-5.59-2.71-11.57-5.63-16.17-.11-.17-.21-.34-.32-.51Zm-38.94-19.82c-.59,0-1.07-.49-1.07-1.08v-19.26c0-.59.48-1.08,1.07-1.08s1.07.49,1.07,1.08v19.26c0,.59-.48,1.08-1.07,1.08Z"/>
  <path class="cls-2" d="m38.87,54.47c-.59,0-1.07-.49-1.07-1.08v-19.26c0-.59.48-1.08,1.07-1.08s1.07.49,1.07,1.08v19.26c0,.59-.48,1.08-1.07,1.08Z"/>
</svg>