<?xml version="1.0" encoding="UTF-8"?>
<svg id="_內容" data-name="內容" xmlns="http://www.w3.org/2000/svg" viewBox="0 0 95.59 47.55">
  <defs>
    <style>
      .cls-1 {
        fill: #f74f06;
        stroke-width: 0px;
      }
    </style>
  </defs>
  <path class="cls-1" d="m37.36,2.58c1.33,0,2.48.81,2.93,2.04h4.64c1.72,0,3.13,1.4,3.13,3.13v2.08c.33-.5.79-.92,1.37-1.17,3.31-1.46,6.25-3.1,8.73-4.85.54-.37,1.16-.57,1.8-.57h9.71c1.16,0,2.23.65,2.77,1.67h16.82c1.72,0,3.13,1.4,3.13,3.13v4.76c0,1.02-.5,1.98-1.33,2.56-.98.69-2,1.36-3.03,1.99.56.09,1.13.17,1.7.26,1.52.23,2.66,1.56,2.66,3.09v4.9c0,.41-.08.81-.25,1.19.16.39.25.79.25,1.21v4.47c0,.89-.39,1.74-1.05,2.33.66.59,1.05,1.44,1.05,2.33v4.69c0,1.72-1.4,3.13-3.13,3.13h-2.07c-.33,0-.65-.05-.96-.15-3.25-1.04-6.29-2.18-9.05-3.38v.41c0,1.72-1.4,3.13-3.13,3.13h-8.67c-1.72,0-3.13-1.4-3.13-3.13v-.41c-2.76,1.2-5.8,2.34-9.06,3.38-.31.1-.63.15-.96.15h-1.56c-1.19,0-2.22-.68-2.75-1.66-.36,1.33-1.56,2.32-3.01,2.32h-3.63c-.68,0-1.35-.23-1.9-.64-1.9-1.45-3.63-3.23-5.14-5.28-1.69,2.1-3.57,3.9-5.6,5.34-.53.38-1.16.58-1.81.58h-5.33c-.97,0-1.9-.46-2.49-1.23l-.39-.52c-.52,1.06-1.6,1.75-2.81,1.75h-6.38c-1.2,0-2.29-.68-2.81-1.75-.07,0-.15,0-.22,0-.37,0-.74-.07-1.09-.19-1.25-.46-2.05-1.61-2.05-2.94v-7.52c0-.72.25-1.42.71-1.98.05-.07.11-.13.16-.2-.56-.58-.87-1.36-.87-2.17v-4.43c0-.84.33-1.63.92-2.21-.58-.58-.92-1.38-.92-2.21v-3.74c0-.76.29-1.5.79-2.07-.5-.57-.79-1.31-.79-2.07v-4.38c0-1.72,1.4-3.13,3.13-3.13h4.5c.45-1.23,1.61-2.04,2.93-2.04h6.53c1.33,0,2.48.81,2.93,2.04h4.58c.45-1.23,1.61-2.04,2.93-2.04h6.53m0-2h-6.53c-1.66,0-3.16.77-4.1,2.04h-2.24c-.95-1.27-2.44-2.04-4.11-2.04h-6.53c-1.66,0-3.16.77-4.1,2.04h-3.33C3.58,2.62,1.28,4.92,1.28,7.75v4.38c0,.72.15,1.42.44,2.07-.29.65-.44,1.35-.44,2.07v3.74c0,.78.17,1.53.5,2.21-.33.68-.5,1.43-.5,2.21v4.43c0,.77.17,1.51.48,2.18-.32.68-.48,1.42-.48,2.17v7.52c0,2.18,1.32,4.06,3.36,4.81.29.11.58.19.88.24.96,1.14,2.38,1.82,3.92,1.82h6.38c1.04,0,2.03-.31,2.85-.86.83.55,1.82.86,2.84.86h5.33c1.07,0,2.09-.33,2.97-.94,1.55-1.1,3.02-2.39,4.39-3.85,1.22,1.41,2.56,2.66,3.99,3.75.89.68,1.99,1.05,3.11,1.05h3.63c1.26,0,2.44-.47,3.35-1.26.73.39,1.55.6,2.4.6h1.56c.54,0,1.06-.08,1.57-.25,2.47-.79,4.82-1.63,7.02-2.52.85,1.64,2.57,2.77,4.55,2.77h8.67c1.98,0,3.7-1.12,4.55-2.77,2.2.89,4.55,1.73,7.02,2.52.51.16,1.04.25,1.57.25h2.07c2.83,0,5.13-2.3,5.13-5.13v-4.69c0-.82-.2-1.62-.56-2.33.37-.72.56-1.51.56-2.33v-4.47c0-.41-.05-.81-.15-1.21.1-.39.15-.79.15-1.19v-4.9c0-1.56-.72-3-1.87-3.95,1.18-.97,1.87-2.42,1.87-3.96v-4.76c0-2.83-2.3-5.13-5.13-5.13h-15.8c-.96-1.05-2.32-1.67-3.79-1.67h-9.71c-1.05,0-2.07.32-2.95.93-2.07,1.46-4.48,2.84-7.17,4.1-.64-2.11-2.6-3.65-4.91-3.65h-3.47c-.95-1.27-2.44-2.04-4.11-2.04h0Z"/>
  <g>
    <path class="cls-1" d="m19.51,14.43h.65c.27,0,.49-.22.49-.49v-.84c0-.27.22-.49.49-.49h8.51c.27,0,.49.22.49.49v.75c0,.27.22.49.49.49h6.53c.27,0,.49-.22.49-.49v-.75c0-.27.22-.49.49-.49h6.6c.27,0,.49-.22.49-.49v-4.38c0-.27-.22-.49-.49-.49h-6.6c-.27,0-.49-.22-.49-.49v-1.07c0-.27-.22-.49-.49-.49h-6.53c-.27,0-.49.22-.49.49v1.07c0,.27-.22.49-.49.49h-8.51c-.27,0-.49-.22-.49-.49v-1.07c0-.27-.22-.49-.49-.49h-6.53c-.27,0-.49.22-.49.49v1.07c0,.27-.22.49-.49.49h-6.47c-.27,0-.49.22-.49.49v4.38c0,.27.22.49.49.49h6.47c.27,0,.49.22.49.49v.84c0,.27.22.49.49.49h5.88Z"/>
    <path class="cls-1" d="m5.7,16.27v3.74c0,.27.22.49.49.49h2.07c.27,0,.49.22.49.49v2.48c0,.27-.22.49-.49.49h-2.07c-.27,0-.49.22-.49.49v4.43c0,.27.22.49.49.49h1.25c.38,0,.62.42.41.74-.59.94-1.27,1.88-2.04,2.81-.07.09-.11.2-.11.31v7.52c0,.45.56.66.86.32.46-.54.89-1.11,1.31-1.7.27-.39.88-.19.88.28v2.85c0,.27.22.49.49.49h6.38c.27,0,.49-.22.49-.49v-3.43c0-.51.69-.68.92-.22.15.3.28.57.4.83.13.28.49.36.74.17l3.28-2.55c.2-.15.25-.43.12-.64-.96-1.57-2.39-3.73-4.29-6.53-.22-.32.01-.76.4-.76h1.63c.35,0,.59.36.44.68-.1.22-.2.45-.28.65-.11.26.02.55.29.65l5.23,1.82c.23.08.49-.02.6-.25,1.72-3.58,3.01-7.59,3.78-11.98.05-.26-.13-.51-.39-.56l-5.53-1.1c-.26-.05-.51.12-.57.38-.42,1.98-.89,3.93-1.47,5.82-.16.53-.95.41-.95-.14v-.88c0-.27-.22-.49-.49-.49h-3.37c-.27,0-.49-.22-.49-.49v-2.48c0-.27.22-.49.49-.49h3.86c.35,0,.58-.36.45-.68l-1.61-3.74c-.08-.18-.25-.29-.45-.29H6.19c-.27,0-.49.22-.49.49Z"/>
    <path class="cls-1" d="m26.92,42.87c2.59-1.84,4.86-4.26,6.82-7.26.2-.3.64-.29.82.02,1.72,2.98,3.8,5.38,6.22,7.23.09.07.19.1.3.1h3.63c.27,0,.49-.22.49-.49v-4.26c0-.16-.08-.31-.21-.4-2.33-1.61-3.97-3.42-5.1-5.65-.2-.39.18-.82.59-.68l2.68.92c.23.08.48-.02.59-.23.5-.95.97-1.94,1.41-2.97.03-.06.04-.13.04-.19v-9.24c0-.23-.16-.43-.39-.48l-3.11-.61c-.26-.05-.51.11-.57.37-.53,2.37-1.21,4.64-2.02,6.82-.18.48-.89.4-.94-.12-.09-1-.15-2.13-.15-3.4v-6.09c0-.27-.22-.49-.49-.49h-6.73c-.27,0-.49.22-.49.49v6.09c0,4.47-.94,8.1-2.76,10.85-1.74,2.62-4.47,4.75-8.23,6.48-.28.13-.38.49-.19.74l1.78,2.35c.09.12.24.19.39.19h5.33c.1,0,.2-.03.28-.09Z"/>
  </g>
  <path class="cls-1" d="m44.71,45.6h-3.63c-.68,0-1.35-.23-1.9-.64-1.9-1.45-3.63-3.23-5.14-5.28-1.69,2.1-3.57,3.9-5.6,5.34-.53.38-1.16.58-1.81.58h-5.33c-.97,0-1.9-.46-2.49-1.23l-.39-.52c-.52,1.06-1.6,1.75-2.81,1.75h-6.38c-1.2,0-2.29-.68-2.81-1.75-.44.03-.89-.03-1.31-.19-1.25-.46-2.05-1.61-2.05-2.94v-7.52c0-.72.25-1.42.71-1.98.05-.07.11-.13.16-.2-.56-.58-.87-1.36-.87-2.17v-4.43c0-.84.33-1.63.92-2.21-.58-.58-.92-1.38-.92-2.21v-3.74c0-.76.29-1.5.79-2.07-.5-.57-.79-1.31-.79-2.07v-4.38c0-1.72,1.4-3.13,3.13-3.13h4.5c.45-1.23,1.61-2.04,2.93-2.04h6.53c1.33,0,2.48.81,2.93,2.04h4.58c.45-1.23,1.61-2.04,2.93-2.04h6.53c1.33,0,2.48.81,2.93,2.04h4.64c1.72,0,3.13,1.4,3.13,3.13v4.38c0,1.72-1.4,3.12-3.12,3.13l-4.21.03c.1.29.15.59.16.89.49-.16,1.02-.18,1.54-.08l3.11.61c1.46.28,2.53,1.57,2.53,3.07v9.24c0,.42-.08.83-.25,1.22-.47,1.11-.98,2.18-1.51,3.18-.24.46-.59.85-1.02,1.14.43.38.9.74,1.43,1.1.85.59,1.35,1.55,1.35,2.57v4.26c0,1.72-1.4,3.13-3.13,3.13Zm-10.64-6.75l.19.27c1.52,2.13,3.28,3.96,5.23,5.44.45.35,1.02.54,1.59.54h3.63c1.45,0,2.63-1.18,2.63-2.63v-4.26c0-.86-.42-1.67-1.13-2.16-.64-.45-1.21-.89-1.73-1.37l-.27-.24.32-.17c.47-.25.86-.63,1.11-1.11.52-.99,1.03-2.05,1.49-3.15.14-.32.21-.67.21-1.02v-9.24c0-1.25-.89-2.34-2.12-2.58l-3.11-.61c-.54-.1-1.09-.04-1.59.18l-.35.16v-.66c0-.38-.09-.77-.26-1.12l-.17-.35,4.98-.04c1.45,0,2.62-1.18,2.62-2.63v-4.38c0-1.45-1.18-2.63-2.63-2.63h-5l-.05-.18c-.34-1.11-1.35-1.86-2.51-1.86h-6.53c-1.17,0-2.18.75-2.51,1.86l-.05.18h-5.32l-.05-.18c-.34-1.11-1.35-1.86-2.51-1.86h-6.53c-1.17,0-2.18.75-2.51,1.86l-.05.18h-4.87c-1.45,0-2.63,1.18-2.63,2.63v4.38c0,.71.29,1.39.81,1.89l.19.18-.19.18c-.51.49-.81,1.18-.81,1.89v3.74c0,.78.34,1.52.95,2.02l.23.19-.23.19c-.6.5-.95,1.24-.95,2.02v4.43c0,.75.32,1.47.88,1.96l.18.16-.15.18c-.1.13-.2.25-.31.38-.38.47-.59,1.06-.59,1.66v7.52c0,1.11.68,2.08,1.72,2.47.4.15.84.2,1.26.14l.19-.02.07.18c.41.98,1.36,1.61,2.42,1.61h6.38c1.15,0,2.15-.74,2.5-1.83l.15-.46.95,1.25c.49.65,1.27,1.04,2.09,1.04h5.33c.55,0,1.07-.17,1.52-.49,2.08-1.47,4-3.32,5.7-5.5l.21-.26Zm10.64,5.56h-3.63c-.42,0-.84-.14-1.17-.39-2.09-1.59-3.95-3.59-5.54-5.95-.06-.09-.17-.15-.28-.15v-.25s0,.25,0,.25c-.11,0-.21.05-.28.14-1.79,2.41-3.82,4.43-6.05,6-.33.23-.72.36-1.12.36h-5.33c-.6,0-1.17-.28-1.54-.76l-1.6-2.11c-.09-.12-.25-.17-.39-.12-.14.05-.24.18-.24.33v.73c0,1.06-.87,1.93-1.93,1.93h-6.38c-.94,0-1.74-.67-1.9-1.6-.02-.1-.08-.19-.17-.24-.09-.05-.2-.06-.29-.02-.43.16-.9.16-1.34,0-.77-.28-1.27-1-1.27-1.81v-7.52c0-.44.15-.88.44-1.22.25-.3.48-.6.71-.9.06-.08.08-.19.06-.28-.02-.1-.09-.19-.18-.23-.64-.33-1.03-.99-1.03-1.71v-4.43c0-.89.6-1.66,1.47-1.88.16-.04.26-.18.26-.34s-.11-.3-.26-.34c-.86-.21-1.47-.98-1.47-1.88v-3.74c0-.75.44-1.44,1.13-1.75.12-.06.2-.18.2-.32s-.08-.26-.2-.32c-.69-.31-1.13-1-1.13-1.75v-4.38c0-1.06.87-1.93,1.93-1.93h5.17c.18,0,.33-.13.35-.31.1-.99.93-1.73,1.92-1.73h6.53c.99,0,1.82.74,1.92,1.73.02.18.17.31.35.31h5.92c.18,0,.33-.13.35-.31.1-.99.93-1.73,1.92-1.73h6.53c.99,0,1.82.74,1.92,1.73.02.18.17.31.35.31h5.3c1.06,0,1.93.87,1.93,1.93v4.38c0,1.06-.87,1.93-1.93,1.93l-5.37.04c-.14,0-.32.15-.36.31-.03.07-.08.17-.09.19-.05.12-.03.27.06.37.33.36.51.82.51,1.3v1.48c0,.15.09.28.23.33.14.05.29,0,.39-.11.44-.56,1.17-.83,1.88-.69l3.11.61c.9.18,1.56.97,1.56,1.9v9.24c0,.26-.05.51-.15.75-.46,1.08-.95,2.12-1.47,3.09-.31.59-.89.97-1.55,1.02-.13,0-.25.1-.3.22-.05.12-.02.27.07.36.73.77,1.56,1.48,2.56,2.17.52.36.83.96.83,1.59v4.26c0,1.06-.87,1.93-1.93,1.93Zm-10.63-7h.01c.28,0,.54.15.69.37,1.56,2.32,3.38,4.28,5.43,5.84.25.19.56.29.87.29h3.63c.79,0,1.43-.64,1.43-1.43v-4.26c0-.47-.23-.91-.62-1.18-1.03-.71-1.89-1.44-2.64-2.24-.22-.24-.29-.58-.17-.89.12-.3.4-.51.73-.54.49-.04.92-.32,1.15-.76.51-.96,1-1.99,1.45-3.05.07-.17.11-.36.11-.55v-9.24c0-.68-.49-1.27-1.16-1.4l-3.11-.61c-.53-.1-1.07.09-1.4.51-.23.29-.61.4-.95.27-.34-.12-.57-.44-.57-.8v-1.48c0-.35-.14-.69-.38-.96-.22-.24-.29-.6-.15-.91,0-.02.07-.15.08-.17.08-.33.45-.63.82-.63l5.37-.04c.8,0,1.44-.64,1.44-1.43v-4.38c0-.79-.64-1.43-1.43-1.43h-5.3c-.44,0-.8-.33-.84-.76-.08-.73-.69-1.28-1.42-1.28h-6.53c-.74,0-1.35.55-1.42,1.28-.04.43-.41.76-.84.76h-5.92c-.44,0-.8-.33-.84-.76-.08-.73-.69-1.28-1.42-1.28h-6.53c-.74,0-1.35.55-1.42,1.28-.04.43-.41.76-.84.76h-5.17c-.79,0-1.43.64-1.43,1.43v4.38c0,.55.33,1.06.84,1.3.3.14.49.44.49.77s-.19.63-.49.77c-.51.23-.84.74-.84,1.3v3.74c0,.66.45,1.23,1.09,1.39.38.09.64.43.64.82s-.27.73-.64.82c-.64.16-1.09.73-1.09,1.39v4.43c0,.54.29,1.02.76,1.27.22.12.38.32.43.57.05.24,0,.5-.15.7-.23.3-.47.61-.72.91-.21.25-.32.58-.32.9v7.52c0,.61.37,1.14.94,1.34.33.12.67.12.99,0,.24-.09.5-.07.72.06.22.13.37.34.42.59.12.69.71,1.18,1.41,1.18h6.38c.79,0,1.43-.64,1.43-1.43v-.73c0-.36.23-.69.58-.8.35-.12.73,0,.95.29l1.6,2.11c.27.35.69.56,1.14.56h5.33c.3,0,.59-.09.83-.27,2.18-1.55,4.18-3.53,5.94-5.89.16-.21.41-.34.68-.34Z"/>
  <g>
    <path class="cls-1" d="m89.05,7.54h-18.91c-.44,0-.65-.53-.34-.83h0c.31-.3.1-.83-.34-.83h-9.71c-.1,0-.2.03-.28.09-2.65,1.87-5.71,3.57-9.2,5.11-.18.08-.29.25-.29.44v5.77c0,.34.33.57.65.46,1.44-.51,2.78-1.04,4.02-1.6.14-.06.29-.06.43.01,1.25.68,2.66,1.36,4.18,2.04.44.2.36.84-.11.92-2.58.46-5.49.89-8.74,1.3-.24.03-.43.24-.43.48v4.68c0,.29.26.52.55.48,7.6-1.03,14.08-2.34,19.38-3.87.09-.03.18-.03.27,0,5.42,1.56,11.74,2.88,18.8,3.89.29.04.56-.19.56-.48v-4.9c0-.24-.18-.44-.42-.48-2.94-.44-5.56-.87-7.88-1.29-.46-.08-.55-.71-.12-.91,2.89-1.4,5.65-3.02,8.21-4.83.13-.09.21-.24.21-.4v-4.76c0-.27-.22-.49-.49-.49Zm-18.8,8.85c-2.6-.81-4.95-1.7-7.09-2.7-.47-.22-.32-.93.2-.93h13.28c.5,0,.68.68.23.92-1.93,1.03-4.02,1.92-6.31,2.71-.1.03-.21.04-.31,0Z"/>
    <path class="cls-1" d="m89.05,27.51h-14.24c-.27,0-.49-.22-.49-.49v-2.44c0-.27-.22-.49-.49-.49h-8.67c-.27,0-.49.22-.49.49v2.44c0,.27-.22.49-.49.49h-13.73c-.27,0-.49.22-.49.49v4.47c0,.27.22.49.49.49h8.14c.54,0,.68.75.17.94-2.5.92-5.31,1.79-8.43,2.63-.21.06-.36.25-.36.47v4.82c0,.27.22.49.49.49h1.56c.05,0,.1,0,.15-.02,4.47-1.43,8.39-2.99,11.81-4.68.32-.16.7.08.7.44v3.78c0,.27.22.49.49.49h8.67c.27,0,.49-.22.49-.49v-3.78c0-.36.38-.6.7-.44,3.42,1.69,7.33,3.25,11.8,4.68.05.02.1.02.15.02h2.07c.27,0,.49-.22.49-.49v-4.69c0-.22-.15-.41-.36-.47-3.33-.88-6.31-1.8-8.94-2.77-.51-.19-.37-.94.17-.94h8.65c.27,0,.49-.22.49-.49v-4.47c0-.27-.22-.49-.49-.49Z"/>
  </g>
  <path class="cls-1" d="m89.05,44.95h-2.07c-.33,0-.65-.05-.96-.15-3.25-1.04-6.29-2.18-9.05-3.38v.41c0,1.72-1.4,3.13-3.13,3.13h-8.67c-1.72,0-3.13-1.4-3.13-3.13v-.41c-2.76,1.2-5.8,2.34-9.06,3.38-.31.1-.63.15-.96.15h-1.56c-1.72,0-3.13-1.4-3.13-3.13v-4.82c0-.87.35-1.68.97-2.27-.62-.59-.97-1.4-.97-2.26v-4.47c0-.42.08-.83.25-1.21-.17-.39-.25-.79-.25-1.2v-4.68c0-.66.2-1.28.58-1.81-.37-.53-.58-1.16-.58-1.81v-5.77c0-1.24.73-2.36,1.87-2.86,3.31-1.46,6.25-3.1,8.73-4.85.54-.37,1.16-.57,1.8-.57h9.71c1.16,0,2.23.65,2.77,1.67h16.82c1.72,0,3.13,1.4,3.13,3.13v4.76c0,1.02-.5,1.98-1.33,2.56-.98.69-2,1.36-3.03,1.99.56.09,1.13.17,1.7.26,1.52.23,2.66,1.56,2.66,3.09v4.9c0,.41-.08.81-.25,1.19.16.39.25.79.25,1.21v4.47c0,.89-.39,1.74-1.05,2.33.66.59,1.05,1.44,1.05,2.33v4.69c0,1.72-1.4,3.13-3.13,3.13Zm-12.58-4.3l.35.16c2.84,1.26,5.98,2.44,9.35,3.52.26.08.54.13.81.13h2.07c1.45,0,2.63-1.18,2.63-2.63v-4.69c0-.84-.41-1.64-1.09-2.13l-.28-.2.28-.2c.68-.49,1.09-1.29,1.09-2.13v-4.47c0-.38-.08-.75-.25-1.1l-.05-.11.05-.11c.16-.35.25-.72.25-1.09v-4.9c0-1.29-.96-2.4-2.24-2.6-.81-.12-1.6-.24-2.38-.37l-.68-.11.59-.35c1.22-.74,2.43-1.52,3.58-2.33.7-.49,1.12-1.3,1.12-2.15v-4.76c0-1.45-1.18-2.63-2.63-2.63h-17.14l-.07-.15c-.43-.94-1.35-1.52-2.38-1.52h-9.71c-.54,0-1.06.17-1.51.48-2.51,1.77-5.48,3.42-8.82,4.9-.95.42-1.57,1.36-1.57,2.4v5.77c0,.59.21,1.18.58,1.65l.13.16-.13.16c-.38.47-.58,1.04-.58,1.65v4.68c0,.37.08.74.25,1.09l.05.11-.05.11c-.17.35-.25.72-.25,1.11v4.47c0,.81.37,1.56,1.01,2.07l.25.2-.25.2c-.64.5-1.01,1.26-1.01,2.07v4.82c0,1.45,1.18,2.63,2.63,2.63h1.56c.27,0,.54-.04.8-.13,3.38-1.08,6.53-2.27,9.36-3.52l.35-.16v1.17c0,1.45,1.18,2.63,2.63,2.63h8.67c1.45,0,2.63-1.18,2.63-2.63v-1.17Zm12.58,3.11h-2.07c-.2,0-.4-.03-.6-.09-3.69-1.18-7.09-2.48-10.12-3.87-.11-.05-.23-.04-.33.02-.1.06-.16.17-.16.29v1.71c0,1.06-.87,1.93-1.93,1.93h-8.67c-1.06,0-1.93-.87-1.93-1.93v-1.71c0-.12-.06-.23-.16-.29-.1-.06-.23-.07-.33-.02-3.02,1.38-6.43,2.69-10.13,3.87-.19.06-.39.09-.59.09h-1.56c-1.06,0-1.93-.87-1.93-1.93v-4.82c0-.87.59-1.64,1.44-1.87l.27-.07c.16-.04.27-.19.26-.36,0-.16-.14-.3-.3-.32-.95-.13-1.66-.96-1.66-1.91v-4.47c0-.36.1-.71.3-1.03.07-.11.07-.26,0-.37-.2-.32-.3-.67-.3-1.02v-4.68c0-.6.28-1.16.76-1.53.08-.06.14-.17.14-.27s-.05-.21-.14-.28c-.47-.36-.75-.94-.75-1.53v-5.77c0-.76.45-1.46,1.15-1.77,3.38-1.5,6.39-3.17,8.94-4.97.33-.23.72-.35,1.11-.35h9.71c.79,0,1.49.47,1.79,1.2.03.07.05.14.07.21.04.15.18.26.34.26h17.39c1.06,0,1.93.87,1.93,1.93v4.76c0,.63-.31,1.22-.83,1.58-1.59,1.12-3.26,2.17-4.97,3.14-.13.07-.2.22-.17.36.03.14.14.26.29.28,1.3.21,2.65.42,4.03.63.94.14,1.65.96,1.65,1.91v4.9c0,.35-.1.69-.3,1.01-.07.11-.07.26,0,.37.2.31.3.67.3,1.02v4.47c0,1.08-.9,1.93-2.04,1.93-.17,0-.32.13-.34.3-.02.17.09.34.25.38l.69.18c.85.23,1.44.99,1.44,1.87v4.69c0,1.06-.87,1.93-1.93,1.93Zm-12.93-4.49c.12,0,.24.03.35.08,3.01,1.38,6.39,2.67,10.06,3.85.15.05.3.07.45.07h2.07c.79,0,1.43-.64,1.43-1.43v-4.69c0-.65-.44-1.22-1.07-1.38l-.69-.18c-.41-.11-.68-.51-.62-.93.06-.42.42-.74.84-.74.88,0,1.54-.62,1.54-1.43v-4.47c0-.26-.08-.52-.22-.75-.17-.27-.17-.62,0-.9.15-.24.23-.5.23-.75v-4.9c0-.7-.52-1.31-1.22-1.41-1.39-.21-2.74-.42-4.04-.63-.35-.06-.63-.33-.7-.69-.06-.35.11-.71.42-.89,1.69-.96,3.35-2,4.93-3.11.38-.27.61-.71.61-1.17v-4.76c0-.79-.64-1.43-1.43-1.43h-17.39c-.38,0-.72-.26-.82-.62-.01-.05-.03-.1-.05-.16-.22-.54-.74-.89-1.32-.89h-9.71c-.29,0-.58.09-.83.26-2.57,1.82-5.61,3.5-9.02,5.01-.52.23-.86.74-.86,1.31v5.77c0,.44.21.87.56,1.14.21.16.33.41.33.67s-.12.51-.33.67c-.36.27-.56.69-.56,1.13v4.68c0,.25.08.51.23.75.17.28.17.63,0,.9-.15.23-.22.5-.22.76v4.47c0,.71.53,1.32,1.23,1.42.4.06.7.39.73.79.02.4-.24.77-.62.87l-.27.07c-.63.17-1.06.74-1.06,1.38v4.82c0,.79.64,1.43,1.43,1.43h1.56c.15,0,.3-.02.44-.07,3.68-1.18,7.07-2.47,10.07-3.85.26-.12.56-.1.81.06.24.16.39.42.39.71v1.71c0,.79.64,1.43,1.43,1.43h8.67c.79,0,1.43-.64,1.43-1.43v-1.71c0-.29.15-.56.39-.71.14-.09.3-.13.46-.13Z"/>
</svg>