<?xml version="1.0" encoding="UTF-8"?>
<svg id="_圖層_1" data-name="圖層 1" xmlns="http://www.w3.org/2000/svg" viewBox="0 0 97.61 125.52">
  <defs>
    <style>
      .cls-1 {
        fill: #ecc839;
      }

      .cls-2 {
        fill: #060001;
        stroke-width: 0px;
      }
    </style>
  </defs>
  <g>
    <g>
      <path class="cls-2" d="m13.09.06L6.96,0c-.23,0-.44.12-.55.32L1.11,10.13C.41,11.43.03,12.89.02,14.37L0,16.08c0,.34.27.61.61.62l4.92.05c.34,0,.62-.27.62-.61l.02-1.92c0-.34.28-.61.62-.61l6.19.06c.34,0,.62.28.61.62l-.02,1.92c0,.34.27.61.61.62l5.03.05c.34,0,.62-.27.62-.61l.02-1.68c.01-1.5-.34-2.98-1.04-4.31L13.63.39c-.11-.2-.31-.33-.54-.33Zm-5.18,8.55l2.08-4.32,1.99,4.36-4.07-.04Z"/>
      <path class="cls-2" d="m34.96.24c-.16,0-.31.06-.42.16l-5.31,4.8h-.1s.04-4.41.04-4.41c0-.34-.27-.61-.61-.62l-4.55-.04c-.34,0-.62.27-.62.61l-.15,15.53c0,.34.27.61.61.62l4.55.04c.34,0,.62-.27.62-.61l.06-6.47h.1s5.19,6.89,5.19,6.89c.12.15.3.24.49.25l5.99.06c.52,0,.81-.59.49-.99l-6.44-8.04c-.2-.25-.17-.61.06-.83l6.24-5.85c.4-.38.14-1.05-.42-1.06l-5.82-.05Z"/>
      <rect class="cls-2" x="39.35" y="5.85" width="16.76" height="5.78" rx=".62" ry=".62" transform="translate(38.54 56.38) rotate(-89.46)"/>
      <path class="cls-2" d="m86.77.19c-5.73-.04-10.43,1.73-10.47,8.06v1.22c-.09,6.32,4.57,8.19,10.3,8.25,5.72.04,10.42-1.74,10.46-8.06v-1.22c.07-6.32-4.56-8.2-10.29-8.25Zm4.53,9.02c0,2.84-2.13,3.33-4.64,3.35-2.52-.06-4.65-.6-4.59-3.43v-.43c0-2.82,2.14-3.32,4.66-3.33,2.51.06,4.64.6,4.58,3.42v.43Z"/>
      <path class="cls-2" d="m62.58,6.25l4.63.04c.34,0,.62.28.61.62l-.03,3.11c.01,2.42-2,2.81-4.38,2.82-2.36-.05-4.37-.49-4.31-2.9v-.82c.01-.34-.26-.61-.6-.62l-4.55-.04c-.34,0-.62.27-.62.61v1.18c-.09,5.55,4.47,7.19,10.04,7.26,5.61.05,10.15-1.52,10.2-7.07l.04-4.08.03-3.45.02-1.69c0-.34-.27-.61-.61-.62l-10.41-.1c-.34,0-.62.27-.62.61l-.04,4.53c0,.34.27.61.61.62Z"/>
    </g>
    <g>
      <path class="cls-2" d="m13.09,21.98l-6.13-.06c-.23,0-.44.12-.55.32l-5.3,9.81C.41,33.35.03,34.81.02,36.28L0,38c0,.34.27.61.61.62l4.92.05c.34,0,.62-.27.62-.61l.02-1.92c0-.34.28-.61.62-.61l6.19.06c.34,0,.62.28.61.62l-.02,1.92c0,.34.27.61.61.62l5.03.05c.34,0,.62-.27.62-.61l.02-1.68c.01-1.5-.34-2.98-1.04-4.31l-5.19-9.89c-.11-.2-.31-.33-.54-.33Zm-5.18,8.55l2.08-4.32,1.99,4.36-4.07-.04Z"/>
      <path class="cls-2" d="m34.96,22.16c-.16,0-.31.06-.42.16l-5.31,4.8h-.1s.04-4.41.04-4.41c0-.34-.27-.61-.61-.62l-4.55-.04c-.34,0-.62.27-.62.61l-.15,15.53c0,.34.27.61.61.62l4.55.04c.34,0,.62-.27.62-.61l.06-6.47h.1s5.19,6.89,5.19,6.89c.12.15.3.24.49.25l5.99.06c.52,0,.81-.59.49-.99l-6.44-8.04c-.2-.25-.17-.61.06-.83l6.24-5.85c.4-.38.14-1.05-.42-1.06l-5.82-.05Z"/>
      <path class="cls-2" d="m45.37,39.01l4.55.04c.34,0,.62-.27.62-.61l.15-15.53c0-.34-.27-.61-.61-.62l-4.55-.04c-.34,0-.62.27-.62.61l-.15,15.53c0,.34.27.61.61.62Z"/>
      <path class="cls-2" d="m86.77,22.11c-5.73-.04-10.43,1.73-10.47,8.06v1.22c-.09,6.32,4.57,8.19,10.3,8.25,5.72.04,10.42-1.74,10.46-8.06v-1.22c.07-6.32-4.56-8.2-10.29-8.25Zm4.53,9.02c0,2.84-2.13,3.33-4.64,3.35-2.52-.06-4.65-.6-4.59-3.43v-.43c0-2.82,2.14-3.32,4.66-3.33,2.51.06,4.64.6,4.58,3.42v.43Z"/>
      <path class="cls-2" d="m62.58,28.17l4.63.04c.34,0,.62.28.61.62l-.03,3.11c.01,2.42-2,2.81-4.38,2.82-2.36-.05-4.37-.49-4.31-2.9v-.82c.01-.34-.26-.61-.6-.62l-4.55-.04c-.34,0-.62.27-.62.61v1.18c-.09,5.55,4.47,7.19,10.04,7.26,5.61.05,10.15-1.52,10.2-7.07l.04-4.08.03-3.45.02-1.69c0-.34-.27-.61-.61-.62l-10.41-.1c-.34,0-.62.27-.62.61l-.04,4.53c0,.34.27.61.61.62Z"/>
    </g>
    <g>
      <path class="cls-2" d="m13.09,43.89l-6.13-.06c-.23,0-.44.12-.55.32l-5.3,9.81C.41,55.27.03,56.72.02,58.2L0,59.92c0,.34.27.61.61.62l4.92.05c.34,0,.62-.27.62-.61l.02-1.92c0-.34.28-.61.62-.61l6.19.06c.34,0,.62.28.61.62l-.02,1.92c0,.34.27.61.61.62l5.03.05c.34,0,.62-.27.62-.61l.02-1.68c.01-1.5-.34-2.98-1.04-4.31l-5.19-9.89c-.11-.2-.31-.33-.54-.33Zm-5.18,8.55l2.08-4.32,1.99,4.36-4.07-.04Z"/>
      <path class="cls-2" d="m34.96,44.08c-.16,0-.31.06-.42.16l-5.31,4.8h-.1s.04-4.41.04-4.41c0-.34-.27-.61-.61-.62l-4.55-.04c-.34,0-.62.27-.62.61l-.15,15.53c0,.34.27.61.61.62l4.55.04c.34,0,.62-.27.62-.61l.06-6.47h.1s5.19,6.89,5.19,6.89c.12.15.3.24.49.25l5.99.06c.52,0,.81-.59.49-.99l-6.44-8.04c-.2-.25-.17-.61.06-.83l6.24-5.85c.4-.38.14-1.05-.42-1.06l-5.82-.05Z"/>
      <path class="cls-2" d="m45.37,60.93l4.55.04c.34,0,.62-.27.62-.61l.15-15.53c0-.34-.27-.61-.61-.62l-4.55-.04c-.34,0-.62.27-.62.61l-.15,15.53c0,.34.27.61.61.62Z"/>
      <path class="cls-2" d="m86.77,44.02c-5.73-.04-10.43,1.73-10.47,8.06v1.22c-.09,6.32,4.57,8.19,10.3,8.25,5.72.04,10.42-1.74,10.46-8.06v-1.22c.07-6.32-4.56-8.2-10.29-8.25Zm4.53,9.02c0,2.84-2.13,3.33-4.64,3.35-2.52-.06-4.65-.6-4.59-3.43v-.43c0-2.82,2.14-3.32,4.66-3.33,2.51.06,4.64.6,4.58,3.42v.43Z"/>
      <path class="cls-2" d="m62.58,50.09l4.63.04c.34,0,.62.28.61.62l-.03,3.11c.01,2.42-2,2.81-4.38,2.82-2.36-.05-4.37-.49-4.31-2.9v-.82c.01-.34-.26-.61-.6-.62l-4.55-.04c-.34,0-.62.27-.62.61v1.18c-.09,5.55,4.47,7.19,10.04,7.26,5.61.05,10.15-1.52,10.2-7.07l.04-4.08.03-3.45.02-1.69c0-.34-.27-.61-.61-.62l-10.41-.1c-.34,0-.62.27-.62.61l-.04,4.53c0,.34.27.61.61.62Z"/>
    </g>
  </g>
  <path class="cls-1" d="m17.56,62.73c-21.63-6.23-21.63-10.62.39-16.45-10.44-1.93-16.24-4.55-16.25-8.01,0-3.46,5.2-6.16,15.93-8.1-.45-.24-.57-.43-.97-.51C2.89,26.95-.91,23.28,3.2,19.01c4-4.16,16.12-5.92,30.61-6.68,14.99-.79,29.89-.67,43.98,1.12,22.67,2.87,26.66,11.07,7.7,15.49-1.33.31-2.66.62-4.62,1.09,10.83,2.04,16.47,4.71,16.35,8.16-.12,3.38-5.02,6.08-17.05,8.13,11.55,2.01,17.1,4.7,17.09,8.12,0,3.42-5.12,6.18-16.79,8.24,11.21,2.06,16.79,4.73,16.75,8.17-.05,3.43-5.08,6.17-16.89,8.17,11.58,2.11,16.97,4.8,16.88,8.26-.09,3.38-5.21,6.06-17.98,8.3,2.6.34,4.26.46,5.46.73,21.08,4.77,15.55,13.59-10.4,16.05-18.19,1.72-36.78,1.78-54.32-.58-22.01-2.97-24.86-11.19-5.86-15.43,1.2-.27,2.3-.56,4.07-1-10.98-1.99-16.43-4.66-16.45-8.11-.03-3.47,5.56-6.12,16.05-8.06-21.93-6.64-21.94-10.74-.19-16.44Z"/>
  <g>
    <g>
      <path class="cls-2" d="m13.09,64.02l-6.13-.06c-.23,0-.44.12-.55.32l-5.3,9.81c-.7,1.3-1.08,2.76-1.09,4.23L0,80.05c0,.34.27.61.61.62l4.92.05c.34,0,.62-.27.62-.61l.02-1.92c0-.34.28-.61.62-.61l6.19.06c.34,0,.62.28.61.62l-.02,1.92c0,.34.27.61.61.62l5.03.05c.34,0,.62-.27.62-.61l.02-1.68c.01-1.5-.34-2.98-1.04-4.31l-5.19-9.89c-.11-.2-.31-.33-.54-.33Zm-5.18,8.55l2.08-4.32,1.99,4.36-4.07-.04Z"/>
      <path class="cls-2" d="m34.96,64.21c-.16,0-.31.06-.42.16l-5.31,4.8h-.1s.04-4.41.04-4.41c0-.34-.27-.61-.61-.62l-4.55-.04c-.34,0-.62.27-.62.61l-.15,15.53c0,.34.27.61.61.62l4.55.04c.34,0,.62-.27.62-.61l.06-6.47h.1s5.19,6.89,5.19,6.89c.12.15.3.24.49.25l5.99.06c.52,0,.81-.59.49-.99l-6.44-8.04c-.2-.25-.17-.61.06-.83l6.24-5.85c.4-.38.14-1.05-.42-1.06l-5.82-.05Z"/>
      <path class="cls-2" d="m45.37,81.06l4.55.04c.34,0,.62-.27.62-.61l.15-15.53c0-.34-.27-.61-.61-.62l-4.55-.04c-.34,0-.62.27-.62.61l-.15,15.53c0,.34.27.61.61.62Z"/>
      <path class="cls-2" d="m86.77,64.15c-5.73-.04-10.43,1.73-10.47,8.06v1.22c-.09,6.32,4.57,8.19,10.3,8.25,5.72.04,10.42-1.74,10.46-8.06v-1.22c.07-6.32-4.56-8.2-10.29-8.25Zm4.53,9.02c0,2.84-2.13,3.33-4.64,3.35-2.52-.06-4.65-.6-4.59-3.43v-.43c0-2.82,2.14-3.32,4.66-3.33,2.51.06,4.64.6,4.58,3.42v.43Z"/>
      <path class="cls-2" d="m62.58,70.22l4.63.04c.34,0,.62.28.61.62l-.03,3.11c.01,2.42-2,2.81-4.38,2.82-2.36-.05-4.37-.49-4.31-2.9v-.82c.01-.34-.26-.61-.6-.62l-4.55-.04c-.34,0-.62.27-.62.61v1.18c-.09,5.55,4.47,7.19,10.04,7.26,5.61.05,10.15-1.52,10.2-7.07l.04-4.08.03-3.45.02-1.69c0-.34-.27-.61-.61-.62l-10.41-.1c-.34,0-.62.27-.62.61l-.04,4.53c0,.34.27.61.61.62Z"/>
    </g>
    <g>
      <path class="cls-2" d="m13.09,85.94l-6.13-.06c-.23,0-.44.12-.55.32l-5.3,9.81c-.7,1.3-1.08,2.76-1.09,4.23L0,101.96c0,.34.27.61.61.62l4.92.05c.34,0,.62-.27.62-.61l.02-1.92c0-.34.28-.61.62-.61l6.19.06c.34,0,.62.28.61.62l-.02,1.92c0,.34.27.61.61.62l5.03.05c.34,0,.62-.27.62-.61l.02-1.68c.01-1.5-.34-2.98-1.04-4.31l-5.19-9.89c-.11-.2-.31-.33-.54-.33Zm-5.18,8.55l2.08-4.32,1.99,4.36-4.07-.04Z"/>
      <path class="cls-2" d="m34.96,86.13c-.16,0-.31.06-.42.16l-5.31,4.8h-.1s.04-4.41.04-4.41c0-.34-.27-.61-.61-.62l-4.55-.04c-.34,0-.62.27-.62.61l-.15,15.53c0,.34.27.61.61.62l4.55.04c.34,0,.62-.27.62-.61l.06-6.47h.1s5.19,6.89,5.19,6.89c.12.15.3.24.49.25l5.99.06c.52,0,.81-.59.49-.99l-6.44-8.04c-.2-.25-.17-.61.06-.83l6.24-5.85c.4-.38.14-1.05-.42-1.06l-5.82-.05Z"/>
      <path class="cls-2" d="m45.37,102.98l4.55.04c.34,0,.62-.27.62-.61l.15-15.53c0-.34-.27-.61-.61-.62l-4.55-.04c-.34,0-.62.27-.62.61l-.15,15.53c0,.34.27.61.61.62Z"/>
      <path class="cls-2" d="m86.77,86.07c-5.73-.04-10.43,1.73-10.47,8.06v1.22c-.09,6.32,4.57,8.19,10.3,8.25,5.72.04,10.42-1.74,10.46-8.06v-1.22c.07-6.32-4.56-8.2-10.29-8.25Zm4.53,9.02c0,2.84-2.13,3.33-4.64,3.35-2.52-.06-4.65-.6-4.59-3.43v-.43c0-2.82,2.14-3.32,4.66-3.33,2.51.06,4.64.6,4.58,3.42v.43Z"/>
      <path class="cls-2" d="m62.58,92.13l4.63.04c.34,0,.62.28.61.62l-.03,3.11c.01,2.42-2,2.81-4.38,2.82-2.36-.05-4.37-.49-4.31-2.9v-.82c.01-.34-.26-.61-.6-.62l-4.55-.04c-.34,0-.62.27-.62.61v1.18c-.09,5.55,4.47,7.19,10.04,7.26,5.61.05,10.15-1.52,10.2-7.07l.04-4.08.03-3.45.02-1.69c0-.34-.27-.61-.61-.62l-10.41-.1c-.34,0-.62.27-.62.61l-.04,4.53c0,.34.27.61.61.62Z"/>
    </g>
    <g>
      <path class="cls-2" d="m13.09,107.86l-6.13-.06c-.23,0-.44.12-.55.32l-5.3,9.81c-.7,1.3-1.08,2.76-1.09,4.23L0,123.88c0,.34.27.61.61.62l4.92.05c.34,0,.62-.27.62-.61l.02-1.92c0-.34.28-.61.62-.61l6.19.06c.34,0,.62.28.61.62l-.02,1.92c0,.34.27.61.61.62l5.03.05c.34,0,.62-.27.62-.61l.02-1.68c.01-1.5-.34-2.98-1.04-4.31l-5.19-9.89c-.11-.2-.31-.33-.54-.33Zm-5.18,8.55l2.08-4.32,1.99,4.36-4.07-.04Z"/>
      <path class="cls-2" d="m34.96,108.04c-.16,0-.31.06-.42.16l-5.31,4.8h-.1s.04-4.41.04-4.41c0-.34-.27-.61-.61-.62l-4.55-.04c-.34,0-.62.27-.62.61l-.15,15.53c0,.34.27.61.61.62l4.55.04c.34,0,.62-.27.62-.61l.06-6.47h.1s5.19,6.89,5.19,6.89c.12.15.3.24.49.25l5.99.06c.52,0,.81-.59.49-.99l-6.44-8.04c-.2-.25-.17-.61.06-.83l6.24-5.85c.4-.38.14-1.05-.42-1.06l-5.82-.05Z"/>
      <rect class="cls-2" x="39.35" y="113.65" width="16.76" height="5.78" rx=".61" ry=".61" transform="translate(-69.26 163.17) rotate(-89.46)"/>
      <path class="cls-2" d="m86.77,107.99c-5.73-.04-10.43,1.73-10.47,8.06v1.22c-.09,6.32,4.57,8.19,10.3,8.25,5.72.04,10.42-1.74,10.46-8.06v-1.22c.07-6.32-4.56-8.2-10.29-8.25Zm4.53,9.02c0,2.84-2.13,3.33-4.64,3.35-2.52-.06-4.65-.6-4.59-3.43v-.43c0-2.82,2.14-3.32,4.66-3.33,2.51.06,4.64.6,4.58,3.42v.43Z"/>
      <path class="cls-2" d="m62.58,114.05l4.63.04c.34,0,.62.28.61.62l-.03,3.11c.01,2.42-2,2.81-4.38,2.82-2.36-.05-4.37-.49-4.31-2.9v-.82c.01-.34-.26-.61-.6-.62l-4.55-.04c-.34,0-.62.27-.62.61v1.18c-.09,5.55,4.47,7.19,10.04,7.26,5.61.05,10.15-1.52,10.2-7.07l.04-4.08.03-3.45.02-1.69c0-.34-.27-.61-.61-.62l-10.41-.1c-.34,0-.62.27-.62.61l-.04,4.53c0,.34.27.61.61.62Z"/>
    </g>
  </g>
</svg>