<?xml version="1.0" encoding="UTF-8"?>
<svg id="_圖層_1" data-name="圖層 1" xmlns="http://www.w3.org/2000/svg" xmlns:xlink="http://www.w3.org/1999/xlink" viewBox="0 0 84.09 101.67">
  <defs>
    <style>
      .cls-1 {
        clip-path: url(#clippath);
      }

      .cls-2 {
        fill: none;
      }

      .cls-2, .cls-3, .cls-4, .cls-5 {
        stroke-width: 0px;
      }

      .cls-3 {
        fill: #241614;
      }

      .cls-4 {
        fill: #db4d22;
      }

      .cls-5 {
        fill: #060001;
      }
    </style>
    <clipPath id="clippath">
      <circle class="cls-2" cx="42.04" cy="56.72" r="41.96"/>
    </clipPath>
  </defs>
  <circle class="cls-4" cx="42.04" cy="56.8" r="42.04"/>
  <circle class="cls-4" cx="42.04" cy="56.8" r="42.04"/>
  <g class="cls-1">
    <g>
      <g>
        <path class="cls-5" d="m12.8.05L7.84,0c-.19,0-.36.1-.45.26l-4.29,7.94c-.57,1.06-.87,2.23-.89,3.43v1.39c-.02.27.21.5.48.5l3.98.04c.28,0,.5-.22.51-.49v-1.56c.02-.27.24-.49.52-.49l5.01.05c.28,0,.5.23.5.5v1.56c-.02.27.2.5.48.5l4.08.04c.28,0,.5-.22.51-.49v-1.36c.02-1.22-.27-2.42-.83-3.49L13.24.31c-.09-.16-.25-.27-.44-.27Zm-4.2,6.92l1.69-3.5,1.61,3.53-3.3-.03Z"/>
        <path class="cls-5" d="m30.52.19c-.13,0-.25.05-.34.13l-4.3,3.89h-.08s.03-3.57.03-3.57c0-.27-.22-.5-.5-.5l-3.68-.03c-.28,0-.5.22-.51.49l-.12,12.58c0,.27.22.5.5.5l3.68.03c.28,0,.5-.22.51-.49l.05-5.24h.08s4.2,5.58,4.2,5.58c.09.12.24.2.4.2l4.85.05c.42,0,.66-.48.4-.8l-5.22-6.51c-.16-.2-.14-.49.05-.67l5.05-4.74c.33-.31.11-.85-.34-.86l-4.71-.04Z"/>
        <path class="cls-5" d="m38.95,13.85l3.68.03c.28,0,.5-.22.51-.49l.12-12.58c0-.27-.22-.5-.5-.5l-3.68-.03c-.28,0-.5.22-.51.49l-.12,12.58c0,.27.22.5.5.5Z"/>
        <path class="cls-5" d="m72.49.15c-4.64-.03-8.45,1.4-8.48,6.53v.99c-.08,5.12,3.7,6.63,8.34,6.69,4.63.03,8.44-1.41,8.47-6.53v-.99c.06-5.12-3.7-6.64-8.33-6.69Zm3.67,7.3c0,2.3-1.73,2.7-3.76,2.71-2.04-.05-3.77-.48-3.72-2.78v-.34c0-2.29,1.73-2.69,3.77-2.7,2.03.05,3.76.48,3.71,2.77v.34Z"/>
        <path class="cls-5" d="m52.89,5.06l3.75.04c.28,0,.5.23.5.5l-.02,2.52c0,1.96-1.62,2.28-3.54,2.29-1.91-.04-3.54-.4-3.49-2.35v-.66c0-.27-.21-.5-.49-.5l-3.68-.03c-.28,0-.5.22-.51.49v.96c-.07,4.5,3.62,5.83,8.13,5.88,4.54.04,8.22-1.23,8.26-5.72l.03-3.31.03-2.79V.98c.02-.27-.21-.5-.48-.5l-8.43-.08c-.28,0-.5.22-.51.49l-.03,3.67c0,.27.22.5.5.5Z"/>
      </g>
      <g>
        <path class="cls-5" d="m12.8,17.8l-4.96-.05c-.19,0-.36.1-.45.26l-4.29,7.94c-.57,1.06-.87,2.23-.89,3.43v1.39c-.02.27.21.5.48.5l3.98.04c.28,0,.5-.22.51-.49v-1.56c.02-.27.24-.49.52-.49l5.01.05c.28,0,.5.23.5.5v1.56c-.02.27.2.5.48.5l4.08.04c.28,0,.5-.22.51-.49v-1.36c.02-1.22-.27-2.42-.83-3.49l-4.2-8.01c-.09-.16-.25-.27-.44-.27Zm-4.2,6.92l1.69-3.5,1.61,3.53-3.3-.03Z"/>
        <path class="cls-5" d="m30.52,17.95c-.13,0-.25.05-.34.13l-4.3,3.89h-.08s.03-3.57.03-3.57c0-.27-.22-.5-.5-.5l-3.68-.03c-.28,0-.5.22-.51.49l-.12,12.58c0,.27.22.5.5.5l3.68.03c.28,0,.5-.22.51-.49l.05-5.24h.08s4.2,5.58,4.2,5.58c.09.12.24.2.4.2l4.85.05c.42,0,.66-.48.4-.8l-5.22-6.51c-.16-.2-.14-.49.05-.67l5.05-4.74c.33-.31.11-.85-.34-.86l-4.71-.04Z"/>
        <path class="cls-5" d="m38.95,31.6l3.68.03c.28,0,.5-.22.51-.49l.12-12.58c0-.27-.22-.5-.5-.5l-3.68-.03c-.28,0-.5.22-.51.49l-.12,12.58c0,.27.22.5.5.5Z"/>
        <path class="cls-5" d="m72.49,17.91c-4.64-.03-8.45,1.4-8.48,6.53v.99c-.08,5.12,3.7,6.63,8.34,6.69,4.63.03,8.44-1.41,8.47-6.53v-.99c.06-5.12-3.7-6.64-8.33-6.69Zm3.67,7.3c0,2.3-1.73,2.7-3.76,2.71-2.04-.05-3.77-.48-3.72-2.78v-.34c0-2.29,1.73-2.69,3.77-2.7,2.03.05,3.76.48,3.71,2.77v.34Z"/>
        <path class="cls-5" d="m52.89,22.81l3.75.04c.28,0,.5.23.5.5l-.02,2.52c0,1.96-1.62,2.28-3.54,2.29-1.91-.04-3.54-.4-3.49-2.35v-.66c0-.27-.21-.5-.49-.5l-3.68-.03c-.28,0-.5.22-.51.49v.96c-.07,4.5,3.62,5.83,8.13,5.88,4.54.04,8.22-1.23,8.26-5.72l.03-3.31.03-2.79v-1.37c.02-.27-.21-.5-.48-.5l-8.43-.08c-.28,0-.5.22-.51.49l-.03,3.67c0,.27.22.5.5.5Z"/>
      </g>
      <g>
        <path class="cls-5" d="m12.8,35.55l-4.96-.05c-.19,0-.36.1-.45.26l-4.29,7.94c-.57,1.06-.87,2.23-.89,3.43v1.39c-.02.27.21.5.48.5l3.98.04c.28,0,.5-.22.51-.49v-1.56c.02-.27.24-.49.52-.49l5.01.05c.28,0,.5.23.5.5v1.56c-.02.27.2.5.48.5l4.08.04c.28,0,.5-.22.51-.49v-1.36c.02-1.22-.27-2.42-.83-3.49l-4.2-8.01c-.09-.16-.25-.27-.44-.27Zm-4.2,6.92l1.69-3.5,1.61,3.53-3.3-.03Z"/>
        <path class="cls-5" d="m30.52,35.7c-.13,0-.25.05-.34.13l-4.3,3.89h-.08s.03-3.57.03-3.57c0-.27-.22-.5-.5-.5l-3.68-.03c-.28,0-.5.22-.51.49l-.12,12.58c0,.27.22.5.5.5l3.68.03c.28,0,.5-.22.51-.49l.05-5.24h.08s4.2,5.58,4.2,5.58c.09.12.24.2.4.2l4.85.05c.42,0,.66-.48.4-.8l-5.22-6.51c-.16-.2-.14-.49.05-.67l5.05-4.74c.33-.31.11-.85-.34-.86l-4.71-.04Z"/>
        <path class="cls-5" d="m38.95,49.35l3.68.03c.28,0,.5-.22.51-.49l.12-12.58c0-.27-.22-.5-.5-.5l-3.68-.03c-.28,0-.5.22-.51.49l-.12,12.58c0,.27.22.5.5.5Z"/>
        <path class="cls-5" d="m72.49,35.66c-4.64-.03-8.45,1.4-8.48,6.53v.99c-.08,5.12,3.7,6.63,8.34,6.69,4.63.03,8.44-1.41,8.47-6.53v-.99c.06-5.12-3.7-6.64-8.33-6.69Zm3.67,7.3c0,2.3-1.73,2.7-3.76,2.71-2.04-.05-3.77-.48-3.72-2.78v-.34c0-2.29,1.73-2.69,3.77-2.7,2.03.05,3.76.48,3.71,2.77v.34Z"/>
        <path class="cls-5" d="m52.89,40.57l3.75.04c.28,0,.5.23.5.5l-.02,2.52c0,1.96-1.62,2.28-3.54,2.29-1.91-.04-3.54-.4-3.49-2.35v-.66c0-.27-.21-.5-.49-.5l-3.68-.03c-.28,0-.5.22-.51.49v.96c-.07,4.5,3.62,5.83,8.13,5.88,4.54.04,8.22-1.23,8.26-5.72l.03-3.31.03-2.79v-1.37c.02-.27-.21-.5-.48-.5l-8.43-.08c-.28,0-.5.22-.51.49l-.03,3.67c0,.27.22.5.5.5Z"/>
      </g>
    </g>
    <g>
      <g>
        <path class="cls-5" d="m12.8,51.86l-4.96-.05c-.19,0-.36.1-.45.26l-4.29,7.94c-.57,1.06-.87,2.23-.89,3.43v1.39c-.02.27.21.5.48.5l3.98.04c.28,0,.5-.22.51-.49v-1.56c.02-.27.24-.49.52-.49l5.01.05c.28,0,.5.23.5.5v1.56c-.02.27.2.5.48.5l4.08.04c.28,0,.5-.22.51-.49v-1.36c.02-1.22-.27-2.42-.83-3.49l-4.2-8.01c-.09-.16-.25-.27-.44-.27Zm-4.2,6.92l1.69-3.5,1.61,3.53-3.3-.03Z"/>
        <path class="cls-5" d="m30.52,52.01c-.13,0-.25.05-.34.13l-4.3,3.89h-.08s.03-3.57.03-3.57c0-.27-.22-.5-.5-.5l-3.68-.03c-.28,0-.5.22-.51.49l-.12,12.58c0,.27.22.5.5.5l3.68.03c.28,0,.5-.22.51-.49l.05-5.24h.08s4.2,5.58,4.2,5.58c.09.12.24.2.4.2l4.85.05c.42,0,.66-.48.4-.8l-5.22-6.51c-.16-.2-.14-.49.05-.67l5.05-4.74c.33-.31.11-.85-.34-.86l-4.71-.04Z"/>
        <path class="cls-5" d="m38.95,65.66l3.68.03c.28,0,.5-.22.51-.49l.12-12.58c0-.27-.22-.5-.5-.5l-3.68-.03c-.28,0-.5.22-.51.49l-.12,12.58c0,.27.22.5.5.5Z"/>
        <path class="cls-5" d="m72.49,51.96c-4.64-.03-8.45,1.4-8.48,6.53v.99c-.08,5.12,3.7,6.63,8.34,6.69,4.63.03,8.44-1.41,8.47-6.53v-.99c.06-5.12-3.7-6.64-8.33-6.69Zm3.67,7.3c0,2.3-1.73,2.7-3.76,2.71-2.04-.05-3.77-.48-3.72-2.78v-.34c0-2.29,1.73-2.69,3.77-2.7,2.03.05,3.76.48,3.71,2.77v.34Z"/>
        <path class="cls-5" d="m52.89,56.87l3.75.04c.28,0,.5.23.5.5l-.02,2.52c0,1.96-1.62,2.28-3.54,2.29-1.91-.04-3.54-.4-3.49-2.35v-.66c0-.27-.21-.5-.49-.5l-3.68-.03c-.28,0-.5.22-.51.49v.96c-.07,4.5,3.62,5.83,8.13,5.88,4.54.04,8.22-1.23,8.26-5.72l.03-3.31.03-2.79v-1.37c.02-.27-.21-.5-.48-.5l-8.43-.08c-.28,0-.5.22-.51.49l-.03,3.67c0,.27.22.5.5.5Z"/>
      </g>
      <g>
        <path class="cls-5" d="m12.8,69.61l-4.96-.05c-.19,0-.36.1-.45.26l-4.29,7.94c-.57,1.06-.87,2.23-.89,3.43v1.39c-.02.27.21.5.48.5l3.98.04c.28,0,.5-.22.51-.49v-1.56c.02-.27.24-.49.52-.49l5.01.05c.28,0,.5.23.5.5v1.56c-.02.27.2.5.48.5l4.08.04c.28,0,.5-.22.51-.49v-1.36c.02-1.22-.27-2.42-.83-3.49l-4.2-8.01c-.09-.16-.25-.27-.44-.27Zm-4.2,6.92l1.69-3.5,1.61,3.53-3.3-.03Z"/>
        <path class="cls-5" d="m30.52,69.76c-.13,0-.25.05-.34.13l-4.3,3.89h-.08s.03-3.57.03-3.57c0-.27-.22-.5-.5-.5l-3.68-.03c-.28,0-.5.22-.51.49l-.12,12.58c0,.27.22.5.5.5l3.68.03c.28,0,.5-.22.51-.49l.05-5.24h.08s4.2,5.58,4.2,5.58c.09.12.24.2.4.2l4.85.05c.42,0,.66-.48.4-.8l-5.22-6.51c-.16-.2-.14-.49.05-.67l5.05-4.74c.33-.31.11-.85-.34-.86l-4.71-.04Z"/>
        <path class="cls-5" d="m38.95,83.41l3.68.03c.28,0,.5-.22.51-.49l.12-12.58c0-.27-.22-.5-.5-.5l-3.68-.03c-.28,0-.5.22-.51.49l-.12,12.58c0,.27.22.5.5.5Z"/>
        <path class="cls-5" d="m72.49,69.72c-4.64-.03-8.45,1.4-8.48,6.53v.99c-.08,5.12,3.7,6.63,8.34,6.69,4.63.03,8.44-1.41,8.47-6.53v-.99c.06-5.12-3.7-6.64-8.33-6.69Zm3.67,7.3c0,2.3-1.73,2.7-3.76,2.71-2.04-.05-3.77-.48-3.72-2.78v-.34c0-2.29,1.73-2.69,3.77-2.7,2.03.05,3.76.48,3.71,2.77v.34Z"/>
        <path class="cls-5" d="m52.89,74.63l3.75.04c.28,0,.5.23.5.5l-.02,2.52c0,1.96-1.62,2.28-3.54,2.29-1.91-.04-3.54-.4-3.49-2.35v-.66c0-.27-.21-.5-.49-.5l-3.68-.03c-.28,0-.5.22-.51.49v.96c-.07,4.5,3.62,5.83,8.13,5.88,4.54.04,8.22-1.23,8.26-5.72l.03-3.31.03-2.79v-1.37c.02-.27-.21-.5-.48-.5l-8.43-.08c-.28,0-.5.22-.51.49l-.03,3.67c0,.27.22.5.5.5Z"/>
      </g>
      <g>
        <path class="cls-5" d="m12.8,87.36l-4.96-.05c-.19,0-.36.1-.45.26l-4.29,7.94c-.57,1.06-.87,2.23-.89,3.43v1.39c-.02.27.21.5.48.5l3.98.04c.28,0,.5-.22.51-.49v-1.56c.02-.27.24-.49.52-.49l5.01.05c.28,0,.5.23.5.5v1.56c-.02.27.2.5.48.5l4.08.04c.28,0,.5-.22.51-.49v-1.36c.02-1.22-.27-2.42-.83-3.49l-4.2-8.01c-.09-.16-.25-.27-.44-.27Zm-4.2,6.92l1.69-3.5,1.61,3.53-3.3-.03Z"/>
        <path class="cls-5" d="m30.52,87.51c-.13,0-.25.05-.34.13l-4.3,3.89h-.08s.03-3.57.03-3.57c0-.27-.22-.5-.5-.5l-3.68-.03c-.28,0-.5.22-.51.49l-.12,12.58c0,.27.22.5.5.5l3.68.03c.28,0,.5-.22.51-.49l.05-5.24h.08s4.2,5.58,4.2,5.58c.09.12.24.2.4.2l4.85.05c.42,0,.66-.48.4-.8l-5.22-6.51c-.16-.2-.14-.49.05-.67l5.05-4.74c.33-.31.11-.85-.34-.86l-4.71-.04Z"/>
        <path class="cls-5" d="m38.95,101.16l3.68.03c.28,0,.5-.22.51-.49l.12-12.58c0-.27-.22-.5-.5-.5l-3.68-.03c-.28,0-.5.22-.51.49l-.12,12.58c0,.27.22.5.5.5Z"/>
        <path class="cls-5" d="m72.49,87.47c-4.64-.03-8.45,1.4-8.48,6.53v.99c-.08,5.12,3.7,6.63,8.34,6.69,4.63.03,8.44-1.41,8.47-6.53v-.99c.06-5.12-3.7-6.64-8.33-6.69Zm3.67,7.3c0,2.3-1.73,2.7-3.76,2.71-2.04-.05-3.77-.48-3.72-2.78v-.34c0-2.29,1.73-2.69,3.77-2.7,2.03.05,3.76.48,3.71,2.77v.34Z"/>
        <path class="cls-5" d="m52.89,92.38l3.75.04c.28,0,.5.23.5.5l-.02,2.52c0,1.96-1.62,2.28-3.54,2.29-1.91-.04-3.54-.4-3.49-2.35v-.66c0-.27-.21-.5-.49-.5l-3.68-.03c-.28,0-.5.22-.51.49v.96c-.07,4.5,3.62,5.83,8.13,5.88,4.54.04,8.22-1.23,8.26-5.72l.03-3.31.03-2.79v-1.37c.02-.27-.21-.5-.48-.5l-8.43-.08c-.28,0-.5.22-.51.49l-.03,3.67c0,.27.22.5.5.5Z"/>
      </g>
    </g>
  </g>
  <circle class="cls-4" cx="42.04" cy="56.8" r="29.05"/>
  <g>
    <path class="cls-3" d="m33.1,49.77h.21c.09,0,.16-.07.16-.16v-.28c0-.09.07-.16.16-.16h2.8c.09,0,.16.07.16.16v.25c0,.09.07.16.16.16h2.15c.09,0,.16-.07.16-.16v-.25c0-.09.07-.16.16-.16h2.17c.09,0,.16-.07.16-.16v-1.44c0-.09-.07-.16-.16-.16h-2.17c-.09,0-.16-.07-.16-.16v-.35c0-.09-.07-.16-.16-.16h-2.15c-.09,0-.16.07-.16.16v.35c0,.09-.07.16-.16.16h-2.8c-.09,0-.16-.07-.16-.16v-.35c0-.09-.07-.16-.16-.16h-2.15c-.09,0-.16.07-.16.16v.35c0,.09-.07.16-.16.16h-2.13c-.09,0-.16.07-.16.16v1.44c0,.09.07.16.16.16h2.13c.09,0,.16.07.16.16v.28c0,.09.07.16.16.16h1.94Z"/>
    <path class="cls-3" d="m28.56,50.37v1.23c0,.09.07.16.16.16h.68c.09,0,.16.07.16.16v.82c0,.09-.07.16-.16.16h-.68c-.09,0-.16.07-.16.16v1.46c0,.09.07.16.16.16h.41c.13,0,.2.14.14.24-.2.31-.42.62-.67.93-.02.03-.04.06-.04.1v2.47c0,.15.19.22.28.1.15-.18.29-.37.43-.56.09-.13.29-.06.29.09v.94c0,.09.07.16.16.16h2.1c.09,0,.16-.07.16-.16v-1.13c0-.17.23-.22.3-.07.05.1.09.19.13.27.04.09.16.12.24.06l1.08-.84c.06-.05.08-.14.04-.21-.32-.52-.79-1.23-1.41-2.15-.07-.11,0-.25.13-.25h.54c.12,0,.19.12.15.22-.03.07-.06.15-.09.22-.04.09,0,.18.1.21l1.72.6c.08.03.16,0,.2-.08.57-1.18.99-2.5,1.24-3.94.02-.09-.04-.17-.13-.19l-1.82-.36c-.09-.02-.17.04-.19.12-.14.65-.29,1.29-.48,1.92-.05.18-.31.14-.31-.05v-.29c0-.09-.07-.16-.16-.16h-1.11c-.09,0-.16-.07-.16-.16v-.82c0-.09.07-.16.16-.16h1.27c.11,0,.19-.12.15-.22l-.53-1.23c-.03-.06-.08-.1-.15-.1h-4.17c-.09,0-.16.07-.16.16Z"/>
    <path class="cls-3" d="m35.55,59.13c.85-.6,1.6-1.4,2.25-2.39.06-.1.21-.09.27,0,.57.98,1.25,1.77,2.05,2.38.03.02.06.03.1.03h1.19c.09,0,.16-.07.16-.16v-1.4c0-.05-.03-.1-.07-.13-.77-.53-1.31-1.12-1.68-1.86-.06-.13.06-.27.2-.22l.88.3c.07.03.16,0,.19-.08.17-.31.32-.64.46-.98,0-.02.01-.04.01-.06v-3.04c0-.08-.05-.14-.13-.16l-1.02-.2c-.08-.02-.17.04-.19.12-.18.78-.4,1.53-.66,2.24-.06.16-.29.13-.31-.04-.03-.33-.05-.7-.05-1.12v-2c0-.09-.07-.16-.16-.16h-2.22c-.09,0-.16.07-.16.16v2c0,1.47-.31,2.67-.91,3.57s-1.47,1.56-2.71,2.13c-.09.04-.12.16-.06.24l.59.77s.08.06.13.06h1.76s.07-.01.09-.03Z"/>
    <path class="cls-3" d="m55.92,47.41h-6.23c-.14,0-.21-.17-.11-.27h0c.1-.1.03-.27-.11-.27h-3.2s-.06.01-.09.03c-.87.62-1.88,1.18-3.03,1.68-.06.03-.1.08-.1.15v1.9c0,.11.11.19.21.15.47-.17.92-.34,1.32-.53.05-.02.1-.02.14,0,.41.22.88.45,1.38.67.14.06.12.28-.04.3-.85.15-1.81.29-2.88.43-.08.01-.14.08-.14.16v1.54c0,.1.09.17.18.16,2.5-.34,4.64-.77,6.38-1.28.03,0,.06,0,.09,0,1.78.52,3.86.95,6.19,1.28.1.01.18-.06.18-.16v-1.61c0-.08-.06-.15-.14-.16-.97-.15-1.83-.29-2.6-.42-.15-.03-.18-.23-.04-.3.95-.46,1.86-1,2.7-1.59.04-.03.07-.08.07-.13v-1.57c0-.09-.07-.16-.16-.16Zm-6.19,2.91c-.86-.27-1.63-.56-2.33-.89-.16-.07-.1-.31.07-.31h4.37c.17,0,.22.22.08.3-.64.34-1.32.63-2.08.89-.03.01-.07.01-.1,0Z"/>
    <path class="cls-3" d="m55.92,53.98h-4.69c-.09,0-.16-.07-.16-.16v-.8c0-.09-.07-.16-.16-.16h-2.85c-.09,0-.16.07-.16.16v.8c0,.09-.07.16-.16.16h-4.52c-.09,0-.16.07-.16.16v1.47c0,.09.07.16.16.16h2.68c.18,0,.22.25.06.31-.82.3-1.75.59-2.78.87-.07.02-.12.08-.12.15v1.59c0,.09.07.16.16.16h.51s.03,0,.05,0c1.47-.47,2.76-.98,3.89-1.54.11-.05.23.03.23.14v1.25c0,.09.07.16.16.16h2.85c.09,0,.16-.07.16-.16v-1.25c0-.12.12-.2.23-.14,1.13.56,2.41,1.07,3.89,1.54.02,0,.03,0,.05,0h.68c.09,0,.16-.07.16-.16v-1.54c0-.07-.05-.14-.12-.15-1.1-.29-2.08-.59-2.94-.91-.17-.06-.12-.31.06-.31h2.85c.09,0,.16-.07.16-.16v-1.47c0-.09-.07-.16-.16-.16Z"/>
  </g>
  <g>
    <path class="cls-5" d="m31.83,63.11h-1.91c-.07,0-.14.04-.17.11l-1.62,3.21c-.22.43-.33.9-.33,1.38v.56c0,.11.09.2.19.2h1.53c.11,0,.19-.09.19-.2v-.63c0-.11.09-.2.19-.2h1.93c.11,0,.19.09.19.2v.63c0,.11.09.2.19.2h1.57c.11,0,.19-.09.19-.2v-.55c0-.49-.12-.97-.34-1.4l-1.65-3.21c-.03-.07-.1-.11-.17-.11Zm-1.59,2.8l.64-1.41.63,1.41h-1.27Z"/>
    <path class="cls-5" d="m38.65,63.11s-.1.02-.13.05l-1.64,1.58h-.03v-1.44c0-.11-.09-.2-.19-.2h-1.42c-.11,0-.19.09-.19.2v5.06c0,.11.09.2.19.2h1.42c.11,0,.19-.09.19-.2v-2.11h.03s1.64,2.23,1.64,2.23c.04.05.09.08.15.08h1.87c.16,0,.25-.19.15-.33l-2.03-2.6c-.06-.08-.06-.2.02-.27l1.93-1.92c.12-.12.04-.34-.13-.34h-1.81Z"/>
    <rect class="cls-5" x="41.75" y="63.11" width="1.8" height="5.46" rx=".19" ry=".19"/>
    <path class="cls-5" d="m54.8,62.93c-1.79,0-3.25.6-3.24,2.66v.4c0,2.06,1.45,2.66,3.24,2.66,1.78,0,3.24-.6,3.24-2.66v-.4c0-2.06-1.45-2.66-3.24-2.66Zm1.44,2.92c.01.92-.65,1.09-1.44,1.11-.79-.01-1.45-.18-1.44-1.11v-.14c-.01-.92.65-1.09,1.44-1.1.78.01,1.45.18,1.44,1.1v.14Z"/>
    <path class="cls-5" d="m47.28,64.98h1.44c.11,0,.19.09.19.2v1.01c.01.79-.62.92-1.36.93-.74-.01-1.36-.15-1.35-.93v-.27c0-.11-.09-.2-.19-.2h-1.42c-.11,0-.19.09-.19.2v.38c0,1.81,1.42,2.33,3.15,2.33,1.75,0,3.16-.53,3.16-2.33v-3.01c0-.11-.09-.2-.19-.2h-3.24c-.11,0-.19.09-.19.2v1.48c0,.11.09.2.19.2Z"/>
  </g>
</svg>