<?xml version="1.0" encoding="UTF-8"?>
<svg id="_圖層_1" data-name="圖層 1" xmlns="http://www.w3.org/2000/svg" viewBox="0 0 91.5 91.5">
  <defs>
    <style>
      .cls-1 {
        fill: #f4ce31;
      }

      .cls-1, .cls-2 {
        stroke-width: 0px;
      }

      .cls-2 {
        fill: #e64d1e;
      }
    </style>
  </defs>
  <rect class="cls-2" width="91.5" height="91.5" rx="26.72" ry="26.72"/>
  <path class="cls-1" d="m72.44,63.03c-2.99-4.49-2.52-9.81,1.07-13.98,2.9-3.37,7.4-8.9,1.19-11.68-2.73-1.22-9.15,2.53-10.42-.89-.88-2.36,3.05-5.15,4-7.13,1.07-2.23,1.03-5.43-1.52-6.98-1.81-1.11-4.51-1-6.66-.22-.98.36-2.04-.3-1.99-1.23.12-1.91-.08-3.82-1.08-5.51-1.44-2.43-5.14-4.11-8-2.85,0,0,0,0,0,0-1.79.79-2.49,2.29-2.89,3.91-.31,1.25-1.97,1.82-3.17,1.09-1.03-.62-2.13-1.2-3.26-1.84-2.85-1.62-11.71-1.69-12.12,3.35-.16,1.98,2.01,3.61,2.84,5.46.38.85.63,1.78.41,2.67-.55,2.19-3.28,2.01-5.29,1.75-1.86-.24-3.74-.42-5.61-.22-4.88.52-8.08,4.01-5.13,8,2.02,2.74,4.81,4.96,6.85,7.7,1.5,2.01-5.2,4.24-6.37,5.3-.69.62-1.18,1.47-1.09,2.34.3,2.88,3.91,3.37,6.31,4.05,5.31,1.49,2.66,5.84.83,8.49-2.42,3.5-6.94,9.6-1.25,12.71,4.92,2.69,18.38,3.1,19.2-3.68.45-3.73-5.21-6.9-3.82-10.47,1.66-4.25,9.44-3.74,12.92-1.64,3.07,1.86,2.31,4.35.67,6.84-1.46,2.21-3.27,5.29-.96,7.58,3.91,3.87,13.35,3.65,18.71,3.18,3.55-.31,8.6-1.12,10.26-4.27,2.1-3.97-2.11-8.21-4.39-11.47-.08-.12-.17-.24-.25-.36Zm-30.38-14.05c-.46,0-.83-.34-.83-.77v-13.66c0-.42.37-.77.83-.77s.83.34.83.77v13.66c0,.42-.37.77-.83.77Z"/>
</svg>