<?xml version="1.0" encoding="UTF-8"?>
<svg id="_圖層_1" data-name="圖層 1" xmlns="http://www.w3.org/2000/svg" viewBox="0 0 77 150.59">
  <defs>
    <style>
      .cls-1 {
        fill: #f4ce31;
      }

      .cls-1, .cls-2 {
        stroke-width: 0px;
      }

      .cls-2 {
        fill: #e64d1e;
      }
    </style>
  </defs>
  <rect class="cls-2" width="77" height="75.38"/>
  <rect class="cls-1" y="75.38" width="77" height="75.21"/>
  <g>
    <g>
      <path class="cls-2" d="m9.39,124.29h3.35v.88h-1.12v2.68h-1.1v-2.68h-1.12v-.88Z"/>
      <path class="cls-2" d="m12.71,126.57c0-.39.13-.72.4-.97.27-.25.62-.38,1.08-.38.52,0,.91.15,1.17.45.21.24.32.54.32.89,0,.4-.13.72-.4.98-.26.25-.63.38-1.09.38-.41,0-.75-.11-1.01-.32-.31-.26-.47-.6-.47-1.03Zm.99,0c0,.23.05.4.14.51s.21.17.35.17.26-.05.35-.16.14-.28.14-.52c0-.22-.05-.39-.14-.5-.09-.11-.21-.16-.34-.16-.14,0-.26.06-.36.17s-.14.28-.14.51Z"/>
      <path class="cls-2" d="m18.87,124.29v3.56h-.93v-.38c-.13.16-.25.27-.35.33-.14.07-.3.11-.48.11-.35,0-.62-.13-.81-.4s-.28-.59-.28-.97c0-.43.1-.75.31-.98s.47-.34.78-.34c.15,0,.29.03.42.08.13.05.24.13.33.23v-1.23h1Zm-.99,2.27c0-.2-.04-.35-.13-.45s-.19-.15-.33-.15c-.12,0-.21.05-.29.14-.08.1-.12.26-.12.48,0,.21.04.37.12.46.08.1.18.15.3.15.13,0,.23-.05.32-.15.08-.1.13-.26.13-.48Z"/>
      <path class="cls-2" d="m20.38,126.11l-.95-.1c.04-.17.09-.3.15-.39.07-.09.16-.18.29-.25.09-.05.22-.09.37-.12.16-.03.33-.04.52-.04.3,0,.54.02.71.05.18.03.33.1.45.21.08.07.15.18.2.31s.07.26.07.38v1.14c0,.12,0,.22.02.29.02.07.05.16.1.26h-.93c-.04-.07-.06-.12-.07-.15s-.02-.09-.03-.16c-.13.12-.26.21-.39.27-.17.07-.38.11-.61.11-.31,0-.54-.07-.7-.21s-.24-.32-.24-.53c0-.2.06-.36.17-.48.12-.13.33-.22.64-.28.37-.07.61-.13.72-.16.11-.03.23-.07.35-.12,0-.12-.02-.21-.08-.26s-.14-.07-.26-.07c-.16,0-.28.03-.37.08-.06.04-.11.12-.15.23Zm.86.52c-.14.05-.28.09-.42.13-.2.05-.33.11-.38.16-.05.05-.08.11-.08.18,0,.08.03.14.08.19.05.05.13.07.24.07s.21-.03.31-.08.16-.12.2-.2.06-.18.06-.3v-.16Z"/>
      <path class="cls-2" d="m22.51,125.28h1.04l.53,1.72.49-1.72h.97l-1.02,2.76c-.12.31-.24.53-.36.64-.17.16-.43.23-.78.23-.14,0-.36-.02-.66-.06l-.08-.69c.14.05.3.07.48.07.12,0,.21-.03.28-.08.07-.05.13-.15.18-.29l-1.08-2.58Z"/>
      <path class="cls-2" d="m25.71,124.23h1.06v.81c0,.3-.06.54-.19.71s-.34.33-.64.46l-.23-.43c.19-.09.32-.17.39-.26s.11-.19.12-.31h-.51v-.98Z"/>
      <path class="cls-2" d="m26.91,127.14l.98-.09c.04.12.1.2.17.25.07.05.17.08.29.08.13,0,.24-.03.31-.09.06-.04.09-.09.09-.16,0-.07-.04-.13-.11-.17-.05-.03-.2-.06-.43-.1-.34-.06-.58-.12-.72-.17-.13-.05-.25-.14-.34-.26-.09-.12-.14-.26-.14-.41,0-.17.05-.32.15-.44s.24-.21.41-.28c.17-.06.41-.09.7-.09.31,0,.54.02.68.07.15.05.27.12.37.22.1.1.18.23.24.4l-.94.09c-.02-.08-.06-.14-.12-.18-.08-.05-.17-.08-.28-.08s-.19.02-.24.06-.08.09-.08.14c0,.06.03.11.1.14.06.03.21.06.42.09.33.04.57.09.73.16.16.07.28.16.37.28s.13.26.13.41-.04.29-.13.43c-.09.14-.23.25-.42.34-.19.08-.46.13-.79.13-.47,0-.81-.07-1.01-.2-.2-.13-.33-.33-.39-.57Z"/>
      <path class="cls-2" d="m33.58,125.28h.93v2.55c0,.16-.03.32-.1.46-.07.15-.16.27-.27.36-.11.09-.26.16-.44.2s-.38.06-.6.06c-.52,0-.87-.08-1.07-.23-.19-.16-.29-.36-.29-.62,0-.03,0-.08,0-.13l.96.11c.02.09.06.15.11.18.07.05.16.08.27.08.14,0,.25-.04.32-.11s.11-.21.11-.4v-.39c-.1.12-.19.2-.29.25-.15.08-.32.12-.49.12-.34,0-.62-.15-.84-.45-.15-.21-.23-.5-.23-.85,0-.4.1-.71.29-.92s.45-.32.76-.32c.2,0,.37.03.5.1s.25.18.37.34v-.38Zm-.93,1.25c0,.19.04.32.12.41.08.09.18.13.31.13.12,0,.23-.05.31-.14.08-.09.13-.23.13-.42s-.04-.33-.13-.43c-.09-.1-.19-.15-.32-.15s-.23.05-.3.14c-.08.09-.11.24-.11.46Z"/>
      <path class="cls-2" d="m34.99,126.57c0-.39.13-.72.4-.97.27-.25.62-.38,1.08-.38.52,0,.91.15,1.17.45.21.24.32.54.32.89,0,.4-.13.72-.4.98-.26.25-.63.38-1.09.38-.41,0-.75-.11-1.01-.32-.31-.26-.47-.6-.47-1.03Zm.99,0c0,.23.05.4.14.51s.21.17.35.17.26-.05.35-.16.14-.28.14-.52c0-.22-.05-.39-.14-.5-.09-.11-.21-.16-.34-.16-.14,0-.26.06-.36.17s-.14.28-.14.51Z"/>
      <path class="cls-2" d="m38.31,126.57c0-.39.13-.72.4-.97.27-.25.62-.38,1.08-.38.52,0,.91.15,1.17.45.21.24.32.54.32.89,0,.4-.13.72-.4.98-.26.25-.63.38-1.09.38-.41,0-.75-.11-1.01-.32-.31-.26-.47-.6-.47-1.03Zm.99,0c0,.23.05.4.14.51s.21.17.35.17.26-.05.35-.16.14-.28.14-.52c0-.22-.05-.39-.14-.5-.09-.11-.21-.16-.34-.16-.14,0-.26.06-.36.17s-.14.28-.14.51Z"/>
      <path class="cls-2" d="m44.47,124.29v3.56h-.93v-.38c-.13.16-.25.27-.35.33-.14.07-.3.11-.48.11-.35,0-.62-.13-.81-.4s-.28-.59-.28-.97c0-.43.1-.75.31-.98s.47-.34.78-.34c.15,0,.29.03.42.08.13.05.24.13.33.23v-1.23h1Zm-.99,2.27c0-.2-.04-.35-.13-.45s-.19-.15-.33-.15c-.12,0-.21.05-.29.14-.08.1-.12.26-.12.48,0,.21.04.37.12.46.08.1.18.15.3.15.13,0,.23-.05.32-.15.08-.1.13-.26.13-.48Z"/>
      <path class="cls-2" d="m46.74,125.28h.92v.38c.13-.16.27-.27.4-.34.14-.07.3-.1.49-.1.21,0,.37.04.49.11.12.07.22.18.29.33.16-.17.3-.28.42-.34.13-.06.29-.09.47-.09.28,0,.49.08.65.25.16.16.23.42.23.77v1.62h-.99v-1.47c0-.12-.02-.2-.07-.26-.07-.09-.15-.13-.25-.13-.12,0-.21.04-.28.13-.07.08-.11.22-.11.41v1.33h-.99v-1.42c0-.11,0-.19-.02-.23-.02-.06-.06-.12-.11-.16-.05-.04-.11-.06-.18-.06-.11,0-.21.04-.28.13-.07.09-.11.23-.11.42v1.32h-.99v-2.58Z"/>
      <path class="cls-2" d="m51.58,126.57c0-.39.13-.72.4-.97.27-.25.62-.38,1.08-.38.52,0,.91.15,1.17.45.21.24.32.54.32.89,0,.4-.13.72-.4.98-.26.25-.63.38-1.09.38-.41,0-.75-.11-1.01-.32-.31-.26-.47-.6-.47-1.03Zm.99,0c0,.23.05.4.14.51s.21.17.35.17.26-.05.35-.16.14-.28.14-.52c0-.22-.05-.39-.14-.5-.09-.11-.21-.16-.34-.16-.14,0-.26.06-.36.17s-.14.28-.14.51Z"/>
      <path class="cls-2" d="m54.9,126.57c0-.39.13-.72.4-.97.27-.25.62-.38,1.08-.38.52,0,.91.15,1.17.45.21.24.32.54.32.89,0,.4-.13.72-.4.98-.26.25-.63.38-1.09.38-.41,0-.75-.11-1.01-.32-.31-.26-.47-.6-.47-1.03Zm.99,0c0,.23.05.4.14.51s.21.17.35.17.26-.05.35-.16.14-.28.14-.52c0-.22-.05-.39-.14-.5-.09-.11-.21-.16-.34-.16-.14,0-.26.06-.36.17s-.14.28-.14.51Z"/>
      <path class="cls-2" d="m61.06,124.29v3.56h-.93v-.38c-.13.16-.25.27-.35.33-.14.07-.3.11-.48.11-.35,0-.62-.13-.81-.4s-.28-.59-.28-.97c0-.43.1-.75.31-.98s.47-.34.78-.34c.15,0,.29.03.42.08.13.05.24.13.33.23v-1.23h1Zm-.99,2.27c0-.2-.04-.35-.13-.45s-.19-.15-.33-.15c-.12,0-.21.05-.29.14-.08.1-.12.26-.12.48,0,.21.04.37.12.46.08.1.18.15.3.15.13,0,.23-.05.32-.15.08-.1.13-.26.13-.48Z"/>
      <path class="cls-2" d="m63.36,124.29h.99v.67h-.99v-.67Zm0,.98h.99v2.58h-.99v-2.58Z"/>
      <path class="cls-2" d="m64.81,127.14l.98-.09c.04.12.1.2.17.25.07.05.17.08.29.08.13,0,.24-.03.31-.09.06-.04.09-.09.09-.16,0-.07-.04-.13-.11-.17-.05-.03-.2-.06-.43-.1-.34-.06-.58-.12-.72-.17-.13-.05-.25-.14-.34-.26-.09-.12-.14-.26-.14-.41,0-.17.05-.32.15-.44s.24-.21.41-.28c.17-.06.41-.09.7-.09.31,0,.54.02.68.07.15.05.27.12.37.22.1.1.18.23.24.4l-.94.09c-.02-.08-.06-.14-.12-.18-.08-.05-.17-.08-.28-.08s-.19.02-.24.06-.08.09-.08.14c0,.06.03.11.1.14.06.03.21.06.42.09.33.04.57.09.73.16.16.07.28.16.37.28s.13.26.13.41-.04.29-.13.43c-.09.14-.23.25-.42.34-.19.08-.46.13-.79.13-.47,0-.81-.07-1.01-.2-.2-.13-.33-.33-.39-.57Z"/>
      <path class="cls-2" d="m12.73,133.11l.98-.09c.04.12.1.2.17.25.07.05.17.08.29.08.13,0,.24-.03.31-.09.06-.04.09-.09.09-.16,0-.07-.04-.13-.11-.17-.05-.03-.2-.06-.43-.1-.34-.06-.58-.12-.72-.17-.13-.05-.25-.14-.34-.26-.09-.12-.14-.26-.14-.41,0-.17.05-.32.15-.44s.24-.21.41-.28c.17-.06.41-.09.7-.09.31,0,.54.02.68.07.15.05.27.12.37.22.1.1.18.23.24.4l-.94.09c-.02-.08-.06-.14-.12-.18-.08-.05-.17-.08-.28-.08s-.19.02-.24.06-.08.09-.08.14c0,.06.03.11.1.14.06.03.21.06.42.09.33.04.57.09.73.16.16.07.28.16.37.28s.13.26.13.41-.04.29-.13.43c-.09.14-.23.25-.42.34-.19.08-.46.13-.79.13-.47,0-.81-.07-1.01-.2-.2-.13-.33-.33-.39-.57Z"/>
      <path class="cls-2" d="m15.95,134.81v-3.56h.93v.38c.13-.16.25-.27.35-.33.14-.08.3-.11.48-.11.35,0,.61.13.8.4.19.26.28.59.28.98,0,.43-.1.76-.31.98-.21.23-.47.34-.78.34-.15,0-.29-.03-.42-.08-.13-.05-.24-.13-.34-.23v1.23h-1Zm.99-2.27c0,.2.04.36.13.45.09.1.19.15.33.15.11,0,.21-.05.29-.14.08-.09.12-.26.12-.48,0-.21-.04-.36-.12-.46-.08-.1-.18-.15-.3-.15-.13,0-.23.05-.32.15-.08.1-.13.26-.13.48Z"/>
      <path class="cls-2" d="m19.14,132.55c0-.39.13-.72.4-.97.27-.25.62-.38,1.08-.38.52,0,.91.15,1.17.45.21.24.32.54.32.89,0,.4-.13.72-.4.98-.26.25-.63.38-1.09.38-.41,0-.75-.11-1.01-.32-.31-.26-.47-.6-.47-1.03Zm.99,0c0,.23.05.4.14.51s.21.17.35.17.26-.05.35-.16.14-.28.14-.52c0-.22-.05-.39-.14-.5-.09-.11-.21-.16-.34-.16-.14,0-.26.06-.36.17s-.14.28-.14.51Z"/>
      <path class="cls-2" d="m22.58,131.25h.92v.42c.14-.17.28-.29.42-.37.14-.07.31-.11.52-.11.27,0,.49.08.64.24.15.16.23.41.23.75v1.64h-.99v-1.42c0-.16-.03-.28-.09-.34s-.14-.1-.25-.1c-.12,0-.22.05-.29.14-.08.09-.11.25-.11.49v1.24h-.99v-2.58Z"/>
      <path class="cls-2" d="m25.73,133.11l.98-.09c.04.12.1.2.17.25.07.05.17.08.29.08.13,0,.24-.03.31-.09.06-.04.09-.09.09-.16,0-.07-.04-.13-.11-.17-.05-.03-.2-.06-.43-.1-.34-.06-.58-.12-.72-.17-.13-.05-.25-.14-.34-.26-.09-.12-.14-.26-.14-.41,0-.17.05-.32.15-.44s.24-.21.41-.28c.17-.06.41-.09.7-.09.31,0,.54.02.68.07.15.05.27.12.37.22.1.1.18.23.24.4l-.94.09c-.02-.08-.06-.14-.12-.18-.08-.05-.17-.08-.28-.08s-.19.02-.24.06-.08.09-.08.14c0,.06.03.11.1.14.06.03.21.06.42.09.33.04.57.09.73.16.16.07.28.16.37.28s.13.26.13.41-.04.29-.13.43c-.09.14-.23.25-.42.34-.19.08-.46.13-.79.13-.47,0-.81-.07-1.01-.2-.2-.13-.33-.33-.39-.57Z"/>
      <path class="cls-2" d="m28.82,132.55c0-.39.13-.72.4-.97.27-.25.62-.38,1.08-.38.52,0,.91.15,1.17.45.21.24.32.54.32.89,0,.4-.13.72-.4.98-.26.25-.63.38-1.09.38-.41,0-.75-.11-1.01-.32-.31-.26-.47-.6-.47-1.03Zm.99,0c0,.23.05.4.14.51s.21.17.35.17.26-.05.35-.16.14-.28.14-.52c0-.22-.05-.39-.14-.5-.09-.11-.21-.16-.34-.16-.14,0-.26.06-.36.17s-.14.28-.14.51Z"/>
      <path class="cls-2" d="m32.27,131.25h.93v.42c.09-.18.18-.31.28-.38s.21-.1.35-.1.31.05.48.14l-.31.7c-.12-.05-.21-.07-.28-.07-.13,0-.23.05-.3.16-.1.15-.15.43-.15.85v.86h-.99v-2.58Z"/>
      <path class="cls-2" d="m37.42,132.79h-1.98c.02.16.06.28.13.35.1.11.22.17.37.17.1,0,.19-.02.28-.07.05-.03.11-.08.17-.16l.97.09c-.15.26-.33.45-.54.56-.21.11-.51.17-.91.17-.34,0-.61-.05-.81-.14s-.36-.25-.49-.46c-.13-.21-.19-.46-.19-.74,0-.4.13-.73.39-.98.26-.25.62-.37,1.07-.37.37,0,.66.06.88.17.21.11.38.27.49.49.11.21.17.49.17.83v.11Zm-1.01-.47c-.02-.19-.07-.33-.15-.41-.08-.08-.19-.12-.33-.12-.16,0-.28.06-.38.19-.06.08-.1.19-.11.35h.97Z"/>
      <path class="cls-2" d="m40.59,130.27v3.56h-.93v-.38c-.13.16-.25.27-.35.33-.14.07-.3.11-.48.11-.35,0-.62-.13-.81-.4s-.28-.59-.28-.97c0-.43.1-.75.31-.98s.47-.34.78-.34c.15,0,.29.03.42.08.13.05.24.13.33.23v-1.23h1Zm-.99,2.27c0-.2-.04-.35-.13-.45s-.19-.15-.33-.15c-.12,0-.21.05-.29.14-.08.1-.12.26-.12.48,0,.21.04.37.12.46.08.1.18.15.3.15.13,0,.23-.05.32-.15.08-.1.13-.26.13-.48Z"/>
      <path class="cls-2" d="m42.86,130.27h1v1.23c.1-.1.21-.18.34-.23.13-.05.26-.08.42-.08.31,0,.57.11.78.34.21.23.31.55.31.97,0,.28-.05.53-.14.75-.09.21-.22.38-.39.48-.17.11-.35.16-.55.16-.17,0-.33-.04-.48-.11-.11-.06-.23-.17-.35-.33v.38h-.93v-3.56Zm.99,2.27c0,.22.04.38.12.48.08.1.19.15.32.15.12,0,.22-.05.3-.15.08-.1.12-.26.12-.49,0-.2-.04-.35-.12-.45-.08-.1-.17-.14-.29-.14-.13,0-.24.05-.33.15s-.13.25-.13.45Z"/>
      <path class="cls-2" d="m45.89,131.25h1.04l.53,1.72.49-1.72h.97l-1.02,2.76c-.12.31-.24.53-.36.64-.17.16-.43.23-.78.23-.14,0-.36-.02-.66-.06l-.08-.69c.14.05.3.07.48.07.12,0,.21-.03.28-.08.07-.05.13-.15.18-.29l-1.08-2.58Z"/>
      <path class="cls-2" d="m53.13,133.24h-1.25l-.17.59h-1.12l1.34-3.56h1.2l1.34,3.56h-1.15l-.18-.59Zm-.23-.77l-.39-1.28-.39,1.28h.78Z"/>
      <path class="cls-2" d="m54.74,130.27h1.01v1.84l.74-.86h1.22l-.93.9.98,1.68h-1.11l-.52-1.03-.37.36v.67h-1.01v-3.56Z"/>
      <path class="cls-2" d="m58.1,130.27h.99v.67h-.99v-.67Zm0,.98h.99v2.58h-.99v-2.58Z"/>
      <path class="cls-2" d="m59.76,131.25h.99v2.5c0,.32-.02.54-.07.68s-.13.24-.26.32-.3.12-.53.12c-.19,0-.43-.03-.71-.09l.15-.72c.08.02.14.02.17.02.08,0,.15-.03.19-.09.04-.06.07-.17.07-.34v-2.42Zm0-.98h.99v.68h-.99v-.68Z"/>
      <path class="cls-2" d="m61.26,132.55c0-.39.13-.72.4-.97.27-.25.62-.38,1.08-.38.52,0,.91.15,1.17.45.21.24.32.54.32.89,0,.4-.13.72-.4.98-.26.25-.63.38-1.09.38-.41,0-.75-.11-1.01-.32-.31-.26-.47-.6-.47-1.03Zm.7-2.23h1.57v.53h-1.57v-.53Zm.3,2.23c0,.23.05.4.14.51s.21.17.35.17.26-.05.35-.16.14-.28.14-.52c0-.22-.05-.39-.14-.5-.09-.11-.21-.16-.34-.16-.14,0-.26.06-.36.17s-.14.28-.14.51Z"/>
    </g>
    <path class="cls-2" d="m16.7,81.33h-3.76c-.14,0-.27.08-.34.2l-3.19,6.1c-.42.81-.65,1.71-.65,2.63v1.06c0,.21.17.38.38.38h3.01c.21,0,.38-.17.38-.38v-1.19c0-.21.17-.38.38-.38h3.79c.21,0,.38.17.38.38v1.19c0,.21.17.38.38.38h3.08c.21,0,.38-.17.38-.38v-1.04c0-.93-.23-1.84-.66-2.66l-3.24-6.09c-.07-.12-.19-.2-.33-.2Zm-3.13,5.32l1.25-2.69,1.24,2.69h-2.5Z"/>
    <path class="cls-2" d="m30.11,81.32c-.1,0-.19.04-.26.1l-3.23,3h-.06v-2.73c0-.21-.17-.38-.38-.38h-2.79c-.21,0-.38.17-.38.38v9.61c0,.21.17.38.38.38h2.79c.21,0,.38-.17.38-.38v-4s.06,0,.06,0l3.22,4.23c.07.09.18.15.3.15h3.67c.32,0,.49-.37.29-.62l-4-4.93c-.12-.15-.11-.37.03-.51l3.79-3.65c.25-.24.08-.65-.26-.65h-3.57Z"/>
    <rect class="cls-2" x="36.21" y="81.32" width="3.54" height="10.37" rx=".38" ry=".38"/>
    <path class="cls-2" d="m61.87,80.98c-3.51,0-6.38,1.13-6.37,5.05v.75c-.01,3.91,2.86,5.04,6.37,5.05,3.5,0,6.38-1.14,6.36-5.05v-.75c0-3.91-2.85-5.05-6.36-5.05Zm2.83,5.55c.02,1.75-1.29,2.07-2.83,2.1-1.55-.02-2.86-.34-2.83-2.1v-.26c-.02-1.75,1.29-2.07,2.83-2.09,1.54.02,2.85.34,2.83,2.09v.26Z"/>
    <path class="cls-2" d="m47.07,84.87h2.84c.21,0,.38.17.38.38v1.93c.02,1.49-1.21,1.75-2.67,1.77-1.45-.02-2.68-.28-2.66-1.77v-.51c0-.21-.17-.38-.38-.38h-2.79c-.21,0-.38.17-.38.38v.73c-.01,3.44,2.79,4.42,6.2,4.43,3.44,0,6.21-1,6.21-4.43v-5.71c0-.21-.17-.38-.38-.38h-6.38c-.21,0-.38.17-.38.38v2.8c0,.21.17.38.38.38Z"/>
    <path class="cls-2" d="m18.6,101.21h.46c.19,0,.35-.15.35-.35v-.6c0-.19.15-.35.35-.35h6.05c.19,0,.35.15.35.35v.54c0,.19.15.35.35.35h4.65c.19,0,.35-.15.35-.35v-.54c0-.19.15-.35.35-.35h4.69c.19,0,.35-.15.35-.35v-3.12c0-.19-.15-.35-.35-.35h-4.69c-.19,0-.35-.15-.35-.35v-.76c0-.19-.15-.35-.35-.35h-4.65c-.19,0-.35.15-.35.35v.76c0,.19-.15.35-.35.35h-6.05c-.19,0-.35-.15-.35-.35v-.76c0-.19-.15-.35-.35-.35h-4.65c-.19,0-.35.15-.35.35v.76c0,.19-.15.35-.35.35h-4.6c-.19,0-.35.15-.35.35v3.12c0,.19.15.35.35.35h4.6c.19,0,.35.15.35.35v.6c0,.19.15.35.35.35h4.18Z"/>
    <path class="cls-2" d="m8.77,102.51v2.66c0,.19.15.35.35.35h1.47c.19,0,.35.15.35.35v1.76c0,.19-.15.35-.35.35h-1.47c-.19,0-.35.15-.35.35v3.15c0,.19.15.35.35.35h.89c.27,0,.44.3.29.53-.42.67-.91,1.34-1.45,2-.05.06-.08.14-.08.22v5.35c0,.32.4.47.61.22.33-.39.63-.79.93-1.21.19-.28.63-.14.63.2v2.03c0,.19.15.35.35.35h4.54c.19,0,.35-.15.35-.35v-2.44c0-.36.49-.48.65-.15.11.21.2.41.29.59.09.2.35.26.52.12l2.33-1.81c.14-.11.18-.3.08-.45-.68-1.12-1.7-2.65-3.05-4.64-.16-.23,0-.54.29-.54h1.16c.25,0,.42.26.32.49-.07.15-.14.32-.2.47-.08.18.02.39.21.46l3.72,1.29c.17.06.35-.02.43-.18,1.22-2.55,2.14-5.4,2.69-8.52.03-.19-.09-.36-.27-.4l-3.93-.78c-.19-.04-.37.08-.4.27-.3,1.41-.63,2.79-1.05,4.14-.12.38-.68.29-.68-.1v-.63c0-.19-.15-.35-.35-.35h-2.4c-.19,0-.35-.15-.35-.35v-1.76c0-.19.15-.35.35-.35h2.75c.25,0,.42-.25.32-.48l-1.14-2.66c-.05-.13-.18-.21-.32-.21h-9c-.19,0-.35.15-.35.35Z"/>
    <path class="cls-2" d="m23.87,121.44c1.84-1.31,3.46-3.03,4.85-5.17.14-.21.46-.2.59.02,1.22,2.12,2.7,3.83,4.43,5.14.06.05.14.07.21.07h2.58c.19,0,.35-.15.35-.35v-3.03c0-.11-.06-.22-.15-.28-1.66-1.15-2.82-2.43-3.63-4.02-.14-.28.13-.58.42-.48l1.91.65c.16.05.34-.01.42-.16.36-.68.69-1.38,1-2.11.02-.04.03-.09.03-.14v-6.57c0-.17-.12-.31-.28-.34l-2.21-.43c-.18-.04-.36.08-.4.26-.38,1.69-.86,3.3-1.44,4.85-.13.34-.63.28-.67-.08-.07-.71-.11-1.51-.11-2.42v-4.33c0-.19-.15-.35-.35-.35h-4.79c-.19,0-.35.15-.35.35v4.33c0,3.18-.67,5.76-1.97,7.72-1.24,1.86-3.18,3.38-5.85,4.61-.2.09-.27.35-.13.52l1.27,1.67c.07.09.17.14.28.14h3.79c.07,0,.14-.02.2-.06Z"/>
    <path class="cls-2" d="m67.88,96.12h-13.45c-.31,0-.46-.38-.24-.59h0c.22-.22.07-.59-.24-.59h-6.91c-.07,0-.14.02-.2.06-1.88,1.33-4.06,2.54-6.54,3.63-.13.06-.21.18-.21.32v4.11c0,.24.24.41.46.33,1.02-.37,1.98-.74,2.86-1.14.1-.04.21-.04.3.01.89.48,1.89.97,2.97,1.45.31.14.26.6-.08.66-1.84.32-3.91.63-6.21.93-.17.02-.3.17-.3.34v3.33c0,.21.19.37.39.34,5.41-.73,10.01-1.66,13.79-2.75.06-.02.13-.02.19,0,3.86,1.11,8.35,2.05,13.37,2.76.21.03.4-.13.4-.34v-3.48c0-.17-.13-.32-.3-.34-2.09-.31-3.96-.62-5.61-.92-.33-.06-.39-.5-.09-.65,2.05-.99,4.02-2.15,5.84-3.43.09-.06.15-.17.15-.28v-3.39c0-.19-.15-.35-.35-.35Zm-13.37,6.3c-1.85-.58-3.52-1.21-5.04-1.92-.34-.16-.22-.66.15-.66h9.44c.36,0,.48.48.16.65-1.37.74-2.86,1.37-4.49,1.93-.07.02-.15.02-.22,0Z"/>
    <path class="cls-2" d="m67.88,110.32h-10.13c-.19,0-.35-.15-.35-.35v-1.73c0-.19-.15-.35-.35-.35h-6.16c-.19,0-.35.15-.35.35v1.73c0,.19-.15.35-.35.35h-9.77c-.19,0-.35.15-.35.35v3.18c0,.19.15.35.35.35h5.79c.39,0,.48.54.12.67-1.78.65-3.77,1.28-6,1.87-.15.04-.26.18-.26.33v3.43c0,.19.15.35.35.35h1.11s.07,0,.11-.02c3.18-1.02,5.97-2.13,8.4-3.33.23-.11.5.05.5.31v2.69c0,.19.15.35.35.35h6.16c.19,0,.35-.15.35-.35v-2.69c0-.26.27-.42.5-.31,2.43,1.21,5.22,2.31,8.4,3.33.03.01.07.02.11.02h1.47c.19,0,.35-.15.35-.35v-3.34c0-.16-.11-.29-.26-.33-2.37-.62-4.49-1.28-6.36-1.97-.36-.13-.26-.67.12-.67h6.15c.19,0,.35-.15.35-.35v-3.18c0-.19-.15-.35-.35-.35Z"/>
    <g>
      <path class="cls-2" d="m32.95,142.88c-.56-.13-1.22-.34-1.97-.87v.9h-1.15v-.87c-.57.37-1.19.65-1.93.84l-.55-1.13c.52-.02,1.01-.11,1.48-.28h-1.36v-.93h2.36v-.15h-1.73v-1.19c-.14.11-.17.14-.25.2l-.51-1.06c.54-.38.95-.92,1.11-1.35l1.23.06c-.04.1-.08.19-.16.33h.58c.07-.19.1-.31.11-.38l1.19.04c-.04.14-.06.2-.12.34h1.74v.8h-1.91v.15h1.73v.47h-1.73v.15h1.73v.47h-1.73v.15h2.09v.83h-2.24v.15h2.41v.93h-1.46c.3.12.81.27,1.58.32l-.56,1.1Zm-3.69-4.74v.2h.83v-.2h-.83Zm0,.61v.2h.83v-.2h-.83Zm0,.61v.2h.83v-.2h-.83Z"/>
      <path class="cls-2" d="m35.67,140.73c-.04,1.29-.06,1.55-.2,1.96l-.65-.6c.1-.29.17-.58.18-1.44l.67.07Zm-.75-1.18c.19,0,.22,0,.32,0,.11-.13.16-.2.23-.28-.22-.29-.35-.44-.64-.7l.45-1s.08.06.12.1c.13-.29.19-.51.24-.66l.92.1c-.29.61-.55,1.03-.6,1.1.04.06.07.1.14.18.24-.37.39-.65.52-.9l.8.28v-.24h1.14v-.52h1.14v.52h1.11v1.04h-1.11v.36h.99v1.03h-3.11v-1.03h.99v-.36h-1.14v-.64c-.24.4-.52.77-.83,1.12l.65-.18c.17.49.25.72.38,1.3h3.05v2.74h-1.1v-.19h-.87v.19h-1.09v-2.58l-.82.26c0-.15-.01-.17-.01-.23-.03,0-.11.01-.14.02v2.53h-.83v-2.41c-.48.06-.65.07-.81.08l-.07-1.03Zm1.27-.04c.15-.01.3-.03.45-.03,0-.04-.07-.3-.09-.4-.12.15-.27.32-.37.43Zm1.18,1.14c.08.49.11.89.11,1.45l-.68.09c.01-.09.01-.12.01-.23,0-.32-.02-.92-.07-1.22l.62-.09Zm1.32.52v.56h.87v-.56h-.87Z"/>
      <path class="cls-2" d="m42.57,138.4h2.56v2.62h-1.49c-.11,1.18-.4,1.68-.52,1.91l-.89-.9c.33-.64.34-1.12.34-1.27v-2.36Zm-.2-1.24h2.87v1.03h-2.87v-1.03Zm1.31,2.23v.61h.41v-.61h-.41Zm4.29.48v3.05h-1.14v-3.05h-.38c0,1.68-.42,2.44-1.06,3.09l-.94-.77c.84-.78.89-1.53.89-2.32v-2.6c.71,0,1.69-.06,2.57-.35l.41,1.12c-.71.2-1.38.25-1.87.27v.41h1.85v1.15h-.34Z"/>
    </g>
  </g>
  <path class="cls-1" d="m62.11,55.39c-2.65-4.32-2.23-9.43.95-13.44,2.57-3.24,6.55-8.56,1.05-11.23-2.42-1.17-8.09,2.43-9.21-.86-.78-2.27,2.7-4.96,3.54-6.85.95-2.14.91-5.22-1.34-6.71-1.61-1.06-3.99-.96-5.89-.21-.87.34-1.81-.29-1.76-1.18.1-1.84-.07-3.67-.96-5.3-1.28-2.34-4.55-3.95-7.08-2.74,0,0,0,0,0,0-1.58.76-2.2,2.2-2.55,3.76-.27,1.2-1.74,1.75-2.81,1.05-.91-.6-1.89-1.15-2.88-1.77-2.52-1.56-10.36-1.62-10.73,3.22-.14,1.9,1.78,3.48,2.52,5.25.34.81.56,1.71.36,2.57-.49,2.1-2.9,1.94-4.68,1.69-1.64-.23-3.31-.4-4.96-.21-4.32.5-7.14,3.86-4.54,7.69,1.79,2.63,4.25,4.77,6.06,7.41,1.32,1.94-4.6,4.08-5.63,5.1-.61.6-1.04,1.42-.96,2.25.26,2.77,3.46,3.24,5.58,3.89,4.7,1.43,2.36,5.62.74,8.16-2.14,3.36-6.14,9.23-1.1,12.22,4.35,2.59,16.26,2.98,16.98-3.54.4-3.59-4.61-6.64-3.38-10.07,1.46-4.08,8.35-3.6,11.43-1.58,2.72,1.79,2.05,4.19.59,6.57-1.29,2.12-2.9,5.09-.85,7.29,3.46,3.72,11.81,3.51,16.55,3.06,3.14-.3,7.6-1.08,9.08-4.11,1.86-3.81-1.87-7.89-3.88-11.02-.07-.12-.15-.23-.22-.35Zm-26.88-13.51c-.41,0-.74-.33-.74-.74v-13.13c0-.41.33-.74.74-.74s.74.33.74.74v13.13c0,.41-.33.74-.74.74Z"/>
</svg>