<?xml version="1.0" encoding="utf-8"?>
<!-- Generator: Adobe Illustrator 28.0.0, SVG Export Plug-In . SVG Version: 6.00 Build 0)  -->
<!DOCTYPE svg PUBLIC "-//W3C//DTD SVG 1.1//EN" "http://www.w3.org/Graphics/SVG/1.1/DTD/svg11.dtd" [
	<!ENTITY ns_extend "http://ns.adobe.com/Extensibility/1.0/">
	<!ENTITY ns_ai "http://ns.adobe.com/AdobeIllustrator/10.0/">
	<!ENTITY ns_graphs "http://ns.adobe.com/Graphs/1.0/">
	<!ENTITY ns_vars "http://ns.adobe.com/Variables/1.0/">
	<!ENTITY ns_imrep "http://ns.adobe.com/ImageReplacement/1.0/">
	<!ENTITY ns_sfw "http://ns.adobe.com/SaveForWeb/1.0/">
	<!ENTITY ns_custom "http://ns.adobe.com/GenericCustomNamespace/1.0/">
	<!ENTITY ns_adobe_xpath "http://ns.adobe.com/XPath/1.0/">
]>
<svg version="1.1" xmlns:x="&ns_extend;" xmlns:i="&ns_ai;" xmlns:graph="&ns_graphs;"
	 xmlns="http://www.w3.org/2000/svg" xmlns:xlink="http://www.w3.org/1999/xlink" x="0px" y="0px" viewBox="0 0 1031.3 566.9"
	 enable-background="new 0 0 1031.3 566.9" xml:space="preserve">
<metadata>
	<sfw  xmlns="&ns_sfw;">
		<slices></slices>
		<sliceSourceBounds  bottomLeftOrigin="true" height="18804.5" width="7711.1" x="-3767.4" y="-8732"></sliceSourceBounds>
	</sfw>
</metadata>
<g id="背景" display="none">
</g>
<g id="內容">
	<g>
		<path fill="#00FF00" d="M992.3,291.9c1.3-8.4,1.9-16.7,1.9-24.6c0-16.6-3.5-31-9.9-42.9c9.6-5.4,16.3-12.3,20.5-20.8l0.4-0.8
			l4.1-7.5v-8.5c0-26.3-23.4-37.9-37.4-42.5l-0.9-0.3l-0.9-0.2c-13.4-3.5-28.9-5.3-46.2-5.3c-19.3,0-36.8,2.2-52.2,6.4
			c-3.8,1-8.2,2.4-12.6,4.2c-0.6-0.6-1.2-1.3-1.9-1.9l-1.3-1.2l-1.4-1c-10.7-7.8-23.7-11.9-37.6-11.9c-12.8,0-25,3.5-35.5,10
			c-9.6-6.3-21.4-10-34.3-10c-34.4,0-62.2,24.6-63.2,56.1l0,0.6v0.6c0,1.6,0.1,3.1,0.2,4.6c-9-4.4-19.1-6.6-29-6.8
			c5.7-16.3,9.1-31.3,9.1-45c0-39.3-26.2-63.7-68.4-63.7c-7.4,0-14.4,1.3-20.8,3.2C561.2,37.3,524.7,0,467.1,0
			c-64.3,0-117.9,37.6-162.3,86.5C300.5,31,244.6,7.9,214.1,7.9c-32.3,0-64.3,12.5-87.7,34.4c-26,24.2-40.3,58.3-40.3,95.9
			c0,28.8,11.5,58.5,32.4,83.5c15.3,18.4,35.2,34,59.2,46.8c-20.4,25.6-36.8,35.4-45.9,35.4c-3.2,0-12.7,0-15.2-14.8l-2.4-30.4
			L83.6,260c-24.5,0-47.6,14-63.4,38.4C7.2,318.4,0,343.3,0,368.6c0,30.3,11,58.1,30.9,78.1c15.9,16,45.6,35.1,97.2,35.1
			c65,0,112.5-51.6,150.3-117.3c6,55.8,49.5,95.1,107.9,95.1c31,0,57.4-9.9,77.2-27.3c8.9,16.3,26.7,28.7,56.9,28.7
			c18.5,0,33.4-7.5,43.6-16.4c9.9,8.5,22.7,14,37.6,15.8c-3.7,10.9-5.6,22.2-5.6,33.6c0,18,5.1,34,15.3,47.5
			c7.1,9.8,23.5,25.5,55.4,25.5c20.9,0,39.7-7.7,55.7-23l0.3-0.3l0.3-0.3c12-12,22.4-27,30.9-44.6c5.7-11.9,10.6-22.4,14.6-31.3
			c7.5-7.5,15-16,22.5-25.5c14.7,12.3,34,19.1,56.4,19.1c32.9,0,64.5-16.8,90.5-47.6c49.2-7.5,69.1-58.6,75.9-76.2l17.6-45.2H992.3z
			"/>
	</g>
	<g>
		<g>
			<path d="M969.6,325.1c0,0-6,15.7-18.5,15.7l-1.4,0.5c0-0.5,19-35.2,19-74c0-26.4-11.6-45.8-43.9-45.8c-6,0-13,2.3-17.1,4.6
				l-5.1-0.9l-4.2,0.5c-48.9,13.8-83.9,64.1-94.6,111.2c-13.3,25.3-25.3,38.9-36.6,41c11.6-36.5,23.1-67.1,34.2-92.5
				c9.7-22.2,18.5-37.5,26.4-45.8c0-12-6.9-18-20.8-18c-14.8,0-30.5,22.7-47.2,68l-17.3,53c-4.9,6.5-11.4,12.3-18.7,12.3
				c-6.9,0-11.1,0-11.1-10.2c0-23.1,44.4-105,44.4-105l0.5-2.3c0-10.6-11.6-15.7-23.6-15.7c-18.5,0-19.4,9.3-24.5,26.4
				c-8.1,28.1-32.2,64.4-46,97.3c-3.9,3.6-8.7,6.3-14.6,6.3c-31,0-25-25.4-38.4-26.8c37,0,78.6-49.5,78.6-80
				c0-13-7.9-23.1-27.8-23.1c-40.7,0-62.4,30.1-62.4,30.1c20.4-43.5,39.8-82.8,39.8-108.3c0-15.7-6-30.5-35.2-30.5
				c-16.7,0-32.8,13.4-32.8,13.4c7.9,9.3,11.6,21.7,11.6,35.6c0,69.9-85.1,187.8-85.1,240.6c0,16.7,8.8,25.4,31,25.4
				c17.6,0,25.9-13,25.9-13l-1.4-16.7c0-22.2,6.5-46.3,14.3-69.9c13,5.6,14.8,17.6,14.8,31.5l-0.5,27.3c0,21.7,9.7,40.7,38.9,40.7
				c12.6,0,25-10.8,36-25.3c4.9,14.7,16.6,25.3,36.1,25.3c6.4,0,12.6-2,18.5-5.3c-1.4,2-2.7,3.9-4.2,5.8
				c-8.3,11.1-16.7,16.7-25,16.7c-5.1,0-10.2-0.9-15.3-2.8c-7.4,0-14.3,5.5-20.4,16.7c-6,11.1-9.3,22.7-9.3,35.2
				c0,10.6,2.8,19.9,8.8,27.8c5.5,7.9,15.3,12,28.7,12c12.5,0,23.1-4.6,32.8-13.9c9.3-9.3,17.6-21.3,24.5-35.6
				c6.9-14.3,12.5-26.4,16.7-36.1c17.1-16.2,34.2-38.4,51.4-65.7c0.6-1,1.1-1.9,1.7-2.9c4,27.9,20.9,48.3,53.6,48.3
				c31.5,0,56.9-23.1,73.6-46.7h4.6c24.5,0,42.1-16.7,57.4-56H969.6z M578.4,297.8c7.4-18.5,32.8-46.3,53.2-46.3
				c3.2,0,5.1,1.9,5.1,4.2C636.7,265.4,609.8,290.4,578.4,297.8z M884,364.9c-19,0-26.4-13.9-26.4-31.9c0-16.7,6.5-37.9,18-55.1
				c-1.9,6.5-2.3,13.9-2.3,20.8c0,23.1,7.9,47.6,25.9,62.5C899.3,361.2,893.7,364.9,884,364.9z M921.9,335.3
				c-16.7-8.8-24.5-23.1-24.5-38.9c0-18.5,9.7-35.6,25-35.6c8.8,0,13.9,8.8,13.9,24.5C936.3,300.1,932.1,317.2,921.9,335.3z"/>
		</g>
		<g>
			<path d="M555.7,125.3c0-44.9-25.4-92.1-81-92.1c-85.6,0-154.5,87-206.3,168.4c-29.1-13-47.2-37-47.2-59.7c0-23.6,15.3-50,44.9-50
				l13.4,1.4c0-41.2-45.8-52.3-57.8-52.3c-47.2,0-94.8,35.6-94.8,97.1c0,38.9,29.6,88.4,108.7,116.1c-1.4,0.9-46.3,82.8-96.2,82.8
				c-43,0-48.1-43.9-48.1-43.9c-27.8,0-50.4,37-50.4,75.4c0,39.3,25,80,94.8,80c68.9,0,119.4-85.6,161.4-181.8
				c17.6,4.2,23.1,7.4,39.3,12c-6.5,14.8-18,47.2-18,72.2c0,43,30.1,75.4,75.4,75.4c48.6,0,82.8-32.8,82.8-89.3
				c0-35.6-30.1-66.2-73.1-81.9c8.8-53.7,55.1-142,87.9-178.6h0.5c1.9,0,12,7.9,12,17.6c0,6.5-6,23.6-15.7,23.6
				c-5.6,0-9.3-5.1-9.3-5.5c-14.8,0-28.7,25.9-28.7,50.4c0,22.2,11.6,43.9,43.9,43.9h0.5C534.4,206.7,555.7,166.9,555.7,125.3z
				 M430.8,337.1c0,12-7.4,16.2-13.9,16.2c-15.7,0-20.4-17.1-20.4-33.3c0-5.6,0.5-11.6,1.4-16.2C400.8,304.7,430.8,314,430.8,337.1z
				 M353.6,234.9c-6-2.3-15.7-6.9-37.5-13.4c27.8-60.1,86.5-151.3,136.5-151.3h6.9C440.1,87.8,373.5,190.5,353.6,234.9z"/>
		</g>
		<g>
			<path d="M749.6,210.8c16.2,0,29.1-10.6,30.1-24.5c0-11.1-10.6-19.9-25-19.9c-16.7,0-29.6,10.6-30.1,24.1
				C724.6,202,735.2,210.8,749.6,210.8z"/>
		</g>
		<g>
			<path d="M801.4,204.8c4.6,4.2,10.6,6,17.6,6c7.9,0,14.3-2.3,20.4-6.5c5.6-4.2,8.8-9.7,9.7-15.7l0.5-2.3c0-5.6-2.3-10.2-6.9-14.3
				c-5.1-3.7-11.1-5.6-18-5.6c-7.9,0-14.8,2.3-20.8,6.9c-6.5,4.6-9.7,10.6-9.7,17.6C794,196.5,796.3,201.1,801.4,204.8z"/>
		</g>
		<g>
			<path d="M883.1,201c9.7,3.2,22.3,4.6,36.8,4.6c16.4,0,30-1.8,42.6-4.9c11.6-3.2,18.4-7.4,20.3-12l1-1.8c0-4.2-4.8-7.7-14.5-10.9
				c-10.7-2.8-23.2-4.2-37.8-4.2c-16.4,0-31,1.8-43.6,5.3c-13.6,3.5-20.3,8.1-20.3,13.4C867.6,194.6,872.4,198.1,883.1,201z"/>
		</g>
	</g>
</g>
<g id="刀模" display="none">
</g>
<g id="Layer_4">
</g>
</svg>
