<svg width="24" height="24" viewBox="0 0 24 24" fill="none" xmlns="http://www.w3.org/2000/svg">
<rect width="24" height="24" fill="none"/>
<path d="M17.5651 10.76C17.4051 10.92 17.2051 11 17.0051 11C16.8051 11 16.6051 10.92 16.4451 10.76L12.8051 7.12001V18.8C12.8051 19.24 12.4451 19.6 12.0051 19.6C11.5651 19.6 11.2051 19.24 11.2051 18.8V7.12001L7.56506 10.74C7.24506 11.06 6.74505 11.06 6.42505 10.74C6.10505 10.42 6.10505 9.92 6.42505 9.6L11.4251 4.62001C11.7451 4.30001 12.2451 4.30001 12.5451 4.62001L17.5451 9.6C17.8851 9.94 17.8851 10.44 17.5651 10.76Z" fill="#F8FAFC"/>
</svg>
