<svg width="16" height="12" viewBox="0 0 16 12" fill="none" xmlns="http://www.w3.org/2000/svg">
<path d="M10.3882 0.442609L15.3682 5.44261C15.5282 5.60261 15.6082 5.80262 15.6082 6.00262C15.6082 6.20262 15.5282 6.40263 15.3682 6.56263L10.3882 11.5626C10.0682 11.8826 9.56821 11.8826 9.24821 11.5626C8.92821 11.2426 8.92821 10.7426 9.24821 10.4226L12.8682 6.78262L1.2082 6.78262C0.768203 6.78262 0.408203 6.42262 0.408203 5.98262C0.408203 5.54262 0.768203 5.18262 1.2082 5.18262L12.8882 5.18262L9.2682 1.54261C8.9482 1.22261 8.9482 0.722618 9.2682 0.402619C9.5682 0.122619 10.0682 0.122609 10.3882 0.442609Z" fill="#F8FAFC"/>
</svg>
