<?xml version="1.0" encoding="UTF-8"?>
<svg id="_圖層_1" data-name="圖層 1" xmlns="http://www.w3.org/2000/svg" viewBox="0 0 62.15 34.14">
  <defs>
    <style>
      .cls-1 {
        fill: #241614;
      }

      .cls-1, .cls-2 {
        stroke-width: 0px;
      }

      .cls-2 {
        fill: #327950;
      }
    </style>
  </defs>
  <ellipse class="cls-2" cx="31.07" cy="17.07" rx="31.07" ry="17.07"/>
  <g>
    <path class="cls-1" d="m15.22,13.38h-2.73c-.1,0-.2.06-.24.15l-2.32,4.43c-.31.59-.47,1.24-.47,1.91v.77c0,.15.12.28.28.28h2.19c.15,0,.28-.12.28-.28v-.86c0-.15.12-.28.28-.28h2.76c.15,0,.28.12.28.28v.86c0,.15.12.28.28.28h2.24c.15,0,.28-.12.28-.28v-.75c0-.68-.17-1.34-.48-1.94l-2.36-4.42c-.05-.09-.14-.15-.24-.15Zm-2.27,3.87l.91-1.95.9,1.95h-1.81Z"/>
    <path class="cls-1" d="m24.97,13.37c-.07,0-.14.03-.19.07l-2.35,2.18h-.05v-1.98c0-.15-.12-.28-.28-.28h-2.03c-.15,0-.28.12-.28.28v6.99c0,.15.12.28.28.28h2.03c.15,0,.28-.12.28-.28v-2.91s.05,0,.05,0l2.34,3.08c.05.07.13.11.22.11h2.67c.23,0,.36-.27.21-.45l-2.91-3.59c-.09-.11-.08-.27.02-.37l2.75-2.66c.18-.17.06-.47-.19-.47h-2.59Z"/>
    <rect class="cls-1" x="29.41" y="13.37" width="2.58" height="7.54" rx=".28" ry=".28"/>
    <path class="cls-1" d="m48.06,13.13c-2.55,0-4.64.82-4.63,3.67v.55c-.01,2.84,2.08,3.66,4.63,3.67,2.55,0,4.64-.83,4.63-3.67v-.55c0-2.84-2.07-3.67-4.63-3.67Zm2.06,4.04c.02,1.28-.94,1.51-2.05,1.52-1.12-.02-2.08-.25-2.06-1.52v-.19c-.02-1.27.94-1.5,2.06-1.52,1.12.02,2.07.25,2.05,1.52v.19Z"/>
    <path class="cls-1" d="m37.31,15.96h2.06c.15,0,.28.12.28.28v1.4c.01,1.09-.88,1.27-1.94,1.29-1.05-.01-1.95-.2-1.93-1.29v-.37c0-.15-.12-.28-.28-.28h-2.03c-.15,0-.28.12-.28.28v.53c0,2.5,2.03,3.22,4.51,3.22,2.5,0,4.51-.73,4.51-3.22v-4.15c0-.15-.12-.28-.28-.28h-4.64c-.15,0-.28.12-.28.28v2.04c0,.15.12.28.28.28Z"/>
  </g>
</svg>