<?xml version="1.0" encoding="UTF-8"?>
<svg id="_圖層_1" data-name="圖層 1" xmlns="http://www.w3.org/2000/svg" viewBox="0 0 76.59 68.73">
  <defs>
    <style>
      .cls-1 {
        fill: #5bb431;
      }

      .cls-1, .cls-2 {
        stroke-width: 0px;
      }

      .cls-2 {
        fill: #231815;
      }
    </style>
  </defs>
  <path class="cls-1" d="m38.28,10.47c.72-.9,1.35-1.72,2.02-2.51C43.93,3.7,48.31.87,53.64.17c9.17-1.21,17.84,4.24,21.32,13.91,2.56,7.12,2.04,14.09-1.11,20.88-2.68,5.77-6.44,10.63-10.64,15.13-6.06,6.49-12.8,12.06-19.98,16.99-3.18,2.18-6.65,2.23-9.82.04-8.79-6.08-17-12.94-23.92-21.49-3.67-4.53-6.79-9.44-8.48-15.28C-1.94,20.16,1.71,8.27,10.5,2.83c7.03-4.35,15.91-3.67,22.58,2,1.65,1.4,3.02,3.19,4.51,4.8.22.24.42.5.69.84Z"/>
  <g>
    <path class="cls-2" d="m15.31,15.42h-3.99c-.15,0-.29.09-.36.22l-3.38,6.7c-.45.89-.68,1.88-.68,2.89v1.17c0,.23.18.42.4.42h3.2c.22,0,.4-.19.4-.42v-1.31c0-.23.18-.42.4-.42h4.03c.22,0,.4.19.4.42v1.31c0,.23.18.42.4.42h3.27c.22,0,.4-.19.4-.42v-1.14c0-1.02-.24-2.03-.71-2.93l-3.44-6.69c-.07-.14-.21-.22-.35-.22Zm-3.32,5.84l1.33-2.95,1.32,2.95h-2.65Z"/>
    <path class="cls-2" d="m29.54,15.41c-.1,0-.2.04-.27.11l-3.42,3.3h-.07v-3c0-.23-.18-.42-.4-.42h-2.96c-.22,0-.4.19-.4.42v10.56c0,.23.18.42.4.42h2.96c.22,0,.4-.19.4-.42v-4.4h.07l3.42,4.65c.08.1.19.16.32.16h3.9c.34,0,.53-.41.31-.68l-4.24-5.42c-.13-.17-.12-.41.03-.56l4.02-4.02c.26-.26.08-.72-.28-.72h-3.78Z"/>
    <path class="cls-2" d="m36.41,26.8h2.96c.22,0,.4-.19.4-.42v-10.56c0-.23-.18-.42-.4-.42h-2.96c-.22,0-.4.19-.4.42v10.56c0,.23.18.42.4.42Z"/>
    <path class="cls-2" d="m63.23,15.04c-3.72,0-6.77,1.24-6.76,5.55v.83c-.01,4.3,3.03,5.54,6.76,5.55,3.72,0,6.76-1.25,6.75-5.55v-.83c0-4.3-3.03-5.55-6.75-5.55Zm3,6.1c.02,1.93-1.37,2.28-3,2.31-1.64-.03-3.03-.38-3.01-2.31v-.29c-.02-1.92,1.37-2.27,3.01-2.3,1.63.03,3.02.38,3,2.3v.29Z"/>
    <path class="cls-2" d="m47.54,19.32h3.01c.22,0,.4.19.4.42v2.12c.02,1.64-1.28,1.93-2.83,1.95-1.54-.02-2.84-.3-2.82-1.95v-.56c0-.23-.18-.42-.4-.42h-2.96c-.22,0-.4.19-.4.42v.8c-.01,3.78,2.96,4.86,6.58,4.87,3.65,0,6.59-1.1,6.59-4.87v-6.27c0-.23-.18-.42-.4-.42h-6.77c-.22,0-.4.19-.4.42v3.08c0,.23.18.42.4.42Z"/>
  </g>
  <g>
    <path class="cls-2" d="m23.04,32.4h-2.59c-.1,0-.19.06-.23.15l-2.2,4.35c-.29.58-.44,1.22-.44,1.87v.76c0,.15.12.27.26.27h2.08c.14,0,.26-.12.26-.27v-.85c0-.15.12-.27.26-.27h2.61c.14,0,.26.12.26.27v.85c0,.15.12.27.26.27h2.12c.14,0,.26-.12.26-.27v-.74c0-.66-.16-1.32-.46-1.9l-2.23-4.34c-.05-.09-.13-.14-.23-.14Zm-2.15,3.79l.86-1.92.86,1.92h-1.72Z"/>
    <path class="cls-2" d="m32.27,32.39c-.07,0-.13.03-.18.07l-2.22,2.14h-.04v-1.94c0-.15-.12-.27-.26-.27h-1.92c-.14,0-.26.12-.26.27v6.86c0,.15.12.27.26.27h1.92c.14,0,.26-.12.26-.27v-2.85h.04l2.22,3.02c.05.07.13.11.21.11h2.53c.22,0,.34-.26.2-.44l-2.75-3.52c-.09-.11-.08-.27.02-.36l2.61-2.61c.17-.17.05-.46-.18-.46h-2.46Z"/>
    <path class="cls-2" d="m36.73,39.78h1.92c.14,0,.26-.12.26-.27v-6.86c0-.15-.12-.27-.26-.27h-1.92c-.14,0-.26.12-.26.27v6.86c0,.15.12.27.26.27Z"/>
    <path class="cls-2" d="m54.14,32.15c-2.42,0-4.4.81-4.39,3.6v.54c0,2.79,1.97,3.6,4.39,3.6,2.41,0,4.39-.81,4.38-3.6v-.54c0-2.79-1.96-3.6-4.38-3.6Zm1.95,3.96c.01,1.25-.89,1.48-1.95,1.5-1.06-.02-1.97-.24-1.95-1.5v-.19c-.01-1.25.89-1.47,1.95-1.49,1.06.02,1.96.24,1.95,1.49v.19Z"/>
    <path class="cls-2" d="m43.95,34.93h1.95c.14,0,.26.12.26.27v1.37c.01,1.07-.83,1.25-1.84,1.26-1-.01-1.84-.2-1.83-1.26v-.36c0-.15-.12-.27-.26-.27h-1.92c-.14,0-.26.12-.26.27v.52c0,2.45,1.92,3.16,4.27,3.16,2.37,0,4.28-.71,4.28-3.16v-4.07c0-.15-.12-.27-.26-.27h-4.39c-.14,0-.26.12-.26.27v2c0,.15.12.27.26.27Z"/>
  </g>
  <g>
    <path class="cls-2" d="m27.73,44.6h-1.82c-.07,0-.13.04-.16.1l-1.55,3.07c-.21.41-.31.86-.31,1.32v.53c0,.11.08.19.18.19h1.46c.1,0,.18-.09.18-.19v-.6c0-.11.08-.19.18-.19h1.84c.1,0,.18.09.18.19v.6c0,.11.08.19.18.19h1.5c.1,0,.18-.09.18-.19v-.52c0-.47-.11-.93-.32-1.34l-1.57-3.06c-.03-.06-.09-.1-.16-.1Zm-1.52,2.67l.61-1.35.6,1.35h-1.21Z"/>
    <path class="cls-2" d="m34.24,44.6s-.09.02-.13.05l-1.57,1.51h-.03v-1.37c0-.11-.08-.19-.18-.19h-1.35c-.1,0-.18.09-.18.19v4.83c0,.11.08.19.18.19h1.35c.1,0,.18-.09.18-.19v-2.01h.03l1.56,2.13s.09.08.15.08h1.78c.15,0,.24-.19.14-.31l-1.94-2.48c-.06-.08-.05-.19.02-.26l1.84-1.84c.12-.12.04-.33-.13-.33h-1.73Z"/>
    <path class="cls-2" d="m37.38,49.81h1.35c.1,0,.18-.09.18-.19v-4.83c0-.11-.08-.19-.18-.19h-1.35c-.1,0-.18.09-.18.19v4.83c0,.11.08.19.18.19Z"/>
    <path class="cls-2" d="m49.66,44.43c-1.7,0-3.1.57-3.09,2.54v.38c0,1.97,1.39,2.54,3.09,2.54,1.7,0,3.1-.57,3.09-2.54v-.38c0-1.97-1.38-2.54-3.09-2.54Zm1.37,2.79c.01.88-.63,1.04-1.37,1.06-.75-.01-1.39-.17-1.38-1.06v-.13c-.01-.88.63-1.04,1.38-1.05.75.01,1.38.17,1.37,1.05v.13Z"/>
    <path class="cls-2" d="m42.47,46.39h1.38c.1,0,.18.09.18.19v.97c0,.75-.59.88-1.29.89-.7-.01-1.3-.14-1.29-.89v-.26c0-.11-.08-.19-.18-.19h-1.35c-.1,0-.18.09-.18.19v.37c0,1.73,1.35,2.23,3.01,2.23,1.67,0,3.01-.5,3.01-2.23v-2.87c0-.11-.08-.19-.18-.19h-3.1c-.1,0-.18.09-.18.19v1.41c0,.11.08.19.18.19Z"/>
  </g>
  <g>
    <path class="cls-2" d="m30.53,54.62h-1.32s-.09.03-.12.07l-1.12,2.22c-.15.29-.23.62-.23.95v.39c0,.08.06.14.13.14h1.06c.07,0,.13-.06.13-.14v-.43c0-.08.06-.14.13-.14h1.33c.07,0,.13.06.13.14v.43c0,.08.06.14.13.14h1.08c.07,0,.13-.06.13-.14v-.38c0-.34-.08-.67-.23-.97l-1.14-2.21s-.07-.07-.12-.07Zm-1.1,1.93l.44-.98.44.98h-.88Z"/>
    <path class="cls-2" d="m35.24,54.62s-.07.01-.09.04l-1.13,1.09h-.02v-.99c0-.08-.06-.14-.13-.14h-.98c-.07,0-.13.06-.13.14v3.49c0,.08.06.14.13.14h.98c.07,0,.13-.06.13-.14v-1.45h.02l1.13,1.54s.06.05.11.05h1.29c.11,0,.17-.13.1-.22l-1.4-1.79c-.04-.06-.04-.14.01-.19l1.33-1.33c.09-.09.03-.24-.09-.24h-1.25Z"/>
    <path class="cls-2" d="m37.51,58.38h.98c.07,0,.13-.06.13-.14v-3.49c0-.08-.06-.14-.13-.14h-.98c-.07,0-.13.06-.13.14v3.49c0,.08.06.14.13.14Z"/>
    <path class="cls-2" d="m46.37,54.5c-1.23,0-2.24.41-2.23,1.83v.27c0,1.42,1,1.83,2.23,1.83,1.23,0,2.24-.41,2.23-1.83v-.27c0-1.42-1-1.83-2.23-1.83Zm.99,2.02c0,.64-.45.75-.99.76-.54,0-1-.12-.99-.76v-.1c0-.63.45-.75.99-.76.54,0,1,.12.99.76v.1Z"/>
    <path class="cls-2" d="m41.18,55.91h.99c.07,0,.13.06.13.14v.7c0,.54-.42.64-.93.64-.51,0-.94-.1-.93-.64v-.18c0-.08-.06-.14-.13-.14h-.98c-.07,0-.13.06-.13.14v.27c0,1.25.98,1.61,2.18,1.61,1.21,0,2.18-.36,2.18-1.61v-2.07c0-.08-.06-.14-.13-.14h-2.24c-.07,0-.13.06-.13.14v1.02c0,.08.06.14.13.14Z"/>
  </g>
  <g>
    <path class="cls-2" d="m34.46,62.35h-.7s-.05.02-.06.04l-.59,1.17c-.08.16-.12.33-.12.5v.2s.03.07.07.07h.56s.07-.03.07-.07v-.23s.03-.07.07-.07h.7s.07.03.07.07v.23s.03.07.07.07h.57s.07-.03.07-.07v-.2c0-.18-.04-.35-.12-.51l-.6-1.17s-.04-.04-.06-.04Zm-.58,1.02l.23-.52.23.52h-.46Z"/>
    <path class="cls-2" d="m36.95,62.34s-.03,0-.05.02l-.6.58h-.01v-.52s-.03-.07-.07-.07h-.52s-.07.03-.07.07v1.84s.03.07.07.07h.52s.07-.03.07-.07v-.77h.01l.6.81s.03.03.06.03h.68c.06,0,.09-.07.05-.12l-.74-.95s-.02-.07,0-.1l.7-.7s.01-.13-.05-.13h-.66Z"/>
    <path class="cls-2" d="m38.15,62.34h.51s.07.03.07.07v1.85s-.03.07-.07.07h-.51s-.07-.03-.07-.07v-1.85s.03-.07.07-.07Z"/>
    <path class="cls-2" d="m42.83,62.28c-.65,0-1.18.22-1.18.97v.14c0,.75.53.97,1.18.97.65,0,1.18-.22,1.18-.97v-.14c0-.75-.53-.97-1.18-.97Zm.52,1.07c0,.34-.24.4-.52.4-.29,0-.53-.07-.52-.4v-.05c0-.34.24-.4.52-.4.29,0,.53.07.52.4v.05Z"/>
    <path class="cls-2" d="m40.09,63.03h.53s.07.03.07.07v.37c0,.29-.22.34-.49.34-.27,0-.5-.05-.49-.34v-.1s-.03-.07-.07-.07h-.52s-.07.03-.07.07v.14c0,.66.52.85,1.15.85.64,0,1.15-.19,1.15-.85v-1.1s-.03-.07-.07-.07h-1.18s-.07.03-.07.07v.54s.03.07.07.07Z"/>
  </g>
</svg>