<?xml version="1.0" encoding="UTF-8"?>
<svg id="_內容" data-name="內容" xmlns="http://www.w3.org/2000/svg" viewBox="0 0 71.84 85.04">
  <defs>
    <style>
      .cls-1, .cls-2 {
        stroke-width: 0px;
      }

      .cls-2 {
        fill: #fff;
      }
    </style>
  </defs>
  <path class="cls-1" d="m68.91,0h-16.13v13.2h-26.39v13.2h-13.2v13.2H0v45.45h19.06v-13.21h20.52v13.21h19.06V19.06h13.2V0h-2.93ZM19.06,45.45h13.2v-13.2h7.33v20.5h-20.52v-7.31Z"/>
  <g>
    <rect class="cls-2" x="55.72" y="2.93" width="13.2" height="13.2"/>
    <polygon class="cls-2" points="29.32 16.13 29.32 29.32 42.52 29.32 42.52 42.52 42.52 55.7 29.32 55.7 16.13 55.7 16.13 42.52 2.93 42.52 2.93 55.71 2.93 68.91 2.93 82.11 16.13 82.11 16.13 68.91 16.13 68.89 29.32 68.89 42.52 68.89 42.52 82.11 55.72 82.11 55.72 68.89 55.72 66.96 55.72 55.71 55.72 55.7 55.72 42.52 55.72 29.32 55.72 16.13 42.52 16.13 29.32 16.13"/>
    <rect class="cls-2" x="16.13" y="29.32" width="13.2" height="13.2"/>
  </g>
</svg>