<svg width="160" height="29" viewBox="0 0 160 29" fill="none" xmlns="http://www.w3.org/2000/svg">
<path d="M158.449 18.3538C157.471 17.2021 155.508 16.6941 154.424 17.8607C154.691 15.5193 158.66 14.7222 158.43 12.3766C158.235 10.3776 155.183 10.224 153.562 11.4187C151.941 12.6133 150.783 14.5437 148.848 15.0887C148.177 12.2336 145.038 10.2065 142.153 10.7657C139.576 11.2679 137.494 13.486 134.872 13.6051C130.854 13.7859 127.51 8.98751 123.639 10.0666C120.568 10.9216 118.547 15.2714 115.488 14.3637C114.061 13.9406 113.248 12.4819 112.098 11.5423C108.895 8.92419 104.14 10.7907 100.485 12.7328C100.279 9.39328 99.4876 6.08828 98.1637 3.01165C97.787 2.13524 97.2401 1.17238 96.3053 0.979203C95.2285 0.758304 94.2205 1.72949 93.9266 2.78475C93.6326 3.84001 93.834 4.96133 93.8898 6.05488C94.2488 12.9297 87.7937 19.3696 80.9055 19.0063C81.2003 16.7382 84.8392 15.7866 84.605 13.5101C84.3897 11.4198 81.2384 11.2974 79.4617 12.4204C77.6813 13.5433 76.0107 15.3454 73.9196 15.1086C74.9576 13.6206 73.4116 11.4438 71.6088 11.2078C69.806 10.9719 68.1002 11.994 66.6132 13.0305C65.1261 14.0706 63.557 15.2151 61.7421 15.2885C61.1053 13.0786 61.7007 10.7278 61.8243 8.43519C61.948 6.1389 61.355 3.47076 59.2984 2.43317C58.8965 2.23017 58.424 2.10618 58.0019 2.25616C57.1945 2.54213 57.0284 3.58847 56.9895 4.44013C56.7423 9.71745 55.7151 15.8566 51.0484 18.3473C49.97 18.9241 48.6148 19.2342 47.5475 18.6419C46.3825 17.9972 45.9602 16.5409 45.0225 15.5938C43.7113 14.2729 41.5415 14.1623 39.8048 14.8342C38.068 15.5062 36.668 16.8063 35.3087 18.0779C34.1414 13.1681 27.6041 10.4502 23.2891 13.0848C23.2608 11.1722 23.2324 9.26326 23.2005 7.3506C23.1915 6.76042 23.2093 6.09417 23.639 5.68572C24.0578 5.28074 24.7111 5.28009 25.2947 5.30019C28.6137 5.42888 31.9328 5.55392 35.2518 5.68261C37.0244 5.75055 39.2949 5.48396 39.7888 3.77989C40.1401 2.56163 39.2298 1.2689 38.0775 0.744511C36.9216 0.220064 35.5997 0.268476 34.3324 0.325031C25.8447 0.726943 27.1434 1.2245 18.6594 1.61919C14.3608 1.81746 10.0622 2.01938 5.76358 2.21765C4.54374 2.27495 1.66024 1.83624 0.749569 2.65599C-0.268513 3.57602 0.509977 5.59148 1.39323 6.28282C2.65142 7.2678 4.38051 7.31684 5.97917 7.30557C13.3702 7.25791 10.9806 6.73591 18.3321 5.95191C19.8605 10.1791 18.0016 15.3618 14.1335 17.6648C11.6246 19.1587 7.89814 20.3421 8.0786 23.255C8.21549 25.4571 10.8053 26.7034 13.0142 26.6398C15.5408 26.5666 18.0158 25.3672 19.6302 23.4258C21.0103 21.7684 21.7625 19.6496 23.2325 18.0738C24.7025 16.498 27.4451 15.6888 28.9499 17.2313C30.4045 18.7256 29.7465 21.3486 30.909 23.0787C32.0537 24.783 34.6272 24.9765 36.4628 24.0511C38.2985 23.1257 39.5665 21.3974 40.7643 19.7263C42.1614 22.5491 45.2186 24.4766 48.3746 24.5262C51.5307 24.5758 54.6433 22.7418 56.125 19.9606C56.0748 22.2252 57.8467 24.6533 60.1153 24.5105C61.1127 24.4461 62.015 23.9249 62.9017 23.469C66.7096 21.5184 71.0591 20.6325 75.3316 20.9328C77.7169 24.2774 82.6621 24.9635 86.4991 23.4832C90.3361 22.0029 93.2543 18.8436 95.7652 15.5942C93.696 18.6029 96.1364 23.0884 99.6186 24.2103C103.101 25.3323 106.906 24.0044 110.073 22.1858C113.244 20.3636 116.161 18.0165 119.621 16.8362C119.146 20.1177 123.026 22.5935 126.334 22.274C129.642 21.9582 132.477 19.9121 135.453 18.4401C138.428 16.9681 142.215 16.1062 144.918 18.0317C144.173 19.7064 142.289 20.4926 140.833 21.6097C139.378 22.7268 138.302 25.0045 139.606 26.2961C140.695 27.3731 142.594 26.8312 143.77 25.8481C144.946 24.865 145.836 23.5058 147.215 22.8355C149.157 21.8936 151.438 22.5741 153.584 22.8155C155.726 23.0568 158.418 22.4362 158.965 20.3542C159.163 19.6107 158.919 18.9075 158.449 18.3538ZM108.941 16.4279C107.323 17.0107 105.669 17.5091 104.029 18.0442C103.787 18.1242 103.562 18.2736 103.317 18.3353C103.108 18.3867 102.848 18.4227 102.674 18.3362C102.522 18.2609 102.457 18.0086 102.389 17.8946C102.421 17.7094 102.409 17.5999 102.457 17.546C103.237 16.666 103.849 15.5975 105.113 15.2568C105.659 15.1088 106.172 14.7781 106.72 14.7066C107.393 14.6152 108.105 14.6227 108.767 14.7606C109.072 14.8237 109.445 15.2666 109.502 15.5844C109.549 15.8328 109.213 16.3302 108.941 16.4279Z" fill="#F8FAFC"/>
</svg>
