<svg width="20" height="18" viewBox="0 0 20 18" fill="none" xmlns="http://www.w3.org/2000/svg">
<path d="M19.1049 6.66001C18.9249 6.06001 18.5649 5.58005 18.0249 5.30005C17.3449 4.94005 16.5449 4.98003 15.9849 5.08003L14.8049 0.960015C14.7249 0.680014 14.5049 0.460054 14.2249 0.400054C13.9449 0.340054 13.6449 0.420093 13.4449 0.640093C10.5849 3.84009 9.40494 4.62005 6.24494 6.00005L3.76494 6.72007C1.58494 7.36007 0.324942 9.66009 0.944942 11.8401C1.24494 12.9001 1.94493 13.8001 2.92493 14.3401C3.54493 14.6801 4.22494 14.86 4.90494 14.86C5.22494 14.86 5.56494 14.8201 5.88494 14.7401L6.14494 15.68C6.28494 16.18 6.56493 16.62 6.92493 16.98L7.34494 17.38C7.50494 17.52 7.70494 17.6001 7.90494 17.6001C8.12494 17.6001 8.32494 17.52 8.48494 17.36C8.78495 17.04 8.78494 16.5401 8.44494 16.2201L8.02494 15.8201C7.86494 15.6601 7.74495 15.4601 7.68495 15.2401L7.42494 14.3001L8.58495 13.96C11.9049 13.46 13.4049 13.5 17.4649 14.66C17.5449 14.68 17.6049 14.7001 17.6849 14.7001C17.8849 14.7001 18.1049 14.62 18.2449 14.46C18.4449 14.26 18.5249 13.96 18.4449 13.68L17.2649 9.58003C17.7849 9.38003 18.4849 9.02001 18.8849 8.36001C19.2049 7.86001 19.2849 7.28001 19.1049 6.66001ZM3.72493 12.96C3.12493 12.64 2.70494 12.0801 2.50494 11.4401C2.12494 10.0801 2.90493 8.68003 4.22493 8.28003L6.02493 7.76001L6.84494 10.66L7.40494 12.66L5.60494 13.18C4.98494 13.36 4.30493 13.28 3.72493 12.96ZM11.8649 12.08C10.9649 12.08 10.0649 12.1601 9.00494 12.3001L7.84494 8.20005L7.56494 7.20005C10.1249 6.04005 11.4849 5.14003 13.7049 2.78003L16.5449 12.76C14.6249 12.28 13.2649 12.08 11.8649 12.08ZM17.5449 7.54009C17.4249 7.76009 17.1249 7.92009 16.8449 8.04009L16.4449 6.64009C16.7449 6.60009 17.0849 6.60007 17.3049 6.72007C17.4049 6.78007 17.5049 6.86003 17.5849 7.08003C17.6449 7.32003 17.5849 7.44009 17.5449 7.54009ZM12.4849 6.22007C12.7049 6.54007 12.6449 6.98005 12.3249 7.20005C11.5849 7.72005 10.7449 8.18005 10.7049 8.20005C10.6049 8.26005 10.4849 8.28003 10.3849 8.28003C10.1249 8.28003 9.88494 8.14005 9.76494 7.90005C9.58494 7.56005 9.72494 7.14001 10.0649 6.96001C10.0649 6.96001 10.8649 6.54003 11.5049 6.08003C11.8049 5.82003 12.2449 5.90007 12.4849 6.22007Z" fill="#F8FAFC"/>
</svg>
