<svg width="24" height="24" viewBox="0 0 24 24" fill="none" xmlns="http://www.w3.org/2000/svg">
<rect width="24" height="24" fill="none"/>
<path fill-rule="evenodd" clip-rule="evenodd" d="M14.6557 7.30446C14.7832 6.91034 15.206 6.69416 15.6001 6.8216C16.7898 7.2063 17.6306 8.26838 17.7317 9.5148C17.7653 9.92765 17.4577 10.2895 17.0449 10.323C16.632 10.3565 16.2702 10.049 16.2367 9.63616C16.1845 8.99395 15.7516 8.44707 15.1386 8.24884C14.7445 8.12139 14.5283 7.69858 14.6557 7.30446Z" fill="#F8FAFC"/>
<path fill-rule="evenodd" clip-rule="evenodd" d="M7.42547 4.65959C4.4628 5.61401 3.40644 8.83951 4.31032 11.6615C5.76428 16.1868 11.9996 19.5799 11.9996 19.5799C11.9996 19.5799 18.2813 16.1346 19.6881 11.6615C20.5911 8.83951 19.528 5.61401 16.5654 4.65959C15.0086 4.16005 13.2253 4.48016 11.9996 5.42784C10.704 4.4532 8.98388 4.15668 7.42547 4.65959ZM16.1062 6.08757C15.0113 5.73658 13.7445 5.97478 12.9171 6.6145C12.3826 7.02778 11.6378 7.0327 11.0979 6.62653C10.1901 5.9436 8.9777 5.73484 7.88613 6.0871C5.93552 6.71549 5.00907 8.9246 5.73863 11.2033C6.32768 13.0359 7.96154 14.7851 9.64599 16.1534C10.4622 16.8165 11.239 17.3493 11.8114 17.7158C11.8763 17.7573 11.9384 17.7966 11.9975 17.8337C12.0591 17.7949 12.1239 17.7537 12.1917 17.7101C12.7684 17.3392 13.5501 16.8012 14.3698 16.1345C16.0647 14.7557 17.6916 13.0098 18.2572 11.2115L18.2594 11.2043C18.9876 8.92871 18.0592 6.71724 16.1062 6.08757Z" fill="#F8FAFC"/>
</svg>
