<svg width="24" height="24" viewBox="0 0 24 24" fill="none" xmlns="http://www.w3.org/2000/svg">
<rect width="24" height="24" fill="none"/>
<path d="M12.2 13.8C15.16 13.8 17.58 11.38 17.58 8.40002C17.58 5.42002 15.16 3.00002 12.2 3.00002C9.24 3.00002 6.82 5.42002 6.82 8.40002C6.82 11.38 9.24 13.8 12.2 13.8ZM12.2 4.58C14.28 4.58 15.98 6.28 15.98 8.38C15.98 10.48 14.28 12.18 12.2 12.18C10.12 12.18 8.42 10.48 8.42 8.38C8.42 6.28 10.12 4.58 12.2 4.58ZM14.7 14.32C14.44 14.24 14.14 14.3 13.94 14.48L12.2 15.96L10.46 14.48C10.24 14.3 9.96 14.24 9.7 14.32C8.58 14.68 3 16.6 3 19.38C3 19.82 3.36 20.18 3.8 20.18H20.6C21.04 20.18 21.4 19.82 21.4 19.38C21.4 16.6 15.82 14.68 14.7 14.32ZM5.02 18.58C5.9 17.64 8.02 16.6 9.78 16L11.68 17.62C11.98 17.88 12.42 17.88 12.72 17.62L14.62 16C16.38 16.62 18.5 17.66 19.38 18.58H5.02Z" fill="#F8FAFC"/>
</svg>
